solid OpenSCAD_Model
  facet normal 1 -0 0
    outer loop
      vertex -109.3 22.9 7.5
      vertex -109.3 27.9 2.5
      vertex -109.3 27.9 7.5
    endloop
  endfacet
  facet normal 1 0 0
    outer loop
      vertex -109.3 27.9 2.5
      vertex -109.3 22.9 7.5
      vertex -109.3 22.9 2.5
    endloop
  endfacet
  facet normal -0 0 1
    outer loop
      vertex -114.3 27.9 7.5
      vertex -109.3 22.9 7.5
      vertex -109.3 27.9 7.5
    endloop
  endfacet
  facet normal 0 0 1
    outer loop
      vertex -109.3 22.9 7.5
      vertex -114.3 27.9 7.5
      vertex -114.3 22.9 7.5
    endloop
  endfacet
  facet normal 0 0 1
    outer loop
      vertex 114.3 35.921 2.5
      vertex 109.3 27.9 2.5
      vertex 114.3 27.9 2.5
    endloop
  endfacet
  facet normal 0 0 1
    outer loop
      vertex 91.079 12.7 2.5
      vertex 109.3 22.9 2.5
      vertex 109.3 27.9 2.5
    endloop
  endfacet
  facet normal 0 0 1
    outer loop
      vertex 104.3 5 2.5
      vertex 91.079 12.7 2.5
      vertex 104.3 -5 2.5
    endloop
  endfacet
  facet normal 0 0 1
    outer loop
      vertex 109.3 22.9 2.5
      vertex 91.079 12.7 2.5
      vertex 104.3 5 2.5
    endloop
  endfacet
  facet normal 0 0 1
    outer loop
      vertex 91.079 12.7 2.5
      vertex 109.3 27.9 2.5
      vertex 114.3 35.921 2.5
    endloop
  endfacet
  facet normal -0 0 1
    outer loop
      vertex 109.3 22.9 2.5
      vertex 114.3 5 2.5
      vertex 114.3 22.9 2.5
    endloop
  endfacet
  facet normal 0 0 1
    outer loop
      vertex 114.3 5 2.5
      vertex 109.3 22.9 2.5
      vertex 104.3 5 2.5
    endloop
  endfacet
  facet normal 0 0 1
    outer loop
      vertex 114.3 -5 2.5
      vertex 109.3 -22.9 2.5
      vertex 114.3 -22.9 2.5
    endloop
  endfacet
  facet normal -0 0 1
    outer loop
      vertex 91.079 -12.7 2.5
      vertex 109.3 -22.9 2.5
      vertex 104.3 -5 2.5
    endloop
  endfacet
  facet normal -0 0 1
    outer loop
      vertex 104.3 -5 2.5
      vertex 109.3 -22.9 2.5
      vertex 114.3 -5 2.5
    endloop
  endfacet
  facet normal -0 0 1
    outer loop
      vertex 109.3 -27.9 2.5
      vertex 114.3 -35.921 2.5
      vertex 114.3 -27.9 2.5
    endloop
  endfacet
  facet normal 0 0 1
    outer loop
      vertex 91.079 -12.7 2.5
      vertex 104.3 -5 2.5
      vertex 91.079 12.7 2.5
    endloop
  endfacet
  facet normal 0 0 1
    outer loop
      vertex 109.3 -27.9 2.5
      vertex 91.079 -12.7 2.5
      vertex 114.3 -35.921 2.5
    endloop
  endfacet
  facet normal 0 0 1
    outer loop
      vertex 109.3 -22.9 2.5
      vertex 91.079 -12.7 2.5
      vertex 109.3 -27.9 2.5
    endloop
  endfacet
  facet normal -0 0 1
    outer loop
      vertex -91.079 12.7 2.5
      vertex 91.079 -12.7 2.5
      vertex 91.079 12.7 2.5
    endloop
  endfacet
  facet normal 0 0 1
    outer loop
      vertex -91.079 12.7 2.5
      vertex -91.079 -12.7 2.5
      vertex 91.079 -12.7 2.5
    endloop
  endfacet
  facet normal 0 0 1
    outer loop
      vertex -91.079 12.7 2.5
      vertex -104.3 5 2.5
      vertex -91.079 -12.7 2.5
    endloop
  endfacet
  facet normal -0 0 1
    outer loop
      vertex -109.3 22.9 2.5
      vertex -91.079 12.7 2.5
      vertex -109.3 27.9 2.5
    endloop
  endfacet
  facet normal 0 0 1
    outer loop
      vertex -114.3 35.921 2.5
      vertex -109.3 27.9 2.5
      vertex -91.079 12.7 2.5
    endloop
  endfacet
  facet normal 0 0 1
    outer loop
      vertex -109.3 27.9 2.5
      vertex -114.3 35.921 2.5
      vertex -114.3 27.9 2.5
    endloop
  endfacet
  facet normal -0 0 1
    outer loop
      vertex -114.3 -5 2.5
      vertex -109.3 -22.9 2.5
      vertex -104.3 -5 2.5
    endloop
  endfacet
  facet normal 0 0 1
    outer loop
      vertex -109.3 -22.9 2.5
      vertex -114.3 -5 2.5
      vertex -114.3 -22.9 2.5
    endloop
  endfacet
  facet normal -0 0 1
    outer loop
      vertex -104.3 -5 2.5
      vertex -91.079 -12.7 2.5
      vertex -104.3 5 2.5
    endloop
  endfacet
  facet normal 0 0 1
    outer loop
      vertex -109.3 -22.9 2.5
      vertex -91.079 -12.7 2.5
      vertex -104.3 -5 2.5
    endloop
  endfacet
  facet normal 0 0 1
    outer loop
      vertex -109.3 -27.9 2.5
      vertex -91.079 -12.7 2.5
      vertex -109.3 -22.9 2.5
    endloop
  endfacet
  facet normal -0 0 1
    outer loop
      vertex -109.3 -27.9 2.5
      vertex -114.3 -35.921 2.5
      vertex -91.079 -12.7 2.5
    endloop
  endfacet
  facet normal 0 0 1
    outer loop
      vertex -114.3 -35.921 2.5
      vertex -109.3 -27.9 2.5
      vertex -114.3 -27.9 2.5
    endloop
  endfacet
  facet normal 0 0 1
    outer loop
      vertex -91.079 12.7 2.5
      vertex -109.3 22.9 2.5
      vertex -104.3 5 2.5
    endloop
  endfacet
  facet normal 0 0 1
    outer loop
      vertex -114.3 5 2.5
      vertex -109.3 22.9 2.5
      vertex -114.3 22.9 2.5
    endloop
  endfacet
  facet normal 0 0 1
    outer loop
      vertex -109.3 22.9 2.5
      vertex -114.3 5 2.5
      vertex -104.3 5 2.5
    endloop
  endfacet
  facet normal -1 0 0
    outer loop
      vertex -114.3 35.921 -2.5
      vertex -114.3 27.9 2.5
      vertex -114.3 35.921 2.5
    endloop
  endfacet
  facet normal -1 0 0
    outer loop
      vertex -114.3 27.9 2.5
      vertex -114.3 22.9 2.5
      vertex -114.3 27.9 7.5
    endloop
  endfacet
  facet normal -1 0 0
    outer loop
      vertex -114.3 35.921 -2.5
      vertex -114.3 22.9 2.5
      vertex -114.3 27.9 2.5
    endloop
  endfacet
  facet normal -1 0 0
    outer loop
      vertex -114.3 35.921 -2.5
      vertex -114.3 5 2.5
      vertex -114.3 22.9 2.5
    endloop
  endfacet
  facet normal -1 0 0
    outer loop
      vertex -114.3 5 2.5
      vertex -114.3 -5 2.5
      vertex -114.3 5 12.5
    endloop
  endfacet
  facet normal -1 0 0
    outer loop
      vertex -114.3 35.921 -2.5
      vertex -114.3 -5 2.5
      vertex -114.3 5 2.5
    endloop
  endfacet
  facet normal -1 0 0
    outer loop
      vertex -114.3 -35.921 -2.5
      vertex -114.3 -5 2.5
      vertex -114.3 35.921 -2.5
    endloop
  endfacet
  facet normal -1 0 0
    outer loop
      vertex -114.3 -22.9 2.5
      vertex -114.3 -27.9 2.5
      vertex -114.3 -22.9 7.5
    endloop
  endfacet
  facet normal -1 -0 0
    outer loop
      vertex -114.3 -5 2.5
      vertex -114.3 -35.921 -2.5
      vertex -114.3 -22.9 2.5
    endloop
  endfacet
  facet normal -1 -0 0
    outer loop
      vertex -114.3 -22.9 2.5
      vertex -114.3 -35.921 -2.5
      vertex -114.3 -27.9 2.5
    endloop
  endfacet
  facet normal -1 -0 0
    outer loop
      vertex -114.3 -27.9 2.5
      vertex -114.3 -35.921 -2.5
      vertex -114.3 -35.921 2.5
    endloop
  endfacet
  facet normal -1 -0 0
    outer loop
      vertex -114.3 27.9 7.5
      vertex -114.3 22.9 2.5
      vertex -114.3 22.9 7.5
    endloop
  endfacet
  facet normal -1 -0 0
    outer loop
      vertex -114.3 5 12.5
      vertex -114.3 -5 2.5
      vertex -114.3 -5 12.5
    endloop
  endfacet
  facet normal -1 -0 0
    outer loop
      vertex -114.3 -22.9 7.5
      vertex -114.3 -27.9 2.5
      vertex -114.3 -27.9 7.5
    endloop
  endfacet
  facet normal 0 1 -0
    outer loop
      vertex -109.3 27.9 2.5
      vertex -114.3 27.9 7.5
      vertex -109.3 27.9 7.5
    endloop
  endfacet
  facet normal 0 1 0
    outer loop
      vertex -114.3 27.9 7.5
      vertex -109.3 27.9 2.5
      vertex -114.3 27.9 2.5
    endloop
  endfacet
  facet normal 0 -1 0
    outer loop
      vertex -114.3 22.9 2.5
      vertex -109.3 22.9 7.5
      vertex -114.3 22.9 7.5
    endloop
  endfacet
  facet normal 0 -1 -0
    outer loop
      vertex -109.3 22.9 7.5
      vertex -114.3 22.9 2.5
      vertex -109.3 22.9 2.5
    endloop
  endfacet
  facet normal 1 -0 0
    outer loop
      vertex -109.3 -27.9 7.5
      vertex -109.3 -22.9 2.5
      vertex -109.3 -22.9 7.5
    endloop
  endfacet
  facet normal 1 0 0
    outer loop
      vertex -109.3 -22.9 2.5
      vertex -109.3 -27.9 7.5
      vertex -109.3 -27.9 2.5
    endloop
  endfacet
  facet normal -0 0 1
    outer loop
      vertex -114.3 -22.9 7.5
      vertex -109.3 -27.9 7.5
      vertex -109.3 -22.9 7.5
    endloop
  endfacet
  facet normal 0 0 1
    outer loop
      vertex -109.3 -27.9 7.5
      vertex -114.3 -22.9 7.5
      vertex -114.3 -27.9 7.5
    endloop
  endfacet
  facet normal 0 1 -0
    outer loop
      vertex -109.3 -22.9 2.5
      vertex -114.3 -22.9 7.5
      vertex -109.3 -22.9 7.5
    endloop
  endfacet
  facet normal 0 1 0
    outer loop
      vertex -114.3 -22.9 7.5
      vertex -109.3 -22.9 2.5
      vertex -114.3 -22.9 2.5
    endloop
  endfacet
  facet normal 0 -1 0
    outer loop
      vertex -114.3 -27.9 2.5
      vertex -109.3 -27.9 7.5
      vertex -114.3 -27.9 7.5
    endloop
  endfacet
  facet normal 0 -1 -0
    outer loop
      vertex -109.3 -27.9 7.5
      vertex -114.3 -27.9 2.5
      vertex -109.3 -27.9 2.5
    endloop
  endfacet
  facet normal 1 -0 0
    outer loop
      vertex -104.3 -5 12.5
      vertex -104.3 5 2.5
      vertex -104.3 5 12.5
    endloop
  endfacet
  facet normal 1 0 0
    outer loop
      vertex -104.3 5 2.5
      vertex -104.3 -5 12.5
      vertex -104.3 -5 2.5
    endloop
  endfacet
  facet normal -0 0 1
    outer loop
      vertex -114.3 5 12.5
      vertex -104.3 -5 12.5
      vertex -104.3 5 12.5
    endloop
  endfacet
  facet normal 0 0 1
    outer loop
      vertex -104.3 -5 12.5
      vertex -114.3 5 12.5
      vertex -114.3 -5 12.5
    endloop
  endfacet
  facet normal 0 1 -0
    outer loop
      vertex -104.3 5 2.5
      vertex -114.3 5 12.5
      vertex -104.3 5 12.5
    endloop
  endfacet
  facet normal 0 1 0
    outer loop
      vertex -114.3 5 12.5
      vertex -104.3 5 2.5
      vertex -114.3 5 2.5
    endloop
  endfacet
  facet normal 0 -1 0
    outer loop
      vertex -114.3 -5 2.5
      vertex -104.3 -5 12.5
      vertex -114.3 -5 12.5
    endloop
  endfacet
  facet normal 0 -1 -0
    outer loop
      vertex -104.3 -5 12.5
      vertex -114.3 -5 2.5
      vertex -104.3 -5 2.5
    endloop
  endfacet
  facet normal 0 0 -1
    outer loop
      vertex 91.079 -12.7 -2.5
      vertex 114.3 35.921 -2.5
      vertex 114.3 -35.921 -2.5
    endloop
  endfacet
  facet normal 0 0 -1
    outer loop
      vertex 91.079 -12.7 -2.5
      vertex 91.079 12.7 -2.5
      vertex 114.3 35.921 -2.5
    endloop
  endfacet
  facet normal 0 0 -1
    outer loop
      vertex -91.079 -12.7 -2.5
      vertex 91.079 12.7 -2.5
      vertex 91.079 -12.7 -2.5
    endloop
  endfacet
  facet normal 0 0 -1
    outer loop
      vertex -91.079 -12.7 -2.5
      vertex -91.079 12.7 -2.5
      vertex 91.079 12.7 -2.5
    endloop
  endfacet
  facet normal 0 0 -1
    outer loop
      vertex -114.3 -35.921 -2.5
      vertex -91.079 12.7 -2.5
      vertex -91.079 -12.7 -2.5
    endloop
  endfacet
  facet normal -0 0 -1
    outer loop
      vertex -91.079 12.7 -2.5
      vertex -114.3 -35.921 -2.5
      vertex -114.3 35.921 -2.5
    endloop
  endfacet
  facet normal 0.707107 -0.707107 0
    outer loop
      vertex -114.3 -35.921 -2.5
      vertex -91.079 -12.7 2.5
      vertex -114.3 -35.921 2.5
    endloop
  endfacet
  facet normal 0.707107 -0.707107 0
    outer loop
      vertex -91.079 -12.7 2.5
      vertex -114.3 -35.921 -2.5
      vertex -91.079 -12.7 -2.5
    endloop
  endfacet
  facet normal 0.707107 0.707107 -0
    outer loop
      vertex -91.079 12.7 -2.5
      vertex -114.3 35.921 2.5
      vertex -91.079 12.7 2.5
    endloop
  endfacet
  facet normal 0.707107 0.707107 0
    outer loop
      vertex -114.3 35.921 2.5
      vertex -91.079 12.7 -2.5
      vertex -114.3 35.921 -2.5
    endloop
  endfacet
  facet normal -1 0 0
    outer loop
      vertex 109.3 22.9 2.5
      vertex 109.3 27.9 7.5
      vertex 109.3 27.9 2.5
    endloop
  endfacet
  facet normal -1 -0 0
    outer loop
      vertex 109.3 27.9 7.5
      vertex 109.3 22.9 2.5
      vertex 109.3 22.9 7.5
    endloop
  endfacet
  facet normal -0 0 1
    outer loop
      vertex 109.3 27.9 7.5
      vertex 114.3 22.9 7.5
      vertex 114.3 27.9 7.5
    endloop
  endfacet
  facet normal 0 0 1
    outer loop
      vertex 114.3 22.9 7.5
      vertex 109.3 27.9 7.5
      vertex 109.3 22.9 7.5
    endloop
  endfacet
  facet normal 1 0 0
    outer loop
      vertex 114.3 -22.9 7.5
      vertex 114.3 -27.9 7.5
      vertex 114.3 -22.9 2.5
    endloop
  endfacet
  facet normal 1 0 0
    outer loop
      vertex 114.3 5 12.5
      vertex 114.3 -5 12.5
      vertex 114.3 5 2.5
    endloop
  endfacet
  facet normal 1 0 0
    outer loop
      vertex 114.3 27.9 7.5
      vertex 114.3 22.9 7.5
      vertex 114.3 27.9 2.5
    endloop
  endfacet
  facet normal 1 -0 0
    outer loop
      vertex 114.3 27.9 2.5
      vertex 114.3 35.921 -2.5
      vertex 114.3 35.921 2.5
    endloop
  endfacet
  facet normal 1 0 0
    outer loop
      vertex 114.3 22.9 2.5
      vertex 114.3 27.9 2.5
      vertex 114.3 22.9 7.5
    endloop
  endfacet
  facet normal 1 -0 0
    outer loop
      vertex 114.3 22.9 2.5
      vertex 114.3 35.921 -2.5
      vertex 114.3 27.9 2.5
    endloop
  endfacet
  facet normal 1 -0 0
    outer loop
      vertex 114.3 5 2.5
      vertex 114.3 35.921 -2.5
      vertex 114.3 22.9 2.5
    endloop
  endfacet
  facet normal 1 0 0
    outer loop
      vertex 114.3 -5 2.5
      vertex 114.3 5 2.5
      vertex 114.3 -5 12.5
    endloop
  endfacet
  facet normal 1 -0 0
    outer loop
      vertex 114.3 -5 2.5
      vertex 114.3 35.921 -2.5
      vertex 114.3 5 2.5
    endloop
  endfacet
  facet normal 1 0 0
    outer loop
      vertex 114.3 -35.921 -2.5
      vertex 114.3 -5 2.5
      vertex 114.3 -22.9 2.5
    endloop
  endfacet
  facet normal 1 0 0
    outer loop
      vertex 114.3 -27.9 2.5
      vertex 114.3 -22.9 2.5
      vertex 114.3 -27.9 7.5
    endloop
  endfacet
  facet normal 1 0 0
    outer loop
      vertex 114.3 -35.921 -2.5
      vertex 114.3 -22.9 2.5
      vertex 114.3 -27.9 2.5
    endloop
  endfacet
  facet normal 1 0 0
    outer loop
      vertex 114.3 -35.921 -2.5
      vertex 114.3 -27.9 2.5
      vertex 114.3 -35.921 2.5
    endloop
  endfacet
  facet normal 1 0 0
    outer loop
      vertex 114.3 -5 2.5
      vertex 114.3 -35.921 -2.5
      vertex 114.3 35.921 -2.5
    endloop
  endfacet
  facet normal 0 1 -0
    outer loop
      vertex 114.3 27.9 2.5
      vertex 109.3 27.9 7.5
      vertex 114.3 27.9 7.5
    endloop
  endfacet
  facet normal 0 1 0
    outer loop
      vertex 109.3 27.9 7.5
      vertex 114.3 27.9 2.5
      vertex 109.3 27.9 2.5
    endloop
  endfacet
  facet normal 0 -1 0
    outer loop
      vertex 109.3 22.9 2.5
      vertex 114.3 22.9 7.5
      vertex 109.3 22.9 7.5
    endloop
  endfacet
  facet normal 0 -1 -0
    outer loop
      vertex 114.3 22.9 7.5
      vertex 109.3 22.9 2.5
      vertex 114.3 22.9 2.5
    endloop
  endfacet
  facet normal -1 0 0
    outer loop
      vertex 109.3 -27.9 2.5
      vertex 109.3 -22.9 7.5
      vertex 109.3 -22.9 2.5
    endloop
  endfacet
  facet normal -1 -0 0
    outer loop
      vertex 109.3 -22.9 7.5
      vertex 109.3 -27.9 2.5
      vertex 109.3 -27.9 7.5
    endloop
  endfacet
  facet normal -0 0 1
    outer loop
      vertex 109.3 -22.9 7.5
      vertex 114.3 -27.9 7.5
      vertex 114.3 -22.9 7.5
    endloop
  endfacet
  facet normal 0 0 1
    outer loop
      vertex 114.3 -27.9 7.5
      vertex 109.3 -22.9 7.5
      vertex 109.3 -27.9 7.5
    endloop
  endfacet
  facet normal 0 1 -0
    outer loop
      vertex 114.3 -22.9 2.5
      vertex 109.3 -22.9 7.5
      vertex 114.3 -22.9 7.5
    endloop
  endfacet
  facet normal 0 1 0
    outer loop
      vertex 109.3 -22.9 7.5
      vertex 114.3 -22.9 2.5
      vertex 109.3 -22.9 2.5
    endloop
  endfacet
  facet normal 0 -1 0
    outer loop
      vertex 109.3 -27.9 2.5
      vertex 114.3 -27.9 7.5
      vertex 109.3 -27.9 7.5
    endloop
  endfacet
  facet normal 0 -1 -0
    outer loop
      vertex 114.3 -27.9 7.5
      vertex 109.3 -27.9 2.5
      vertex 114.3 -27.9 2.5
    endloop
  endfacet
  facet normal -1 0 0
    outer loop
      vertex 104.3 -5 2.5
      vertex 104.3 5 12.5
      vertex 104.3 5 2.5
    endloop
  endfacet
  facet normal -1 -0 0
    outer loop
      vertex 104.3 5 12.5
      vertex 104.3 -5 2.5
      vertex 104.3 -5 12.5
    endloop
  endfacet
  facet normal -0 0 1
    outer loop
      vertex 104.3 5 12.5
      vertex 114.3 -5 12.5
      vertex 114.3 5 12.5
    endloop
  endfacet
  facet normal 0 0 1
    outer loop
      vertex 114.3 -5 12.5
      vertex 104.3 5 12.5
      vertex 104.3 -5 12.5
    endloop
  endfacet
  facet normal 0 1 -0
    outer loop
      vertex 114.3 5 2.5
      vertex 104.3 5 12.5
      vertex 114.3 5 12.5
    endloop
  endfacet
  facet normal 0 1 0
    outer loop
      vertex 104.3 5 12.5
      vertex 114.3 5 2.5
      vertex 104.3 5 2.5
    endloop
  endfacet
  facet normal 0 -1 0
    outer loop
      vertex 104.3 -5 2.5
      vertex 114.3 -5 12.5
      vertex 104.3 -5 12.5
    endloop
  endfacet
  facet normal 0 -1 -0
    outer loop
      vertex 114.3 -5 12.5
      vertex 104.3 -5 2.5
      vertex 114.3 -5 2.5
    endloop
  endfacet
  facet normal -0.707107 -0.707107 0
    outer loop
      vertex 91.079 -12.7 -2.5
      vertex 114.3 -35.921 2.5
      vertex 91.079 -12.7 2.5
    endloop
  endfacet
  facet normal -0.707107 -0.707107 -0
    outer loop
      vertex 114.3 -35.921 2.5
      vertex 91.079 -12.7 -2.5
      vertex 114.3 -35.921 -2.5
    endloop
  endfacet
  facet normal -0.707107 0.707107 0
    outer loop
      vertex 114.3 35.921 -2.5
      vertex 91.079 12.7 2.5
      vertex 114.3 35.921 2.5
    endloop
  endfacet
  facet normal -0.707107 0.707107 0
    outer loop
      vertex 91.079 12.7 2.5
      vertex 114.3 35.921 -2.5
      vertex 91.079 12.7 -2.5
    endloop
  endfacet
  facet normal 0 1 -0
    outer loop
      vertex 91.079 12.7 -2.5
      vertex -91.079 12.7 2.5
      vertex 91.079 12.7 2.5
    endloop
  endfacet
  facet normal 0 1 0
    outer loop
      vertex -91.079 12.7 2.5
      vertex 91.079 12.7 -2.5
      vertex -91.079 12.7 -2.5
    endloop
  endfacet
  facet normal 0 -1 0
    outer loop
      vertex -91.079 -12.7 -2.5
      vertex 91.079 -12.7 2.5
      vertex -91.079 -12.7 2.5
    endloop
  endfacet
  facet normal 0 -1 -0
    outer loop
      vertex 91.079 -12.7 2.5
      vertex -91.079 -12.7 -2.5
      vertex 91.079 -12.7 -2.5
    endloop
  endfacet
endsolid OpenSCAD_Model
