solid OpenSCAD_Model
  facet normal 1 -0 0
    outer loop
      vertex -111.8 24.15 3.75
      vertex -111.8 26.65 1.25
      vertex -111.8 26.65 3.75
    endloop
  endfacet
  facet normal 1 0 0
    outer loop
      vertex -111.8 26.65 1.25
      vertex -111.8 24.15 3.75
      vertex -111.8 24.15 1.25
    endloop
  endfacet
  facet normal -0 0 1
    outer loop
      vertex -114.3 26.65 3.75
      vertex -111.8 24.15 3.75
      vertex -111.8 26.65 3.75
    endloop
  endfacet
  facet normal 0 0 1
    outer loop
      vertex -111.8 24.15 3.75
      vertex -114.3 26.65 3.75
      vertex -114.3 24.15 3.75
    endloop
  endfacet
  facet normal 0 0 1
    outer loop
      vertex 114.3 35.921 1.25
      vertex 111.8 26.65 1.25
      vertex 114.3 26.65 1.25
    endloop
  endfacet
  facet normal 0 0 1
    outer loop
      vertex 91.079 12.7 1.25
      vertex 111.8 24.15 1.25
      vertex 111.8 26.65 1.25
    endloop
  endfacet
  facet normal 0 0 1
    outer loop
      vertex 109.3 2.5 1.25
      vertex 91.079 12.7 1.25
      vertex 109.3 -2.5 1.25
    endloop
  endfacet
  facet normal 0 0 1
    outer loop
      vertex 111.8 24.15 1.25
      vertex 91.079 12.7 1.25
      vertex 109.3 2.5 1.25
    endloop
  endfacet
  facet normal 0 0 1
    outer loop
      vertex 91.079 12.7 1.25
      vertex 111.8 26.65 1.25
      vertex 114.3 35.921 1.25
    endloop
  endfacet
  facet normal -0 0 1
    outer loop
      vertex 111.8 24.15 1.25
      vertex 114.3 2.5 1.25
      vertex 114.3 24.15 1.25
    endloop
  endfacet
  facet normal 0 0 1
    outer loop
      vertex 114.3 2.5 1.25
      vertex 111.8 24.15 1.25
      vertex 109.3 2.5 1.25
    endloop
  endfacet
  facet normal 0 0 1
    outer loop
      vertex 114.3 -2.5 1.25
      vertex 111.8 -24.15 1.25
      vertex 114.3 -24.15 1.25
    endloop
  endfacet
  facet normal -0 0 1
    outer loop
      vertex 91.079 -12.7 1.25
      vertex 111.8 -24.15 1.25
      vertex 109.3 -2.5 1.25
    endloop
  endfacet
  facet normal -0 0 1
    outer loop
      vertex 109.3 -2.5 1.25
      vertex 111.8 -24.15 1.25
      vertex 114.3 -2.5 1.25
    endloop
  endfacet
  facet normal -0 0 1
    outer loop
      vertex 111.8 -26.65 1.25
      vertex 114.3 -35.921 1.25
      vertex 114.3 -26.65 1.25
    endloop
  endfacet
  facet normal 0 0 1
    outer loop
      vertex 91.079 -12.7 1.25
      vertex 109.3 -2.5 1.25
      vertex 91.079 12.7 1.25
    endloop
  endfacet
  facet normal 0 0 1
    outer loop
      vertex 111.8 -24.15 1.25
      vertex 91.079 -12.7 1.25
      vertex 111.8 -26.65 1.25
    endloop
  endfacet
  facet normal 0 0 1
    outer loop
      vertex 111.8 -26.65 1.25
      vertex 91.079 -12.7 1.25
      vertex 114.3 -35.921 1.25
    endloop
  endfacet
  facet normal -0 0 1
    outer loop
      vertex -91.079 12.7 1.25
      vertex 91.079 -12.7 1.25
      vertex 91.079 12.7 1.25
    endloop
  endfacet
  facet normal 0 0 1
    outer loop
      vertex -91.079 12.7 1.25
      vertex -91.079 -12.7 1.25
      vertex 91.079 -12.7 1.25
    endloop
  endfacet
  facet normal 0 0 1
    outer loop
      vertex -91.079 12.7 1.25
      vertex -109.3 2.5 1.25
      vertex -91.079 -12.7 1.25
    endloop
  endfacet
  facet normal -0 0 1
    outer loop
      vertex -111.8 24.15 1.25
      vertex -91.079 12.7 1.25
      vertex -111.8 26.65 1.25
    endloop
  endfacet
  facet normal 0 0 1
    outer loop
      vertex -114.3 35.921 1.25
      vertex -111.8 26.65 1.25
      vertex -91.079 12.7 1.25
    endloop
  endfacet
  facet normal 0 0 1
    outer loop
      vertex -111.8 26.65 1.25
      vertex -114.3 35.921 1.25
      vertex -114.3 26.65 1.25
    endloop
  endfacet
  facet normal -0 0 1
    outer loop
      vertex -114.3 -2.5 1.25
      vertex -111.8 -24.15 1.25
      vertex -109.3 -2.5 1.25
    endloop
  endfacet
  facet normal 0 0 1
    outer loop
      vertex -111.8 -24.15 1.25
      vertex -114.3 -2.5 1.25
      vertex -114.3 -24.15 1.25
    endloop
  endfacet
  facet normal -0 0 1
    outer loop
      vertex -109.3 -2.5 1.25
      vertex -91.079 -12.7 1.25
      vertex -109.3 2.5 1.25
    endloop
  endfacet
  facet normal 0 0 1
    outer loop
      vertex -111.8 -24.15 1.25
      vertex -91.079 -12.7 1.25
      vertex -109.3 -2.5 1.25
    endloop
  endfacet
  facet normal 0 0 1
    outer loop
      vertex -111.8 -26.65 1.25
      vertex -91.079 -12.7 1.25
      vertex -111.8 -24.15 1.25
    endloop
  endfacet
  facet normal -0 0 1
    outer loop
      vertex -111.8 -26.65 1.25
      vertex -114.3 -35.921 1.25
      vertex -91.079 -12.7 1.25
    endloop
  endfacet
  facet normal 0 0 1
    outer loop
      vertex -114.3 -35.921 1.25
      vertex -111.8 -26.65 1.25
      vertex -114.3 -26.65 1.25
    endloop
  endfacet
  facet normal 0 0 1
    outer loop
      vertex -91.079 12.7 1.25
      vertex -111.8 24.15 1.25
      vertex -109.3 2.5 1.25
    endloop
  endfacet
  facet normal 0 0 1
    outer loop
      vertex -114.3 2.5 1.25
      vertex -111.8 24.15 1.25
      vertex -114.3 24.15 1.25
    endloop
  endfacet
  facet normal 0 0 1
    outer loop
      vertex -111.8 24.15 1.25
      vertex -114.3 2.5 1.25
      vertex -109.3 2.5 1.25
    endloop
  endfacet
  facet normal -1 0 0
    outer loop
      vertex -114.3 35.921 -1.25
      vertex -114.3 26.65 1.25
      vertex -114.3 35.921 1.25
    endloop
  endfacet
  facet normal -1 0 0
    outer loop
      vertex -114.3 26.65 1.25
      vertex -114.3 24.15 1.25
      vertex -114.3 26.65 3.75
    endloop
  endfacet
  facet normal -1 0 0
    outer loop
      vertex -114.3 35.921 -1.25
      vertex -114.3 24.15 1.25
      vertex -114.3 26.65 1.25
    endloop
  endfacet
  facet normal -1 0 0
    outer loop
      vertex -114.3 35.921 -1.25
      vertex -114.3 2.5 1.25
      vertex -114.3 24.15 1.25
    endloop
  endfacet
  facet normal -1 0 0
    outer loop
      vertex -114.3 2.5 1.25
      vertex -114.3 -2.5 1.25
      vertex -114.3 2.5 6.25
    endloop
  endfacet
  facet normal -1 0 0
    outer loop
      vertex -114.3 35.921 -1.25
      vertex -114.3 -2.5 1.25
      vertex -114.3 2.5 1.25
    endloop
  endfacet
  facet normal -1 0 0
    outer loop
      vertex -114.3 -35.921 -1.25
      vertex -114.3 -2.5 1.25
      vertex -114.3 35.921 -1.25
    endloop
  endfacet
  facet normal -1 0 0
    outer loop
      vertex -114.3 -24.15 1.25
      vertex -114.3 -26.65 1.25
      vertex -114.3 -24.15 3.75
    endloop
  endfacet
  facet normal -1 -0 0
    outer loop
      vertex -114.3 -2.5 1.25
      vertex -114.3 -35.921 -1.25
      vertex -114.3 -24.15 1.25
    endloop
  endfacet
  facet normal -1 -0 0
    outer loop
      vertex -114.3 -24.15 1.25
      vertex -114.3 -35.921 -1.25
      vertex -114.3 -26.65 1.25
    endloop
  endfacet
  facet normal -1 -0 0
    outer loop
      vertex -114.3 -26.65 1.25
      vertex -114.3 -35.921 -1.25
      vertex -114.3 -35.921 1.25
    endloop
  endfacet
  facet normal -1 -0 0
    outer loop
      vertex -114.3 26.65 3.75
      vertex -114.3 24.15 1.25
      vertex -114.3 24.15 3.75
    endloop
  endfacet
  facet normal -1 -0 0
    outer loop
      vertex -114.3 2.5 6.25
      vertex -114.3 -2.5 1.25
      vertex -114.3 -2.5 6.25
    endloop
  endfacet
  facet normal -1 -0 0
    outer loop
      vertex -114.3 -24.15 3.75
      vertex -114.3 -26.65 1.25
      vertex -114.3 -26.65 3.75
    endloop
  endfacet
  facet normal 0 1 -0
    outer loop
      vertex -111.8 26.65 1.25
      vertex -114.3 26.65 3.75
      vertex -111.8 26.65 3.75
    endloop
  endfacet
  facet normal 0 1 0
    outer loop
      vertex -114.3 26.65 3.75
      vertex -111.8 26.65 1.25
      vertex -114.3 26.65 1.25
    endloop
  endfacet
  facet normal 0 -1 0
    outer loop
      vertex -114.3 24.15 1.25
      vertex -111.8 24.15 3.75
      vertex -114.3 24.15 3.75
    endloop
  endfacet
  facet normal 0 -1 -0
    outer loop
      vertex -111.8 24.15 3.75
      vertex -114.3 24.15 1.25
      vertex -111.8 24.15 1.25
    endloop
  endfacet
  facet normal 1 -0 0
    outer loop
      vertex -111.8 -26.65 3.75
      vertex -111.8 -24.15 1.25
      vertex -111.8 -24.15 3.75
    endloop
  endfacet
  facet normal 1 0 0
    outer loop
      vertex -111.8 -24.15 1.25
      vertex -111.8 -26.65 3.75
      vertex -111.8 -26.65 1.25
    endloop
  endfacet
  facet normal -0 0 1
    outer loop
      vertex -114.3 -24.15 3.75
      vertex -111.8 -26.65 3.75
      vertex -111.8 -24.15 3.75
    endloop
  endfacet
  facet normal 0 0 1
    outer loop
      vertex -111.8 -26.65 3.75
      vertex -114.3 -24.15 3.75
      vertex -114.3 -26.65 3.75
    endloop
  endfacet
  facet normal 0 1 -0
    outer loop
      vertex -111.8 -24.15 1.25
      vertex -114.3 -24.15 3.75
      vertex -111.8 -24.15 3.75
    endloop
  endfacet
  facet normal 0 1 0
    outer loop
      vertex -114.3 -24.15 3.75
      vertex -111.8 -24.15 1.25
      vertex -114.3 -24.15 1.25
    endloop
  endfacet
  facet normal 0 -1 0
    outer loop
      vertex -114.3 -26.65 1.25
      vertex -111.8 -26.65 3.75
      vertex -114.3 -26.65 3.75
    endloop
  endfacet
  facet normal 0 -1 -0
    outer loop
      vertex -111.8 -26.65 3.75
      vertex -114.3 -26.65 1.25
      vertex -111.8 -26.65 1.25
    endloop
  endfacet
  facet normal 1 -0 0
    outer loop
      vertex -109.3 -2.5 6.25
      vertex -109.3 2.5 1.25
      vertex -109.3 2.5 6.25
    endloop
  endfacet
  facet normal 1 0 0
    outer loop
      vertex -109.3 2.5 1.25
      vertex -109.3 -2.5 6.25
      vertex -109.3 -2.5 1.25
    endloop
  endfacet
  facet normal -0 0 1
    outer loop
      vertex -114.3 2.5 6.25
      vertex -109.3 -2.5 6.25
      vertex -109.3 2.5 6.25
    endloop
  endfacet
  facet normal 0 0 1
    outer loop
      vertex -109.3 -2.5 6.25
      vertex -114.3 2.5 6.25
      vertex -114.3 -2.5 6.25
    endloop
  endfacet
  facet normal 0 1 -0
    outer loop
      vertex -109.3 2.5 1.25
      vertex -114.3 2.5 6.25
      vertex -109.3 2.5 6.25
    endloop
  endfacet
  facet normal 0 1 0
    outer loop
      vertex -114.3 2.5 6.25
      vertex -109.3 2.5 1.25
      vertex -114.3 2.5 1.25
    endloop
  endfacet
  facet normal 0 -1 0
    outer loop
      vertex -114.3 -2.5 1.25
      vertex -109.3 -2.5 6.25
      vertex -114.3 -2.5 6.25
    endloop
  endfacet
  facet normal 0 -1 -0
    outer loop
      vertex -109.3 -2.5 6.25
      vertex -114.3 -2.5 1.25
      vertex -109.3 -2.5 1.25
    endloop
  endfacet
  facet normal 0 0 -1
    outer loop
      vertex 91.079 -12.7 -1.25
      vertex 114.3 35.921 -1.25
      vertex 114.3 -35.921 -1.25
    endloop
  endfacet
  facet normal 0 0 -1
    outer loop
      vertex 91.079 -12.7 -1.25
      vertex 91.079 12.7 -1.25
      vertex 114.3 35.921 -1.25
    endloop
  endfacet
  facet normal 0 0 -1
    outer loop
      vertex -91.079 -12.7 -1.25
      vertex 91.079 12.7 -1.25
      vertex 91.079 -12.7 -1.25
    endloop
  endfacet
  facet normal 0 0 -1
    outer loop
      vertex -91.079 -12.7 -1.25
      vertex -91.079 12.7 -1.25
      vertex 91.079 12.7 -1.25
    endloop
  endfacet
  facet normal 0 0 -1
    outer loop
      vertex -114.3 -35.921 -1.25
      vertex -91.079 12.7 -1.25
      vertex -91.079 -12.7 -1.25
    endloop
  endfacet
  facet normal -0 0 -1
    outer loop
      vertex -91.079 12.7 -1.25
      vertex -114.3 -35.921 -1.25
      vertex -114.3 35.921 -1.25
    endloop
  endfacet
  facet normal 0.707107 -0.707107 0
    outer loop
      vertex -114.3 -35.921 -1.25
      vertex -91.079 -12.7 1.25
      vertex -114.3 -35.921 1.25
    endloop
  endfacet
  facet normal 0.707107 -0.707107 0
    outer loop
      vertex -91.079 -12.7 1.25
      vertex -114.3 -35.921 -1.25
      vertex -91.079 -12.7 -1.25
    endloop
  endfacet
  facet normal 0.707107 0.707107 -0
    outer loop
      vertex -91.079 12.7 -1.25
      vertex -114.3 35.921 1.25
      vertex -91.079 12.7 1.25
    endloop
  endfacet
  facet normal 0.707107 0.707107 0
    outer loop
      vertex -114.3 35.921 1.25
      vertex -91.079 12.7 -1.25
      vertex -114.3 35.921 -1.25
    endloop
  endfacet
  facet normal -1 0 0
    outer loop
      vertex 111.8 24.15 1.25
      vertex 111.8 26.65 3.75
      vertex 111.8 26.65 1.25
    endloop
  endfacet
  facet normal -1 -0 0
    outer loop
      vertex 111.8 26.65 3.75
      vertex 111.8 24.15 1.25
      vertex 111.8 24.15 3.75
    endloop
  endfacet
  facet normal -0 0 1
    outer loop
      vertex 111.8 26.65 3.75
      vertex 114.3 24.15 3.75
      vertex 114.3 26.65 3.75
    endloop
  endfacet
  facet normal 0 0 1
    outer loop
      vertex 114.3 24.15 3.75
      vertex 111.8 26.65 3.75
      vertex 111.8 24.15 3.75
    endloop
  endfacet
  facet normal 1 0 0
    outer loop
      vertex 114.3 -24.15 3.75
      vertex 114.3 -26.65 3.75
      vertex 114.3 -24.15 1.25
    endloop
  endfacet
  facet normal 1 0 0
    outer loop
      vertex 114.3 2.5 6.25
      vertex 114.3 -2.5 6.25
      vertex 114.3 2.5 1.25
    endloop
  endfacet
  facet normal 1 0 0
    outer loop
      vertex 114.3 26.65 3.75
      vertex 114.3 24.15 3.75
      vertex 114.3 26.65 1.25
    endloop
  endfacet
  facet normal 1 -0 0
    outer loop
      vertex 114.3 26.65 1.25
      vertex 114.3 35.921 -1.25
      vertex 114.3 35.921 1.25
    endloop
  endfacet
  facet normal 1 0 0
    outer loop
      vertex 114.3 24.15 1.25
      vertex 114.3 26.65 1.25
      vertex 114.3 24.15 3.75
    endloop
  endfacet
  facet normal 1 -0 0
    outer loop
      vertex 114.3 24.15 1.25
      vertex 114.3 35.921 -1.25
      vertex 114.3 26.65 1.25
    endloop
  endfacet
  facet normal 1 -0 0
    outer loop
      vertex 114.3 2.5 1.25
      vertex 114.3 35.921 -1.25
      vertex 114.3 24.15 1.25
    endloop
  endfacet
  facet normal 1 0 0
    outer loop
      vertex 114.3 -2.5 1.25
      vertex 114.3 2.5 1.25
      vertex 114.3 -2.5 6.25
    endloop
  endfacet
  facet normal 1 -0 0
    outer loop
      vertex 114.3 -2.5 1.25
      vertex 114.3 35.921 -1.25
      vertex 114.3 2.5 1.25
    endloop
  endfacet
  facet normal 1 0 0
    outer loop
      vertex 114.3 -35.921 -1.25
      vertex 114.3 -2.5 1.25
      vertex 114.3 -24.15 1.25
    endloop
  endfacet
  facet normal 1 0 0
    outer loop
      vertex 114.3 -26.65 1.25
      vertex 114.3 -24.15 1.25
      vertex 114.3 -26.65 3.75
    endloop
  endfacet
  facet normal 1 0 0
    outer loop
      vertex 114.3 -35.921 -1.25
      vertex 114.3 -24.15 1.25
      vertex 114.3 -26.65 1.25
    endloop
  endfacet
  facet normal 1 0 0
    outer loop
      vertex 114.3 -35.921 -1.25
      vertex 114.3 -26.65 1.25
      vertex 114.3 -35.921 1.25
    endloop
  endfacet
  facet normal 1 0 0
    outer loop
      vertex 114.3 -2.5 1.25
      vertex 114.3 -35.921 -1.25
      vertex 114.3 35.921 -1.25
    endloop
  endfacet
  facet normal 0 1 -0
    outer loop
      vertex 114.3 26.65 1.25
      vertex 111.8 26.65 3.75
      vertex 114.3 26.65 3.75
    endloop
  endfacet
  facet normal 0 1 0
    outer loop
      vertex 111.8 26.65 3.75
      vertex 114.3 26.65 1.25
      vertex 111.8 26.65 1.25
    endloop
  endfacet
  facet normal 0 -1 0
    outer loop
      vertex 111.8 24.15 1.25
      vertex 114.3 24.15 3.75
      vertex 111.8 24.15 3.75
    endloop
  endfacet
  facet normal 0 -1 -0
    outer loop
      vertex 114.3 24.15 3.75
      vertex 111.8 24.15 1.25
      vertex 114.3 24.15 1.25
    endloop
  endfacet
  facet normal -1 0 0
    outer loop
      vertex 111.8 -26.65 1.25
      vertex 111.8 -24.15 3.75
      vertex 111.8 -24.15 1.25
    endloop
  endfacet
  facet normal -1 -0 0
    outer loop
      vertex 111.8 -24.15 3.75
      vertex 111.8 -26.65 1.25
      vertex 111.8 -26.65 3.75
    endloop
  endfacet
  facet normal -0 0 1
    outer loop
      vertex 111.8 -24.15 3.75
      vertex 114.3 -26.65 3.75
      vertex 114.3 -24.15 3.75
    endloop
  endfacet
  facet normal 0 0 1
    outer loop
      vertex 114.3 -26.65 3.75
      vertex 111.8 -24.15 3.75
      vertex 111.8 -26.65 3.75
    endloop
  endfacet
  facet normal 0 1 -0
    outer loop
      vertex 114.3 -24.15 1.25
      vertex 111.8 -24.15 3.75
      vertex 114.3 -24.15 3.75
    endloop
  endfacet
  facet normal 0 1 0
    outer loop
      vertex 111.8 -24.15 3.75
      vertex 114.3 -24.15 1.25
      vertex 111.8 -24.15 1.25
    endloop
  endfacet
  facet normal 0 -1 0
    outer loop
      vertex 111.8 -26.65 1.25
      vertex 114.3 -26.65 3.75
      vertex 111.8 -26.65 3.75
    endloop
  endfacet
  facet normal 0 -1 -0
    outer loop
      vertex 114.3 -26.65 3.75
      vertex 111.8 -26.65 1.25
      vertex 114.3 -26.65 1.25
    endloop
  endfacet
  facet normal -1 0 0
    outer loop
      vertex 109.3 -2.5 1.25
      vertex 109.3 2.5 6.25
      vertex 109.3 2.5 1.25
    endloop
  endfacet
  facet normal -1 -0 0
    outer loop
      vertex 109.3 2.5 6.25
      vertex 109.3 -2.5 1.25
      vertex 109.3 -2.5 6.25
    endloop
  endfacet
  facet normal -0 0 1
    outer loop
      vertex 109.3 2.5 6.25
      vertex 114.3 -2.5 6.25
      vertex 114.3 2.5 6.25
    endloop
  endfacet
  facet normal 0 0 1
    outer loop
      vertex 114.3 -2.5 6.25
      vertex 109.3 2.5 6.25
      vertex 109.3 -2.5 6.25
    endloop
  endfacet
  facet normal 0 1 -0
    outer loop
      vertex 114.3 2.5 1.25
      vertex 109.3 2.5 6.25
      vertex 114.3 2.5 6.25
    endloop
  endfacet
  facet normal 0 1 0
    outer loop
      vertex 109.3 2.5 6.25
      vertex 114.3 2.5 1.25
      vertex 109.3 2.5 1.25
    endloop
  endfacet
  facet normal 0 -1 0
    outer loop
      vertex 109.3 -2.5 1.25
      vertex 114.3 -2.5 6.25
      vertex 109.3 -2.5 6.25
    endloop
  endfacet
  facet normal 0 -1 -0
    outer loop
      vertex 114.3 -2.5 6.25
      vertex 109.3 -2.5 1.25
      vertex 114.3 -2.5 1.25
    endloop
  endfacet
  facet normal -0.707107 -0.707107 0
    outer loop
      vertex 91.079 -12.7 -1.25
      vertex 114.3 -35.921 1.25
      vertex 91.079 -12.7 1.25
    endloop
  endfacet
  facet normal -0.707107 -0.707107 -0
    outer loop
      vertex 114.3 -35.921 1.25
      vertex 91.079 -12.7 -1.25
      vertex 114.3 -35.921 -1.25
    endloop
  endfacet
  facet normal -0.707107 0.707107 0
    outer loop
      vertex 114.3 35.921 -1.25
      vertex 91.079 12.7 1.25
      vertex 114.3 35.921 1.25
    endloop
  endfacet
  facet normal -0.707107 0.707107 0
    outer loop
      vertex 91.079 12.7 1.25
      vertex 114.3 35.921 -1.25
      vertex 91.079 12.7 -1.25
    endloop
  endfacet
  facet normal 0 1 -0
    outer loop
      vertex 91.079 12.7 -1.25
      vertex -91.079 12.7 1.25
      vertex 91.079 12.7 1.25
    endloop
  endfacet
  facet normal 0 1 0
    outer loop
      vertex -91.079 12.7 1.25
      vertex 91.079 12.7 -1.25
      vertex -91.079 12.7 -1.25
    endloop
  endfacet
  facet normal 0 -1 0
    outer loop
      vertex -91.079 -12.7 -1.25
      vertex 91.079 -12.7 1.25
      vertex -91.079 -12.7 1.25
    endloop
  endfacet
  facet normal 0 -1 -0
    outer loop
      vertex 91.079 -12.7 1.25
      vertex -91.079 -12.7 -1.25
      vertex 91.079 -12.7 -1.25
    endloop
  endfacet
endsolid OpenSCAD_Model
