solid OpenSCAD_Model
  facet normal -0.707107 0.707107 0
    outer loop
      vertex -283.6 0 0
      vertex -278.6 5 20
      vertex -278.6 5 0
    endloop
  endfacet
  facet normal -0.707107 0.707107 0
    outer loop
      vertex -278.6 5 20
      vertex -283.6 0 0
      vertex -283.6 0 20
    endloop
  endfacet
  facet normal 0 0 -1
    outer loop
      vertex -278.6 -5 0
      vertex -258.6 5 0
      vertex -258.6 -5 0
    endloop
  endfacet
  facet normal 0 0 -1
    outer loop
      vertex -278.6 -5 0
      vertex -278.6 5 0
      vertex -258.6 5 0
    endloop
  endfacet
  facet normal 0 -0 -1
    outer loop
      vertex -278.6 5 0
      vertex -278.6 -5 0
      vertex -283.6 0 0
    endloop
  endfacet
  facet normal 0 0 -1
    outer loop
      vertex -258.6 -5 0
      vertex -253.6 -5 0
      vertex -253.6 -10 0
    endloop
  endfacet
  facet normal 0 0 -1
    outer loop
      vertex -253.6 -5 0
      vertex -258.6 -5 0
      vertex -253.6 5 0
    endloop
  endfacet
  facet normal 0 0 -1
    outer loop
      vertex -258.6 -5 0
      vertex -253.6 -10 0
      vertex -258.6 -10 0
    endloop
  endfacet
  facet normal 0 0 -1
    outer loop
      vertex -258.6 5 0
      vertex -253.6 5 0
      vertex -258.6 -5 0
    endloop
  endfacet
  facet normal 0 0 -1
    outer loop
      vertex -253.6 5 0
      vertex -258.6 5 0
      vertex -253.6 10 0
    endloop
  endfacet
  facet normal -0 0 -1
    outer loop
      vertex -253.6 10 0
      vertex -258.6 5 0
      vertex -258.6 10 0
    endloop
  endfacet
  facet normal 0 0 -1
    outer loop
      vertex -253.6 -5 0
      vertex -25 5 0
      vertex -25 -5 0
    endloop
  endfacet
  facet normal -0 0 -1
    outer loop
      vertex -25 5 0
      vertex -253.6 -5 0
      vertex -253.6 5 0
    endloop
  endfacet
  facet normal 0 0 -1
    outer loop
      vertex -25 -5 0
      vertex -20 -5 0
      vertex -20 -10 0
    endloop
  endfacet
  facet normal 0 0 -1
    outer loop
      vertex -20 -5 0
      vertex -25 -5 0
      vertex -20 5 0
    endloop
  endfacet
  facet normal 0 0 -1
    outer loop
      vertex -25 -5 0
      vertex -20 -10 0
      vertex -25 -10 0
    endloop
  endfacet
  facet normal 0 0 -1
    outer loop
      vertex -25 5 0
      vertex -20 5 0
      vertex -25 -5 0
    endloop
  endfacet
  facet normal 0 0 -1
    outer loop
      vertex -20 5 0
      vertex -25 5 0
      vertex -20 10 0
    endloop
  endfacet
  facet normal -0 0 -1
    outer loop
      vertex -20 10 0
      vertex -25 5 0
      vertex -25 10 0
    endloop
  endfacet
  facet normal 0 0 -1
    outer loop
      vertex 0 -5 0
      vertex 0 5 0
      vertex 5 0 0
    endloop
  endfacet
  facet normal 0 0 -1
    outer loop
      vertex -20 -5 0
      vertex 0 5 0
      vertex 0 -5 0
    endloop
  endfacet
  facet normal -0 0 -1
    outer loop
      vertex 0 5 0
      vertex -20 -5 0
      vertex -20 5 0
    endloop
  endfacet
  facet normal 0.707107 -0.707107 0
    outer loop
      vertex 0 -5 20
      vertex 5 0 0
      vertex 5 0 20
    endloop
  endfacet
  facet normal 0.707107 -0.707107 0
    outer loop
      vertex 5 0 0
      vertex 0 -5 20
      vertex 0 -5 0
    endloop
  endfacet
  facet normal 0 0 1
    outer loop
      vertex 0 5 20
      vertex 0 -5 20
      vertex 5 0 20
    endloop
  endfacet
  facet normal -0 0 1
    outer loop
      vertex -20 5 20
      vertex 0 -5 20
      vertex 0 5 20
    endloop
  endfacet
  facet normal 0 0 1
    outer loop
      vertex 0 -5 20
      vertex -20 5 20
      vertex -20 -5 20
    endloop
  endfacet
  facet normal -0 0 1
    outer loop
      vertex -278.6 5 20
      vertex -258.6 -5 20
      vertex -258.6 5 20
    endloop
  endfacet
  facet normal 0 0 1
    outer loop
      vertex -278.6 5 20
      vertex -278.6 -5 20
      vertex -258.6 -5 20
    endloop
  endfacet
  facet normal 0 -0 1
    outer loop
      vertex -278.6 -5 20
      vertex -278.6 5 20
      vertex -283.6 0 20
    endloop
  endfacet
  facet normal -0 0 1
    outer loop
      vertex -253.6 5 20
      vertex -25 -5 20
      vertex -25 5 20
    endloop
  endfacet
  facet normal 0 0 1
    outer loop
      vertex -25 -5 20
      vertex -253.6 5 20
      vertex -253.6 -5 20
    endloop
  endfacet
  facet normal 0 1 -0
    outer loop
      vertex 0 5 0
      vertex -20 5 20
      vertex 0 5 20
    endloop
  endfacet
  facet normal 0 1 0
    outer loop
      vertex -20 5 20
      vertex 0 5 0
      vertex -20 5 0
    endloop
  endfacet
  facet normal 0 1 -0
    outer loop
      vertex -258.6 5 0
      vertex -278.6 5 20
      vertex -258.6 5 20
    endloop
  endfacet
  facet normal 0 1 0
    outer loop
      vertex -278.6 5 20
      vertex -258.6 5 0
      vertex -278.6 5 0
    endloop
  endfacet
  facet normal 0 1 -0
    outer loop
      vertex -25 5 0
      vertex -253.6 5 20
      vertex -25 5 20
    endloop
  endfacet
  facet normal 0 1 0
    outer loop
      vertex -253.6 5 20
      vertex -25 5 0
      vertex -253.6 5 0
    endloop
  endfacet
  facet normal -0.707107 -0.707107 0
    outer loop
      vertex -278.6 -5 0
      vertex -283.6 0 20
      vertex -283.6 0 0
    endloop
  endfacet
  facet normal -0.707107 -0.707107 0
    outer loop
      vertex -283.6 0 20
      vertex -278.6 -5 0
      vertex -278.6 -5 20
    endloop
  endfacet
  facet normal 0 -1 0
    outer loop
      vertex -20 -5 0
      vertex 0 -5 20
      vertex -20 -5 20
    endloop
  endfacet
  facet normal 0 -1 -0
    outer loop
      vertex 0 -5 20
      vertex -20 -5 0
      vertex 0 -5 0
    endloop
  endfacet
  facet normal 0 -1 0
    outer loop
      vertex -278.6 -5 0
      vertex -258.6 -5 20
      vertex -278.6 -5 20
    endloop
  endfacet
  facet normal 0 -1 -0
    outer loop
      vertex -258.6 -5 20
      vertex -278.6 -5 0
      vertex -258.6 -5 0
    endloop
  endfacet
  facet normal 0 -1 0
    outer loop
      vertex -253.6 -5 0
      vertex -25 -5 20
      vertex -253.6 -5 20
    endloop
  endfacet
  facet normal 0 -1 -0
    outer loop
      vertex -25 -5 20
      vertex -253.6 -5 0
      vertex -25 -5 0
    endloop
  endfacet
  facet normal 0.707107 0.707107 0
    outer loop
      vertex 5 0 20
      vertex 0 5 0
      vertex 0 5 20
    endloop
  endfacet
  facet normal 0.707107 0.707107 0
    outer loop
      vertex 0 5 0
      vertex 5 0 20
      vertex 5 0 0
    endloop
  endfacet
  facet normal -0 0 1
    outer loop
      vertex -25 10 25
      vertex -20 -10 25
      vertex -20 10 25
    endloop
  endfacet
  facet normal 0 0 1
    outer loop
      vertex -20 -10 25
      vertex -25 10 25
      vertex -25 -10 25
    endloop
  endfacet
  facet normal -0 0 1
    outer loop
      vertex -258.6 10 25
      vertex -253.6 -10 25
      vertex -253.6 10 25
    endloop
  endfacet
  facet normal 0 0 1
    outer loop
      vertex -253.6 -10 25
      vertex -258.6 10 25
      vertex -258.6 -10 25
    endloop
  endfacet
  facet normal 0 1 -0
    outer loop
      vertex -20 10 0
      vertex -25 10 25
      vertex -20 10 25
    endloop
  endfacet
  facet normal 0 1 0
    outer loop
      vertex -25 10 25
      vertex -20 10 0
      vertex -25 10 0
    endloop
  endfacet
  facet normal -1 0 0
    outer loop
      vertex -25 -5 0
      vertex -25 -10 0
      vertex -25 -5 20
    endloop
  endfacet
  facet normal -1 0 0
    outer loop
      vertex -25 5 20
      vertex -25 10 0
      vertex -25 5 0
    endloop
  endfacet
  facet normal -1 0 0
    outer loop
      vertex -25 10 0
      vertex -25 5 20
      vertex -25 10 25
    endloop
  endfacet
  facet normal -1 0 0
    outer loop
      vertex -25 -5 20
      vertex -25 10 25
      vertex -25 5 20
    endloop
  endfacet
  facet normal -1 0 0
    outer loop
      vertex -25 -5 20
      vertex -25 -10 25
      vertex -25 10 25
    endloop
  endfacet
  facet normal -1 0 0
    outer loop
      vertex -25 -10 25
      vertex -25 -5 20
      vertex -25 -10 0
    endloop
  endfacet
  facet normal 0 -1 0
    outer loop
      vertex -25 -10 0
      vertex -20 -10 25
      vertex -25 -10 25
    endloop
  endfacet
  facet normal 0 -1 -0
    outer loop
      vertex -20 -10 25
      vertex -25 -10 0
      vertex -20 -10 0
    endloop
  endfacet
  facet normal 1 0 0
    outer loop
      vertex -20 10 25
      vertex -20 5 20
      vertex -20 10 0
    endloop
  endfacet
  facet normal 1 0 0
    outer loop
      vertex -20 10 25
      vertex -20 -5 20
      vertex -20 5 20
    endloop
  endfacet
  facet normal 1 -0 0
    outer loop
      vertex -20 -10 25
      vertex -20 -5 20
      vertex -20 10 25
    endloop
  endfacet
  facet normal 1 0 0
    outer loop
      vertex -20 -10 0
      vertex -20 -5 20
      vertex -20 -10 25
    endloop
  endfacet
  facet normal 1 0 0
    outer loop
      vertex -20 -5 20
      vertex -20 -10 0
      vertex -20 -5 0
    endloop
  endfacet
  facet normal 1 0 0
    outer loop
      vertex -20 10 0
      vertex -20 5 20
      vertex -20 5 0
    endloop
  endfacet
  facet normal 0 1 -0
    outer loop
      vertex -253.6 10 0
      vertex -258.6 10 25
      vertex -253.6 10 25
    endloop
  endfacet
  facet normal 0 1 0
    outer loop
      vertex -258.6 10 25
      vertex -253.6 10 0
      vertex -258.6 10 0
    endloop
  endfacet
  facet normal -1 0 0
    outer loop
      vertex -258.6 -5 0
      vertex -258.6 -10 0
      vertex -258.6 -5 20
    endloop
  endfacet
  facet normal -1 0 0
    outer loop
      vertex -258.6 5 20
      vertex -258.6 10 0
      vertex -258.6 5 0
    endloop
  endfacet
  facet normal -1 0 0
    outer loop
      vertex -258.6 10 0
      vertex -258.6 5 20
      vertex -258.6 10 25
    endloop
  endfacet
  facet normal -1 0 0
    outer loop
      vertex -258.6 -5 20
      vertex -258.6 10 25
      vertex -258.6 5 20
    endloop
  endfacet
  facet normal -1 0 0
    outer loop
      vertex -258.6 -5 20
      vertex -258.6 -10 25
      vertex -258.6 10 25
    endloop
  endfacet
  facet normal -1 0 0
    outer loop
      vertex -258.6 -10 25
      vertex -258.6 -5 20
      vertex -258.6 -10 0
    endloop
  endfacet
  facet normal 0 -1 0
    outer loop
      vertex -258.6 -10 0
      vertex -253.6 -10 25
      vertex -258.6 -10 25
    endloop
  endfacet
  facet normal 0 -1 -0
    outer loop
      vertex -253.6 -10 25
      vertex -258.6 -10 0
      vertex -253.6 -10 0
    endloop
  endfacet
  facet normal 1 0 0
    outer loop
      vertex -253.6 10 25
      vertex -253.6 5 20
      vertex -253.6 10 0
    endloop
  endfacet
  facet normal 1 0 0
    outer loop
      vertex -253.6 10 25
      vertex -253.6 -5 20
      vertex -253.6 5 20
    endloop
  endfacet
  facet normal 1 -0 0
    outer loop
      vertex -253.6 -10 25
      vertex -253.6 -5 20
      vertex -253.6 10 25
    endloop
  endfacet
  facet normal 1 0 0
    outer loop
      vertex -253.6 -10 0
      vertex -253.6 -5 20
      vertex -253.6 -10 25
    endloop
  endfacet
  facet normal 1 0 0
    outer loop
      vertex -253.6 -5 20
      vertex -253.6 -10 0
      vertex -253.6 -5 0
    endloop
  endfacet
  facet normal 1 0 0
    outer loop
      vertex -253.6 10 0
      vertex -253.6 5 20
      vertex -253.6 5 0
    endloop
  endfacet
endsolid OpenSCAD_Model
