solid OpenSCAD_Model
  facet normal -0.707107 0 0.707107
    outer loop
      vertex -281.1 -20 2.5
      vertex -278.6 0 5
      vertex -281.1 0 2.5
    endloop
  endfacet
  facet normal -0.707107 0 0.707107
    outer loop
      vertex -278.6 0 5
      vertex -281.1 -20 2.5
      vertex -278.6 -20 5
    endloop
  endfacet
  facet normal 0 1 -0
    outer loop
      vertex 0 0 0
      vertex -20 0 5
      vertex 0 0 5
    endloop
  endfacet
  facet normal 0 1 0
    outer loop
      vertex -20 0 5
      vertex 0 0 0
      vertex -25 0 5
    endloop
  endfacet
  facet normal 0 1 0
    outer loop
      vertex -25 0 5
      vertex 0 0 0
      vertex -253.6 0 5
    endloop
  endfacet
  facet normal 0 1 0
    outer loop
      vertex -278.6 0 0
      vertex -253.6 0 5
      vertex 0 0 0
    endloop
  endfacet
  facet normal 0 1 0
    outer loop
      vertex 0 0 0
      vertex 0 0 5
      vertex 2.5 0 2.5
    endloop
  endfacet
  facet normal 0 1 0
    outer loop
      vertex -253.6 0 5
      vertex -278.6 0 0
      vertex -258.6 0 5
    endloop
  endfacet
  facet normal 0 1 0
    outer loop
      vertex -258.6 0 5
      vertex -278.6 0 0
      vertex -278.6 0 5
    endloop
  endfacet
  facet normal 0 1 0
    outer loop
      vertex -278.6 0 5
      vertex -278.6 0 0
      vertex -281.1 0 2.5
    endloop
  endfacet
  facet normal 0 1 -0
    outer loop
      vertex -20 0 5
      vertex -25 0 10
      vertex -20 0 10
    endloop
  endfacet
  facet normal 0 1 0
    outer loop
      vertex -25 0 10
      vertex -20 0 5
      vertex -25 0 5
    endloop
  endfacet
  facet normal 0 1 -0
    outer loop
      vertex -253.6 0 5
      vertex -258.6 0 10
      vertex -253.6 0 10
    endloop
  endfacet
  facet normal 0 1 0
    outer loop
      vertex -258.6 0 10
      vertex -253.6 0 5
      vertex -258.6 0 5
    endloop
  endfacet
  facet normal 0.707107 0 -0.707107
    outer loop
      vertex 2.5 -20 2.5
      vertex 0 0 0
      vertex 2.5 0 2.5
    endloop
  endfacet
  facet normal 0.707107 0 -0.707107
    outer loop
      vertex 0 0 0
      vertex 2.5 -20 2.5
      vertex 0 -20 0
    endloop
  endfacet
  facet normal 0 -1 0
    outer loop
      vertex 0 -20 0
      vertex 0 -20 5
      vertex -20 -20 5
    endloop
  endfacet
  facet normal 0 -1 0
    outer loop
      vertex 0 -20 0
      vertex -20 -20 5
      vertex -20 -20 0
    endloop
  endfacet
  facet normal 0 -1 0
    outer loop
      vertex 0 -20 5
      vertex 0 -20 0
      vertex 2.5 -20 2.5
    endloop
  endfacet
  facet normal 0 -1 0
    outer loop
      vertex -278.6 -20 0
      vertex -278.6 -20 5
      vertex -281.1 -20 2.5
    endloop
  endfacet
  facet normal 0 -1 0
    outer loop
      vertex -278.6 -20 5
      vertex -278.6 -20 0
      vertex -258.6 -20 5
    endloop
  endfacet
  facet normal 0 -1 -0
    outer loop
      vertex -258.6 -20 5
      vertex -278.6 -20 0
      vertex -258.6 -20 0
    endloop
  endfacet
  facet normal 0 -1 0
    outer loop
      vertex -253.6 -20 0
      vertex -25 -20 5
      vertex -253.6 -20 5
    endloop
  endfacet
  facet normal 0 -1 -0
    outer loop
      vertex -25 -20 5
      vertex -253.6 -20 0
      vertex -25 -20 0
    endloop
  endfacet
  facet normal -0 0 1
    outer loop
      vertex -20 0 5
      vertex 0 -20 5
      vertex 0 0 5
    endloop
  endfacet
  facet normal 0 0 1
    outer loop
      vertex 0 -20 5
      vertex -20 0 5
      vertex -20 -20 5
    endloop
  endfacet
  facet normal -0 0 1
    outer loop
      vertex -278.6 0 5
      vertex -258.6 -20 5
      vertex -258.6 0 5
    endloop
  endfacet
  facet normal 0 0 1
    outer loop
      vertex -258.6 -20 5
      vertex -278.6 0 5
      vertex -278.6 -20 5
    endloop
  endfacet
  facet normal -0 0 1
    outer loop
      vertex -253.6 0 5
      vertex -25 -20 5
      vertex -25 0 5
    endloop
  endfacet
  facet normal 0 0 1
    outer loop
      vertex -25 -20 5
      vertex -253.6 0 5
      vertex -253.6 -20 5
    endloop
  endfacet
  facet normal -0.707107 0 -0.707107
    outer loop
      vertex -278.6 -20 0
      vertex -281.1 0 2.5
      vertex -278.6 0 0
    endloop
  endfacet
  facet normal -0.707107 -0 -0.707107
    outer loop
      vertex -281.1 0 2.5
      vertex -278.6 -20 0
      vertex -281.1 -20 2.5
    endloop
  endfacet
  facet normal 0 0 -1
    outer loop
      vertex -253.6 -25 0
      vertex -258.6 -25 0
      vertex -253.6 -20 0
    endloop
  endfacet
  facet normal 0 0 -1
    outer loop
      vertex -20 -25 0
      vertex -25 -25 0
      vertex -20 -20 0
    endloop
  endfacet
  facet normal 0 0 -1
    outer loop
      vertex -20 -20 0
      vertex 0 0 0
      vertex 0 -20 0
    endloop
  endfacet
  facet normal 0 0 -1
    outer loop
      vertex -25 -20 0
      vertex -20 -20 0
      vertex -25 -25 0
    endloop
  endfacet
  facet normal 0 0 -1
    outer loop
      vertex -20 -20 0
      vertex -25 -20 0
      vertex 0 0 0
    endloop
  endfacet
  facet normal 0 0 -1
    outer loop
      vertex -253.6 -20 0
      vertex 0 0 0
      vertex -25 -20 0
    endloop
  endfacet
  facet normal 0 0 -1
    outer loop
      vertex -258.6 -20 0
      vertex -253.6 -20 0
      vertex -258.6 -25 0
    endloop
  endfacet
  facet normal 0 0 -1
    outer loop
      vertex -278.6 0 0
      vertex -253.6 -20 0
      vertex -258.6 -20 0
    endloop
  endfacet
  facet normal 0 0 -1
    outer loop
      vertex -278.6 0 0
      vertex -258.6 -20 0
      vertex -278.6 -20 0
    endloop
  endfacet
  facet normal 0 0 -1
    outer loop
      vertex -253.6 -20 0
      vertex -278.6 0 0
      vertex 0 0 0
    endloop
  endfacet
  facet normal 0.707107 -0 0.707107
    outer loop
      vertex 0 -20 5
      vertex 2.5 0 2.5
      vertex 0 0 5
    endloop
  endfacet
  facet normal 0.707107 0 0.707107
    outer loop
      vertex 2.5 0 2.5
      vertex 0 -20 5
      vertex 2.5 -20 2.5
    endloop
  endfacet
  facet normal 0 -1 0
    outer loop
      vertex -25 -25 0
      vertex -20 -25 10
      vertex -25 -25 10
    endloop
  endfacet
  facet normal 0 -1 -0
    outer loop
      vertex -20 -25 10
      vertex -25 -25 0
      vertex -20 -25 0
    endloop
  endfacet
  facet normal 0 -1 0
    outer loop
      vertex -258.6 -25 0
      vertex -253.6 -25 10
      vertex -258.6 -25 10
    endloop
  endfacet
  facet normal 0 -1 -0
    outer loop
      vertex -253.6 -25 10
      vertex -258.6 -25 0
      vertex -253.6 -25 0
    endloop
  endfacet
  facet normal -0 0 1
    outer loop
      vertex -25 0 10
      vertex -20 -25 10
      vertex -20 0 10
    endloop
  endfacet
  facet normal 0 0 1
    outer loop
      vertex -20 -25 10
      vertex -25 0 10
      vertex -25 -25 10
    endloop
  endfacet
  facet normal -1 0 0
    outer loop
      vertex -25 -20 0
      vertex -25 -25 0
      vertex -25 -20 5
    endloop
  endfacet
  facet normal -1 0 0
    outer loop
      vertex -25 -20 5
      vertex -25 0 10
      vertex -25 0 5
    endloop
  endfacet
  facet normal -1 0 0
    outer loop
      vertex -25 -20 5
      vertex -25 -25 10
      vertex -25 0 10
    endloop
  endfacet
  facet normal -1 0 0
    outer loop
      vertex -25 -25 10
      vertex -25 -20 5
      vertex -25 -25 0
    endloop
  endfacet
  facet normal 1 0 0
    outer loop
      vertex -20 0 10
      vertex -20 -20 5
      vertex -20 0 5
    endloop
  endfacet
  facet normal 1 -0 0
    outer loop
      vertex -20 -25 10
      vertex -20 -20 5
      vertex -20 0 10
    endloop
  endfacet
  facet normal 1 0 0
    outer loop
      vertex -20 -25 0
      vertex -20 -20 5
      vertex -20 -25 10
    endloop
  endfacet
  facet normal 1 0 0
    outer loop
      vertex -20 -20 5
      vertex -20 -25 0
      vertex -20 -20 0
    endloop
  endfacet
  facet normal -0 0 1
    outer loop
      vertex -258.6 0 10
      vertex -253.6 -25 10
      vertex -253.6 0 10
    endloop
  endfacet
  facet normal 0 0 1
    outer loop
      vertex -253.6 -25 10
      vertex -258.6 0 10
      vertex -258.6 -25 10
    endloop
  endfacet
  facet normal -1 0 0
    outer loop
      vertex -258.6 -20 0
      vertex -258.6 -25 0
      vertex -258.6 -20 5
    endloop
  endfacet
  facet normal -1 0 0
    outer loop
      vertex -258.6 -20 5
      vertex -258.6 0 10
      vertex -258.6 0 5
    endloop
  endfacet
  facet normal -1 0 0
    outer loop
      vertex -258.6 -20 5
      vertex -258.6 -25 10
      vertex -258.6 0 10
    endloop
  endfacet
  facet normal -1 0 0
    outer loop
      vertex -258.6 -25 10
      vertex -258.6 -20 5
      vertex -258.6 -25 0
    endloop
  endfacet
  facet normal 1 0 0
    outer loop
      vertex -253.6 0 10
      vertex -253.6 -20 5
      vertex -253.6 0 5
    endloop
  endfacet
  facet normal 1 -0 0
    outer loop
      vertex -253.6 -25 10
      vertex -253.6 -20 5
      vertex -253.6 0 10
    endloop
  endfacet
  facet normal 1 0 0
    outer loop
      vertex -253.6 -25 0
      vertex -253.6 -20 5
      vertex -253.6 -25 10
    endloop
  endfacet
  facet normal 1 0 0
    outer loop
      vertex -253.6 -20 5
      vertex -253.6 -25 0
      vertex -253.6 -20 0
    endloop
  endfacet
endsolid OpenSCAD_Model
