solid OpenSCAD_Model
  facet normal -0.707107 0 0.707107
    outer loop
      vertex -283.6 -20 5
      vertex -278.6 0 10
      vertex -283.6 0 5
    endloop
  endfacet
  facet normal -0.707107 0 0.707107
    outer loop
      vertex -278.6 0 10
      vertex -283.6 -20 5
      vertex -278.6 -20 10
    endloop
  endfacet
  facet normal 0 1 0
    outer loop
      vertex -278.6 0 0
      vertex -278.6 0 10
      vertex -258.6 0 10
    endloop
  endfacet
  facet normal 0 1 0
    outer loop
      vertex -278.6 0 0
      vertex -258.6 0 10
      vertex -258.6 0 0
    endloop
  endfacet
  facet normal 0 1 0
    outer loop
      vertex -278.6 0 10
      vertex -278.6 0 0
      vertex -283.6 0 5
    endloop
  endfacet
  facet normal 0 1 0
    outer loop
      vertex 0 0 0
      vertex 0 0 10
      vertex 5 0 5
    endloop
  endfacet
  facet normal 0 1 0
    outer loop
      vertex 0 0 10
      vertex 0 0 0
      vertex -20 0 10
    endloop
  endfacet
  facet normal 0 1 0
    outer loop
      vertex -20 0 10
      vertex 0 0 0
      vertex -20 0 0
    endloop
  endfacet
  facet normal 0 1 -0
    outer loop
      vertex -25 0 0
      vertex -253.6 0 10
      vertex -25 0 10
    endloop
  endfacet
  facet normal 0 1 0
    outer loop
      vertex -253.6 0 10
      vertex -25 0 0
      vertex -253.6 0 0
    endloop
  endfacet
  facet normal 0.707107 0 -0.707107
    outer loop
      vertex 5 -20 5
      vertex 0 0 0
      vertex 5 0 5
    endloop
  endfacet
  facet normal 0.707107 0 -0.707107
    outer loop
      vertex 0 0 0
      vertex 5 -20 5
      vertex 0 -20 0
    endloop
  endfacet
  facet normal 0 -1 0
    outer loop
      vertex 0 -20 0
      vertex 0 -20 10
      vertex -20 -20 10
    endloop
  endfacet
  facet normal 0 -1 0
    outer loop
      vertex 0 -20 0
      vertex -20 -20 10
      vertex -20 -20 0
    endloop
  endfacet
  facet normal 0 -1 0
    outer loop
      vertex 0 -20 10
      vertex 0 -20 0
      vertex 5 -20 5
    endloop
  endfacet
  facet normal 0 -1 0
    outer loop
      vertex -278.6 -20 0
      vertex -278.6 -20 10
      vertex -283.6 -20 5
    endloop
  endfacet
  facet normal 0 -1 0
    outer loop
      vertex -278.6 -20 10
      vertex -278.6 -20 0
      vertex -258.6 -20 10
    endloop
  endfacet
  facet normal 0 -1 -0
    outer loop
      vertex -258.6 -20 10
      vertex -278.6 -20 0
      vertex -258.6 -20 0
    endloop
  endfacet
  facet normal 0 -1 0
    outer loop
      vertex -253.6 -20 0
      vertex -25 -20 10
      vertex -253.6 -20 10
    endloop
  endfacet
  facet normal 0 -1 -0
    outer loop
      vertex -25 -20 10
      vertex -253.6 -20 0
      vertex -25 -20 0
    endloop
  endfacet
  facet normal -0 0 1
    outer loop
      vertex -20 0 10
      vertex 0 -20 10
      vertex 0 0 10
    endloop
  endfacet
  facet normal 0 0 1
    outer loop
      vertex 0 -20 10
      vertex -20 0 10
      vertex -20 -20 10
    endloop
  endfacet
  facet normal -0 0 1
    outer loop
      vertex -278.6 0 10
      vertex -258.6 -20 10
      vertex -258.6 0 10
    endloop
  endfacet
  facet normal 0 0 1
    outer loop
      vertex -258.6 -20 10
      vertex -278.6 0 10
      vertex -278.6 -20 10
    endloop
  endfacet
  facet normal -0 0 1
    outer loop
      vertex -253.6 0 10
      vertex -25 -20 10
      vertex -25 0 10
    endloop
  endfacet
  facet normal 0 0 1
    outer loop
      vertex -25 -20 10
      vertex -253.6 0 10
      vertex -253.6 -20 10
    endloop
  endfacet
  facet normal -0.707107 0 -0.707107
    outer loop
      vertex -278.6 -20 0
      vertex -283.6 0 5
      vertex -278.6 0 0
    endloop
  endfacet
  facet normal -0.707107 -0 -0.707107
    outer loop
      vertex -283.6 0 5
      vertex -278.6 -20 0
      vertex -283.6 -20 5
    endloop
  endfacet
  facet normal 0 0 -1
    outer loop
      vertex -278.6 -20 0
      vertex -258.6 0 0
      vertex -258.6 -20 0
    endloop
  endfacet
  facet normal -0 0 -1
    outer loop
      vertex -258.6 0 0
      vertex -278.6 -20 0
      vertex -278.6 0 0
    endloop
  endfacet
  facet normal 0 0 -1
    outer loop
      vertex -258.6 -20 0
      vertex -253.6 -20 0
      vertex -253.6 -25 0
    endloop
  endfacet
  facet normal 0 0 -1
    outer loop
      vertex -253.6 -20 0
      vertex -258.6 -20 0
      vertex -253.6 0 0
    endloop
  endfacet
  facet normal 0 0 -1
    outer loop
      vertex -258.6 -20 0
      vertex -253.6 -25 0
      vertex -258.6 -25 0
    endloop
  endfacet
  facet normal 0 0 -1
    outer loop
      vertex -258.6 0 0
      vertex -253.6 0 0
      vertex -258.6 -20 0
    endloop
  endfacet
  facet normal 0 0 -1
    outer loop
      vertex -253.6 0 0
      vertex -258.6 0 0
      vertex -253.6 5 0
    endloop
  endfacet
  facet normal -0 0 -1
    outer loop
      vertex -253.6 5 0
      vertex -258.6 0 0
      vertex -258.6 5 0
    endloop
  endfacet
  facet normal 0 0 -1
    outer loop
      vertex -253.6 -20 0
      vertex -25 0 0
      vertex -25 -20 0
    endloop
  endfacet
  facet normal -0 0 -1
    outer loop
      vertex -25 0 0
      vertex -253.6 -20 0
      vertex -253.6 0 0
    endloop
  endfacet
  facet normal 0 0 -1
    outer loop
      vertex -25 -20 0
      vertex -20 -20 0
      vertex -20 -25 0
    endloop
  endfacet
  facet normal 0 0 -1
    outer loop
      vertex -20 -20 0
      vertex -25 -20 0
      vertex -20 0 0
    endloop
  endfacet
  facet normal 0 0 -1
    outer loop
      vertex -25 -20 0
      vertex -20 -25 0
      vertex -25 -25 0
    endloop
  endfacet
  facet normal 0 0 -1
    outer loop
      vertex -25 0 0
      vertex -20 0 0
      vertex -25 -20 0
    endloop
  endfacet
  facet normal 0 0 -1
    outer loop
      vertex -20 0 0
      vertex -25 0 0
      vertex -20 5 0
    endloop
  endfacet
  facet normal -0 0 -1
    outer loop
      vertex -20 5 0
      vertex -25 0 0
      vertex -25 5 0
    endloop
  endfacet
  facet normal 0 0 -1
    outer loop
      vertex -20 -20 0
      vertex 0 0 0
      vertex 0 -20 0
    endloop
  endfacet
  facet normal -0 0 -1
    outer loop
      vertex 0 0 0
      vertex -20 -20 0
      vertex -20 0 0
    endloop
  endfacet
  facet normal 0.707107 -0 0.707107
    outer loop
      vertex 0 -20 10
      vertex 5 0 5
      vertex 0 0 10
    endloop
  endfacet
  facet normal 0.707107 0 0.707107
    outer loop
      vertex 5 0 5
      vertex 0 -20 10
      vertex 5 -20 5
    endloop
  endfacet
  facet normal 0 1 -0
    outer loop
      vertex -20 5 0
      vertex -25 5 15
      vertex -20 5 15
    endloop
  endfacet
  facet normal 0 1 0
    outer loop
      vertex -25 5 15
      vertex -20 5 0
      vertex -25 5 0
    endloop
  endfacet
  facet normal 0 1 -0
    outer loop
      vertex -253.6 5 0
      vertex -258.6 5 15
      vertex -253.6 5 15
    endloop
  endfacet
  facet normal 0 1 0
    outer loop
      vertex -258.6 5 15
      vertex -253.6 5 0
      vertex -258.6 5 0
    endloop
  endfacet
  facet normal 0 -1 0
    outer loop
      vertex -25 -25 0
      vertex -20 -25 15
      vertex -25 -25 15
    endloop
  endfacet
  facet normal 0 -1 -0
    outer loop
      vertex -20 -25 15
      vertex -25 -25 0
      vertex -20 -25 0
    endloop
  endfacet
  facet normal 0 -1 0
    outer loop
      vertex -258.6 -25 0
      vertex -253.6 -25 15
      vertex -258.6 -25 15
    endloop
  endfacet
  facet normal 0 -1 -0
    outer loop
      vertex -253.6 -25 15
      vertex -258.6 -25 0
      vertex -253.6 -25 0
    endloop
  endfacet
  facet normal -0 0 1
    outer loop
      vertex -25 5 15
      vertex -20 -25 15
      vertex -20 5 15
    endloop
  endfacet
  facet normal 0 0 1
    outer loop
      vertex -20 -25 15
      vertex -25 5 15
      vertex -25 -25 15
    endloop
  endfacet
  facet normal -1 0 0
    outer loop
      vertex -25 -20 0
      vertex -25 -25 0
      vertex -25 -20 10
    endloop
  endfacet
  facet normal -1 0 0
    outer loop
      vertex -25 0 10
      vertex -25 5 0
      vertex -25 0 0
    endloop
  endfacet
  facet normal -1 0 0
    outer loop
      vertex -25 5 0
      vertex -25 0 10
      vertex -25 5 15
    endloop
  endfacet
  facet normal -1 0 0
    outer loop
      vertex -25 -20 10
      vertex -25 5 15
      vertex -25 0 10
    endloop
  endfacet
  facet normal -1 0 0
    outer loop
      vertex -25 -20 10
      vertex -25 -25 15
      vertex -25 5 15
    endloop
  endfacet
  facet normal -1 0 0
    outer loop
      vertex -25 -25 15
      vertex -25 -20 10
      vertex -25 -25 0
    endloop
  endfacet
  facet normal 1 0 0
    outer loop
      vertex -20 5 15
      vertex -20 0 10
      vertex -20 5 0
    endloop
  endfacet
  facet normal 1 0 0
    outer loop
      vertex -20 5 15
      vertex -20 -20 10
      vertex -20 0 10
    endloop
  endfacet
  facet normal 1 -0 0
    outer loop
      vertex -20 -25 15
      vertex -20 -20 10
      vertex -20 5 15
    endloop
  endfacet
  facet normal 1 0 0
    outer loop
      vertex -20 -25 0
      vertex -20 -20 10
      vertex -20 -25 15
    endloop
  endfacet
  facet normal 1 0 0
    outer loop
      vertex -20 -20 10
      vertex -20 -25 0
      vertex -20 -20 0
    endloop
  endfacet
  facet normal 1 0 0
    outer loop
      vertex -20 5 0
      vertex -20 0 10
      vertex -20 0 0
    endloop
  endfacet
  facet normal -0 0 1
    outer loop
      vertex -258.6 5 15
      vertex -253.6 -25 15
      vertex -253.6 5 15
    endloop
  endfacet
  facet normal 0 0 1
    outer loop
      vertex -253.6 -25 15
      vertex -258.6 5 15
      vertex -258.6 -25 15
    endloop
  endfacet
  facet normal -1 0 0
    outer loop
      vertex -258.6 -20 0
      vertex -258.6 -25 0
      vertex -258.6 -20 10
    endloop
  endfacet
  facet normal -1 0 0
    outer loop
      vertex -258.6 0 10
      vertex -258.6 5 0
      vertex -258.6 0 0
    endloop
  endfacet
  facet normal -1 0 0
    outer loop
      vertex -258.6 5 0
      vertex -258.6 0 10
      vertex -258.6 5 15
    endloop
  endfacet
  facet normal -1 0 0
    outer loop
      vertex -258.6 -20 10
      vertex -258.6 5 15
      vertex -258.6 0 10
    endloop
  endfacet
  facet normal -1 0 0
    outer loop
      vertex -258.6 -20 10
      vertex -258.6 -25 15
      vertex -258.6 5 15
    endloop
  endfacet
  facet normal -1 0 0
    outer loop
      vertex -258.6 -25 15
      vertex -258.6 -20 10
      vertex -258.6 -25 0
    endloop
  endfacet
  facet normal 1 0 0
    outer loop
      vertex -253.6 5 15
      vertex -253.6 0 10
      vertex -253.6 5 0
    endloop
  endfacet
  facet normal 1 0 0
    outer loop
      vertex -253.6 5 15
      vertex -253.6 -20 10
      vertex -253.6 0 10
    endloop
  endfacet
  facet normal 1 -0 0
    outer loop
      vertex -253.6 -25 15
      vertex -253.6 -20 10
      vertex -253.6 5 15
    endloop
  endfacet
  facet normal 1 0 0
    outer loop
      vertex -253.6 -25 0
      vertex -253.6 -20 10
      vertex -253.6 -25 15
    endloop
  endfacet
  facet normal 1 0 0
    outer loop
      vertex -253.6 -20 10
      vertex -253.6 -25 0
      vertex -253.6 -20 0
    endloop
  endfacet
  facet normal 1 0 0
    outer loop
      vertex -253.6 5 0
      vertex -253.6 0 10
      vertex -253.6 0 0
    endloop
  endfacet
endsolid OpenSCAD_Model
