solid OpenSCAD_Model
  facet normal -0.707107 0.707107 0
    outer loop
      vertex -281.1 0 0
      vertex -278.6 2.5 20
      vertex -278.6 2.5 0
    endloop
  endfacet
  facet normal -0.707107 0.707107 0
    outer loop
      vertex -278.6 2.5 20
      vertex -281.1 0 0
      vertex -281.1 0 20
    endloop
  endfacet
  facet normal 0 0 -1
    outer loop
      vertex 0 -2.5 0
      vertex 0 2.5 0
      vertex 2.5 0 0
    endloop
  endfacet
  facet normal 0 0 -1
    outer loop
      vertex 0 -2.5 0
      vertex -20 2.5 0
      vertex 0 2.5 0
    endloop
  endfacet
  facet normal 0 0 -1
    outer loop
      vertex -20 2.5 0
      vertex -25 2.5 0
      vertex -20 7.5 0
    endloop
  endfacet
  facet normal 0 0 -1
    outer loop
      vertex 0 -2.5 0
      vertex -25 2.5 0
      vertex -20 2.5 0
    endloop
  endfacet
  facet normal 0 0 -1
    outer loop
      vertex 0 -2.5 0
      vertex -253.6 2.5 0
      vertex -25 2.5 0
    endloop
  endfacet
  facet normal 0 0 -1
    outer loop
      vertex -253.6 2.5 0
      vertex -258.6 2.5 0
      vertex -253.6 7.5 0
    endloop
  endfacet
  facet normal 0 0 -1
    outer loop
      vertex -278.6 -2.5 0
      vertex -253.6 2.5 0
      vertex 0 -2.5 0
    endloop
  endfacet
  facet normal -0 0 -1
    outer loop
      vertex -253.6 2.5 0
      vertex -278.6 -2.5 0
      vertex -258.6 2.5 0
    endloop
  endfacet
  facet normal 0 0 -1
    outer loop
      vertex -278.6 -2.5 0
      vertex -278.6 2.5 0
      vertex -258.6 2.5 0
    endloop
  endfacet
  facet normal 0 -0 -1
    outer loop
      vertex -278.6 2.5 0
      vertex -278.6 -2.5 0
      vertex -281.1 0 0
    endloop
  endfacet
  facet normal -0 0 -1
    outer loop
      vertex -20 7.5 0
      vertex -25 2.5 0
      vertex -25 7.5 0
    endloop
  endfacet
  facet normal -0 0 -1
    outer loop
      vertex -253.6 7.5 0
      vertex -258.6 2.5 0
      vertex -258.6 7.5 0
    endloop
  endfacet
  facet normal 0.707107 -0.707107 0
    outer loop
      vertex 0 -2.5 20
      vertex 2.5 0 0
      vertex 2.5 0 20
    endloop
  endfacet
  facet normal 0.707107 -0.707107 0
    outer loop
      vertex 2.5 0 0
      vertex 0 -2.5 20
      vertex 0 -2.5 0
    endloop
  endfacet
  facet normal 0 0 1
    outer loop
      vertex 0 2.5 20
      vertex 0 -2.5 20
      vertex 2.5 0 20
    endloop
  endfacet
  facet normal -0 0 1
    outer loop
      vertex -20 2.5 20
      vertex 0 -2.5 20
      vertex 0 2.5 20
    endloop
  endfacet
  facet normal 0 0 1
    outer loop
      vertex 0 -2.5 20
      vertex -20 2.5 20
      vertex -20 -2.5 20
    endloop
  endfacet
  facet normal -0 0 1
    outer loop
      vertex -278.6 2.5 20
      vertex -258.6 -2.5 20
      vertex -258.6 2.5 20
    endloop
  endfacet
  facet normal 0 0 1
    outer loop
      vertex -278.6 2.5 20
      vertex -278.6 -2.5 20
      vertex -258.6 -2.5 20
    endloop
  endfacet
  facet normal 0 -0 1
    outer loop
      vertex -278.6 -2.5 20
      vertex -278.6 2.5 20
      vertex -281.1 0 20
    endloop
  endfacet
  facet normal -0 0 1
    outer loop
      vertex -253.6 2.5 20
      vertex -25 -2.5 20
      vertex -25 2.5 20
    endloop
  endfacet
  facet normal 0 0 1
    outer loop
      vertex -25 -2.5 20
      vertex -253.6 2.5 20
      vertex -253.6 -2.5 20
    endloop
  endfacet
  facet normal 0 1 -0
    outer loop
      vertex 0 2.5 0
      vertex -20 2.5 20
      vertex 0 2.5 20
    endloop
  endfacet
  facet normal 0 1 0
    outer loop
      vertex -20 2.5 20
      vertex 0 2.5 0
      vertex -20 2.5 0
    endloop
  endfacet
  facet normal 0 1 -0
    outer loop
      vertex -258.6 2.5 0
      vertex -278.6 2.5 20
      vertex -258.6 2.5 20
    endloop
  endfacet
  facet normal 0 1 0
    outer loop
      vertex -278.6 2.5 20
      vertex -258.6 2.5 0
      vertex -278.6 2.5 0
    endloop
  endfacet
  facet normal 0 1 -0
    outer loop
      vertex -25 2.5 0
      vertex -253.6 2.5 20
      vertex -25 2.5 20
    endloop
  endfacet
  facet normal 0 1 0
    outer loop
      vertex -253.6 2.5 20
      vertex -25 2.5 0
      vertex -253.6 2.5 0
    endloop
  endfacet
  facet normal -0.707107 -0.707107 0
    outer loop
      vertex -278.6 -2.5 0
      vertex -281.1 0 20
      vertex -281.1 0 0
    endloop
  endfacet
  facet normal -0.707107 -0.707107 0
    outer loop
      vertex -281.1 0 20
      vertex -278.6 -2.5 0
      vertex -278.6 -2.5 20
    endloop
  endfacet
  facet normal 0 -1 0
    outer loop
      vertex -278.6 -2.5 0
      vertex -258.6 -2.5 20
      vertex -278.6 -2.5 20
    endloop
  endfacet
  facet normal 0 -1 -0
    outer loop
      vertex -258.6 -2.5 20
      vertex -278.6 -2.5 0
      vertex -253.6 -2.5 20
    endloop
  endfacet
  facet normal 0 -1 -0
    outer loop
      vertex -253.6 -2.5 20
      vertex -278.6 -2.5 0
      vertex -25 -2.5 20
    endloop
  endfacet
  facet normal 0 -1 0
    outer loop
      vertex 0 -2.5 0
      vertex -25 -2.5 20
      vertex -278.6 -2.5 0
    endloop
  endfacet
  facet normal 0 -1 0
    outer loop
      vertex -25 -2.5 20
      vertex 0 -2.5 0
      vertex -20 -2.5 20
    endloop
  endfacet
  facet normal 0 -1 0
    outer loop
      vertex -20 -2.5 20
      vertex 0 -2.5 0
      vertex 0 -2.5 20
    endloop
  endfacet
  facet normal 0 -1 0
    outer loop
      vertex -258.6 -2.5 20
      vertex -253.6 -2.5 25
      vertex -258.6 -2.5 25
    endloop
  endfacet
  facet normal 0 -1 -0
    outer loop
      vertex -253.6 -2.5 25
      vertex -258.6 -2.5 20
      vertex -253.6 -2.5 20
    endloop
  endfacet
  facet normal 0 -1 0
    outer loop
      vertex -25 -2.5 20
      vertex -20 -2.5 25
      vertex -25 -2.5 25
    endloop
  endfacet
  facet normal 0 -1 -0
    outer loop
      vertex -20 -2.5 25
      vertex -25 -2.5 20
      vertex -20 -2.5 20
    endloop
  endfacet
  facet normal 0.707107 0.707107 0
    outer loop
      vertex 2.5 0 20
      vertex 0 2.5 0
      vertex 0 2.5 20
    endloop
  endfacet
  facet normal 0.707107 0.707107 0
    outer loop
      vertex 0 2.5 0
      vertex 2.5 0 20
      vertex 2.5 0 0
    endloop
  endfacet
  facet normal -0 0 1
    outer loop
      vertex -25 7.5 25
      vertex -20 -2.5 25
      vertex -20 7.5 25
    endloop
  endfacet
  facet normal 0 0 1
    outer loop
      vertex -20 -2.5 25
      vertex -25 7.5 25
      vertex -25 -2.5 25
    endloop
  endfacet
  facet normal -0 0 1
    outer loop
      vertex -258.6 7.5 25
      vertex -253.6 -2.5 25
      vertex -253.6 7.5 25
    endloop
  endfacet
  facet normal 0 0 1
    outer loop
      vertex -253.6 -2.5 25
      vertex -258.6 7.5 25
      vertex -258.6 -2.5 25
    endloop
  endfacet
  facet normal 0 1 -0
    outer loop
      vertex -20 7.5 0
      vertex -25 7.5 25
      vertex -20 7.5 25
    endloop
  endfacet
  facet normal 0 1 0
    outer loop
      vertex -25 7.5 25
      vertex -20 7.5 0
      vertex -25 7.5 0
    endloop
  endfacet
  facet normal -1 0 0
    outer loop
      vertex -25 2.5 20
      vertex -25 7.5 0
      vertex -25 2.5 0
    endloop
  endfacet
  facet normal -1 0 0
    outer loop
      vertex -25 7.5 0
      vertex -25 2.5 20
      vertex -25 7.5 25
    endloop
  endfacet
  facet normal -1 0 0
    outer loop
      vertex -25 -2.5 25
      vertex -25 2.5 20
      vertex -25 -2.5 20
    endloop
  endfacet
  facet normal -1 0 0
    outer loop
      vertex -25 2.5 20
      vertex -25 -2.5 25
      vertex -25 7.5 25
    endloop
  endfacet
  facet normal 1 0 0
    outer loop
      vertex -20 7.5 25
      vertex -20 2.5 20
      vertex -20 7.5 0
    endloop
  endfacet
  facet normal 1 -0 0
    outer loop
      vertex -20 -2.5 25
      vertex -20 2.5 20
      vertex -20 7.5 25
    endloop
  endfacet
  facet normal 1 0 0
    outer loop
      vertex -20 2.5 20
      vertex -20 -2.5 25
      vertex -20 -2.5 20
    endloop
  endfacet
  facet normal 1 0 0
    outer loop
      vertex -20 7.5 0
      vertex -20 2.5 20
      vertex -20 2.5 0
    endloop
  endfacet
  facet normal 0 1 -0
    outer loop
      vertex -253.6 7.5 0
      vertex -258.6 7.5 25
      vertex -253.6 7.5 25
    endloop
  endfacet
  facet normal 0 1 0
    outer loop
      vertex -258.6 7.5 25
      vertex -253.6 7.5 0
      vertex -258.6 7.5 0
    endloop
  endfacet
  facet normal -1 0 0
    outer loop
      vertex -258.6 2.5 20
      vertex -258.6 7.5 0
      vertex -258.6 2.5 0
    endloop
  endfacet
  facet normal -1 0 0
    outer loop
      vertex -258.6 7.5 0
      vertex -258.6 2.5 20
      vertex -258.6 7.5 25
    endloop
  endfacet
  facet normal -1 0 0
    outer loop
      vertex -258.6 -2.5 25
      vertex -258.6 2.5 20
      vertex -258.6 -2.5 20
    endloop
  endfacet
  facet normal -1 0 0
    outer loop
      vertex -258.6 2.5 20
      vertex -258.6 -2.5 25
      vertex -258.6 7.5 25
    endloop
  endfacet
  facet normal 1 0 0
    outer loop
      vertex -253.6 7.5 25
      vertex -253.6 2.5 20
      vertex -253.6 7.5 0
    endloop
  endfacet
  facet normal 1 -0 0
    outer loop
      vertex -253.6 -2.5 25
      vertex -253.6 2.5 20
      vertex -253.6 7.5 25
    endloop
  endfacet
  facet normal 1 0 0
    outer loop
      vertex -253.6 2.5 20
      vertex -253.6 -2.5 25
      vertex -253.6 -2.5 20
    endloop
  endfacet
  facet normal 1 0 0
    outer loop
      vertex -253.6 7.5 0
      vertex -253.6 2.5 20
      vertex -253.6 2.5 0
    endloop
  endfacet
endsolid OpenSCAD_Model
