solid OpenSCAD_Model
  facet normal -0.316228 0 0.948683
    outer loop
      vertex -176.3 0 1.75
      vertex -171.05 -10 3.5
      vertex -171.05 0 3.5
    endloop
  endfacet
  facet normal -0.316228 0 0.948683
    outer loop
      vertex -171.05 -10 3.5
      vertex -176.3 0 1.75
      vertex -176.3 -10 1.75
    endloop
  endfacet
  facet normal 0 1 0
    outer loop
      vertex -171.05 0 0
      vertex -171.05 0 3.5
      vertex -156.3 0 3.5
    endloop
  endfacet
  facet normal 0 1 0
    outer loop
      vertex -171.05 0 0
      vertex -156.3 0 3.5
      vertex -156.3 0 0
    endloop
  endfacet
  facet normal 0 1 0
    outer loop
      vertex -171.05 0 3.5
      vertex -171.05 0 0
      vertex -176.3 0 1.75
    endloop
  endfacet
  facet normal 0 1 0
    outer loop
      vertex -6.75 0 0
      vertex -6.75 0 3.5
      vertex -1.5 0 1.75
    endloop
  endfacet
  facet normal 0 1 0
    outer loop
      vertex -6.75 0 3.5
      vertex -6.75 0 0
      vertex -21.5 0 3.5
    endloop
  endfacet
  facet normal 0 1 0
    outer loop
      vertex -21.5 0 3.5
      vertex -6.75 0 0
      vertex -21.5 0 0
    endloop
  endfacet
  facet normal 0 1 -0
    outer loop
      vertex -89.6071 0 0
      vertex -152.8 0 3.5
      vertex -89.6071 0 3.5
    endloop
  endfacet
  facet normal 0 1 0
    outer loop
      vertex -152.8 0 3.5
      vertex -89.6071 0 0
      vertex -152.8 0 0
    endloop
  endfacet
  facet normal 0 1 -0
    outer loop
      vertex -25 0 0
      vertex -88.1929 0 3.5
      vertex -25 0 3.5
    endloop
  endfacet
  facet normal 0 1 0
    outer loop
      vertex -88.1929 0 3.5
      vertex -25 0 0
      vertex -88.1929 0 0
    endloop
  endfacet
  facet normal 0.316228 0 -0.948683
    outer loop
      vertex -6.75 -10 0
      vertex -1.5 0 1.75
      vertex -1.5 -10 1.75
    endloop
  endfacet
  facet normal 0.316228 0 -0.948683
    outer loop
      vertex -1.5 0 1.75
      vertex -6.75 -10 0
      vertex -6.75 0 0
    endloop
  endfacet
  facet normal 0 -1 0
    outer loop
      vertex -6.75 -10 0
      vertex -6.75 -10 3.5
      vertex -21.5 -10 3.5
    endloop
  endfacet
  facet normal 0 -1 0
    outer loop
      vertex -6.75 -10 0
      vertex -21.5 -10 3.5
      vertex -21.5 -10 0
    endloop
  endfacet
  facet normal 0 -1 0
    outer loop
      vertex -6.75 -10 3.5
      vertex -6.75 -10 0
      vertex -1.5 -10 1.75
    endloop
  endfacet
  facet normal 0 -1 0
    outer loop
      vertex -171.05 -10 0
      vertex -171.05 -10 3.5
      vertex -176.3 -10 1.75
    endloop
  endfacet
  facet normal 0 -1 0
    outer loop
      vertex -171.05 -10 3.5
      vertex -171.05 -10 0
      vertex -156.3 -10 3.5
    endloop
  endfacet
  facet normal 0 -1 -0
    outer loop
      vertex -156.3 -10 3.5
      vertex -171.05 -10 0
      vertex -156.3 -10 0
    endloop
  endfacet
  facet normal 0 -1 0
    outer loop
      vertex -152.8 -10 0
      vertex -89.6071 -10 3.5
      vertex -152.8 -10 3.5
    endloop
  endfacet
  facet normal 0 -1 -0
    outer loop
      vertex -89.6071 -10 3.5
      vertex -152.8 -10 0
      vertex -89.6071 -10 0
    endloop
  endfacet
  facet normal 0 -1 0
    outer loop
      vertex -88.1929 -10 0
      vertex -25 -10 3.5
      vertex -88.1929 -10 3.5
    endloop
  endfacet
  facet normal 0 -1 -0
    outer loop
      vertex -25 -10 3.5
      vertex -88.1929 -10 0
      vertex -25 -10 0
    endloop
  endfacet
  facet normal -0.316228 0 -0.948683
    outer loop
      vertex -176.3 -10 1.75
      vertex -171.05 0 0
      vertex -171.05 -10 0
    endloop
  endfacet
  facet normal -0.316228 0 -0.948683
    outer loop
      vertex -171.05 0 0
      vertex -176.3 -10 1.75
      vertex -176.3 0 1.75
    endloop
  endfacet
  facet normal -0 0 1
    outer loop
      vertex -21.5 0 3.5
      vertex -6.75 -10 3.5
      vertex -6.75 0 3.5
    endloop
  endfacet
  facet normal 0 0 1
    outer loop
      vertex -6.75 -10 3.5
      vertex -21.5 0 3.5
      vertex -21.5 -10 3.5
    endloop
  endfacet
  facet normal -0 0 1
    outer loop
      vertex -171.05 0 3.5
      vertex -156.3 -10 3.5
      vertex -156.3 0 3.5
    endloop
  endfacet
  facet normal 0 0 1
    outer loop
      vertex -156.3 -10 3.5
      vertex -171.05 0 3.5
      vertex -171.05 -10 3.5
    endloop
  endfacet
  facet normal -0 0 1
    outer loop
      vertex -88.9 -0.707107 3.5
      vertex -88.1929 -5 3.5
      vertex -88.1929 0 3.5
    endloop
  endfacet
  facet normal 0 0 1
    outer loop
      vertex -88.9 -0.707107 3.5
      vertex -88.9 -4.29289 3.5
      vertex -88.1929 -5 3.5
    endloop
  endfacet
  facet normal 0 0 1
    outer loop
      vertex -89.6071 0 3.5
      vertex -88.9 -4.29289 3.5
      vertex -88.9 -0.707107 3.5
    endloop
  endfacet
  facet normal 0 0 1
    outer loop
      vertex -89.6071 0 3.5
      vertex -89.6071 -5 3.5
      vertex -88.9 -4.29289 3.5
    endloop
  endfacet
  facet normal -0 0 1
    outer loop
      vertex -152.8 0 3.5
      vertex -89.6071 -5 3.5
      vertex -89.6071 0 3.5
    endloop
  endfacet
  facet normal 0 0 1
    outer loop
      vertex -152.8 -10 3.5
      vertex -89.6071 -5 3.5
      vertex -152.8 0 3.5
    endloop
  endfacet
  facet normal 0 0 1
    outer loop
      vertex -89.6071 -5 3.5
      vertex -152.8 -10 3.5
      vertex -89.6071 -10 3.5
    endloop
  endfacet
  facet normal 0 0 1
    outer loop
      vertex -88.1929 -5 3.5
      vertex -25 0 3.5
      vertex -88.1929 0 3.5
    endloop
  endfacet
  facet normal 0 0 1
    outer loop
      vertex -25 0 3.5
      vertex -88.1929 -5 3.5
      vertex -25 -10 3.5
    endloop
  endfacet
  facet normal 0 0 1
    outer loop
      vertex -88.1929 -5 3.5
      vertex -88.1929 -10 3.5
      vertex -25 -10 3.5
    endloop
  endfacet
  facet normal -0 0 1
    outer loop
      vertex -88.9 -5.70711 3.5
      vertex -88.1929 -10 3.5
      vertex -88.1929 -5 3.5
    endloop
  endfacet
  facet normal 0 0 1
    outer loop
      vertex -88.9 -5.70711 3.5
      vertex -88.9 -9.29289 3.5
      vertex -88.1929 -10 3.5
    endloop
  endfacet
  facet normal 0 0 1
    outer loop
      vertex -89.6071 -5 3.5
      vertex -88.9 -9.29289 3.5
      vertex -88.9 -5.70711 3.5
    endloop
  endfacet
  facet normal 0 0 1
    outer loop
      vertex -88.9 -9.29289 3.5
      vertex -89.6071 -5 3.5
      vertex -89.6071 -10 3.5
    endloop
  endfacet
  facet normal 0 0 -1
    outer loop
      vertex -171.05 -10 0
      vertex -156.3 0 0
      vertex -156.3 -10 0
    endloop
  endfacet
  facet normal -0 0 -1
    outer loop
      vertex -156.3 0 0
      vertex -171.05 -10 0
      vertex -171.05 0 0
    endloop
  endfacet
  facet normal 0 0 -1
    outer loop
      vertex -156.3 -10 0
      vertex -152.8 -10 0
      vertex -152.8 -11.5 0
    endloop
  endfacet
  facet normal 0 0 -1
    outer loop
      vertex -152.8 -10 0
      vertex -156.3 -10 0
      vertex -152.8 0 0
    endloop
  endfacet
  facet normal 0 0 -1
    outer loop
      vertex -156.3 -10 0
      vertex -152.8 -11.5 0
      vertex -156.3 -11.5 0
    endloop
  endfacet
  facet normal 0 0 -1
    outer loop
      vertex -156.3 0 0
      vertex -152.8 0 0
      vertex -156.3 -10 0
    endloop
  endfacet
  facet normal 0 0 -1
    outer loop
      vertex -152.8 0 0
      vertex -156.3 0 0
      vertex -152.8 1.5 0
    endloop
  endfacet
  facet normal -0 0 -1
    outer loop
      vertex -152.8 1.5 0
      vertex -156.3 0 0
      vertex -156.3 1.5 0
    endloop
  endfacet
  facet normal 0 0 -1
    outer loop
      vertex -88.9 -9.29289 0
      vertex -88.1929 -5 0
      vertex -88.1929 -10 0
    endloop
  endfacet
  facet normal 0 0 -1
    outer loop
      vertex -88.9 -9.29289 0
      vertex -88.9 -5.70711 0
      vertex -88.1929 -5 0
    endloop
  endfacet
  facet normal 0 0 -1
    outer loop
      vertex -89.6071 -10 0
      vertex -88.9 -5.70711 0
      vertex -88.9 -9.29289 0
    endloop
  endfacet
  facet normal 0 0 -1
    outer loop
      vertex -89.6071 -10 0
      vertex -89.6071 -5 0
      vertex -88.9 -5.70711 0
    endloop
  endfacet
  facet normal 0 0 -1
    outer loop
      vertex -152.8 -10 0
      vertex -89.6071 -5 0
      vertex -89.6071 -10 0
    endloop
  endfacet
  facet normal 0 0 -1
    outer loop
      vertex -152.8 0 0
      vertex -89.6071 -5 0
      vertex -152.8 -10 0
    endloop
  endfacet
  facet normal 0 0 -1
    outer loop
      vertex -89.6071 -5 0
      vertex -152.8 0 0
      vertex -89.6071 0 0
    endloop
  endfacet
  facet normal 0 0 -1
    outer loop
      vertex -88.1929 -5 0
      vertex -25 -10 0
      vertex -88.1929 -10 0
    endloop
  endfacet
  facet normal 0 0 -1
    outer loop
      vertex -25 -10 0
      vertex -88.1929 -5 0
      vertex -25 0 0
    endloop
  endfacet
  facet normal 0 0 -1
    outer loop
      vertex -88.1929 -5 0
      vertex -88.1929 0 0
      vertex -25 0 0
    endloop
  endfacet
  facet normal 0 0 -1
    outer loop
      vertex -88.9 -4.29289 0
      vertex -88.1929 0 0
      vertex -88.1929 -5 0
    endloop
  endfacet
  facet normal 0 0 -1
    outer loop
      vertex -88.9 -4.29289 0
      vertex -88.9 -0.707107 0
      vertex -88.1929 0 0
    endloop
  endfacet
  facet normal 0 0 -1
    outer loop
      vertex -89.6071 -5 0
      vertex -88.9 -0.707107 0
      vertex -88.9 -4.29289 0
    endloop
  endfacet
  facet normal -0 0 -1
    outer loop
      vertex -88.9 -0.707107 0
      vertex -89.6071 -5 0
      vertex -89.6071 0 0
    endloop
  endfacet
  facet normal 0 0 -1
    outer loop
      vertex -25 -10 0
      vertex -21.5 -10 0
      vertex -21.5 -11.5 0
    endloop
  endfacet
  facet normal 0 0 -1
    outer loop
      vertex -21.5 -10 0
      vertex -25 -10 0
      vertex -21.5 0 0
    endloop
  endfacet
  facet normal 0 0 -1
    outer loop
      vertex -25 -10 0
      vertex -21.5 -11.5 0
      vertex -25 -11.5 0
    endloop
  endfacet
  facet normal 0 0 -1
    outer loop
      vertex -25 0 0
      vertex -21.5 0 0
      vertex -25 -10 0
    endloop
  endfacet
  facet normal 0 0 -1
    outer loop
      vertex -21.5 0 0
      vertex -25 0 0
      vertex -21.5 1.5 0
    endloop
  endfacet
  facet normal -0 0 -1
    outer loop
      vertex -21.5 1.5 0
      vertex -25 0 0
      vertex -25 1.5 0
    endloop
  endfacet
  facet normal 0 0 -1
    outer loop
      vertex -21.5 -10 0
      vertex -6.75 0 0
      vertex -6.75 -10 0
    endloop
  endfacet
  facet normal -0 0 -1
    outer loop
      vertex -6.75 0 0
      vertex -21.5 -10 0
      vertex -21.5 0 0
    endloop
  endfacet
  facet normal 0.316228 0 0.948683
    outer loop
      vertex -6.75 0 3.5
      vertex -1.5 -10 1.75
      vertex -1.5 0 1.75
    endloop
  endfacet
  facet normal 0.316228 0 0.948683
    outer loop
      vertex -1.5 -10 1.75
      vertex -6.75 0 3.5
      vertex -6.75 -10 3.5
    endloop
  endfacet
  facet normal 0 1 -0
    outer loop
      vertex -21.5 1.5 0
      vertex -25 1.5 5
      vertex -21.5 1.5 5
    endloop
  endfacet
  facet normal 0 1 0
    outer loop
      vertex -25 1.5 5
      vertex -21.5 1.5 0
      vertex -25 1.5 0
    endloop
  endfacet
  facet normal 0 1 -0
    outer loop
      vertex -152.8 1.5 0
      vertex -156.3 1.5 5
      vertex -152.8 1.5 5
    endloop
  endfacet
  facet normal 0 1 0
    outer loop
      vertex -156.3 1.5 5
      vertex -152.8 1.5 0
      vertex -156.3 1.5 0
    endloop
  endfacet
  facet normal 0 -1 0
    outer loop
      vertex -25 -11.5 0
      vertex -21.5 -11.5 5
      vertex -25 -11.5 5
    endloop
  endfacet
  facet normal 0 -1 -0
    outer loop
      vertex -21.5 -11.5 5
      vertex -25 -11.5 0
      vertex -21.5 -11.5 0
    endloop
  endfacet
  facet normal 0 -1 0
    outer loop
      vertex -156.3 -11.5 0
      vertex -152.8 -11.5 5
      vertex -156.3 -11.5 5
    endloop
  endfacet
  facet normal 0 -1 -0
    outer loop
      vertex -152.8 -11.5 5
      vertex -156.3 -11.5 0
      vertex -152.8 -11.5 0
    endloop
  endfacet
  facet normal -0 0 1
    outer loop
      vertex -25 1.5 5
      vertex -21.5 -11.5 5
      vertex -21.5 1.5 5
    endloop
  endfacet
  facet normal 0 0 1
    outer loop
      vertex -21.5 -11.5 5
      vertex -25 1.5 5
      vertex -25 -11.5 5
    endloop
  endfacet
  facet normal -1 0 0
    outer loop
      vertex -25 -10 0
      vertex -25 -11.5 0
      vertex -25 -10 3.5
    endloop
  endfacet
  facet normal -1 0 0
    outer loop
      vertex -25 0 3.5
      vertex -25 1.5 0
      vertex -25 0 0
    endloop
  endfacet
  facet normal -1 0 0
    outer loop
      vertex -25 1.5 0
      vertex -25 0 3.5
      vertex -25 1.5 5
    endloop
  endfacet
  facet normal -1 0 0
    outer loop
      vertex -25 -10 3.5
      vertex -25 1.5 5
      vertex -25 0 3.5
    endloop
  endfacet
  facet normal -1 0 0
    outer loop
      vertex -25 -10 3.5
      vertex -25 -11.5 5
      vertex -25 1.5 5
    endloop
  endfacet
  facet normal -1 0 0
    outer loop
      vertex -25 -11.5 5
      vertex -25 -10 3.5
      vertex -25 -11.5 0
    endloop
  endfacet
  facet normal 1 0 0
    outer loop
      vertex -21.5 1.5 5
      vertex -21.5 0 3.5
      vertex -21.5 1.5 0
    endloop
  endfacet
  facet normal 1 0 0
    outer loop
      vertex -21.5 1.5 5
      vertex -21.5 -10 3.5
      vertex -21.5 0 3.5
    endloop
  endfacet
  facet normal 1 -0 0
    outer loop
      vertex -21.5 -11.5 5
      vertex -21.5 -10 3.5
      vertex -21.5 1.5 5
    endloop
  endfacet
  facet normal 1 0 0
    outer loop
      vertex -21.5 -11.5 0
      vertex -21.5 -10 3.5
      vertex -21.5 -11.5 5
    endloop
  endfacet
  facet normal 1 0 0
    outer loop
      vertex -21.5 -10 3.5
      vertex -21.5 -11.5 0
      vertex -21.5 -10 0
    endloop
  endfacet
  facet normal 1 0 0
    outer loop
      vertex -21.5 1.5 0
      vertex -21.5 0 3.5
      vertex -21.5 0 0
    endloop
  endfacet
  facet normal -0 0 1
    outer loop
      vertex -156.3 1.5 5
      vertex -152.8 -11.5 5
      vertex -152.8 1.5 5
    endloop
  endfacet
  facet normal 0 0 1
    outer loop
      vertex -152.8 -11.5 5
      vertex -156.3 1.5 5
      vertex -156.3 -11.5 5
    endloop
  endfacet
  facet normal -1 0 0
    outer loop
      vertex -156.3 -10 0
      vertex -156.3 -11.5 0
      vertex -156.3 -10 3.5
    endloop
  endfacet
  facet normal -1 0 0
    outer loop
      vertex -156.3 0 3.5
      vertex -156.3 1.5 0
      vertex -156.3 0 0
    endloop
  endfacet
  facet normal -1 0 0
    outer loop
      vertex -156.3 1.5 0
      vertex -156.3 0 3.5
      vertex -156.3 1.5 5
    endloop
  endfacet
  facet normal -1 0 0
    outer loop
      vertex -156.3 -10 3.5
      vertex -156.3 1.5 5
      vertex -156.3 0 3.5
    endloop
  endfacet
  facet normal -1 0 0
    outer loop
      vertex -156.3 -10 3.5
      vertex -156.3 -11.5 5
      vertex -156.3 1.5 5
    endloop
  endfacet
  facet normal -1 0 0
    outer loop
      vertex -156.3 -11.5 5
      vertex -156.3 -10 3.5
      vertex -156.3 -11.5 0
    endloop
  endfacet
  facet normal 1 0 0
    outer loop
      vertex -152.8 1.5 5
      vertex -152.8 0 3.5
      vertex -152.8 1.5 0
    endloop
  endfacet
  facet normal 1 0 0
    outer loop
      vertex -152.8 1.5 5
      vertex -152.8 -10 3.5
      vertex -152.8 0 3.5
    endloop
  endfacet
  facet normal 1 -0 0
    outer loop
      vertex -152.8 -11.5 5
      vertex -152.8 -10 3.5
      vertex -152.8 1.5 5
    endloop
  endfacet
  facet normal 1 0 0
    outer loop
      vertex -152.8 -11.5 0
      vertex -152.8 -10 3.5
      vertex -152.8 -11.5 5
    endloop
  endfacet
  facet normal 1 0 0
    outer loop
      vertex -152.8 -10 3.5
      vertex -152.8 -11.5 0
      vertex -152.8 -10 0
    endloop
  endfacet
  facet normal 1 0 0
    outer loop
      vertex -152.8 1.5 0
      vertex -152.8 0 3.5
      vertex -152.8 0 0
    endloop
  endfacet
  facet normal -0.70711 0.707103 0
    outer loop
      vertex -88.1929 0 0
      vertex -88.9 -0.707107 3.5
      vertex -88.1929 0 3.5
    endloop
  endfacet
  facet normal -0.70711 0.707103 0
    outer loop
      vertex -88.9 -0.707107 3.5
      vertex -88.1929 0 0
      vertex -88.9 -0.707107 0
    endloop
  endfacet
  facet normal 0.70711 0.707103 -0
    outer loop
      vertex -88.9 -0.707107 0
      vertex -89.6071 0 3.5
      vertex -88.9 -0.707107 3.5
    endloop
  endfacet
  facet normal 0.70711 0.707103 0
    outer loop
      vertex -89.6071 0 3.5
      vertex -88.9 -0.707107 0
      vertex -89.6071 0 0
    endloop
  endfacet
  facet normal -0.707112 -0.707102 0
    outer loop
      vertex -88.1929 -5 0
      vertex -88.9 -4.29289 3.5
      vertex -88.9 -4.29289 0
    endloop
  endfacet
  facet normal -0.707112 -0.707102 0
    outer loop
      vertex -88.9 -4.29289 3.5
      vertex -88.1929 -5 0
      vertex -88.1929 -5 3.5
    endloop
  endfacet
  facet normal -0.707112 0.707102 0
    outer loop
      vertex -88.1929 -5 0
      vertex -88.9 -5.70711 3.5
      vertex -88.1929 -5 3.5
    endloop
  endfacet
  facet normal -0.707112 0.707102 0
    outer loop
      vertex -88.9 -5.70711 3.5
      vertex -88.1929 -5 0
      vertex -88.9 -5.70711 0
    endloop
  endfacet
  facet normal 0.707112 -0.707102 0
    outer loop
      vertex -89.6071 -5 3.5
      vertex -88.9 -4.29289 0
      vertex -88.9 -4.29289 3.5
    endloop
  endfacet
  facet normal 0.707112 -0.707102 0
    outer loop
      vertex -88.9 -4.29289 0
      vertex -89.6071 -5 3.5
      vertex -89.6071 -5 0
    endloop
  endfacet
  facet normal 0.707112 0.707102 -0
    outer loop
      vertex -88.9 -5.70711 0
      vertex -89.6071 -5 3.5
      vertex -88.9 -5.70711 3.5
    endloop
  endfacet
  facet normal 0.707112 0.707102 0
    outer loop
      vertex -89.6071 -5 3.5
      vertex -88.9 -5.70711 0
      vertex -89.6071 -5 0
    endloop
  endfacet
  facet normal -0.707112 -0.707102 0
    outer loop
      vertex -88.1929 -10 0
      vertex -88.9 -9.29289 3.5
      vertex -88.9 -9.29289 0
    endloop
  endfacet
  facet normal -0.707112 -0.707102 0
    outer loop
      vertex -88.9 -9.29289 3.5
      vertex -88.1929 -10 0
      vertex -88.1929 -10 3.5
    endloop
  endfacet
  facet normal 0.707112 -0.707102 0
    outer loop
      vertex -89.6071 -10 3.5
      vertex -88.9 -9.29289 0
      vertex -88.9 -9.29289 3.5
    endloop
  endfacet
  facet normal 0.707112 -0.707102 0
    outer loop
      vertex -88.9 -9.29289 0
      vertex -89.6071 -10 3.5
      vertex -89.6071 -10 0
    endloop
  endfacet
endsolid OpenSCAD_Model
