solid OpenSCAD_Model
  facet normal 0.948683 -0.316228 0
    outer loop
      vertex -25.75 -65.25 14.75
      vertex -24 -60 0
      vertex -24 -60 16.5
    endloop
  endfacet
  facet normal 0.948683 -0.316228 0
    outer loop
      vertex -24 -60 0
      vertex -25.75 -65.25 14.75
      vertex -25.75 -65.25 0
    endloop
  endfacet
  facet normal -0.948683 -0.316228 -0
    outer loop
      vertex -25.75 -65.25 14.75
      vertex -27.5 -60 0
      vertex -25.75 -65.25 0
    endloop
  endfacet
  facet normal -0.948683 -0.316228 0
    outer loop
      vertex -27.5 -60 0
      vertex -25.75 -65.25 14.75
      vertex -27.5 -60 16.5
    endloop
  endfacet
  facet normal 0 0 1
    outer loop
      vertex -24 0 20
      vertex -27.5 0 20
      vertex -24 -60 20
    endloop
  endfacet
  facet normal -0 0 1
    outer loop
      vertex -24 -60 20
      vertex -20.5 -65.25 20
      vertex -20.5 -60 20
    endloop
  endfacet
  facet normal 0 0 1
    outer loop
      vertex -27.5 -60 20
      vertex -24 -60 20
      vertex -27.5 0 20
    endloop
  endfacet
  facet normal -0 0 1
    outer loop
      vertex -27.5 -60 20
      vertex -20.5 -65.25 20
      vertex -24 -60 20
    endloop
  endfacet
  facet normal 0 0 1
    outer loop
      vertex -31 -65.25 20
      vertex -27.5 -60 20
      vertex -31 -60 20
    endloop
  endfacet
  facet normal 0 0 1
    outer loop
      vertex -27.5 -60 20
      vertex -31 -65.25 20
      vertex -20.5 -65.25 20
    endloop
  endfacet
  facet normal 0 0 -1
    outer loop
      vertex -153.8 -60 0
      vertex -150.3 -60 0
      vertex -152.05 -65.25 0
    endloop
  endfacet
  facet normal 0 0 -1
    outer loop
      vertex -27.5 -60 0
      vertex -24 -60 0
      vertex -25.75 -65.25 0
    endloop
  endfacet
  facet normal 0 0 -1
    outer loop
      vertex -24 -20 0
      vertex -23.5 0 0
      vertex -23.5 -20 0
    endloop
  endfacet
  facet normal 0 0 -1
    outer loop
      vertex -24 -60 0
      vertex -27.5 -60 0
      vertex -24 -20 0
    endloop
  endfacet
  facet normal -0 0 -1
    outer loop
      vertex -24 -20 0
      vertex -27.5 -60 0
      vertex -27.5 -20 0
    endloop
  endfacet
  facet normal 0 0 -1
    outer loop
      vertex -24 -20 0
      vertex -27.5 -20 0
      vertex -23.5 0 0
    endloop
  endfacet
  facet normal 0 0 -1
    outer loop
      vertex -88.1929 -10 0
      vertex -27.5 -20 0
      vertex -88.1929 -20 0
    endloop
  endfacet
  facet normal 0 0 -1
    outer loop
      vertex -88.1929 0 0
      vertex -27.5 -20 0
      vertex -88.1929 -10 0
    endloop
  endfacet
  facet normal 0 0 -1
    outer loop
      vertex -27.5 -20 0
      vertex -88.1929 0 0
      vertex -23.5 0 0
    endloop
  endfacet
  facet normal 0 0 -1
    outer loop
      vertex -88.9 -9.29289 0
      vertex -88.1929 0 0
      vertex -88.1929 -10 0
    endloop
  endfacet
  facet normal 0 0 -1
    outer loop
      vertex -88.9 -9.29289 0
      vertex -88.9 -0.707107 0
      vertex -88.1929 0 0
    endloop
  endfacet
  facet normal 0 0 -1
    outer loop
      vertex -89.6071 -10 0
      vertex -88.9 -0.707107 0
      vertex -88.9 -9.29289 0
    endloop
  endfacet
  facet normal -0 0 -1
    outer loop
      vertex -88.9 -0.707107 0
      vertex -89.6071 -10 0
      vertex -89.6071 0 0
    endloop
  endfacet
  facet normal 0 0 -1
    outer loop
      vertex -23.5 -20 0
      vertex -20 -20 0
      vertex -20 -21.5 0
    endloop
  endfacet
  facet normal 0 0 -1
    outer loop
      vertex -20 -20 0
      vertex -23.5 -20 0
      vertex -20 0 0
    endloop
  endfacet
  facet normal 0 0 -1
    outer loop
      vertex -23.5 -20 0
      vertex -20 -21.5 0
      vertex -23.5 -21.5 0
    endloop
  endfacet
  facet normal 0 0 -1
    outer loop
      vertex -23.5 0 0
      vertex -20 0 0
      vertex -23.5 -20 0
    endloop
  endfacet
  facet normal 0 0 -1
    outer loop
      vertex -20 0 0
      vertex -23.5 0 0
      vertex -20 1.5 0
    endloop
  endfacet
  facet normal -0 0 -1
    outer loop
      vertex -20 1.5 0
      vertex -23.5 0 0
      vertex -23.5 1.5 0
    endloop
  endfacet
  facet normal 0 0 -1
    outer loop
      vertex -20 -20 0
      vertex -5.25 0 0
      vertex -5.25 -20 0
    endloop
  endfacet
  facet normal -0 0 -1
    outer loop
      vertex -5.25 0 0
      vertex -20 -20 0
      vertex -20 0 0
    endloop
  endfacet
  facet normal 0 0 -1
    outer loop
      vertex -88.9 -19.2929 0
      vertex -88.1929 -10 0
      vertex -88.1929 -20 0
    endloop
  endfacet
  facet normal 0 0 -1
    outer loop
      vertex -88.9 -19.2929 0
      vertex -88.9 -10.7071 0
      vertex -88.1929 -10 0
    endloop
  endfacet
  facet normal 0 0 -1
    outer loop
      vertex -89.6071 -20 0
      vertex -88.9 -10.7071 0
      vertex -88.9 -19.2929 0
    endloop
  endfacet
  facet normal 0 0 -1
    outer loop
      vertex -89.6071 -20 0
      vertex -89.6071 -10 0
      vertex -88.9 -10.7071 0
    endloop
  endfacet
  facet normal 0 0 -1
    outer loop
      vertex -150.3 -20 0
      vertex -89.6071 -10 0
      vertex -89.6071 -20 0
    endloop
  endfacet
  facet normal -0 0 -1
    outer loop
      vertex -89.6071 -10 0
      vertex -150.3 -20 0
      vertex -89.6071 0 0
    endloop
  endfacet
  facet normal 0 0 -1
    outer loop
      vertex -150.3 -60 0
      vertex -153.8 -60 0
      vertex -150.3 -20 0
    endloop
  endfacet
  facet normal 0 0 -1
    outer loop
      vertex -153.8 -20 0
      vertex -150.3 -20 0
      vertex -153.8 -60 0
    endloop
  endfacet
  facet normal 0 0 -1
    outer loop
      vertex -154.3 0 0
      vertex -150.3 -20 0
      vertex -153.8 -20 0
    endloop
  endfacet
  facet normal 0 0 -1
    outer loop
      vertex -154.3 0 0
      vertex -153.8 -20 0
      vertex -154.3 -20 0
    endloop
  endfacet
  facet normal 0 0 -1
    outer loop
      vertex -150.3 -20 0
      vertex -154.3 0 0
      vertex -89.6071 0 0
    endloop
  endfacet
  facet normal 0 0 -1
    outer loop
      vertex -172.55 -20 0
      vertex -157.8 0 0
      vertex -157.8 -20 0
    endloop
  endfacet
  facet normal -0 0 -1
    outer loop
      vertex -157.8 0 0
      vertex -172.55 -20 0
      vertex -172.55 0 0
    endloop
  endfacet
  facet normal 0 0 -1
    outer loop
      vertex -157.8 -20 0
      vertex -154.3 -20 0
      vertex -154.3 -21.5 0
    endloop
  endfacet
  facet normal 0 0 -1
    outer loop
      vertex -154.3 -20 0
      vertex -157.8 -20 0
      vertex -154.3 0 0
    endloop
  endfacet
  facet normal 0 0 -1
    outer loop
      vertex -157.8 -20 0
      vertex -154.3 -21.5 0
      vertex -157.8 -21.5 0
    endloop
  endfacet
  facet normal 0 0 -1
    outer loop
      vertex -157.8 0 0
      vertex -154.3 0 0
      vertex -157.8 -20 0
    endloop
  endfacet
  facet normal 0 0 -1
    outer loop
      vertex -154.3 0 0
      vertex -157.8 0 0
      vertex -154.3 1.5 0
    endloop
  endfacet
  facet normal -0 0 -1
    outer loop
      vertex -154.3 1.5 0
      vertex -157.8 0 0
      vertex -157.8 1.5 0
    endloop
  endfacet
  facet normal 0 1 0
    outer loop
      vertex -172.55 0 0
      vertex -172.55 0 3.5
      vertex -157.8 0 3.5
    endloop
  endfacet
  facet normal 0 1 0
    outer loop
      vertex -172.55 0 0
      vertex -157.8 0 3.5
      vertex -157.8 0 0
    endloop
  endfacet
  facet normal 0 1 0
    outer loop
      vertex -172.55 0 3.5
      vertex -172.55 0 0
      vertex -177.8 0 1.75
    endloop
  endfacet
  facet normal 0 1 0
    outer loop
      vertex -5.25 0 0
      vertex -5.25 0 3.5
      vertex 0 0 1.75
    endloop
  endfacet
  facet normal 0 1 0
    outer loop
      vertex -5.25 0 3.5
      vertex -5.25 0 0
      vertex -20 0 3.5
    endloop
  endfacet
  facet normal 0 1 0
    outer loop
      vertex -20 0 3.5
      vertex -5.25 0 0
      vertex -20 0 0
    endloop
  endfacet
  facet normal 0 1 -0
    outer loop
      vertex -89.6071 0 0
      vertex -150.3 0 3.5
      vertex -89.6071 0 3.5
    endloop
  endfacet
  facet normal 0 1 0
    outer loop
      vertex -154.3 0 0
      vertex -150.3 0 3.5
      vertex -89.6071 0 0
    endloop
  endfacet
  facet normal 0 1 0
    outer loop
      vertex -150.3 0 3.5
      vertex -154.3 0 0
      vertex -153.8 0 3.5
    endloop
  endfacet
  facet normal 0 1 0
    outer loop
      vertex -153.8 0 3.5
      vertex -154.3 0 0
      vertex -154.3 0 3.5
    endloop
  endfacet
  facet normal 0 1 -0
    outer loop
      vertex -150.3 0 3.5
      vertex -153.8 0 20
      vertex -150.3 0 20
    endloop
  endfacet
  facet normal 0 1 0
    outer loop
      vertex -153.8 0 20
      vertex -150.3 0 3.5
      vertex -153.8 0 3.5
    endloop
  endfacet
  facet normal 0 1 -0
    outer loop
      vertex -23.5 0 0
      vertex -24 0 3.5
      vertex -23.5 0 3.5
    endloop
  endfacet
  facet normal 0 1 0
    outer loop
      vertex -24 0 3.5
      vertex -23.5 0 0
      vertex -27.5 0 3.5
    endloop
  endfacet
  facet normal 0 1 0
    outer loop
      vertex -88.1929 0 0
      vertex -27.5 0 3.5
      vertex -23.5 0 0
    endloop
  endfacet
  facet normal 0 1 0
    outer loop
      vertex -27.5 0 3.5
      vertex -88.1929 0 0
      vertex -88.1929 0 3.5
    endloop
  endfacet
  facet normal 0 1 -0
    outer loop
      vertex -24 0 3.5
      vertex -27.5 0 20
      vertex -24 0 20
    endloop
  endfacet
  facet normal 0 1 0
    outer loop
      vertex -27.5 0 20
      vertex -24 0 3.5
      vertex -27.5 0 3.5
    endloop
  endfacet
  facet normal 1 0 0
    outer loop
      vertex -24 0 20
      vertex -24 -20 3.5
      vertex -24 0 3.5
    endloop
  endfacet
  facet normal 1 -0 0
    outer loop
      vertex -24 -60 20
      vertex -24 -20 3.5
      vertex -24 0 20
    endloop
  endfacet
  facet normal 1 -0 0
    outer loop
      vertex -24 -60 16.5
      vertex -24 -20 3.5
      vertex -24 -60 20
    endloop
  endfacet
  facet normal 1 0 0
    outer loop
      vertex -24 -60 0
      vertex -24 -20 3.5
      vertex -24 -60 16.5
    endloop
  endfacet
  facet normal 1 0 0
    outer loop
      vertex -24 -20 3.5
      vertex -24 -60 0
      vertex -24 -20 0
    endloop
  endfacet
  facet normal -1 0 0
    outer loop
      vertex -27.5 -20 3.5
      vertex -27.5 0 20
      vertex -27.5 0 3.5
    endloop
  endfacet
  facet normal -1 0 0
    outer loop
      vertex -27.5 -60 16.5
      vertex -27.5 -20 3.5
      vertex -27.5 -60 0
    endloop
  endfacet
  facet normal -1 0 0
    outer loop
      vertex -27.5 -60 20
      vertex -27.5 -20 3.5
      vertex -27.5 -60 16.5
    endloop
  endfacet
  facet normal -1 0 0
    outer loop
      vertex -27.5 -20 3.5
      vertex -27.5 -60 20
      vertex -27.5 0 20
    endloop
  endfacet
  facet normal -1 0 0
    outer loop
      vertex -27.5 -20 0
      vertex -27.5 -60 0
      vertex -27.5 -20 3.5
    endloop
  endfacet
  facet normal 0 1 0
    outer loop
      vertex -20.5 -60 20
      vertex -24 -60 16.5
      vertex -24 -60 20
    endloop
  endfacet
  facet normal 0 1 -0
    outer loop
      vertex -27.5 -60 16.5
      vertex -31 -60 20
      vertex -27.5 -60 20
    endloop
  endfacet
  facet normal -0.707107 0 -0.707107
    outer loop
      vertex -31 -65.25 20
      vertex -27.5 -60 16.5
      vertex -25.75 -65.25 14.75
    endloop
  endfacet
  facet normal -0.707107 0 -0.707107
    outer loop
      vertex -27.5 -60 16.5
      vertex -31 -65.25 20
      vertex -31 -60 20
    endloop
  endfacet
  facet normal -0 -1 0
    outer loop
      vertex -20.5 -65.25 20
      vertex -31 -65.25 20
      vertex -25.75 -65.25 14.75
    endloop
  endfacet
  facet normal 0.707107 0 -0.707107
    outer loop
      vertex -20.5 -65.25 20
      vertex -24 -60 16.5
      vertex -20.5 -60 20
    endloop
  endfacet
  facet normal 0.707107 0 -0.707107
    outer loop
      vertex -24 -60 16.5
      vertex -20.5 -65.25 20
      vertex -25.75 -65.25 14.75
    endloop
  endfacet
  facet normal -0.948683 -0.316228 -0
    outer loop
      vertex -152.05 -65.25 14.75
      vertex -153.8 -60 0
      vertex -152.05 -65.25 0
    endloop
  endfacet
  facet normal -0.948683 -0.316228 0
    outer loop
      vertex -153.8 -60 0
      vertex -152.05 -65.25 14.75
      vertex -153.8 -60 16.5
    endloop
  endfacet
  facet normal 0.948683 -0.316228 0
    outer loop
      vertex -152.05 -65.25 14.75
      vertex -150.3 -60 0
      vertex -150.3 -60 16.5
    endloop
  endfacet
  facet normal 0.948683 -0.316228 0
    outer loop
      vertex -150.3 -60 0
      vertex -152.05 -65.25 14.75
      vertex -152.05 -65.25 0
    endloop
  endfacet
  facet normal 0 0 1
    outer loop
      vertex -150.3 0 20
      vertex -153.8 0 20
      vertex -150.3 -60 20
    endloop
  endfacet
  facet normal -0 0 1
    outer loop
      vertex -150.3 -60 20
      vertex -146.8 -65.25 20
      vertex -146.8 -60 20
    endloop
  endfacet
  facet normal 0 0 1
    outer loop
      vertex -153.8 -60 20
      vertex -150.3 -60 20
      vertex -153.8 0 20
    endloop
  endfacet
  facet normal -0 0 1
    outer loop
      vertex -153.8 -60 20
      vertex -146.8 -65.25 20
      vertex -150.3 -60 20
    endloop
  endfacet
  facet normal 0 0 1
    outer loop
      vertex -157.3 -65.25 20
      vertex -153.8 -60 20
      vertex -157.3 -60 20
    endloop
  endfacet
  facet normal 0 0 1
    outer loop
      vertex -153.8 -60 20
      vertex -157.3 -65.25 20
      vertex -146.8 -65.25 20
    endloop
  endfacet
  facet normal -1 0 0
    outer loop
      vertex -153.8 -20 0
      vertex -153.8 -60 0
      vertex -153.8 -20 3.5
    endloop
  endfacet
  facet normal -1 0 0
    outer loop
      vertex -153.8 -20 3.5
      vertex -153.8 0 20
      vertex -153.8 0 3.5
    endloop
  endfacet
  facet normal -1 0 0
    outer loop
      vertex -153.8 -60 16.5
      vertex -153.8 -20 3.5
      vertex -153.8 -60 0
    endloop
  endfacet
  facet normal -1 0 0
    outer loop
      vertex -153.8 -60 20
      vertex -153.8 -20 3.5
      vertex -153.8 -60 16.5
    endloop
  endfacet
  facet normal -1 0 0
    outer loop
      vertex -153.8 -20 3.5
      vertex -153.8 -60 20
      vertex -153.8 0 20
    endloop
  endfacet
  facet normal 1 0 0
    outer loop
      vertex -150.3 0 20
      vertex -150.3 -20 3.5
      vertex -150.3 0 3.5
    endloop
  endfacet
  facet normal 1 -0 0
    outer loop
      vertex -150.3 -60 20
      vertex -150.3 -20 3.5
      vertex -150.3 0 20
    endloop
  endfacet
  facet normal 1 -0 0
    outer loop
      vertex -150.3 -60 16.5
      vertex -150.3 -20 3.5
      vertex -150.3 -60 20
    endloop
  endfacet
  facet normal 1 0 0
    outer loop
      vertex -150.3 -60 0
      vertex -150.3 -20 3.5
      vertex -150.3 -60 16.5
    endloop
  endfacet
  facet normal 1 0 0
    outer loop
      vertex -150.3 -20 3.5
      vertex -150.3 -60 0
      vertex -150.3 -20 0
    endloop
  endfacet
  facet normal 0 1 0
    outer loop
      vertex -153.8 -60 20
      vertex -153.8 -60 16.5
      vertex -157.3 -60 20
    endloop
  endfacet
  facet normal -0 1 0
    outer loop
      vertex -150.3 -60 20
      vertex -146.8 -60 20
      vertex -150.3 -60 16.5
    endloop
  endfacet
  facet normal 0.707107 0 -0.707107
    outer loop
      vertex -146.8 -65.25 20
      vertex -150.3 -60 16.5
      vertex -146.8 -60 20
    endloop
  endfacet
  facet normal 0.707107 0 -0.707107
    outer loop
      vertex -150.3 -60 16.5
      vertex -146.8 -65.25 20
      vertex -152.05 -65.25 14.75
    endloop
  endfacet
  facet normal 0 -1 0
    outer loop
      vertex -152.05 -65.25 14.75
      vertex -146.8 -65.25 20
      vertex -157.3 -65.25 20
    endloop
  endfacet
  facet normal -0.707107 0 -0.707107
    outer loop
      vertex -157.3 -65.25 20
      vertex -153.8 -60 16.5
      vertex -152.05 -65.25 14.75
    endloop
  endfacet
  facet normal -0.707107 0 -0.707107
    outer loop
      vertex -153.8 -60 16.5
      vertex -157.3 -65.25 20
      vertex -157.3 -60 20
    endloop
  endfacet
  facet normal -0.316228 0 0.948683
    outer loop
      vertex -177.8 0 1.75
      vertex -172.55 -20 3.5
      vertex -172.55 0 3.5
    endloop
  endfacet
  facet normal -0.316228 0 0.948683
    outer loop
      vertex -172.55 -20 3.5
      vertex -177.8 0 1.75
      vertex -177.8 -20 1.75
    endloop
  endfacet
  facet normal 0.316228 0 -0.948683
    outer loop
      vertex -5.25 -20 0
      vertex 0 0 1.75
      vertex 0 -20 1.75
    endloop
  endfacet
  facet normal 0.316228 0 -0.948683
    outer loop
      vertex 0 0 1.75
      vertex -5.25 -20 0
      vertex -5.25 0 0
    endloop
  endfacet
  facet normal 0 -1 0
    outer loop
      vertex -5.25 -20 0
      vertex -5.25 -20 3.5
      vertex -20 -20 3.5
    endloop
  endfacet
  facet normal 0 -1 0
    outer loop
      vertex -5.25 -20 0
      vertex -20 -20 3.5
      vertex -20 -20 0
    endloop
  endfacet
  facet normal 0 -1 0
    outer loop
      vertex -5.25 -20 3.5
      vertex -5.25 -20 0
      vertex 0 -20 1.75
    endloop
  endfacet
  facet normal 0 -1 0
    outer loop
      vertex -172.55 -20 0
      vertex -172.55 -20 3.5
      vertex -177.8 -20 1.75
    endloop
  endfacet
  facet normal 0 -1 0
    outer loop
      vertex -172.55 -20 3.5
      vertex -172.55 -20 0
      vertex -157.8 -20 3.5
    endloop
  endfacet
  facet normal 0 -1 -0
    outer loop
      vertex -157.8 -20 3.5
      vertex -172.55 -20 0
      vertex -157.8 -20 0
    endloop
  endfacet
  facet normal 0 -1 0
    outer loop
      vertex -154.3 -20 0
      vertex -153.8 -20 3.5
      vertex -154.3 -20 3.5
    endloop
  endfacet
  facet normal 0 -1 -0
    outer loop
      vertex -153.8 -20 3.5
      vertex -154.3 -20 0
      vertex -153.8 -20 0
    endloop
  endfacet
  facet normal 0 -1 0
    outer loop
      vertex -24 -20 0
      vertex -23.5 -20 3.5
      vertex -24 -20 3.5
    endloop
  endfacet
  facet normal 0 -1 -0
    outer loop
      vertex -23.5 -20 3.5
      vertex -24 -20 0
      vertex -23.5 -20 0
    endloop
  endfacet
  facet normal 0 -1 0
    outer loop
      vertex -150.3 -20 0
      vertex -89.6071 -20 3.5
      vertex -150.3 -20 3.5
    endloop
  endfacet
  facet normal 0 -1 -0
    outer loop
      vertex -89.6071 -20 3.5
      vertex -150.3 -20 0
      vertex -89.6071 -20 0
    endloop
  endfacet
  facet normal 0 -1 0
    outer loop
      vertex -88.1929 -20 0
      vertex -27.5 -20 3.5
      vertex -88.1929 -20 3.5
    endloop
  endfacet
  facet normal 0 -1 -0
    outer loop
      vertex -27.5 -20 3.5
      vertex -88.1929 -20 0
      vertex -27.5 -20 0
    endloop
  endfacet
  facet normal -0.316228 0 -0.948683
    outer loop
      vertex -177.8 -20 1.75
      vertex -172.55 0 0
      vertex -172.55 -20 0
    endloop
  endfacet
  facet normal -0.316228 0 -0.948683
    outer loop
      vertex -172.55 0 0
      vertex -177.8 -20 1.75
      vertex -177.8 0 1.75
    endloop
  endfacet
  facet normal -0 0 1
    outer loop
      vertex -20 0 3.5
      vertex -5.25 -20 3.5
      vertex -5.25 0 3.5
    endloop
  endfacet
  facet normal 0 0 1
    outer loop
      vertex -5.25 -20 3.5
      vertex -20 0 3.5
      vertex -20 -20 3.5
    endloop
  endfacet
  facet normal -0 0 1
    outer loop
      vertex -172.55 0 3.5
      vertex -157.8 -20 3.5
      vertex -157.8 0 3.5
    endloop
  endfacet
  facet normal 0 0 1
    outer loop
      vertex -157.8 -20 3.5
      vertex -172.55 0 3.5
      vertex -172.55 -20 3.5
    endloop
  endfacet
  facet normal -0 0 1
    outer loop
      vertex -154.3 0 3.5
      vertex -153.8 -20 3.5
      vertex -153.8 0 3.5
    endloop
  endfacet
  facet normal 0 0 1
    outer loop
      vertex -153.8 -20 3.5
      vertex -154.3 0 3.5
      vertex -154.3 -20 3.5
    endloop
  endfacet
  facet normal -0 0 1
    outer loop
      vertex -24 0 3.5
      vertex -23.5 -20 3.5
      vertex -23.5 0 3.5
    endloop
  endfacet
  facet normal 0 0 1
    outer loop
      vertex -23.5 -20 3.5
      vertex -24 0 3.5
      vertex -24 -20 3.5
    endloop
  endfacet
  facet normal -0 0 1
    outer loop
      vertex -88.9 -0.707107 3.5
      vertex -88.1929 -10 3.5
      vertex -88.1929 0 3.5
    endloop
  endfacet
  facet normal 0 0 1
    outer loop
      vertex -88.9 -0.707107 3.5
      vertex -88.9 -9.29289 3.5
      vertex -88.1929 -10 3.5
    endloop
  endfacet
  facet normal 0 0 1
    outer loop
      vertex -89.6071 0 3.5
      vertex -88.9 -9.29289 3.5
      vertex -88.9 -0.707107 3.5
    endloop
  endfacet
  facet normal 0 0 1
    outer loop
      vertex -89.6071 0 3.5
      vertex -89.6071 -10 3.5
      vertex -88.9 -9.29289 3.5
    endloop
  endfacet
  facet normal -0 0 1
    outer loop
      vertex -150.3 0 3.5
      vertex -89.6071 -10 3.5
      vertex -89.6071 0 3.5
    endloop
  endfacet
  facet normal 0 0 1
    outer loop
      vertex -150.3 -20 3.5
      vertex -89.6071 -10 3.5
      vertex -150.3 0 3.5
    endloop
  endfacet
  facet normal 0 0 1
    outer loop
      vertex -89.6071 -10 3.5
      vertex -150.3 -20 3.5
      vertex -89.6071 -20 3.5
    endloop
  endfacet
  facet normal 0 0 1
    outer loop
      vertex -88.1929 -10 3.5
      vertex -27.5 0 3.5
      vertex -88.1929 0 3.5
    endloop
  endfacet
  facet normal 0 0 1
    outer loop
      vertex -27.5 0 3.5
      vertex -88.1929 -10 3.5
      vertex -27.5 -20 3.5
    endloop
  endfacet
  facet normal 0 0 1
    outer loop
      vertex -88.1929 -10 3.5
      vertex -88.1929 -20 3.5
      vertex -27.5 -20 3.5
    endloop
  endfacet
  facet normal -0 0 1
    outer loop
      vertex -88.9 -10.7071 3.5
      vertex -88.1929 -20 3.5
      vertex -88.1929 -10 3.5
    endloop
  endfacet
  facet normal 0 0 1
    outer loop
      vertex -88.9 -10.7071 3.5
      vertex -88.9 -19.2929 3.5
      vertex -88.1929 -20 3.5
    endloop
  endfacet
  facet normal 0 0 1
    outer loop
      vertex -89.6071 -10 3.5
      vertex -88.9 -19.2929 3.5
      vertex -88.9 -10.7071 3.5
    endloop
  endfacet
  facet normal 0 0 1
    outer loop
      vertex -88.9 -19.2929 3.5
      vertex -89.6071 -10 3.5
      vertex -89.6071 -20 3.5
    endloop
  endfacet
  facet normal 0.316228 0 0.948683
    outer loop
      vertex -5.25 0 3.5
      vertex 0 -20 1.75
      vertex 0 0 1.75
    endloop
  endfacet
  facet normal 0.316228 0 0.948683
    outer loop
      vertex 0 -20 1.75
      vertex -5.25 0 3.5
      vertex -5.25 -20 3.5
    endloop
  endfacet
  facet normal 0 1 -0
    outer loop
      vertex -20 1.5 0
      vertex -23.5 1.5 5
      vertex -20 1.5 5
    endloop
  endfacet
  facet normal 0 1 0
    outer loop
      vertex -23.5 1.5 5
      vertex -20 1.5 0
      vertex -23.5 1.5 0
    endloop
  endfacet
  facet normal 0 1 -0
    outer loop
      vertex -154.3 1.5 0
      vertex -157.8 1.5 5
      vertex -154.3 1.5 5
    endloop
  endfacet
  facet normal 0 1 0
    outer loop
      vertex -157.8 1.5 5
      vertex -154.3 1.5 0
      vertex -157.8 1.5 0
    endloop
  endfacet
  facet normal 0 -1 0
    outer loop
      vertex -23.5 -21.5 0
      vertex -20 -21.5 5
      vertex -23.5 -21.5 5
    endloop
  endfacet
  facet normal 0 -1 -0
    outer loop
      vertex -20 -21.5 5
      vertex -23.5 -21.5 0
      vertex -20 -21.5 0
    endloop
  endfacet
  facet normal 0 -1 0
    outer loop
      vertex -157.8 -21.5 0
      vertex -154.3 -21.5 5
      vertex -157.8 -21.5 5
    endloop
  endfacet
  facet normal 0 -1 -0
    outer loop
      vertex -154.3 -21.5 5
      vertex -157.8 -21.5 0
      vertex -154.3 -21.5 0
    endloop
  endfacet
  facet normal -0 0 1
    outer loop
      vertex -23.5 1.5 5
      vertex -20 -21.5 5
      vertex -20 1.5 5
    endloop
  endfacet
  facet normal 0 0 1
    outer loop
      vertex -20 -21.5 5
      vertex -23.5 1.5 5
      vertex -23.5 -21.5 5
    endloop
  endfacet
  facet normal -1 0 0
    outer loop
      vertex -23.5 -20 0
      vertex -23.5 -21.5 0
      vertex -23.5 -20 3.5
    endloop
  endfacet
  facet normal -1 0 0
    outer loop
      vertex -23.5 0 3.5
      vertex -23.5 1.5 0
      vertex -23.5 0 0
    endloop
  endfacet
  facet normal -1 0 0
    outer loop
      vertex -23.5 1.5 0
      vertex -23.5 0 3.5
      vertex -23.5 1.5 5
    endloop
  endfacet
  facet normal -1 0 0
    outer loop
      vertex -23.5 -20 3.5
      vertex -23.5 1.5 5
      vertex -23.5 0 3.5
    endloop
  endfacet
  facet normal -1 0 0
    outer loop
      vertex -23.5 -20 3.5
      vertex -23.5 -21.5 5
      vertex -23.5 1.5 5
    endloop
  endfacet
  facet normal -1 0 0
    outer loop
      vertex -23.5 -21.5 5
      vertex -23.5 -20 3.5
      vertex -23.5 -21.5 0
    endloop
  endfacet
  facet normal 1 0 0
    outer loop
      vertex -20 1.5 5
      vertex -20 0 3.5
      vertex -20 1.5 0
    endloop
  endfacet
  facet normal 1 0 0
    outer loop
      vertex -20 1.5 5
      vertex -20 -20 3.5
      vertex -20 0 3.5
    endloop
  endfacet
  facet normal 1 -0 0
    outer loop
      vertex -20 -21.5 5
      vertex -20 -20 3.5
      vertex -20 1.5 5
    endloop
  endfacet
  facet normal 1 0 0
    outer loop
      vertex -20 -21.5 0
      vertex -20 -20 3.5
      vertex -20 -21.5 5
    endloop
  endfacet
  facet normal 1 0 0
    outer loop
      vertex -20 -20 3.5
      vertex -20 -21.5 0
      vertex -20 -20 0
    endloop
  endfacet
  facet normal 1 0 0
    outer loop
      vertex -20 1.5 0
      vertex -20 0 3.5
      vertex -20 0 0
    endloop
  endfacet
  facet normal -0 0 1
    outer loop
      vertex -157.8 1.5 5
      vertex -154.3 -21.5 5
      vertex -154.3 1.5 5
    endloop
  endfacet
  facet normal 0 0 1
    outer loop
      vertex -154.3 -21.5 5
      vertex -157.8 1.5 5
      vertex -157.8 -21.5 5
    endloop
  endfacet
  facet normal -1 0 0
    outer loop
      vertex -157.8 -20 0
      vertex -157.8 -21.5 0
      vertex -157.8 -20 3.5
    endloop
  endfacet
  facet normal -1 0 0
    outer loop
      vertex -157.8 0 3.5
      vertex -157.8 1.5 0
      vertex -157.8 0 0
    endloop
  endfacet
  facet normal -1 0 0
    outer loop
      vertex -157.8 1.5 0
      vertex -157.8 0 3.5
      vertex -157.8 1.5 5
    endloop
  endfacet
  facet normal -1 0 0
    outer loop
      vertex -157.8 -20 3.5
      vertex -157.8 1.5 5
      vertex -157.8 0 3.5
    endloop
  endfacet
  facet normal -1 0 0
    outer loop
      vertex -157.8 -20 3.5
      vertex -157.8 -21.5 5
      vertex -157.8 1.5 5
    endloop
  endfacet
  facet normal -1 0 0
    outer loop
      vertex -157.8 -21.5 5
      vertex -157.8 -20 3.5
      vertex -157.8 -21.5 0
    endloop
  endfacet
  facet normal 1 0 0
    outer loop
      vertex -154.3 1.5 5
      vertex -154.3 0 3.5
      vertex -154.3 1.5 0
    endloop
  endfacet
  facet normal 1 0 0
    outer loop
      vertex -154.3 1.5 5
      vertex -154.3 -20 3.5
      vertex -154.3 0 3.5
    endloop
  endfacet
  facet normal 1 -0 0
    outer loop
      vertex -154.3 -21.5 5
      vertex -154.3 -20 3.5
      vertex -154.3 1.5 5
    endloop
  endfacet
  facet normal 1 0 0
    outer loop
      vertex -154.3 -21.5 0
      vertex -154.3 -20 3.5
      vertex -154.3 -21.5 5
    endloop
  endfacet
  facet normal 1 0 0
    outer loop
      vertex -154.3 -20 3.5
      vertex -154.3 -21.5 0
      vertex -154.3 -20 0
    endloop
  endfacet
  facet normal 1 0 0
    outer loop
      vertex -154.3 1.5 0
      vertex -154.3 0 3.5
      vertex -154.3 0 0
    endloop
  endfacet
  facet normal -0.70711 0.707103 0
    outer loop
      vertex -88.1929 0 0
      vertex -88.9 -0.707107 3.5
      vertex -88.1929 0 3.5
    endloop
  endfacet
  facet normal -0.70711 0.707103 0
    outer loop
      vertex -88.9 -0.707107 3.5
      vertex -88.1929 0 0
      vertex -88.9 -0.707107 0
    endloop
  endfacet
  facet normal 0.70711 0.707103 -0
    outer loop
      vertex -88.9 -0.707107 0
      vertex -89.6071 0 3.5
      vertex -88.9 -0.707107 3.5
    endloop
  endfacet
  facet normal 0.70711 0.707103 0
    outer loop
      vertex -89.6071 0 3.5
      vertex -88.9 -0.707107 0
      vertex -89.6071 0 0
    endloop
  endfacet
  facet normal -0.707107 0.707107 0
    outer loop
      vertex -88.1929 -10 0
      vertex -88.9 -10.7071 3.5
      vertex -88.1929 -10 3.5
    endloop
  endfacet
  facet normal -0.707107 0.707107 0
    outer loop
      vertex -88.9 -10.7071 3.5
      vertex -88.1929 -10 0
      vertex -88.9 -10.7071 0
    endloop
  endfacet
  facet normal -0.707112 -0.707102 0
    outer loop
      vertex -88.1929 -10 0
      vertex -88.9 -9.29289 3.5
      vertex -88.9 -9.29289 0
    endloop
  endfacet
  facet normal -0.707112 -0.707102 0
    outer loop
      vertex -88.9 -9.29289 3.5
      vertex -88.1929 -10 0
      vertex -88.1929 -10 3.5
    endloop
  endfacet
  facet normal 0.707112 -0.707102 0
    outer loop
      vertex -89.6071 -10 3.5
      vertex -88.9 -9.29289 0
      vertex -88.9 -9.29289 3.5
    endloop
  endfacet
  facet normal 0.707112 -0.707102 0
    outer loop
      vertex -88.9 -9.29289 0
      vertex -89.6071 -10 3.5
      vertex -89.6071 -10 0
    endloop
  endfacet
  facet normal 0.707107 0.707107 -0
    outer loop
      vertex -88.9 -10.7071 0
      vertex -89.6071 -10 3.5
      vertex -88.9 -10.7071 3.5
    endloop
  endfacet
  facet normal 0.707107 0.707107 0
    outer loop
      vertex -89.6071 -10 3.5
      vertex -88.9 -10.7071 0
      vertex -89.6071 -10 0
    endloop
  endfacet
  facet normal -0.707107 -0.707107 0
    outer loop
      vertex -88.1929 -20 0
      vertex -88.9 -19.2929 3.5
      vertex -88.9 -19.2929 0
    endloop
  endfacet
  facet normal -0.707107 -0.707107 0
    outer loop
      vertex -88.9 -19.2929 3.5
      vertex -88.1929 -20 0
      vertex -88.1929 -20 3.5
    endloop
  endfacet
  facet normal 0.707107 -0.707107 0
    outer loop
      vertex -89.6071 -20 3.5
      vertex -88.9 -19.2929 0
      vertex -88.9 -19.2929 3.5
    endloop
  endfacet
  facet normal 0.707107 -0.707107 0
    outer loop
      vertex -88.9 -19.2929 0
      vertex -89.6071 -20 3.5
      vertex -89.6071 -20 0
    endloop
  endfacet
endsolid OpenSCAD_Model
