solid OpenSCAD_Model
  facet normal 0 0 -1
    outer loop
      vertex 0.75 -5.75 0
      vertex -0.75 -4.25 0
      vertex -0.75 -0.75 0
    endloop
  endfacet
  facet normal 0 0 -1
    outer loop
      vertex -125.75 -0.75 0
      vertex -102.75 0.75 0
      vertex -73.05 -0.75 0
    endloop
  endfacet
  facet normal 0 0 -1
    outer loop
      vertex 0.75 0.75 0
      vertex -22.25 -0.75 0
      vertex -71.55 -0.75 0
    endloop
  endfacet
  facet normal -0 0 -1
    outer loop
      vertex -22.25 -4.25 0
      vertex -34.95 -5.75 0
      vertex -34.95 -4.25 0
    endloop
  endfacet
  facet normal 0 -0 -1
    outer loop
      vertex -20.75 -4.25 0
      vertex 0.75 -5.75 0
      vertex -34.95 -5.75 0
    endloop
  endfacet
  facet normal 0 0 -1
    outer loop
      vertex -22.25 -0.75 0
      vertex 0.75 0.75 0
      vertex -20.75 -0.75 0
    endloop
  endfacet
  facet normal 0 0 -1
    outer loop
      vertex -71.55 -0.75 0
      vertex -102.75 0.75 0
      vertex 0.75 0.75 0
    endloop
  endfacet
  facet normal 0 0 -1
    outer loop
      vertex -85.75 -5.75 0
      vertex -85.75 -4.25 0
      vertex -73.05 -4.25 0
    endloop
  endfacet
  facet normal 0 0 -1
    outer loop
      vertex -124.25 4.25 0
      vertex -125.75 5.75 0
      vertex -104.25 4.25 0
    endloop
  endfacet
  facet normal -0 0 -1
    outer loop
      vertex -102.75 0.75 0
      vertex -125.75 -0.75 0
      vertex -104.25 0.75 0
    endloop
  endfacet
  facet normal 0 0 -1
    outer loop
      vertex -73.05 -4.25 0
      vertex -73.05 -0.75 0
      vertex -71.55 -0.75 0
    endloop
  endfacet
  facet normal 0 0 -1
    outer loop
      vertex -73.05 -0.75 0
      vertex -102.75 0.75 0
      vertex -71.55 -0.75 0
    endloop
  endfacet
  facet normal 0 0 -1
    outer loop
      vertex -71.55 -5.75 0
      vertex -73.05 -4.25 0
      vertex -71.55 -0.75 0
    endloop
  endfacet
  facet normal 0 0 -1
    outer loop
      vertex -71.55 -5.75 0
      vertex -85.75 -5.75 0
      vertex -73.05 -4.25 0
    endloop
  endfacet
  facet normal 0 0 -1
    outer loop
      vertex -102.75 0.75 0
      vertex -104.25 4.25 0
      vertex -102.75 5.75 0
    endloop
  endfacet
  facet normal -0 0 -1
    outer loop
      vertex -104.25 0.75 0
      vertex -125.75 -0.75 0
      vertex -124.25 0.75 0
    endloop
  endfacet
  facet normal -0 0 -1
    outer loop
      vertex -124.25 0.75 0
      vertex -125.75 -0.75 0
      vertex -125.75 5.75 0
    endloop
  endfacet
  facet normal -0 -0 -1
    outer loop
      vertex -124.25 4.25 0
      vertex -124.25 0.75 0
      vertex -125.75 5.75 0
    endloop
  endfacet
  facet normal 0 0 -1
    outer loop
      vertex -104.25 0.75 0
      vertex -104.25 4.25 0
      vertex -102.75 0.75 0
    endloop
  endfacet
  facet normal 0 0 -1
    outer loop
      vertex -104.25 4.25 0
      vertex -125.75 5.75 0
      vertex -102.75 5.75 0
    endloop
  endfacet
  facet normal 0 0 -1
    outer loop
      vertex -22.25 -0.75 0
      vertex -20.75 -4.25 0
      vertex -22.25 -4.25 0
    endloop
  endfacet
  facet normal 0 0 -1
    outer loop
      vertex -0.75 -0.75 0
      vertex 0.75 0.75 0
      vertex 0.75 -5.75 0
    endloop
  endfacet
  facet normal 0 -0 -1
    outer loop
      vertex -22.25 -4.25 0
      vertex -20.75 -4.25 0
      vertex -34.95 -5.75 0
    endloop
  endfacet
  facet normal 0 0 -1
    outer loop
      vertex -20.75 -4.25 0
      vertex -0.75 -4.25 0
      vertex 0.75 -5.75 0
    endloop
  endfacet
  facet normal 0 0 -1
    outer loop
      vertex -22.25 -0.75 0
      vertex -20.75 -0.75 0
      vertex -20.75 -4.25 0
    endloop
  endfacet
  facet normal 0 0 -1
    outer loop
      vertex 0.75 0.75 0
      vertex -0.75 -0.75 0
      vertex -20.75 -0.75 0
    endloop
  endfacet
  facet normal 0 0 1
    outer loop
      vertex -0.75 -0.75 20
      vertex -0.75 -4.25 20
      vertex 0.75 -5.75 20
    endloop
  endfacet
  facet normal 0 0 1
    outer loop
      vertex -73.05 -0.75 20
      vertex -102.75 0.75 20
      vertex -125.75 -0.75 20
    endloop
  endfacet
  facet normal 0 0 1
    outer loop
      vertex -71.55 -0.75 20
      vertex -22.25 -0.75 20
      vertex 0.75 0.75 20
    endloop
  endfacet
  facet normal -0 0 1
    outer loop
      vertex -34.95 -4.25 20
      vertex -34.95 -5.75 20
      vertex -22.25 -4.25 20
    endloop
  endfacet
  facet normal 0 0 1
    outer loop
      vertex -34.95 -5.75 20
      vertex 0.75 -5.75 20
      vertex -20.75 -4.25 20
    endloop
  endfacet
  facet normal 0 -0 1
    outer loop
      vertex -20.75 -0.75 20
      vertex 0.75 0.75 20
      vertex -22.25 -0.75 20
    endloop
  endfacet
  facet normal 0 0 1
    outer loop
      vertex 0.75 0.75 20
      vertex -102.75 0.75 20
      vertex -71.55 -0.75 20
    endloop
  endfacet
  facet normal 0 0 1
    outer loop
      vertex -73.05 -4.25 20
      vertex -85.75 -4.25 20
      vertex -85.75 -5.75 20
    endloop
  endfacet
  facet normal 0 0 1
    outer loop
      vertex -104.25 4.25 20
      vertex -125.75 5.75 20
      vertex -124.25 4.25 20
    endloop
  endfacet
  facet normal -0 0 1
    outer loop
      vertex -104.25 0.75 20
      vertex -125.75 -0.75 20
      vertex -102.75 0.75 20
    endloop
  endfacet
  facet normal 0 0 1
    outer loop
      vertex -71.55 -0.75 20
      vertex -73.05 -0.75 20
      vertex -73.05 -4.25 20
    endloop
  endfacet
  facet normal 0 0 1
    outer loop
      vertex -71.55 -0.75 20
      vertex -102.75 0.75 20
      vertex -73.05 -0.75 20
    endloop
  endfacet
  facet normal 0 0 1
    outer loop
      vertex -71.55 -0.75 20
      vertex -73.05 -4.25 20
      vertex -71.55 -5.75 20
    endloop
  endfacet
  facet normal 0 0 1
    outer loop
      vertex -73.05 -4.25 20
      vertex -85.75 -5.75 20
      vertex -71.55 -5.75 20
    endloop
  endfacet
  facet normal 0 0 1
    outer loop
      vertex -102.75 5.75 20
      vertex -104.25 4.25 20
      vertex -102.75 0.75 20
    endloop
  endfacet
  facet normal -0 0 1
    outer loop
      vertex -124.25 0.75 20
      vertex -125.75 -0.75 20
      vertex -104.25 0.75 20
    endloop
  endfacet
  facet normal 0 0 1
    outer loop
      vertex -125.75 5.75 20
      vertex -125.75 -0.75 20
      vertex -124.25 0.75 20
    endloop
  endfacet
  facet normal 0 0 1
    outer loop
      vertex -125.75 5.75 20
      vertex -124.25 0.75 20
      vertex -124.25 4.25 20
    endloop
  endfacet
  facet normal 0 0 1
    outer loop
      vertex -102.75 0.75 20
      vertex -104.25 4.25 20
      vertex -104.25 0.75 20
    endloop
  endfacet
  facet normal 0 0 1
    outer loop
      vertex -102.75 5.75 20
      vertex -125.75 5.75 20
      vertex -104.25 4.25 20
    endloop
  endfacet
  facet normal 0 0 1
    outer loop
      vertex -22.25 -4.25 20
      vertex -20.75 -4.25 20
      vertex -22.25 -0.75 20
    endloop
  endfacet
  facet normal 0 -0 1
    outer loop
      vertex 0.75 -5.75 20
      vertex 0.75 0.75 20
      vertex -0.75 -0.75 20
    endloop
  endfacet
  facet normal 0 0 1
    outer loop
      vertex -34.95 -5.75 20
      vertex -20.75 -4.25 20
      vertex -22.25 -4.25 20
    endloop
  endfacet
  facet normal 0 0 1
    outer loop
      vertex 0.75 -5.75 20
      vertex -0.75 -4.25 20
      vertex -20.75 -4.25 20
    endloop
  endfacet
  facet normal 0 -0 1
    outer loop
      vertex -20.75 -4.25 20
      vertex -20.75 -0.75 20
      vertex -22.25 -0.75 20
    endloop
  endfacet
  facet normal 0 0 1
    outer loop
      vertex -20.75 -0.75 20
      vertex -0.75 -0.75 20
      vertex 0.75 0.75 20
    endloop
  endfacet
  facet normal -1 0 0
    outer loop
      vertex -22.25 -4.25 0
      vertex -22.25 -0.75 20
      vertex -22.25 -0.75 0
    endloop
  endfacet
  facet normal -1 0 0
    outer loop
      vertex -22.25 -4.25 0
      vertex -22.25 -4.25 20
      vertex -22.25 -0.75 20
    endloop
  endfacet
  facet normal 0 1 0
    outer loop
      vertex -34.95 -4.25 0
      vertex -22.25 -4.25 20
      vertex -22.25 -4.25 0
    endloop
  endfacet
  facet normal 0 1 0
    outer loop
      vertex -34.95 -4.25 0
      vertex -34.95 -4.25 20
      vertex -22.25 -4.25 20
    endloop
  endfacet
  facet normal -1 0 0
    outer loop
      vertex -34.95 -5.75 0
      vertex -34.95 -4.25 20
      vertex -34.95 -4.25 0
    endloop
  endfacet
  facet normal -1 0 0
    outer loop
      vertex -34.95 -5.75 0
      vertex -34.95 -5.75 20
      vertex -34.95 -4.25 20
    endloop
  endfacet
  facet normal 0 -1 0
    outer loop
      vertex 0.75 -5.75 0
      vertex -34.95 -5.75 20
      vertex -34.95 -5.75 0
    endloop
  endfacet
  facet normal 0 -1 0
    outer loop
      vertex 0.75 -5.75 0
      vertex 0.75 -5.75 20
      vertex -34.95 -5.75 20
    endloop
  endfacet
  facet normal 1 0 0
    outer loop
      vertex 0.75 0.75 0
      vertex 0.75 -5.75 20
      vertex 0.75 -5.75 0
    endloop
  endfacet
  facet normal 1 0 -0
    outer loop
      vertex 0.75 0.75 0
      vertex 0.75 0.75 20
      vertex 0.75 -5.75 20
    endloop
  endfacet
  facet normal 0 1 0
    outer loop
      vertex -102.75 0.75 0
      vertex 0.75 0.75 20
      vertex 0.75 0.75 0
    endloop
  endfacet
  facet normal 0 1 0
    outer loop
      vertex -102.75 0.75 0
      vertex -102.75 0.75 20
      vertex 0.75 0.75 20
    endloop
  endfacet
  facet normal 1 0 0
    outer loop
      vertex -102.75 5.75 0
      vertex -102.75 0.75 20
      vertex -102.75 0.75 0
    endloop
  endfacet
  facet normal 1 0 -0
    outer loop
      vertex -102.75 5.75 0
      vertex -102.75 5.75 20
      vertex -102.75 0.75 20
    endloop
  endfacet
  facet normal 0 1 0
    outer loop
      vertex -125.75 5.75 0
      vertex -102.75 5.75 20
      vertex -102.75 5.75 0
    endloop
  endfacet
  facet normal 0 1 0
    outer loop
      vertex -125.75 5.75 0
      vertex -125.75 5.75 20
      vertex -102.75 5.75 20
    endloop
  endfacet
  facet normal -1 0 0
    outer loop
      vertex -125.75 -0.75 0
      vertex -125.75 5.75 20
      vertex -125.75 5.75 0
    endloop
  endfacet
  facet normal -1 0 0
    outer loop
      vertex -125.75 -0.75 0
      vertex -125.75 -0.75 20
      vertex -125.75 5.75 20
    endloop
  endfacet
  facet normal 0 -1 0
    outer loop
      vertex -73.05 -0.75 0
      vertex -125.75 -0.75 20
      vertex -125.75 -0.75 0
    endloop
  endfacet
  facet normal 0 -1 0
    outer loop
      vertex -73.05 -0.75 0
      vertex -73.05 -0.75 20
      vertex -125.75 -0.75 20
    endloop
  endfacet
  facet normal -1 0 0
    outer loop
      vertex -73.05 -4.25 0
      vertex -73.05 -0.75 20
      vertex -73.05 -0.75 0
    endloop
  endfacet
  facet normal -1 0 0
    outer loop
      vertex -73.05 -4.25 0
      vertex -73.05 -4.25 20
      vertex -73.05 -0.75 20
    endloop
  endfacet
  facet normal 0 1 0
    outer loop
      vertex -85.75 -4.25 0
      vertex -73.05 -4.25 20
      vertex -73.05 -4.25 0
    endloop
  endfacet
  facet normal 0 1 0
    outer loop
      vertex -85.75 -4.25 0
      vertex -85.75 -4.25 20
      vertex -73.05 -4.25 20
    endloop
  endfacet
  facet normal -1 0 0
    outer loop
      vertex -85.75 -5.75 0
      vertex -85.75 -4.25 20
      vertex -85.75 -4.25 0
    endloop
  endfacet
  facet normal -1 0 0
    outer loop
      vertex -85.75 -5.75 0
      vertex -85.75 -5.75 20
      vertex -85.75 -4.25 20
    endloop
  endfacet
  facet normal 0 -1 0
    outer loop
      vertex -71.55 -5.75 0
      vertex -85.75 -5.75 20
      vertex -85.75 -5.75 0
    endloop
  endfacet
  facet normal 0 -1 0
    outer loop
      vertex -71.55 -5.75 0
      vertex -71.55 -5.75 20
      vertex -85.75 -5.75 20
    endloop
  endfacet
  facet normal 1 0 0
    outer loop
      vertex -71.55 -0.75 0
      vertex -71.55 -5.75 20
      vertex -71.55 -5.75 0
    endloop
  endfacet
  facet normal 1 0 -0
    outer loop
      vertex -71.55 -0.75 0
      vertex -71.55 -0.75 20
      vertex -71.55 -5.75 20
    endloop
  endfacet
  facet normal 0 -1 0
    outer loop
      vertex -22.25 -0.75 0
      vertex -71.55 -0.75 20
      vertex -71.55 -0.75 0
    endloop
  endfacet
  facet normal 0 -1 0
    outer loop
      vertex -22.25 -0.75 0
      vertex -22.25 -0.75 20
      vertex -71.55 -0.75 20
    endloop
  endfacet
  facet normal 1 0 -0
    outer loop
      vertex -124.25 4.25 0
      vertex -124.25 4.25 20
      vertex -124.25 0.75 0
    endloop
  endfacet
  facet normal 1 -0 0
    outer loop
      vertex -124.25 0.75 20
      vertex -124.25 0.75 0
      vertex -124.25 4.25 20
    endloop
  endfacet
  facet normal 0 -1 0
    outer loop
      vertex -104.25 4.25 0
      vertex -104.25 4.25 20
      vertex -124.25 4.25 0
    endloop
  endfacet
  facet normal 0 -1 0
    outer loop
      vertex -124.25 4.25 20
      vertex -124.25 4.25 0
      vertex -104.25 4.25 20
    endloop
  endfacet
  facet normal -1 0 0
    outer loop
      vertex -104.25 0.75 0
      vertex -104.25 0.75 20
      vertex -104.25 4.25 0
    endloop
  endfacet
  facet normal -1 -0 -0
    outer loop
      vertex -104.25 4.25 20
      vertex -104.25 4.25 0
      vertex -104.25 0.75 20
    endloop
  endfacet
  facet normal 0 1 0
    outer loop
      vertex -124.25 0.75 0
      vertex -124.25 0.75 20
      vertex -104.25 0.75 0
    endloop
  endfacet
  facet normal 0 1 0
    outer loop
      vertex -104.25 0.75 20
      vertex -104.25 0.75 0
      vertex -124.25 0.75 20
    endloop
  endfacet
  facet normal 1 0 -0
    outer loop
      vertex -20.75 -0.75 0
      vertex -20.75 -0.75 20
      vertex -20.75 -4.25 0
    endloop
  endfacet
  facet normal 1 -0 0
    outer loop
      vertex -20.75 -4.25 20
      vertex -20.75 -4.25 0
      vertex -20.75 -0.75 20
    endloop
  endfacet
  facet normal 0 -1 0
    outer loop
      vertex -0.75 -0.75 0
      vertex -0.75 -0.75 20
      vertex -20.75 -0.75 0
    endloop
  endfacet
  facet normal 0 -1 0
    outer loop
      vertex -20.75 -0.75 20
      vertex -20.75 -0.75 0
      vertex -0.75 -0.75 20
    endloop
  endfacet
  facet normal -1 0 0
    outer loop
      vertex -0.75 -4.25 0
      vertex -0.75 -4.25 20
      vertex -0.75 -0.75 0
    endloop
  endfacet
  facet normal -1 -0 -0
    outer loop
      vertex -0.75 -0.75 20
      vertex -0.75 -0.75 0
      vertex -0.75 -4.25 20
    endloop
  endfacet
  facet normal 0 1 0
    outer loop
      vertex -20.75 -4.25 0
      vertex -20.75 -4.25 20
      vertex -0.75 -4.25 0
    endloop
  endfacet
  facet normal 0 1 0
    outer loop
      vertex -0.75 -4.25 20
      vertex -0.75 -4.25 0
      vertex -20.75 -4.25 20
    endloop
  endfacet
endsolid OpenSCAD_Model
