solid OpenSCAD_Model
  facet normal 0.948683 -0 0.316228
    outer loop
      vertex -25.75 -3.25 65.25
      vertex -24 16.75 60
      vertex -25.75 16.75 65.25
    endloop
  endfacet
  facet normal 0.948683 0 0.316228
    outer loop
      vertex -24 16.75 60
      vertex -25.75 -3.25 65.25
      vertex -24 -3.25 60
    endloop
  endfacet
  facet normal -0.948683 0 0.316228
    outer loop
      vertex -27.5 -3.25 60
      vertex -25.75 16.75 65.25
      vertex -27.5 16.75 60
    endloop
  endfacet
  facet normal -0.948683 0 0.316228
    outer loop
      vertex -25.75 16.75 65.25
      vertex -27.5 -3.25 60
      vertex -25.75 -3.25 65.25
    endloop
  endfacet
  facet normal 0 1 0
    outer loop
      vertex -24 16.75 60
      vertex -27.5 16.75 60
      vertex -25.75 16.75 65.25
    endloop
  endfacet
  facet normal 0 1 -0
    outer loop
      vertex -24 16.75 0
      vertex -27.5 16.75 60
      vertex -24 16.75 60
    endloop
  endfacet
  facet normal 0 1 0
    outer loop
      vertex -27.5 16.75 60
      vertex -24 16.75 0
      vertex -27.5 16.75 0
    endloop
  endfacet
  facet normal 0 -1 0
    outer loop
      vertex -27.5 -3.25 60
      vertex -24 -3.25 60
      vertex -25.75 -3.25 65.25
    endloop
  endfacet
  facet normal 0 -1 0
    outer loop
      vertex -27.5 -3.25 0
      vertex -24 -3.25 60
      vertex -27.5 -3.25 60
    endloop
  endfacet
  facet normal 0 -1 -0
    outer loop
      vertex -24 -3.25 60
      vertex -27.5 -3.25 0
      vertex -24 -3.25 0
    endloop
  endfacet
  facet normal 0 0 -1
    outer loop
      vertex -159.85 -1.75 0
      vertex -145.1 1.75 0
      vertex -145.1 -1.75 0
    endloop
  endfacet
  facet normal 0 0 -1
    outer loop
      vertex -159.85 -1.75 0
      vertex -159.85 1.75 0
      vertex -145.1 1.75 0
    endloop
  endfacet
  facet normal 0 -0 -1
    outer loop
      vertex -159.85 1.75 0
      vertex -159.85 -1.75 0
      vertex -165.1 0 0
    endloop
  endfacet
  facet normal 0 0 -1
    outer loop
      vertex -145.1 -1.75 0
      vertex -141.6 -1.75 0
      vertex -141.6 -3.25 0
    endloop
  endfacet
  facet normal 0 0 -1
    outer loop
      vertex -141.6 -1.75 0
      vertex -145.1 -1.75 0
      vertex -141.6 1.75 0
    endloop
  endfacet
  facet normal 0 0 -1
    outer loop
      vertex -145.1 -1.75 0
      vertex -141.6 -3.25 0
      vertex -145.1 -3.25 0
    endloop
  endfacet
  facet normal 0 0 -1
    outer loop
      vertex -145.1 1.75 0
      vertex -141.6 1.75 0
      vertex -145.1 -1.75 0
    endloop
  endfacet
  facet normal 0 0 -1
    outer loop
      vertex -141.6 1.75 0
      vertex -145.1 1.75 0
      vertex -141.6 3.25 0
    endloop
  endfacet
  facet normal -0 0 -1
    outer loop
      vertex -141.6 3.25 0
      vertex -145.1 1.75 0
      vertex -145.1 3.25 0
    endloop
  endfacet
  facet normal 0 0 -1
    outer loop
      vertex -141.6 -1.75 0
      vertex -141.1 1.75 0
      vertex -141.1 -1.75 0
    endloop
  endfacet
  facet normal -0 0 -1
    outer loop
      vertex -141.1 1.75 0
      vertex -141.6 -1.75 0
      vertex -141.6 1.75 0
    endloop
  endfacet
  facet normal 0 0 -1
    outer loop
      vertex -141.1 -1.75 0
      vertex -137.6 -1.75 0
      vertex -137.6 -3.25 0
    endloop
  endfacet
  facet normal 0 0 -1
    outer loop
      vertex -137.6 -1.75 0
      vertex -141.1 -1.75 0
      vertex -137.6 1.75 0
    endloop
  endfacet
  facet normal 0 0 -1
    outer loop
      vertex -141.1 -1.75 0
      vertex -137.6 -3.25 0
      vertex -141.1 -3.25 0
    endloop
  endfacet
  facet normal -0 0 -1
    outer loop
      vertex -137.6 1.75 0
      vertex -141.1 -1.75 0
      vertex -141.1 1.75 0
    endloop
  endfacet
  facet normal 0 0 -1
    outer loop
      vertex -137.6 1.75 0
      vertex -141.1 1.75 0
      vertex -137.6 16.75 0
    endloop
  endfacet
  facet normal -0 0 -1
    outer loop
      vertex -137.6 16.75 0
      vertex -141.1 1.75 0
      vertex -141.1 16.75 0
    endloop
  endfacet
  facet normal 0 0 -1
    outer loop
      vertex -137.6 -1.75 0
      vertex -27.5 1.75 0
      vertex -27.5 -1.75 0
    endloop
  endfacet
  facet normal -0 0 -1
    outer loop
      vertex -27.5 1.75 0
      vertex -137.6 -1.75 0
      vertex -137.6 1.75 0
    endloop
  endfacet
  facet normal 0 0 -1
    outer loop
      vertex -27.5 -1.75 0
      vertex -24 -1.75 0
      vertex -24 -3.25 0
    endloop
  endfacet
  facet normal 0 0 -1
    outer loop
      vertex -24 -1.75 0
      vertex -27.5 -1.75 0
      vertex -24 1.75 0
    endloop
  endfacet
  facet normal 0 0 -1
    outer loop
      vertex -27.5 -1.75 0
      vertex -24 -3.25 0
      vertex -27.5 -3.25 0
    endloop
  endfacet
  facet normal -0 0 -1
    outer loop
      vertex -24 1.75 0
      vertex -27.5 -1.75 0
      vertex -27.5 1.75 0
    endloop
  endfacet
  facet normal 0 0 -1
    outer loop
      vertex -24 1.75 0
      vertex -27.5 1.75 0
      vertex -24 16.75 0
    endloop
  endfacet
  facet normal -0 0 -1
    outer loop
      vertex -24 16.75 0
      vertex -27.5 1.75 0
      vertex -27.5 16.75 0
    endloop
  endfacet
  facet normal 0 0 -1
    outer loop
      vertex -24 -1.75 0
      vertex -23.5 1.75 0
      vertex -23.5 -1.75 0
    endloop
  endfacet
  facet normal -0 0 -1
    outer loop
      vertex -23.5 1.75 0
      vertex -24 -1.75 0
      vertex -24 1.75 0
    endloop
  endfacet
  facet normal 0 0 -1
    outer loop
      vertex -23.5 -1.75 0
      vertex -20 -1.75 0
      vertex -20 -3.25 0
    endloop
  endfacet
  facet normal 0 0 -1
    outer loop
      vertex -20 -1.75 0
      vertex -23.5 -1.75 0
      vertex -20 1.75 0
    endloop
  endfacet
  facet normal 0 0 -1
    outer loop
      vertex -23.5 -1.75 0
      vertex -20 -3.25 0
      vertex -23.5 -3.25 0
    endloop
  endfacet
  facet normal 0 0 -1
    outer loop
      vertex -23.5 1.75 0
      vertex -20 1.75 0
      vertex -23.5 -1.75 0
    endloop
  endfacet
  facet normal 0 0 -1
    outer loop
      vertex -20 1.75 0
      vertex -23.5 1.75 0
      vertex -20 3.25 0
    endloop
  endfacet
  facet normal -0 0 -1
    outer loop
      vertex -20 3.25 0
      vertex -23.5 1.75 0
      vertex -23.5 3.25 0
    endloop
  endfacet
  facet normal 0 0 -1
    outer loop
      vertex -5.25 -1.75 0
      vertex -5.25 1.75 0
      vertex 0 0 0
    endloop
  endfacet
  facet normal 0 0 -1
    outer loop
      vertex -20 -1.75 0
      vertex -5.25 1.75 0
      vertex -5.25 -1.75 0
    endloop
  endfacet
  facet normal -0 0 -1
    outer loop
      vertex -5.25 1.75 0
      vertex -20 -1.75 0
      vertex -20 1.75 0
    endloop
  endfacet
  facet normal 1 0 0
    outer loop
      vertex -24 16.75 60
      vertex -24 1.75 20
      vertex -24 16.75 0
    endloop
  endfacet
  facet normal 1 -0 0
    outer loop
      vertex -24 -3.25 60
      vertex -24 1.75 20
      vertex -24 16.75 60
    endloop
  endfacet
  facet normal 1 0 0
    outer loop
      vertex -24 1.75 20
      vertex -24 -3.25 60
      vertex -24 -1.75 20
    endloop
  endfacet
  facet normal 1 0 0
    outer loop
      vertex -24 -3.25 0
      vertex -24 -1.75 20
      vertex -24 -3.25 60
    endloop
  endfacet
  facet normal 1 0 0
    outer loop
      vertex -24 -1.75 20
      vertex -24 -3.25 0
      vertex -24 -1.75 0
    endloop
  endfacet
  facet normal 1 0 0
    outer loop
      vertex -24 16.75 0
      vertex -24 1.75 20
      vertex -24 1.75 0
    endloop
  endfacet
  facet normal -1 0 0
    outer loop
      vertex -27.5 -1.75 0
      vertex -27.5 -3.25 0
      vertex -27.5 -1.75 20
    endloop
  endfacet
  facet normal -1 0 0
    outer loop
      vertex -27.5 1.75 20
      vertex -27.5 16.75 0
      vertex -27.5 1.75 0
    endloop
  endfacet
  facet normal -1 0 0
    outer loop
      vertex -27.5 16.75 0
      vertex -27.5 1.75 20
      vertex -27.5 16.75 60
    endloop
  endfacet
  facet normal -1 0 0
    outer loop
      vertex -27.5 -3.25 60
      vertex -27.5 1.75 20
      vertex -27.5 -1.75 20
    endloop
  endfacet
  facet normal -1 0 0
    outer loop
      vertex -27.5 1.75 20
      vertex -27.5 -3.25 60
      vertex -27.5 16.75 60
    endloop
  endfacet
  facet normal -1 0 0
    outer loop
      vertex -27.5 -3.25 60
      vertex -27.5 -1.75 20
      vertex -27.5 -3.25 0
    endloop
  endfacet
  facet normal -0.948683 0 0.316228
    outer loop
      vertex -141.1 -3.25 60
      vertex -139.35 16.75 65.25
      vertex -141.1 16.75 60
    endloop
  endfacet
  facet normal -0.948683 0 0.316228
    outer loop
      vertex -139.35 16.75 65.25
      vertex -141.1 -3.25 60
      vertex -139.35 -3.25 65.25
    endloop
  endfacet
  facet normal 0.948683 -0 0.316228
    outer loop
      vertex -139.35 -3.25 65.25
      vertex -137.6 16.75 60
      vertex -139.35 16.75 65.25
    endloop
  endfacet
  facet normal 0.948683 0 0.316228
    outer loop
      vertex -137.6 16.75 60
      vertex -139.35 -3.25 65.25
      vertex -137.6 -3.25 60
    endloop
  endfacet
  facet normal 0 1 0
    outer loop
      vertex -137.6 16.75 60
      vertex -141.1 16.75 60
      vertex -139.35 16.75 65.25
    endloop
  endfacet
  facet normal 0 1 -0
    outer loop
      vertex -137.6 16.75 0
      vertex -141.1 16.75 60
      vertex -137.6 16.75 60
    endloop
  endfacet
  facet normal 0 1 0
    outer loop
      vertex -141.1 16.75 60
      vertex -137.6 16.75 0
      vertex -141.1 16.75 0
    endloop
  endfacet
  facet normal 0 -1 0
    outer loop
      vertex -141.1 -3.25 60
      vertex -137.6 -3.25 60
      vertex -139.35 -3.25 65.25
    endloop
  endfacet
  facet normal 0 -1 0
    outer loop
      vertex -141.1 -3.25 0
      vertex -137.6 -3.25 60
      vertex -141.1 -3.25 60
    endloop
  endfacet
  facet normal 0 -1 -0
    outer loop
      vertex -137.6 -3.25 60
      vertex -141.1 -3.25 0
      vertex -137.6 -3.25 0
    endloop
  endfacet
  facet normal -1 0 0
    outer loop
      vertex -141.1 -1.75 0
      vertex -141.1 -3.25 0
      vertex -141.1 -1.75 20
    endloop
  endfacet
  facet normal -1 0 0
    outer loop
      vertex -141.1 1.75 20
      vertex -141.1 16.75 0
      vertex -141.1 1.75 0
    endloop
  endfacet
  facet normal -1 0 0
    outer loop
      vertex -141.1 16.75 0
      vertex -141.1 1.75 20
      vertex -141.1 16.75 60
    endloop
  endfacet
  facet normal -1 0 0
    outer loop
      vertex -141.1 -3.25 60
      vertex -141.1 1.75 20
      vertex -141.1 -1.75 20
    endloop
  endfacet
  facet normal -1 0 0
    outer loop
      vertex -141.1 1.75 20
      vertex -141.1 -3.25 60
      vertex -141.1 16.75 60
    endloop
  endfacet
  facet normal -1 0 0
    outer loop
      vertex -141.1 -3.25 60
      vertex -141.1 -1.75 20
      vertex -141.1 -3.25 0
    endloop
  endfacet
  facet normal 1 0 0
    outer loop
      vertex -137.6 16.75 60
      vertex -137.6 1.75 20
      vertex -137.6 16.75 0
    endloop
  endfacet
  facet normal 1 -0 0
    outer loop
      vertex -137.6 -3.25 60
      vertex -137.6 1.75 20
      vertex -137.6 16.75 60
    endloop
  endfacet
  facet normal 1 0 0
    outer loop
      vertex -137.6 1.75 20
      vertex -137.6 -3.25 60
      vertex -137.6 -1.75 20
    endloop
  endfacet
  facet normal 1 0 0
    outer loop
      vertex -137.6 -3.25 0
      vertex -137.6 -1.75 20
      vertex -137.6 -3.25 60
    endloop
  endfacet
  facet normal 1 0 0
    outer loop
      vertex -137.6 -1.75 20
      vertex -137.6 -3.25 0
      vertex -137.6 -1.75 0
    endloop
  endfacet
  facet normal 1 0 0
    outer loop
      vertex -137.6 16.75 0
      vertex -137.6 1.75 20
      vertex -137.6 1.75 0
    endloop
  endfacet
  facet normal -0.316228 0.948683 0
    outer loop
      vertex -159.85 1.75 0
      vertex -165.1 0 20
      vertex -159.85 1.75 20
    endloop
  endfacet
  facet normal -0.316228 0.948683 0
    outer loop
      vertex -165.1 0 20
      vertex -159.85 1.75 0
      vertex -165.1 0 0
    endloop
  endfacet
  facet normal 0.316228 -0.948683 0
    outer loop
      vertex -5.25 -1.75 0
      vertex 0 0 20
      vertex -5.25 -1.75 20
    endloop
  endfacet
  facet normal 0.316228 -0.948683 0
    outer loop
      vertex 0 0 20
      vertex -5.25 -1.75 0
      vertex 0 0 0
    endloop
  endfacet
  facet normal 0 0 1
    outer loop
      vertex -5.25 1.75 20
      vertex -5.25 -1.75 20
      vertex 0 0 20
    endloop
  endfacet
  facet normal -0 0 1
    outer loop
      vertex -20 1.75 20
      vertex -5.25 -1.75 20
      vertex -5.25 1.75 20
    endloop
  endfacet
  facet normal 0 0 1
    outer loop
      vertex -5.25 -1.75 20
      vertex -20 1.75 20
      vertex -20 -1.75 20
    endloop
  endfacet
  facet normal -0 0 1
    outer loop
      vertex -159.85 1.75 20
      vertex -145.1 -1.75 20
      vertex -145.1 1.75 20
    endloop
  endfacet
  facet normal 0 0 1
    outer loop
      vertex -159.85 1.75 20
      vertex -159.85 -1.75 20
      vertex -145.1 -1.75 20
    endloop
  endfacet
  facet normal 0 -0 1
    outer loop
      vertex -159.85 -1.75 20
      vertex -159.85 1.75 20
      vertex -165.1 0 20
    endloop
  endfacet
  facet normal -0 0 1
    outer loop
      vertex -141.6 1.75 20
      vertex -141.1 -1.75 20
      vertex -141.1 1.75 20
    endloop
  endfacet
  facet normal 0 0 1
    outer loop
      vertex -141.1 -1.75 20
      vertex -141.6 1.75 20
      vertex -141.6 -1.75 20
    endloop
  endfacet
  facet normal -0 0 1
    outer loop
      vertex -24 1.75 20
      vertex -23.5 -1.75 20
      vertex -23.5 1.75 20
    endloop
  endfacet
  facet normal 0 0 1
    outer loop
      vertex -23.5 -1.75 20
      vertex -24 1.75 20
      vertex -24 -1.75 20
    endloop
  endfacet
  facet normal -0 0 1
    outer loop
      vertex -137.6 1.75 20
      vertex -27.5 -1.75 20
      vertex -27.5 1.75 20
    endloop
  endfacet
  facet normal 0 0 1
    outer loop
      vertex -27.5 -1.75 20
      vertex -137.6 1.75 20
      vertex -137.6 -1.75 20
    endloop
  endfacet
  facet normal 0 1 -0
    outer loop
      vertex -5.25 1.75 0
      vertex -20 1.75 20
      vertex -5.25 1.75 20
    endloop
  endfacet
  facet normal 0 1 0
    outer loop
      vertex -20 1.75 20
      vertex -5.25 1.75 0
      vertex -20 1.75 0
    endloop
  endfacet
  facet normal 0 1 -0
    outer loop
      vertex -145.1 1.75 0
      vertex -159.85 1.75 20
      vertex -145.1 1.75 20
    endloop
  endfacet
  facet normal 0 1 0
    outer loop
      vertex -159.85 1.75 20
      vertex -145.1 1.75 0
      vertex -159.85 1.75 0
    endloop
  endfacet
  facet normal 0 1 -0
    outer loop
      vertex -141.1 1.75 0
      vertex -141.6 1.75 20
      vertex -141.1 1.75 20
    endloop
  endfacet
  facet normal 0 1 0
    outer loop
      vertex -141.6 1.75 20
      vertex -141.1 1.75 0
      vertex -141.6 1.75 0
    endloop
  endfacet
  facet normal 0 1 -0
    outer loop
      vertex -23.5 1.75 0
      vertex -24 1.75 20
      vertex -23.5 1.75 20
    endloop
  endfacet
  facet normal 0 1 0
    outer loop
      vertex -24 1.75 20
      vertex -23.5 1.75 0
      vertex -24 1.75 0
    endloop
  endfacet
  facet normal 0 1 -0
    outer loop
      vertex -27.5 1.75 0
      vertex -137.6 1.75 20
      vertex -27.5 1.75 20
    endloop
  endfacet
  facet normal 0 1 0
    outer loop
      vertex -137.6 1.75 20
      vertex -27.5 1.75 0
      vertex -137.6 1.75 0
    endloop
  endfacet
  facet normal -0.316228 -0.948683 0
    outer loop
      vertex -165.1 0 0
      vertex -159.85 -1.75 20
      vertex -165.1 0 20
    endloop
  endfacet
  facet normal -0.316228 -0.948683 -0
    outer loop
      vertex -159.85 -1.75 20
      vertex -165.1 0 0
      vertex -159.85 -1.75 0
    endloop
  endfacet
  facet normal 0 -1 0
    outer loop
      vertex -159.85 -1.75 0
      vertex -145.1 -1.75 20
      vertex -159.85 -1.75 20
    endloop
  endfacet
  facet normal 0 -1 -0
    outer loop
      vertex -145.1 -1.75 20
      vertex -159.85 -1.75 0
      vertex -145.1 -1.75 0
    endloop
  endfacet
  facet normal 0 -1 0
    outer loop
      vertex -20 -1.75 0
      vertex -5.25 -1.75 20
      vertex -20 -1.75 20
    endloop
  endfacet
  facet normal 0 -1 -0
    outer loop
      vertex -5.25 -1.75 20
      vertex -20 -1.75 0
      vertex -5.25 -1.75 0
    endloop
  endfacet
  facet normal 0 -1 0
    outer loop
      vertex -141.6 -1.75 0
      vertex -141.1 -1.75 20
      vertex -141.6 -1.75 20
    endloop
  endfacet
  facet normal 0 -1 -0
    outer loop
      vertex -141.1 -1.75 20
      vertex -141.6 -1.75 0
      vertex -141.1 -1.75 0
    endloop
  endfacet
  facet normal 0 -1 0
    outer loop
      vertex -24 -1.75 0
      vertex -23.5 -1.75 20
      vertex -24 -1.75 20
    endloop
  endfacet
  facet normal 0 -1 -0
    outer loop
      vertex -23.5 -1.75 20
      vertex -24 -1.75 0
      vertex -23.5 -1.75 0
    endloop
  endfacet
  facet normal 0 -1 0
    outer loop
      vertex -137.6 -1.75 0
      vertex -27.5 -1.75 20
      vertex -137.6 -1.75 20
    endloop
  endfacet
  facet normal 0 -1 -0
    outer loop
      vertex -27.5 -1.75 20
      vertex -137.6 -1.75 0
      vertex -27.5 -1.75 0
    endloop
  endfacet
  facet normal 0.316228 0.948683 -0
    outer loop
      vertex 0 0 0
      vertex -5.25 1.75 20
      vertex 0 0 20
    endloop
  endfacet
  facet normal 0.316228 0.948683 0
    outer loop
      vertex -5.25 1.75 20
      vertex 0 0 0
      vertex -5.25 1.75 0
    endloop
  endfacet
  facet normal -0 0 1
    outer loop
      vertex -23.5 3.25 21.5
      vertex -20 -3.25 21.5
      vertex -20 3.25 21.5
    endloop
  endfacet
  facet normal 0 0 1
    outer loop
      vertex -20 -3.25 21.5
      vertex -23.5 3.25 21.5
      vertex -23.5 -3.25 21.5
    endloop
  endfacet
  facet normal -0 0 1
    outer loop
      vertex -145.1 3.25 21.5
      vertex -141.6 -3.25 21.5
      vertex -141.6 3.25 21.5
    endloop
  endfacet
  facet normal 0 0 1
    outer loop
      vertex -141.6 -3.25 21.5
      vertex -145.1 3.25 21.5
      vertex -145.1 -3.25 21.5
    endloop
  endfacet
  facet normal 0 1 -0
    outer loop
      vertex -20 3.25 0
      vertex -23.5 3.25 21.5
      vertex -20 3.25 21.5
    endloop
  endfacet
  facet normal 0 1 0
    outer loop
      vertex -23.5 3.25 21.5
      vertex -20 3.25 0
      vertex -23.5 3.25 0
    endloop
  endfacet
  facet normal -1 0 0
    outer loop
      vertex -23.5 -1.75 0
      vertex -23.5 -3.25 0
      vertex -23.5 -1.75 20
    endloop
  endfacet
  facet normal -1 0 0
    outer loop
      vertex -23.5 1.75 20
      vertex -23.5 3.25 0
      vertex -23.5 1.75 0
    endloop
  endfacet
  facet normal -1 0 0
    outer loop
      vertex -23.5 3.25 0
      vertex -23.5 1.75 20
      vertex -23.5 3.25 21.5
    endloop
  endfacet
  facet normal -1 0 0
    outer loop
      vertex -23.5 -1.75 20
      vertex -23.5 3.25 21.5
      vertex -23.5 1.75 20
    endloop
  endfacet
  facet normal -1 0 0
    outer loop
      vertex -23.5 -1.75 20
      vertex -23.5 -3.25 21.5
      vertex -23.5 3.25 21.5
    endloop
  endfacet
  facet normal -1 0 0
    outer loop
      vertex -23.5 -3.25 21.5
      vertex -23.5 -1.75 20
      vertex -23.5 -3.25 0
    endloop
  endfacet
  facet normal 0 -1 0
    outer loop
      vertex -23.5 -3.25 0
      vertex -20 -3.25 21.5
      vertex -23.5 -3.25 21.5
    endloop
  endfacet
  facet normal 0 -1 -0
    outer loop
      vertex -20 -3.25 21.5
      vertex -23.5 -3.25 0
      vertex -20 -3.25 0
    endloop
  endfacet
  facet normal 1 0 0
    outer loop
      vertex -20 3.25 21.5
      vertex -20 1.75 20
      vertex -20 3.25 0
    endloop
  endfacet
  facet normal 1 0 0
    outer loop
      vertex -20 3.25 21.5
      vertex -20 -1.75 20
      vertex -20 1.75 20
    endloop
  endfacet
  facet normal 1 -0 0
    outer loop
      vertex -20 -3.25 21.5
      vertex -20 -1.75 20
      vertex -20 3.25 21.5
    endloop
  endfacet
  facet normal 1 0 0
    outer loop
      vertex -20 -3.25 0
      vertex -20 -1.75 20
      vertex -20 -3.25 21.5
    endloop
  endfacet
  facet normal 1 0 0
    outer loop
      vertex -20 -1.75 20
      vertex -20 -3.25 0
      vertex -20 -1.75 0
    endloop
  endfacet
  facet normal 1 0 0
    outer loop
      vertex -20 3.25 0
      vertex -20 1.75 20
      vertex -20 1.75 0
    endloop
  endfacet
  facet normal 0 1 -0
    outer loop
      vertex -141.6 3.25 0
      vertex -145.1 3.25 21.5
      vertex -141.6 3.25 21.5
    endloop
  endfacet
  facet normal 0 1 0
    outer loop
      vertex -145.1 3.25 21.5
      vertex -141.6 3.25 0
      vertex -145.1 3.25 0
    endloop
  endfacet
  facet normal -1 0 0
    outer loop
      vertex -145.1 -1.75 0
      vertex -145.1 -3.25 0
      vertex -145.1 -1.75 20
    endloop
  endfacet
  facet normal -1 0 0
    outer loop
      vertex -145.1 1.75 20
      vertex -145.1 3.25 0
      vertex -145.1 1.75 0
    endloop
  endfacet
  facet normal -1 0 0
    outer loop
      vertex -145.1 3.25 0
      vertex -145.1 1.75 20
      vertex -145.1 3.25 21.5
    endloop
  endfacet
  facet normal -1 0 0
    outer loop
      vertex -145.1 -1.75 20
      vertex -145.1 3.25 21.5
      vertex -145.1 1.75 20
    endloop
  endfacet
  facet normal -1 0 0
    outer loop
      vertex -145.1 -1.75 20
      vertex -145.1 -3.25 21.5
      vertex -145.1 3.25 21.5
    endloop
  endfacet
  facet normal -1 0 0
    outer loop
      vertex -145.1 -3.25 21.5
      vertex -145.1 -1.75 20
      vertex -145.1 -3.25 0
    endloop
  endfacet
  facet normal 0 -1 0
    outer loop
      vertex -145.1 -3.25 0
      vertex -141.6 -3.25 21.5
      vertex -145.1 -3.25 21.5
    endloop
  endfacet
  facet normal 0 -1 -0
    outer loop
      vertex -141.6 -3.25 21.5
      vertex -145.1 -3.25 0
      vertex -141.6 -3.25 0
    endloop
  endfacet
  facet normal 1 0 0
    outer loop
      vertex -141.6 3.25 21.5
      vertex -141.6 1.75 20
      vertex -141.6 3.25 0
    endloop
  endfacet
  facet normal 1 0 0
    outer loop
      vertex -141.6 3.25 21.5
      vertex -141.6 -1.75 20
      vertex -141.6 1.75 20
    endloop
  endfacet
  facet normal 1 -0 0
    outer loop
      vertex -141.6 -3.25 21.5
      vertex -141.6 -1.75 20
      vertex -141.6 3.25 21.5
    endloop
  endfacet
  facet normal 1 0 0
    outer loop
      vertex -141.6 -3.25 0
      vertex -141.6 -1.75 20
      vertex -141.6 -3.25 21.5
    endloop
  endfacet
  facet normal 1 0 0
    outer loop
      vertex -141.6 -1.75 20
      vertex -141.6 -3.25 0
      vertex -141.6 -1.75 0
    endloop
  endfacet
  facet normal 1 0 0
    outer loop
      vertex -141.6 3.25 0
      vertex -141.6 1.75 20
      vertex -141.6 1.75 0
    endloop
  endfacet
endsolid OpenSCAD_Model
