solid OpenSCAD_Model
  facet normal 1 0 0
    outer loop
      vertex 114.3 22.225 2
      vertex 114.3 15.875 0
      vertex 114.3 22.225 0
    endloop
  endfacet
  facet normal 1 0 0
    outer loop
      vertex 114.3 15.875 0
      vertex 114.3 -15.875 0
      vertex 114.3 15.875 -2
    endloop
  endfacet
  facet normal 1 0 0
    outer loop
      vertex 114.3 22.225 2
      vertex 114.3 -15.875 0
      vertex 114.3 15.875 0
    endloop
  endfacet
  facet normal 1 -0 0
    outer loop
      vertex 114.3 -22.225 2
      vertex 114.3 -15.875 0
      vertex 114.3 22.225 2
    endloop
  endfacet
  facet normal 1 0 0
    outer loop
      vertex 114.3 -15.875 0
      vertex 114.3 -22.225 2
      vertex 114.3 -22.225 0
    endloop
  endfacet
  facet normal 1 0 0
    outer loop
      vertex 114.3 15.875 -2
      vertex 114.3 -15.875 0
      vertex 114.3 -15.875 -2
    endloop
  endfacet
  facet normal 0 0 1
    outer loop
      vertex 114.3 22.225 2
      vertex 111.3 12.875 2
      vertex 114.3 -22.225 2
    endloop
  endfacet
  facet normal 0 0 1
    outer loop
      vertex 114.3 22.225 2
      vertex 105.75 12.875 2
      vertex 111.3 12.875 2
    endloop
  endfacet
  facet normal 0 0 1
    outer loop
      vertex 105.75 12.875 2
      vertex 104.25 12.875 2
      vertex 105.75 -12.875 2
    endloop
  endfacet
  facet normal 0 0 1
    outer loop
      vertex 114.3 22.225 2
      vertex 104.25 12.875 2
      vertex 105.75 12.875 2
    endloop
  endfacet
  facet normal 0 0 1
    outer loop
      vertex 114.3 22.225 2
      vertex 95.25 12.875 2
      vertex 104.25 12.875 2
    endloop
  endfacet
  facet normal 0 0 1
    outer loop
      vertex 95.25 12.875 2
      vertex 93.75 12.875 2
      vertex 95.25 -12.875 2
    endloop
  endfacet
  facet normal 0 0 1
    outer loop
      vertex 114.3 22.225 2
      vertex 93.75 12.875 2
      vertex 95.25 12.875 2
    endloop
  endfacet
  facet normal 0 0 1
    outer loop
      vertex 114.3 22.225 2
      vertex 84.75 12.875 2
      vertex 93.75 12.875 2
    endloop
  endfacet
  facet normal 0 0 1
    outer loop
      vertex 84.75 12.875 2
      vertex 83.25 12.875 2
      vertex 84.75 -12.875 2
    endloop
  endfacet
  facet normal 0 0 1
    outer loop
      vertex 114.3 22.225 2
      vertex 83.25 12.875 2
      vertex 84.75 12.875 2
    endloop
  endfacet
  facet normal 0 0 1
    outer loop
      vertex 114.3 22.225 2
      vertex 74.25 12.875 2
      vertex 83.25 12.875 2
    endloop
  endfacet
  facet normal 0 0 1
    outer loop
      vertex 74.25 12.875 2
      vertex 72.75 12.875 2
      vertex 74.25 -12.875 2
    endloop
  endfacet
  facet normal 0 0 1
    outer loop
      vertex 114.3 22.225 2
      vertex 72.75 12.875 2
      vertex 74.25 12.875 2
    endloop
  endfacet
  facet normal 0 0 1
    outer loop
      vertex 114.3 22.225 2
      vertex 63.75 12.875 2
      vertex 72.75 12.875 2
    endloop
  endfacet
  facet normal 0 0 1
    outer loop
      vertex 63.75 12.875 2
      vertex 62.25 12.875 2
      vertex 63.75 -12.875 2
    endloop
  endfacet
  facet normal 0 0 1
    outer loop
      vertex 114.3 22.225 2
      vertex 62.25 12.875 2
      vertex 63.75 12.875 2
    endloop
  endfacet
  facet normal 0 0 1
    outer loop
      vertex 114.3 22.225 2
      vertex 53.25 12.875 2
      vertex 62.25 12.875 2
    endloop
  endfacet
  facet normal 0 0 1
    outer loop
      vertex 53.25 12.875 2
      vertex 51.75 12.875 2
      vertex 53.25 -12.875 2
    endloop
  endfacet
  facet normal 0 0 1
    outer loop
      vertex 114.3 22.225 2
      vertex 51.75 12.875 2
      vertex 53.25 12.875 2
    endloop
  endfacet
  facet normal 0 0 1
    outer loop
      vertex 114.3 22.225 2
      vertex 42.75 12.875 2
      vertex 51.75 12.875 2
    endloop
  endfacet
  facet normal 0 0 1
    outer loop
      vertex 42.75 12.875 2
      vertex 41.25 12.875 2
      vertex 42.75 -12.875 2
    endloop
  endfacet
  facet normal 0 0 1
    outer loop
      vertex 114.3 22.225 2
      vertex 41.25 12.875 2
      vertex 42.75 12.875 2
    endloop
  endfacet
  facet normal 0 0 1
    outer loop
      vertex 114.3 22.225 2
      vertex 32.25 12.875 2
      vertex 41.25 12.875 2
    endloop
  endfacet
  facet normal 0 0 1
    outer loop
      vertex 32.25 12.875 2
      vertex 30.75 12.875 2
      vertex 32.25 -12.875 2
    endloop
  endfacet
  facet normal 0 0 1
    outer loop
      vertex 114.3 22.225 2
      vertex 30.75 12.875 2
      vertex 32.25 12.875 2
    endloop
  endfacet
  facet normal 0 0 1
    outer loop
      vertex 114.3 22.225 2
      vertex 21.75 12.875 2
      vertex 30.75 12.875 2
    endloop
  endfacet
  facet normal 0 0 1
    outer loop
      vertex 21.75 12.875 2
      vertex 20.25 12.875 2
      vertex 21.75 -12.875 2
    endloop
  endfacet
  facet normal 0 0 1
    outer loop
      vertex 114.3 22.225 2
      vertex 20.25 12.875 2
      vertex 21.75 12.875 2
    endloop
  endfacet
  facet normal 0 0 1
    outer loop
      vertex 114.3 22.225 2
      vertex 11.25 12.875 2
      vertex 20.25 12.875 2
    endloop
  endfacet
  facet normal 0 0 1
    outer loop
      vertex 11.25 12.875 2
      vertex 9.75 12.875 2
      vertex 11.25 -12.875 2
    endloop
  endfacet
  facet normal 0 0 1
    outer loop
      vertex 114.3 22.225 2
      vertex 9.75 12.875 2
      vertex 11.25 12.875 2
    endloop
  endfacet
  facet normal 0 0 1
    outer loop
      vertex 114.3 22.225 2
      vertex 0.75 12.875 2
      vertex 9.75 12.875 2
    endloop
  endfacet
  facet normal 0 0 1
    outer loop
      vertex 0.75 12.875 2
      vertex -0.75 12.875 2
      vertex 0.75 -12.875 2
    endloop
  endfacet
  facet normal 0 0 1
    outer loop
      vertex 114.3 22.225 2
      vertex -0.75 12.875 2
      vertex 0.75 12.875 2
    endloop
  endfacet
  facet normal 0 0 1
    outer loop
      vertex 114.3 22.225 2
      vertex -9.75 12.875 2
      vertex -0.75 12.875 2
    endloop
  endfacet
  facet normal 0 0 1
    outer loop
      vertex -9.75 12.875 2
      vertex -11.25 12.875 2
      vertex -9.75 -12.875 2
    endloop
  endfacet
  facet normal -0 0 1
    outer loop
      vertex -114.3 22.225 2
      vertex -9.75 12.875 2
      vertex 114.3 22.225 2
    endloop
  endfacet
  facet normal 0 0 1
    outer loop
      vertex -9.75 12.875 2
      vertex -114.3 22.225 2
      vertex -11.25 12.875 2
    endloop
  endfacet
  facet normal 0 0 1
    outer loop
      vertex -20.25 12.875 2
      vertex -21.75 12.875 2
      vertex -20.25 -12.875 2
    endloop
  endfacet
  facet normal 0 0 1
    outer loop
      vertex -11.25 12.875 2
      vertex -114.3 22.225 2
      vertex -20.25 12.875 2
    endloop
  endfacet
  facet normal 0 0 1
    outer loop
      vertex -20.25 12.875 2
      vertex -114.3 22.225 2
      vertex -21.75 12.875 2
    endloop
  endfacet
  facet normal 0 0 1
    outer loop
      vertex -30.75 12.875 2
      vertex -32.25 12.875 2
      vertex -30.75 -12.875 2
    endloop
  endfacet
  facet normal 0 0 1
    outer loop
      vertex -21.75 12.875 2
      vertex -114.3 22.225 2
      vertex -30.75 12.875 2
    endloop
  endfacet
  facet normal 0 0 1
    outer loop
      vertex -30.75 12.875 2
      vertex -114.3 22.225 2
      vertex -32.25 12.875 2
    endloop
  endfacet
  facet normal 0 0 1
    outer loop
      vertex -41.25 12.875 2
      vertex -42.75 12.875 2
      vertex -41.25 -12.875 2
    endloop
  endfacet
  facet normal 0 0 1
    outer loop
      vertex -32.25 12.875 2
      vertex -114.3 22.225 2
      vertex -41.25 12.875 2
    endloop
  endfacet
  facet normal 0 0 1
    outer loop
      vertex -41.25 12.875 2
      vertex -114.3 22.225 2
      vertex -42.75 12.875 2
    endloop
  endfacet
  facet normal 0 0 1
    outer loop
      vertex -51.75 12.875 2
      vertex -53.25 12.875 2
      vertex -51.75 -12.875 2
    endloop
  endfacet
  facet normal 0 0 1
    outer loop
      vertex -42.75 12.875 2
      vertex -114.3 22.225 2
      vertex -51.75 12.875 2
    endloop
  endfacet
  facet normal 0 0 1
    outer loop
      vertex -51.75 12.875 2
      vertex -114.3 22.225 2
      vertex -53.25 12.875 2
    endloop
  endfacet
  facet normal 0 0 1
    outer loop
      vertex -62.25 12.875 2
      vertex -63.75 12.875 2
      vertex -62.25 -12.875 2
    endloop
  endfacet
  facet normal 0 0 1
    outer loop
      vertex -53.25 12.875 2
      vertex -114.3 22.225 2
      vertex -62.25 12.875 2
    endloop
  endfacet
  facet normal 0 0 1
    outer loop
      vertex -62.25 12.875 2
      vertex -114.3 22.225 2
      vertex -63.75 12.875 2
    endloop
  endfacet
  facet normal 0 0 1
    outer loop
      vertex -72.75 12.875 2
      vertex -74.25 12.875 2
      vertex -72.75 -12.875 2
    endloop
  endfacet
  facet normal 0 0 1
    outer loop
      vertex -63.75 12.875 2
      vertex -114.3 22.225 2
      vertex -72.75 12.875 2
    endloop
  endfacet
  facet normal 0 0 1
    outer loop
      vertex -72.75 12.875 2
      vertex -114.3 22.225 2
      vertex -74.25 12.875 2
    endloop
  endfacet
  facet normal 0 0 1
    outer loop
      vertex -83.25 12.875 2
      vertex -84.75 12.875 2
      vertex -83.25 -12.875 2
    endloop
  endfacet
  facet normal 0 0 1
    outer loop
      vertex -74.25 12.875 2
      vertex -114.3 22.225 2
      vertex -83.25 12.875 2
    endloop
  endfacet
  facet normal 0 0 1
    outer loop
      vertex -83.25 12.875 2
      vertex -114.3 22.225 2
      vertex -84.75 12.875 2
    endloop
  endfacet
  facet normal 0 0 1
    outer loop
      vertex -93.75 12.875 2
      vertex -95.25 12.875 2
      vertex -93.75 -12.875 2
    endloop
  endfacet
  facet normal 0 0 1
    outer loop
      vertex -84.75 12.875 2
      vertex -114.3 22.225 2
      vertex -93.75 12.875 2
    endloop
  endfacet
  facet normal 0 0 1
    outer loop
      vertex -93.75 12.875 2
      vertex -114.3 22.225 2
      vertex -95.25 12.875 2
    endloop
  endfacet
  facet normal 0 0 1
    outer loop
      vertex -104.25 12.875 2
      vertex -105.75 12.875 2
      vertex -104.25 -12.875 2
    endloop
  endfacet
  facet normal 0 0 1
    outer loop
      vertex -95.25 12.875 2
      vertex -114.3 22.225 2
      vertex -104.25 12.875 2
    endloop
  endfacet
  facet normal 0 0 1
    outer loop
      vertex -104.25 12.875 2
      vertex -114.3 22.225 2
      vertex -105.75 12.875 2
    endloop
  endfacet
  facet normal 0 0 1
    outer loop
      vertex -111.3 12.875 2
      vertex -114.3 22.225 2
      vertex -111.3 -12.875 2
    endloop
  endfacet
  facet normal 0 0 1
    outer loop
      vertex -105.75 12.875 2
      vertex -114.3 22.225 2
      vertex -111.3 12.875 2
    endloop
  endfacet
  facet normal -0 0 1
    outer loop
      vertex 111.3 -12.875 2
      vertex 114.3 -22.225 2
      vertex 111.3 12.875 2
    endloop
  endfacet
  facet normal -0 0 1
    outer loop
      vertex 105.75 -12.875 2
      vertex 114.3 -22.225 2
      vertex 111.3 -12.875 2
    endloop
  endfacet
  facet normal 0 0 1
    outer loop
      vertex 104.25 -12.875 2
      vertex 105.75 -12.875 2
      vertex 104.25 12.875 2
    endloop
  endfacet
  facet normal -0 0 1
    outer loop
      vertex 104.25 -12.875 2
      vertex 114.3 -22.225 2
      vertex 105.75 -12.875 2
    endloop
  endfacet
  facet normal -0 0 1
    outer loop
      vertex 95.25 -12.875 2
      vertex 114.3 -22.225 2
      vertex 104.25 -12.875 2
    endloop
  endfacet
  facet normal 0 0 1
    outer loop
      vertex 93.75 -12.875 2
      vertex 95.25 -12.875 2
      vertex 93.75 12.875 2
    endloop
  endfacet
  facet normal -0 0 1
    outer loop
      vertex 93.75 -12.875 2
      vertex 114.3 -22.225 2
      vertex 95.25 -12.875 2
    endloop
  endfacet
  facet normal -0 0 1
    outer loop
      vertex 84.75 -12.875 2
      vertex 114.3 -22.225 2
      vertex 93.75 -12.875 2
    endloop
  endfacet
  facet normal 0 0 1
    outer loop
      vertex 83.25 -12.875 2
      vertex 84.75 -12.875 2
      vertex 83.25 12.875 2
    endloop
  endfacet
  facet normal -0 0 1
    outer loop
      vertex 83.25 -12.875 2
      vertex 114.3 -22.225 2
      vertex 84.75 -12.875 2
    endloop
  endfacet
  facet normal -0 0 1
    outer loop
      vertex 74.25 -12.875 2
      vertex 114.3 -22.225 2
      vertex 83.25 -12.875 2
    endloop
  endfacet
  facet normal 0 0 1
    outer loop
      vertex 72.75 -12.875 2
      vertex 74.25 -12.875 2
      vertex 72.75 12.875 2
    endloop
  endfacet
  facet normal -0 0 1
    outer loop
      vertex 72.75 -12.875 2
      vertex 114.3 -22.225 2
      vertex 74.25 -12.875 2
    endloop
  endfacet
  facet normal -0 0 1
    outer loop
      vertex 63.75 -12.875 2
      vertex 114.3 -22.225 2
      vertex 72.75 -12.875 2
    endloop
  endfacet
  facet normal 0 0 1
    outer loop
      vertex 62.25 -12.875 2
      vertex 63.75 -12.875 2
      vertex 62.25 12.875 2
    endloop
  endfacet
  facet normal -0 0 1
    outer loop
      vertex 62.25 -12.875 2
      vertex 114.3 -22.225 2
      vertex 63.75 -12.875 2
    endloop
  endfacet
  facet normal -0 0 1
    outer loop
      vertex 53.25 -12.875 2
      vertex 114.3 -22.225 2
      vertex 62.25 -12.875 2
    endloop
  endfacet
  facet normal 0 0 1
    outer loop
      vertex 51.75 -12.875 2
      vertex 53.25 -12.875 2
      vertex 51.75 12.875 2
    endloop
  endfacet
  facet normal -0 0 1
    outer loop
      vertex 51.75 -12.875 2
      vertex 114.3 -22.225 2
      vertex 53.25 -12.875 2
    endloop
  endfacet
  facet normal -0 0 1
    outer loop
      vertex 42.75 -12.875 2
      vertex 114.3 -22.225 2
      vertex 51.75 -12.875 2
    endloop
  endfacet
  facet normal 0 0 1
    outer loop
      vertex 41.25 -12.875 2
      vertex 42.75 -12.875 2
      vertex 41.25 12.875 2
    endloop
  endfacet
  facet normal -0 0 1
    outer loop
      vertex 41.25 -12.875 2
      vertex 114.3 -22.225 2
      vertex 42.75 -12.875 2
    endloop
  endfacet
  facet normal -0 0 1
    outer loop
      vertex 32.25 -12.875 2
      vertex 114.3 -22.225 2
      vertex 41.25 -12.875 2
    endloop
  endfacet
  facet normal 0 0 1
    outer loop
      vertex 30.75 -12.875 2
      vertex 32.25 -12.875 2
      vertex 30.75 12.875 2
    endloop
  endfacet
  facet normal -0 0 1
    outer loop
      vertex 30.75 -12.875 2
      vertex 114.3 -22.225 2
      vertex 32.25 -12.875 2
    endloop
  endfacet
  facet normal -0 0 1
    outer loop
      vertex 21.75 -12.875 2
      vertex 114.3 -22.225 2
      vertex 30.75 -12.875 2
    endloop
  endfacet
  facet normal 0 0 1
    outer loop
      vertex 20.25 -12.875 2
      vertex 21.75 -12.875 2
      vertex 20.25 12.875 2
    endloop
  endfacet
  facet normal -0 0 1
    outer loop
      vertex 20.25 -12.875 2
      vertex 114.3 -22.225 2
      vertex 21.75 -12.875 2
    endloop
  endfacet
  facet normal -0 0 1
    outer loop
      vertex 11.25 -12.875 2
      vertex 114.3 -22.225 2
      vertex 20.25 -12.875 2
    endloop
  endfacet
  facet normal 0 0 1
    outer loop
      vertex 9.75 -12.875 2
      vertex 11.25 -12.875 2
      vertex 9.75 12.875 2
    endloop
  endfacet
  facet normal -0 0 1
    outer loop
      vertex 9.75 -12.875 2
      vertex 114.3 -22.225 2
      vertex 11.25 -12.875 2
    endloop
  endfacet
  facet normal -0 0 1
    outer loop
      vertex 0.75 -12.875 2
      vertex 114.3 -22.225 2
      vertex 9.75 -12.875 2
    endloop
  endfacet
  facet normal 0 0 1
    outer loop
      vertex -0.75 -12.875 2
      vertex 0.75 -12.875 2
      vertex -0.75 12.875 2
    endloop
  endfacet
  facet normal -0 0 1
    outer loop
      vertex -0.75 -12.875 2
      vertex 114.3 -22.225 2
      vertex 0.75 -12.875 2
    endloop
  endfacet
  facet normal -0 0 1
    outer loop
      vertex -9.75 -12.875 2
      vertex 114.3 -22.225 2
      vertex -0.75 -12.875 2
    endloop
  endfacet
  facet normal 0 0 1
    outer loop
      vertex -11.25 -12.875 2
      vertex -9.75 -12.875 2
      vertex -11.25 12.875 2
    endloop
  endfacet
  facet normal 0 0 1
    outer loop
      vertex -114.3 -22.225 2
      vertex -9.75 -12.875 2
      vertex -11.25 -12.875 2
    endloop
  endfacet
  facet normal 0 0 1
    outer loop
      vertex -114.3 -22.225 2
      vertex -11.25 -12.875 2
      vertex -20.25 -12.875 2
    endloop
  endfacet
  facet normal 0 0 1
    outer loop
      vertex -21.75 -12.875 2
      vertex -20.25 -12.875 2
      vertex -21.75 12.875 2
    endloop
  endfacet
  facet normal 0 0 1
    outer loop
      vertex -114.3 -22.225 2
      vertex -20.25 -12.875 2
      vertex -21.75 -12.875 2
    endloop
  endfacet
  facet normal 0 0 1
    outer loop
      vertex -114.3 -22.225 2
      vertex -21.75 -12.875 2
      vertex -30.75 -12.875 2
    endloop
  endfacet
  facet normal 0 0 1
    outer loop
      vertex -32.25 -12.875 2
      vertex -30.75 -12.875 2
      vertex -32.25 12.875 2
    endloop
  endfacet
  facet normal 0 0 1
    outer loop
      vertex -114.3 -22.225 2
      vertex -30.75 -12.875 2
      vertex -32.25 -12.875 2
    endloop
  endfacet
  facet normal 0 0 1
    outer loop
      vertex -114.3 -22.225 2
      vertex -32.25 -12.875 2
      vertex -41.25 -12.875 2
    endloop
  endfacet
  facet normal 0 0 1
    outer loop
      vertex -42.75 -12.875 2
      vertex -41.25 -12.875 2
      vertex -42.75 12.875 2
    endloop
  endfacet
  facet normal 0 0 1
    outer loop
      vertex -114.3 -22.225 2
      vertex -41.25 -12.875 2
      vertex -42.75 -12.875 2
    endloop
  endfacet
  facet normal 0 0 1
    outer loop
      vertex -114.3 -22.225 2
      vertex -42.75 -12.875 2
      vertex -51.75 -12.875 2
    endloop
  endfacet
  facet normal 0 0 1
    outer loop
      vertex -53.25 -12.875 2
      vertex -51.75 -12.875 2
      vertex -53.25 12.875 2
    endloop
  endfacet
  facet normal 0 0 1
    outer loop
      vertex -114.3 -22.225 2
      vertex -51.75 -12.875 2
      vertex -53.25 -12.875 2
    endloop
  endfacet
  facet normal 0 0 1
    outer loop
      vertex -114.3 -22.225 2
      vertex -53.25 -12.875 2
      vertex -62.25 -12.875 2
    endloop
  endfacet
  facet normal 0 0 1
    outer loop
      vertex -63.75 -12.875 2
      vertex -62.25 -12.875 2
      vertex -63.75 12.875 2
    endloop
  endfacet
  facet normal 0 0 1
    outer loop
      vertex -114.3 -22.225 2
      vertex -62.25 -12.875 2
      vertex -63.75 -12.875 2
    endloop
  endfacet
  facet normal 0 0 1
    outer loop
      vertex -114.3 -22.225 2
      vertex -63.75 -12.875 2
      vertex -72.75 -12.875 2
    endloop
  endfacet
  facet normal 0 0 1
    outer loop
      vertex -74.25 -12.875 2
      vertex -72.75 -12.875 2
      vertex -74.25 12.875 2
    endloop
  endfacet
  facet normal 0 0 1
    outer loop
      vertex -114.3 -22.225 2
      vertex -72.75 -12.875 2
      vertex -74.25 -12.875 2
    endloop
  endfacet
  facet normal 0 0 1
    outer loop
      vertex -114.3 -22.225 2
      vertex -74.25 -12.875 2
      vertex -83.25 -12.875 2
    endloop
  endfacet
  facet normal 0 0 1
    outer loop
      vertex -84.75 -12.875 2
      vertex -83.25 -12.875 2
      vertex -84.75 12.875 2
    endloop
  endfacet
  facet normal 0 0 1
    outer loop
      vertex -114.3 -22.225 2
      vertex -83.25 -12.875 2
      vertex -84.75 -12.875 2
    endloop
  endfacet
  facet normal 0 0 1
    outer loop
      vertex -114.3 -22.225 2
      vertex -84.75 -12.875 2
      vertex -93.75 -12.875 2
    endloop
  endfacet
  facet normal 0 0 1
    outer loop
      vertex -95.25 -12.875 2
      vertex -93.75 -12.875 2
      vertex -95.25 12.875 2
    endloop
  endfacet
  facet normal 0 0 1
    outer loop
      vertex -114.3 -22.225 2
      vertex -93.75 -12.875 2
      vertex -95.25 -12.875 2
    endloop
  endfacet
  facet normal 0 0 1
    outer loop
      vertex -114.3 -22.225 2
      vertex -95.25 -12.875 2
      vertex -104.25 -12.875 2
    endloop
  endfacet
  facet normal 0 0 1
    outer loop
      vertex -105.75 -12.875 2
      vertex -104.25 -12.875 2
      vertex -105.75 12.875 2
    endloop
  endfacet
  facet normal 0 0 1
    outer loop
      vertex -114.3 -22.225 2
      vertex -104.25 -12.875 2
      vertex -105.75 -12.875 2
    endloop
  endfacet
  facet normal 0 0 1
    outer loop
      vertex -114.3 -22.225 2
      vertex -105.75 -12.875 2
      vertex -111.3 -12.875 2
    endloop
  endfacet
  facet normal 0 0 1
    outer loop
      vertex -9.75 -12.875 2
      vertex -114.3 -22.225 2
      vertex 114.3 -22.225 2
    endloop
  endfacet
  facet normal 0 0 1
    outer loop
      vertex -114.3 -22.225 2
      vertex -111.3 -12.875 2
      vertex -114.3 22.225 2
    endloop
  endfacet
  facet normal 0 0 -1
    outer loop
      vertex -114.3 15.875 0
      vertex 114.3 22.225 0
      vertex 114.3 15.875 0
    endloop
  endfacet
  facet normal -0 0 -1
    outer loop
      vertex 114.3 22.225 0
      vertex -114.3 15.875 0
      vertex -114.3 22.225 0
    endloop
  endfacet
  facet normal 0 0 -1
    outer loop
      vertex -114.3 -22.225 0
      vertex 114.3 -15.875 0
      vertex 114.3 -22.225 0
    endloop
  endfacet
  facet normal -0 0 -1
    outer loop
      vertex 114.3 -15.875 0
      vertex -114.3 -22.225 0
      vertex -114.3 -15.875 0
    endloop
  endfacet
  facet normal -1 0 0
    outer loop
      vertex -114.3 15.875 -2
      vertex -114.3 -15.875 -2
      vertex -114.3 15.875 0
    endloop
  endfacet
  facet normal -1 0 0
    outer loop
      vertex -114.3 15.875 0
      vertex -114.3 22.225 2
      vertex -114.3 22.225 0
    endloop
  endfacet
  facet normal -1 0 0
    outer loop
      vertex -114.3 -15.875 0
      vertex -114.3 15.875 0
      vertex -114.3 -15.875 -2
    endloop
  endfacet
  facet normal -1 0 0
    outer loop
      vertex -114.3 15.875 0
      vertex -114.3 -15.875 0
      vertex -114.3 22.225 2
    endloop
  endfacet
  facet normal -1 0 0
    outer loop
      vertex -114.3 -22.225 2
      vertex -114.3 -15.875 0
      vertex -114.3 -22.225 0
    endloop
  endfacet
  facet normal -1 0 0
    outer loop
      vertex -114.3 -15.875 0
      vertex -114.3 -22.225 2
      vertex -114.3 22.225 2
    endloop
  endfacet
  facet normal 0 1 -0
    outer loop
      vertex 114.3 22.225 0
      vertex -114.3 22.225 2
      vertex 114.3 22.225 2
    endloop
  endfacet
  facet normal 0 1 0
    outer loop
      vertex -114.3 22.225 2
      vertex 114.3 22.225 0
      vertex -114.3 22.225 0
    endloop
  endfacet
  facet normal 0 -1 0
    outer loop
      vertex -114.3 -22.225 0
      vertex 114.3 -22.225 2
      vertex -114.3 -22.225 2
    endloop
  endfacet
  facet normal 0 -1 -0
    outer loop
      vertex 114.3 -22.225 2
      vertex -114.3 -22.225 0
      vertex 114.3 -22.225 0
    endloop
  endfacet
  facet normal 0 0 -1
    outer loop
      vertex 114.3 -15.875 -2
      vertex 111.3 -12.875 -2
      vertex 114.3 15.875 -2
    endloop
  endfacet
  facet normal 0 0 -1
    outer loop
      vertex 114.3 -15.875 -2
      vertex 105.75 -12.875 -2
      vertex 111.3 -12.875 -2
    endloop
  endfacet
  facet normal 0 0 -1
    outer loop
      vertex 105.75 -12.875 -2
      vertex 104.25 -12.875 -2
      vertex 105.75 12.875 -2
    endloop
  endfacet
  facet normal 0 0 -1
    outer loop
      vertex 114.3 -15.875 -2
      vertex 104.25 -12.875 -2
      vertex 105.75 -12.875 -2
    endloop
  endfacet
  facet normal 0 0 -1
    outer loop
      vertex 114.3 -15.875 -2
      vertex 95.25 -12.875 -2
      vertex 104.25 -12.875 -2
    endloop
  endfacet
  facet normal 0 0 -1
    outer loop
      vertex 95.25 -12.875 -2
      vertex 93.75 -12.875 -2
      vertex 95.25 12.875 -2
    endloop
  endfacet
  facet normal 0 0 -1
    outer loop
      vertex 114.3 -15.875 -2
      vertex 93.75 -12.875 -2
      vertex 95.25 -12.875 -2
    endloop
  endfacet
  facet normal 0 0 -1
    outer loop
      vertex 114.3 -15.875 -2
      vertex 84.75 -12.875 -2
      vertex 93.75 -12.875 -2
    endloop
  endfacet
  facet normal 0 0 -1
    outer loop
      vertex 84.75 -12.875 -2
      vertex 83.25 -12.875 -2
      vertex 84.75 12.875 -2
    endloop
  endfacet
  facet normal 0 0 -1
    outer loop
      vertex 114.3 -15.875 -2
      vertex 83.25 -12.875 -2
      vertex 84.75 -12.875 -2
    endloop
  endfacet
  facet normal 0 0 -1
    outer loop
      vertex 114.3 -15.875 -2
      vertex 74.25 -12.875 -2
      vertex 83.25 -12.875 -2
    endloop
  endfacet
  facet normal 0 0 -1
    outer loop
      vertex 74.25 -12.875 -2
      vertex 72.75 -12.875 -2
      vertex 74.25 12.875 -2
    endloop
  endfacet
  facet normal 0 0 -1
    outer loop
      vertex 114.3 -15.875 -2
      vertex 72.75 -12.875 -2
      vertex 74.25 -12.875 -2
    endloop
  endfacet
  facet normal 0 0 -1
    outer loop
      vertex 114.3 -15.875 -2
      vertex 63.75 -12.875 -2
      vertex 72.75 -12.875 -2
    endloop
  endfacet
  facet normal 0 0 -1
    outer loop
      vertex 63.75 -12.875 -2
      vertex 62.25 -12.875 -2
      vertex 63.75 12.875 -2
    endloop
  endfacet
  facet normal 0 0 -1
    outer loop
      vertex 114.3 -15.875 -2
      vertex 62.25 -12.875 -2
      vertex 63.75 -12.875 -2
    endloop
  endfacet
  facet normal 0 0 -1
    outer loop
      vertex 114.3 -15.875 -2
      vertex 53.25 -12.875 -2
      vertex 62.25 -12.875 -2
    endloop
  endfacet
  facet normal 0 0 -1
    outer loop
      vertex 53.25 -12.875 -2
      vertex 51.75 -12.875 -2
      vertex 53.25 12.875 -2
    endloop
  endfacet
  facet normal 0 0 -1
    outer loop
      vertex 114.3 -15.875 -2
      vertex 51.75 -12.875 -2
      vertex 53.25 -12.875 -2
    endloop
  endfacet
  facet normal 0 0 -1
    outer loop
      vertex 114.3 -15.875 -2
      vertex 42.75 -12.875 -2
      vertex 51.75 -12.875 -2
    endloop
  endfacet
  facet normal 0 0 -1
    outer loop
      vertex 42.75 -12.875 -2
      vertex 41.25 -12.875 -2
      vertex 42.75 12.875 -2
    endloop
  endfacet
  facet normal 0 0 -1
    outer loop
      vertex 114.3 -15.875 -2
      vertex 41.25 -12.875 -2
      vertex 42.75 -12.875 -2
    endloop
  endfacet
  facet normal 0 0 -1
    outer loop
      vertex 114.3 -15.875 -2
      vertex 32.25 -12.875 -2
      vertex 41.25 -12.875 -2
    endloop
  endfacet
  facet normal 0 0 -1
    outer loop
      vertex 32.25 -12.875 -2
      vertex 30.75 -12.875 -2
      vertex 32.25 12.875 -2
    endloop
  endfacet
  facet normal 0 0 -1
    outer loop
      vertex 114.3 -15.875 -2
      vertex 30.75 -12.875 -2
      vertex 32.25 -12.875 -2
    endloop
  endfacet
  facet normal 0 0 -1
    outer loop
      vertex 114.3 -15.875 -2
      vertex 21.75 -12.875 -2
      vertex 30.75 -12.875 -2
    endloop
  endfacet
  facet normal 0 0 -1
    outer loop
      vertex 21.75 -12.875 -2
      vertex 20.25 -12.875 -2
      vertex 21.75 12.875 -2
    endloop
  endfacet
  facet normal 0 0 -1
    outer loop
      vertex 114.3 -15.875 -2
      vertex 20.25 -12.875 -2
      vertex 21.75 -12.875 -2
    endloop
  endfacet
  facet normal 0 0 -1
    outer loop
      vertex 114.3 -15.875 -2
      vertex 11.25 -12.875 -2
      vertex 20.25 -12.875 -2
    endloop
  endfacet
  facet normal 0 0 -1
    outer loop
      vertex 11.25 -12.875 -2
      vertex 9.75 -12.875 -2
      vertex 11.25 12.875 -2
    endloop
  endfacet
  facet normal 0 0 -1
    outer loop
      vertex 114.3 -15.875 -2
      vertex 9.75 -12.875 -2
      vertex 11.25 -12.875 -2
    endloop
  endfacet
  facet normal 0 0 -1
    outer loop
      vertex 114.3 -15.875 -2
      vertex 0.75 -12.875 -2
      vertex 9.75 -12.875 -2
    endloop
  endfacet
  facet normal 0 0 -1
    outer loop
      vertex 0.75 -12.875 -2
      vertex -0.75 -12.875 -2
      vertex 0.75 12.875 -2
    endloop
  endfacet
  facet normal 0 0 -1
    outer loop
      vertex 114.3 -15.875 -2
      vertex -0.75 -12.875 -2
      vertex 0.75 -12.875 -2
    endloop
  endfacet
  facet normal 0 0 -1
    outer loop
      vertex 114.3 -15.875 -2
      vertex -9.75 -12.875 -2
      vertex -0.75 -12.875 -2
    endloop
  endfacet
  facet normal 0 0 -1
    outer loop
      vertex -9.75 -12.875 -2
      vertex -11.25 -12.875 -2
      vertex -9.75 12.875 -2
    endloop
  endfacet
  facet normal 0 0 -1
    outer loop
      vertex 114.3 -15.875 -2
      vertex -11.25 -12.875 -2
      vertex -9.75 -12.875 -2
    endloop
  endfacet
  facet normal 0 0 -1
    outer loop
      vertex 114.3 -15.875 -2
      vertex -20.25 -12.875 -2
      vertex -11.25 -12.875 -2
    endloop
  endfacet
  facet normal 0 0 -1
    outer loop
      vertex -20.25 -12.875 -2
      vertex -21.75 -12.875 -2
      vertex -20.25 12.875 -2
    endloop
  endfacet
  facet normal 0 0 -1
    outer loop
      vertex -114.3 -15.875 -2
      vertex -20.25 -12.875 -2
      vertex 114.3 -15.875 -2
    endloop
  endfacet
  facet normal -0 0 -1
    outer loop
      vertex -20.25 -12.875 -2
      vertex -114.3 -15.875 -2
      vertex -21.75 -12.875 -2
    endloop
  endfacet
  facet normal 0 0 -1
    outer loop
      vertex -30.75 -12.875 -2
      vertex -32.25 -12.875 -2
      vertex -30.75 12.875 -2
    endloop
  endfacet
  facet normal -0 0 -1
    outer loop
      vertex -21.75 -12.875 -2
      vertex -114.3 -15.875 -2
      vertex -30.75 -12.875 -2
    endloop
  endfacet
  facet normal -0 0 -1
    outer loop
      vertex -30.75 -12.875 -2
      vertex -114.3 -15.875 -2
      vertex -32.25 -12.875 -2
    endloop
  endfacet
  facet normal 0 0 -1
    outer loop
      vertex -41.25 -12.875 -2
      vertex -42.75 -12.875 -2
      vertex -41.25 12.875 -2
    endloop
  endfacet
  facet normal -0 0 -1
    outer loop
      vertex -32.25 -12.875 -2
      vertex -114.3 -15.875 -2
      vertex -41.25 -12.875 -2
    endloop
  endfacet
  facet normal -0 0 -1
    outer loop
      vertex -41.25 -12.875 -2
      vertex -114.3 -15.875 -2
      vertex -42.75 -12.875 -2
    endloop
  endfacet
  facet normal 0 0 -1
    outer loop
      vertex -51.75 -12.875 -2
      vertex -53.25 -12.875 -2
      vertex -51.75 12.875 -2
    endloop
  endfacet
  facet normal -0 0 -1
    outer loop
      vertex -42.75 -12.875 -2
      vertex -114.3 -15.875 -2
      vertex -51.75 -12.875 -2
    endloop
  endfacet
  facet normal -0 0 -1
    outer loop
      vertex -51.75 -12.875 -2
      vertex -114.3 -15.875 -2
      vertex -53.25 -12.875 -2
    endloop
  endfacet
  facet normal 0 0 -1
    outer loop
      vertex -62.25 -12.875 -2
      vertex -63.75 -12.875 -2
      vertex -62.25 12.875 -2
    endloop
  endfacet
  facet normal -0 0 -1
    outer loop
      vertex -53.25 -12.875 -2
      vertex -114.3 -15.875 -2
      vertex -62.25 -12.875 -2
    endloop
  endfacet
  facet normal -0 0 -1
    outer loop
      vertex -62.25 -12.875 -2
      vertex -114.3 -15.875 -2
      vertex -63.75 -12.875 -2
    endloop
  endfacet
  facet normal 0 0 -1
    outer loop
      vertex -72.75 -12.875 -2
      vertex -74.25 -12.875 -2
      vertex -72.75 12.875 -2
    endloop
  endfacet
  facet normal -0 0 -1
    outer loop
      vertex -63.75 -12.875 -2
      vertex -114.3 -15.875 -2
      vertex -72.75 -12.875 -2
    endloop
  endfacet
  facet normal -0 0 -1
    outer loop
      vertex -72.75 -12.875 -2
      vertex -114.3 -15.875 -2
      vertex -74.25 -12.875 -2
    endloop
  endfacet
  facet normal 0 0 -1
    outer loop
      vertex -83.25 -12.875 -2
      vertex -84.75 -12.875 -2
      vertex -83.25 12.875 -2
    endloop
  endfacet
  facet normal -0 0 -1
    outer loop
      vertex -74.25 -12.875 -2
      vertex -114.3 -15.875 -2
      vertex -83.25 -12.875 -2
    endloop
  endfacet
  facet normal -0 0 -1
    outer loop
      vertex -83.25 -12.875 -2
      vertex -114.3 -15.875 -2
      vertex -84.75 -12.875 -2
    endloop
  endfacet
  facet normal 0 0 -1
    outer loop
      vertex -93.75 -12.875 -2
      vertex -95.25 -12.875 -2
      vertex -93.75 12.875 -2
    endloop
  endfacet
  facet normal -0 0 -1
    outer loop
      vertex -84.75 -12.875 -2
      vertex -114.3 -15.875 -2
      vertex -93.75 -12.875 -2
    endloop
  endfacet
  facet normal -0 0 -1
    outer loop
      vertex -93.75 -12.875 -2
      vertex -114.3 -15.875 -2
      vertex -95.25 -12.875 -2
    endloop
  endfacet
  facet normal 0 0 -1
    outer loop
      vertex -104.25 -12.875 -2
      vertex -105.75 -12.875 -2
      vertex -104.25 12.875 -2
    endloop
  endfacet
  facet normal -0 0 -1
    outer loop
      vertex -95.25 -12.875 -2
      vertex -114.3 -15.875 -2
      vertex -104.25 -12.875 -2
    endloop
  endfacet
  facet normal -0 0 -1
    outer loop
      vertex -104.25 -12.875 -2
      vertex -114.3 -15.875 -2
      vertex -105.75 -12.875 -2
    endloop
  endfacet
  facet normal -0 0 -1
    outer loop
      vertex -111.3 -12.875 -2
      vertex -114.3 -15.875 -2
      vertex -111.3 12.875 -2
    endloop
  endfacet
  facet normal -0 0 -1
    outer loop
      vertex -105.75 -12.875 -2
      vertex -114.3 -15.875 -2
      vertex -111.3 -12.875 -2
    endloop
  endfacet
  facet normal 0 0 -1
    outer loop
      vertex 111.3 12.875 -2
      vertex 114.3 15.875 -2
      vertex 111.3 -12.875 -2
    endloop
  endfacet
  facet normal 0 0 -1
    outer loop
      vertex 105.75 12.875 -2
      vertex 114.3 15.875 -2
      vertex 111.3 12.875 -2
    endloop
  endfacet
  facet normal 0 0 -1
    outer loop
      vertex 104.25 12.875 -2
      vertex 105.75 12.875 -2
      vertex 104.25 -12.875 -2
    endloop
  endfacet
  facet normal 0 0 -1
    outer loop
      vertex 104.25 12.875 -2
      vertex 114.3 15.875 -2
      vertex 105.75 12.875 -2
    endloop
  endfacet
  facet normal 0 0 -1
    outer loop
      vertex 95.25 12.875 -2
      vertex 114.3 15.875 -2
      vertex 104.25 12.875 -2
    endloop
  endfacet
  facet normal 0 0 -1
    outer loop
      vertex 93.75 12.875 -2
      vertex 95.25 12.875 -2
      vertex 93.75 -12.875 -2
    endloop
  endfacet
  facet normal 0 0 -1
    outer loop
      vertex 93.75 12.875 -2
      vertex 114.3 15.875 -2
      vertex 95.25 12.875 -2
    endloop
  endfacet
  facet normal 0 0 -1
    outer loop
      vertex 84.75 12.875 -2
      vertex 114.3 15.875 -2
      vertex 93.75 12.875 -2
    endloop
  endfacet
  facet normal 0 0 -1
    outer loop
      vertex 83.25 12.875 -2
      vertex 84.75 12.875 -2
      vertex 83.25 -12.875 -2
    endloop
  endfacet
  facet normal 0 0 -1
    outer loop
      vertex 83.25 12.875 -2
      vertex 114.3 15.875 -2
      vertex 84.75 12.875 -2
    endloop
  endfacet
  facet normal 0 0 -1
    outer loop
      vertex 74.25 12.875 -2
      vertex 114.3 15.875 -2
      vertex 83.25 12.875 -2
    endloop
  endfacet
  facet normal 0 0 -1
    outer loop
      vertex 72.75 12.875 -2
      vertex 74.25 12.875 -2
      vertex 72.75 -12.875 -2
    endloop
  endfacet
  facet normal 0 0 -1
    outer loop
      vertex 72.75 12.875 -2
      vertex 114.3 15.875 -2
      vertex 74.25 12.875 -2
    endloop
  endfacet
  facet normal 0 0 -1
    outer loop
      vertex 63.75 12.875 -2
      vertex 114.3 15.875 -2
      vertex 72.75 12.875 -2
    endloop
  endfacet
  facet normal 0 0 -1
    outer loop
      vertex 62.25 12.875 -2
      vertex 63.75 12.875 -2
      vertex 62.25 -12.875 -2
    endloop
  endfacet
  facet normal 0 0 -1
    outer loop
      vertex 62.25 12.875 -2
      vertex 114.3 15.875 -2
      vertex 63.75 12.875 -2
    endloop
  endfacet
  facet normal 0 0 -1
    outer loop
      vertex 53.25 12.875 -2
      vertex 114.3 15.875 -2
      vertex 62.25 12.875 -2
    endloop
  endfacet
  facet normal 0 0 -1
    outer loop
      vertex 51.75 12.875 -2
      vertex 53.25 12.875 -2
      vertex 51.75 -12.875 -2
    endloop
  endfacet
  facet normal 0 0 -1
    outer loop
      vertex 51.75 12.875 -2
      vertex 114.3 15.875 -2
      vertex 53.25 12.875 -2
    endloop
  endfacet
  facet normal 0 0 -1
    outer loop
      vertex 42.75 12.875 -2
      vertex 114.3 15.875 -2
      vertex 51.75 12.875 -2
    endloop
  endfacet
  facet normal 0 0 -1
    outer loop
      vertex 41.25 12.875 -2
      vertex 42.75 12.875 -2
      vertex 41.25 -12.875 -2
    endloop
  endfacet
  facet normal 0 0 -1
    outer loop
      vertex 41.25 12.875 -2
      vertex 114.3 15.875 -2
      vertex 42.75 12.875 -2
    endloop
  endfacet
  facet normal 0 0 -1
    outer loop
      vertex 32.25 12.875 -2
      vertex 114.3 15.875 -2
      vertex 41.25 12.875 -2
    endloop
  endfacet
  facet normal 0 0 -1
    outer loop
      vertex 30.75 12.875 -2
      vertex 32.25 12.875 -2
      vertex 30.75 -12.875 -2
    endloop
  endfacet
  facet normal 0 0 -1
    outer loop
      vertex 30.75 12.875 -2
      vertex 114.3 15.875 -2
      vertex 32.25 12.875 -2
    endloop
  endfacet
  facet normal 0 0 -1
    outer loop
      vertex 21.75 12.875 -2
      vertex 114.3 15.875 -2
      vertex 30.75 12.875 -2
    endloop
  endfacet
  facet normal 0 0 -1
    outer loop
      vertex 20.25 12.875 -2
      vertex 21.75 12.875 -2
      vertex 20.25 -12.875 -2
    endloop
  endfacet
  facet normal 0 0 -1
    outer loop
      vertex 20.25 12.875 -2
      vertex 114.3 15.875 -2
      vertex 21.75 12.875 -2
    endloop
  endfacet
  facet normal 0 0 -1
    outer loop
      vertex 11.25 12.875 -2
      vertex 114.3 15.875 -2
      vertex 20.25 12.875 -2
    endloop
  endfacet
  facet normal 0 0 -1
    outer loop
      vertex 9.75 12.875 -2
      vertex 11.25 12.875 -2
      vertex 9.75 -12.875 -2
    endloop
  endfacet
  facet normal 0 0 -1
    outer loop
      vertex 9.75 12.875 -2
      vertex 114.3 15.875 -2
      vertex 11.25 12.875 -2
    endloop
  endfacet
  facet normal 0 0 -1
    outer loop
      vertex 0.75 12.875 -2
      vertex 114.3 15.875 -2
      vertex 9.75 12.875 -2
    endloop
  endfacet
  facet normal 0 0 -1
    outer loop
      vertex -0.75 12.875 -2
      vertex 0.75 12.875 -2
      vertex -0.75 -12.875 -2
    endloop
  endfacet
  facet normal 0 0 -1
    outer loop
      vertex -0.75 12.875 -2
      vertex 114.3 15.875 -2
      vertex 0.75 12.875 -2
    endloop
  endfacet
  facet normal 0 0 -1
    outer loop
      vertex -9.75 12.875 -2
      vertex 114.3 15.875 -2
      vertex -0.75 12.875 -2
    endloop
  endfacet
  facet normal 0 0 -1
    outer loop
      vertex -11.25 12.875 -2
      vertex -9.75 12.875 -2
      vertex -11.25 -12.875 -2
    endloop
  endfacet
  facet normal 0 0 -1
    outer loop
      vertex -11.25 12.875 -2
      vertex 114.3 15.875 -2
      vertex -9.75 12.875 -2
    endloop
  endfacet
  facet normal 0 0 -1
    outer loop
      vertex -20.25 12.875 -2
      vertex 114.3 15.875 -2
      vertex -11.25 12.875 -2
    endloop
  endfacet
  facet normal 0 0 -1
    outer loop
      vertex -21.75 12.875 -2
      vertex -20.25 12.875 -2
      vertex -21.75 -12.875 -2
    endloop
  endfacet
  facet normal 0 0 -1
    outer loop
      vertex -114.3 15.875 -2
      vertex -20.25 12.875 -2
      vertex -21.75 12.875 -2
    endloop
  endfacet
  facet normal 0 0 -1
    outer loop
      vertex -114.3 15.875 -2
      vertex -21.75 12.875 -2
      vertex -30.75 12.875 -2
    endloop
  endfacet
  facet normal 0 0 -1
    outer loop
      vertex -32.25 12.875 -2
      vertex -30.75 12.875 -2
      vertex -32.25 -12.875 -2
    endloop
  endfacet
  facet normal 0 0 -1
    outer loop
      vertex -114.3 15.875 -2
      vertex -30.75 12.875 -2
      vertex -32.25 12.875 -2
    endloop
  endfacet
  facet normal 0 0 -1
    outer loop
      vertex -114.3 15.875 -2
      vertex -32.25 12.875 -2
      vertex -41.25 12.875 -2
    endloop
  endfacet
  facet normal 0 0 -1
    outer loop
      vertex -42.75 12.875 -2
      vertex -41.25 12.875 -2
      vertex -42.75 -12.875 -2
    endloop
  endfacet
  facet normal 0 0 -1
    outer loop
      vertex -114.3 15.875 -2
      vertex -41.25 12.875 -2
      vertex -42.75 12.875 -2
    endloop
  endfacet
  facet normal 0 0 -1
    outer loop
      vertex -114.3 15.875 -2
      vertex -42.75 12.875 -2
      vertex -51.75 12.875 -2
    endloop
  endfacet
  facet normal 0 0 -1
    outer loop
      vertex -53.25 12.875 -2
      vertex -51.75 12.875 -2
      vertex -53.25 -12.875 -2
    endloop
  endfacet
  facet normal 0 0 -1
    outer loop
      vertex -114.3 15.875 -2
      vertex -51.75 12.875 -2
      vertex -53.25 12.875 -2
    endloop
  endfacet
  facet normal 0 0 -1
    outer loop
      vertex -114.3 15.875 -2
      vertex -53.25 12.875 -2
      vertex -62.25 12.875 -2
    endloop
  endfacet
  facet normal 0 0 -1
    outer loop
      vertex -63.75 12.875 -2
      vertex -62.25 12.875 -2
      vertex -63.75 -12.875 -2
    endloop
  endfacet
  facet normal 0 0 -1
    outer loop
      vertex -114.3 15.875 -2
      vertex -62.25 12.875 -2
      vertex -63.75 12.875 -2
    endloop
  endfacet
  facet normal 0 0 -1
    outer loop
      vertex -114.3 15.875 -2
      vertex -63.75 12.875 -2
      vertex -72.75 12.875 -2
    endloop
  endfacet
  facet normal 0 0 -1
    outer loop
      vertex -74.25 12.875 -2
      vertex -72.75 12.875 -2
      vertex -74.25 -12.875 -2
    endloop
  endfacet
  facet normal 0 0 -1
    outer loop
      vertex -114.3 15.875 -2
      vertex -72.75 12.875 -2
      vertex -74.25 12.875 -2
    endloop
  endfacet
  facet normal 0 0 -1
    outer loop
      vertex -114.3 15.875 -2
      vertex -74.25 12.875 -2
      vertex -83.25 12.875 -2
    endloop
  endfacet
  facet normal 0 0 -1
    outer loop
      vertex -84.75 12.875 -2
      vertex -83.25 12.875 -2
      vertex -84.75 -12.875 -2
    endloop
  endfacet
  facet normal 0 0 -1
    outer loop
      vertex -114.3 15.875 -2
      vertex -83.25 12.875 -2
      vertex -84.75 12.875 -2
    endloop
  endfacet
  facet normal 0 0 -1
    outer loop
      vertex -114.3 15.875 -2
      vertex -84.75 12.875 -2
      vertex -93.75 12.875 -2
    endloop
  endfacet
  facet normal 0 0 -1
    outer loop
      vertex -95.25 12.875 -2
      vertex -93.75 12.875 -2
      vertex -95.25 -12.875 -2
    endloop
  endfacet
  facet normal 0 0 -1
    outer loop
      vertex -114.3 15.875 -2
      vertex -93.75 12.875 -2
      vertex -95.25 12.875 -2
    endloop
  endfacet
  facet normal 0 0 -1
    outer loop
      vertex -114.3 15.875 -2
      vertex -95.25 12.875 -2
      vertex -104.25 12.875 -2
    endloop
  endfacet
  facet normal 0 0 -1
    outer loop
      vertex -105.75 12.875 -2
      vertex -104.25 12.875 -2
      vertex -105.75 -12.875 -2
    endloop
  endfacet
  facet normal 0 0 -1
    outer loop
      vertex -114.3 15.875 -2
      vertex -104.25 12.875 -2
      vertex -105.75 12.875 -2
    endloop
  endfacet
  facet normal 0 0 -1
    outer loop
      vertex -114.3 15.875 -2
      vertex -105.75 12.875 -2
      vertex -111.3 12.875 -2
    endloop
  endfacet
  facet normal 0 0 -1
    outer loop
      vertex -20.25 12.875 -2
      vertex -114.3 15.875 -2
      vertex 114.3 15.875 -2
    endloop
  endfacet
  facet normal 0 0 -1
    outer loop
      vertex -114.3 15.875 -2
      vertex -111.3 12.875 -2
      vertex -114.3 -15.875 -2
    endloop
  endfacet
  facet normal 0 1 -0
    outer loop
      vertex 114.3 15.875 -2
      vertex -114.3 15.875 0
      vertex 114.3 15.875 0
    endloop
  endfacet
  facet normal 0 1 0
    outer loop
      vertex -114.3 15.875 0
      vertex 114.3 15.875 -2
      vertex -114.3 15.875 -2
    endloop
  endfacet
  facet normal 0 -1 0
    outer loop
      vertex -114.3 -15.875 -2
      vertex 114.3 -15.875 0
      vertex -114.3 -15.875 0
    endloop
  endfacet
  facet normal 0 -1 -0
    outer loop
      vertex 114.3 -15.875 0
      vertex -114.3 -15.875 -2
      vertex 114.3 -15.875 -2
    endloop
  endfacet
  facet normal 1 -0 0
    outer loop
      vertex -104.25 -12.875 2
      vertex -104.25 12.875 -2
      vertex -104.25 12.875 2
    endloop
  endfacet
  facet normal 1 0 0
    outer loop
      vertex -104.25 12.875 -2
      vertex -104.25 -12.875 2
      vertex -104.25 -12.875 -2
    endloop
  endfacet
  facet normal -1 0 0
    outer loop
      vertex -105.75 -12.875 -2
      vertex -105.75 12.875 2
      vertex -105.75 12.875 -2
    endloop
  endfacet
  facet normal -1 -0 0
    outer loop
      vertex -105.75 12.875 2
      vertex -105.75 -12.875 -2
      vertex -105.75 -12.875 2
    endloop
  endfacet
  facet normal 1 -0 0
    outer loop
      vertex -93.75 -12.875 2
      vertex -93.75 12.875 -2
      vertex -93.75 12.875 2
    endloop
  endfacet
  facet normal 1 0 0
    outer loop
      vertex -93.75 12.875 -2
      vertex -93.75 -12.875 2
      vertex -93.75 -12.875 -2
    endloop
  endfacet
  facet normal -1 0 0
    outer loop
      vertex -95.25 -12.875 -2
      vertex -95.25 12.875 2
      vertex -95.25 12.875 -2
    endloop
  endfacet
  facet normal -1 -0 0
    outer loop
      vertex -95.25 12.875 2
      vertex -95.25 -12.875 -2
      vertex -95.25 -12.875 2
    endloop
  endfacet
  facet normal 1 -0 0
    outer loop
      vertex -83.25 -12.875 2
      vertex -83.25 12.875 -2
      vertex -83.25 12.875 2
    endloop
  endfacet
  facet normal 1 0 0
    outer loop
      vertex -83.25 12.875 -2
      vertex -83.25 -12.875 2
      vertex -83.25 -12.875 -2
    endloop
  endfacet
  facet normal -1 0 0
    outer loop
      vertex -84.75 -12.875 -2
      vertex -84.75 12.875 2
      vertex -84.75 12.875 -2
    endloop
  endfacet
  facet normal -1 -0 0
    outer loop
      vertex -84.75 12.875 2
      vertex -84.75 -12.875 -2
      vertex -84.75 -12.875 2
    endloop
  endfacet
  facet normal 1 -0 0
    outer loop
      vertex -72.75 -12.875 2
      vertex -72.75 12.875 -2
      vertex -72.75 12.875 2
    endloop
  endfacet
  facet normal 1 0 0
    outer loop
      vertex -72.75 12.875 -2
      vertex -72.75 -12.875 2
      vertex -72.75 -12.875 -2
    endloop
  endfacet
  facet normal -1 0 0
    outer loop
      vertex -74.25 -12.875 -2
      vertex -74.25 12.875 2
      vertex -74.25 12.875 -2
    endloop
  endfacet
  facet normal -1 -0 0
    outer loop
      vertex -74.25 12.875 2
      vertex -74.25 -12.875 -2
      vertex -74.25 -12.875 2
    endloop
  endfacet
  facet normal 1 -0 0
    outer loop
      vertex -62.25 -12.875 2
      vertex -62.25 12.875 -2
      vertex -62.25 12.875 2
    endloop
  endfacet
  facet normal 1 0 0
    outer loop
      vertex -62.25 12.875 -2
      vertex -62.25 -12.875 2
      vertex -62.25 -12.875 -2
    endloop
  endfacet
  facet normal -1 0 0
    outer loop
      vertex -63.75 -12.875 -2
      vertex -63.75 12.875 2
      vertex -63.75 12.875 -2
    endloop
  endfacet
  facet normal -1 -0 0
    outer loop
      vertex -63.75 12.875 2
      vertex -63.75 -12.875 -2
      vertex -63.75 -12.875 2
    endloop
  endfacet
  facet normal 1 -0 0
    outer loop
      vertex -51.75 -12.875 2
      vertex -51.75 12.875 -2
      vertex -51.75 12.875 2
    endloop
  endfacet
  facet normal 1 0 0
    outer loop
      vertex -51.75 12.875 -2
      vertex -51.75 -12.875 2
      vertex -51.75 -12.875 -2
    endloop
  endfacet
  facet normal -1 0 0
    outer loop
      vertex -53.25 -12.875 -2
      vertex -53.25 12.875 2
      vertex -53.25 12.875 -2
    endloop
  endfacet
  facet normal -1 -0 0
    outer loop
      vertex -53.25 12.875 2
      vertex -53.25 -12.875 -2
      vertex -53.25 -12.875 2
    endloop
  endfacet
  facet normal 1 -0 0
    outer loop
      vertex -41.25 -12.875 2
      vertex -41.25 12.875 -2
      vertex -41.25 12.875 2
    endloop
  endfacet
  facet normal 1 0 0
    outer loop
      vertex -41.25 12.875 -2
      vertex -41.25 -12.875 2
      vertex -41.25 -12.875 -2
    endloop
  endfacet
  facet normal -1 0 0
    outer loop
      vertex -42.75 -12.875 -2
      vertex -42.75 12.875 2
      vertex -42.75 12.875 -2
    endloop
  endfacet
  facet normal -1 -0 0
    outer loop
      vertex -42.75 12.875 2
      vertex -42.75 -12.875 -2
      vertex -42.75 -12.875 2
    endloop
  endfacet
  facet normal 1 -0 0
    outer loop
      vertex -30.75 -12.875 2
      vertex -30.75 12.875 -2
      vertex -30.75 12.875 2
    endloop
  endfacet
  facet normal 1 0 0
    outer loop
      vertex -30.75 12.875 -2
      vertex -30.75 -12.875 2
      vertex -30.75 -12.875 -2
    endloop
  endfacet
  facet normal -1 0 0
    outer loop
      vertex -32.25 -12.875 -2
      vertex -32.25 12.875 2
      vertex -32.25 12.875 -2
    endloop
  endfacet
  facet normal -1 -0 0
    outer loop
      vertex -32.25 12.875 2
      vertex -32.25 -12.875 -2
      vertex -32.25 -12.875 2
    endloop
  endfacet
  facet normal 1 -0 0
    outer loop
      vertex -20.25 -12.875 2
      vertex -20.25 12.875 -2
      vertex -20.25 12.875 2
    endloop
  endfacet
  facet normal 1 0 0
    outer loop
      vertex -20.25 12.875 -2
      vertex -20.25 -12.875 2
      vertex -20.25 -12.875 -2
    endloop
  endfacet
  facet normal -1 0 0
    outer loop
      vertex -21.75 -12.875 -2
      vertex -21.75 12.875 2
      vertex -21.75 12.875 -2
    endloop
  endfacet
  facet normal -1 -0 0
    outer loop
      vertex -21.75 12.875 2
      vertex -21.75 -12.875 -2
      vertex -21.75 -12.875 2
    endloop
  endfacet
  facet normal 1 -0 0
    outer loop
      vertex -9.75 -12.875 2
      vertex -9.75 12.875 -2
      vertex -9.75 12.875 2
    endloop
  endfacet
  facet normal 1 0 0
    outer loop
      vertex -9.75 12.875 -2
      vertex -9.75 -12.875 2
      vertex -9.75 -12.875 -2
    endloop
  endfacet
  facet normal -1 0 0
    outer loop
      vertex -11.25 -12.875 -2
      vertex -11.25 12.875 2
      vertex -11.25 12.875 -2
    endloop
  endfacet
  facet normal -1 -0 0
    outer loop
      vertex -11.25 12.875 2
      vertex -11.25 -12.875 -2
      vertex -11.25 -12.875 2
    endloop
  endfacet
  facet normal 1 -0 0
    outer loop
      vertex 0.75 -12.875 2
      vertex 0.75 12.875 -2
      vertex 0.75 12.875 2
    endloop
  endfacet
  facet normal 1 0 0
    outer loop
      vertex 0.75 12.875 -2
      vertex 0.75 -12.875 2
      vertex 0.75 -12.875 -2
    endloop
  endfacet
  facet normal -1 0 0
    outer loop
      vertex -0.75 -12.875 -2
      vertex -0.75 12.875 2
      vertex -0.75 12.875 -2
    endloop
  endfacet
  facet normal -1 -0 0
    outer loop
      vertex -0.75 12.875 2
      vertex -0.75 -12.875 -2
      vertex -0.75 -12.875 2
    endloop
  endfacet
  facet normal 1 -0 0
    outer loop
      vertex 11.25 -12.875 2
      vertex 11.25 12.875 -2
      vertex 11.25 12.875 2
    endloop
  endfacet
  facet normal 1 0 0
    outer loop
      vertex 11.25 12.875 -2
      vertex 11.25 -12.875 2
      vertex 11.25 -12.875 -2
    endloop
  endfacet
  facet normal -1 0 0
    outer loop
      vertex 9.75 -12.875 -2
      vertex 9.75 12.875 2
      vertex 9.75 12.875 -2
    endloop
  endfacet
  facet normal -1 -0 0
    outer loop
      vertex 9.75 12.875 2
      vertex 9.75 -12.875 -2
      vertex 9.75 -12.875 2
    endloop
  endfacet
  facet normal 1 -0 0
    outer loop
      vertex 21.75 -12.875 2
      vertex 21.75 12.875 -2
      vertex 21.75 12.875 2
    endloop
  endfacet
  facet normal 1 0 0
    outer loop
      vertex 21.75 12.875 -2
      vertex 21.75 -12.875 2
      vertex 21.75 -12.875 -2
    endloop
  endfacet
  facet normal -1 0 0
    outer loop
      vertex 20.25 -12.875 -2
      vertex 20.25 12.875 2
      vertex 20.25 12.875 -2
    endloop
  endfacet
  facet normal -1 -0 0
    outer loop
      vertex 20.25 12.875 2
      vertex 20.25 -12.875 -2
      vertex 20.25 -12.875 2
    endloop
  endfacet
  facet normal 1 -0 0
    outer loop
      vertex 32.25 -12.875 2
      vertex 32.25 12.875 -2
      vertex 32.25 12.875 2
    endloop
  endfacet
  facet normal 1 0 0
    outer loop
      vertex 32.25 12.875 -2
      vertex 32.25 -12.875 2
      vertex 32.25 -12.875 -2
    endloop
  endfacet
  facet normal -1 0 0
    outer loop
      vertex 30.75 -12.875 -2
      vertex 30.75 12.875 2
      vertex 30.75 12.875 -2
    endloop
  endfacet
  facet normal -1 -0 0
    outer loop
      vertex 30.75 12.875 2
      vertex 30.75 -12.875 -2
      vertex 30.75 -12.875 2
    endloop
  endfacet
  facet normal 1 -0 0
    outer loop
      vertex 42.75 -12.875 2
      vertex 42.75 12.875 -2
      vertex 42.75 12.875 2
    endloop
  endfacet
  facet normal 1 0 0
    outer loop
      vertex 42.75 12.875 -2
      vertex 42.75 -12.875 2
      vertex 42.75 -12.875 -2
    endloop
  endfacet
  facet normal -1 0 0
    outer loop
      vertex 41.25 -12.875 -2
      vertex 41.25 12.875 2
      vertex 41.25 12.875 -2
    endloop
  endfacet
  facet normal -1 -0 0
    outer loop
      vertex 41.25 12.875 2
      vertex 41.25 -12.875 -2
      vertex 41.25 -12.875 2
    endloop
  endfacet
  facet normal 1 -0 0
    outer loop
      vertex 53.25 -12.875 2
      vertex 53.25 12.875 -2
      vertex 53.25 12.875 2
    endloop
  endfacet
  facet normal 1 0 0
    outer loop
      vertex 53.25 12.875 -2
      vertex 53.25 -12.875 2
      vertex 53.25 -12.875 -2
    endloop
  endfacet
  facet normal -1 0 0
    outer loop
      vertex 51.75 -12.875 -2
      vertex 51.75 12.875 2
      vertex 51.75 12.875 -2
    endloop
  endfacet
  facet normal -1 -0 0
    outer loop
      vertex 51.75 12.875 2
      vertex 51.75 -12.875 -2
      vertex 51.75 -12.875 2
    endloop
  endfacet
  facet normal 1 -0 0
    outer loop
      vertex 63.75 -12.875 2
      vertex 63.75 12.875 -2
      vertex 63.75 12.875 2
    endloop
  endfacet
  facet normal 1 0 0
    outer loop
      vertex 63.75 12.875 -2
      vertex 63.75 -12.875 2
      vertex 63.75 -12.875 -2
    endloop
  endfacet
  facet normal -1 0 0
    outer loop
      vertex 62.25 -12.875 -2
      vertex 62.25 12.875 2
      vertex 62.25 12.875 -2
    endloop
  endfacet
  facet normal -1 -0 0
    outer loop
      vertex 62.25 12.875 2
      vertex 62.25 -12.875 -2
      vertex 62.25 -12.875 2
    endloop
  endfacet
  facet normal 1 -0 0
    outer loop
      vertex 74.25 -12.875 2
      vertex 74.25 12.875 -2
      vertex 74.25 12.875 2
    endloop
  endfacet
  facet normal 1 0 0
    outer loop
      vertex 74.25 12.875 -2
      vertex 74.25 -12.875 2
      vertex 74.25 -12.875 -2
    endloop
  endfacet
  facet normal -1 0 0
    outer loop
      vertex 72.75 -12.875 -2
      vertex 72.75 12.875 2
      vertex 72.75 12.875 -2
    endloop
  endfacet
  facet normal -1 -0 0
    outer loop
      vertex 72.75 12.875 2
      vertex 72.75 -12.875 -2
      vertex 72.75 -12.875 2
    endloop
  endfacet
  facet normal 1 -0 0
    outer loop
      vertex 84.75 -12.875 2
      vertex 84.75 12.875 -2
      vertex 84.75 12.875 2
    endloop
  endfacet
  facet normal 1 0 0
    outer loop
      vertex 84.75 12.875 -2
      vertex 84.75 -12.875 2
      vertex 84.75 -12.875 -2
    endloop
  endfacet
  facet normal -1 0 0
    outer loop
      vertex 83.25 -12.875 -2
      vertex 83.25 12.875 2
      vertex 83.25 12.875 -2
    endloop
  endfacet
  facet normal -1 -0 0
    outer loop
      vertex 83.25 12.875 2
      vertex 83.25 -12.875 -2
      vertex 83.25 -12.875 2
    endloop
  endfacet
  facet normal 1 -0 0
    outer loop
      vertex 95.25 -12.875 2
      vertex 95.25 12.875 -2
      vertex 95.25 12.875 2
    endloop
  endfacet
  facet normal 1 0 0
    outer loop
      vertex 95.25 12.875 -2
      vertex 95.25 -12.875 2
      vertex 95.25 -12.875 -2
    endloop
  endfacet
  facet normal -1 0 0
    outer loop
      vertex 93.75 -12.875 -2
      vertex 93.75 12.875 2
      vertex 93.75 12.875 -2
    endloop
  endfacet
  facet normal -1 -0 0
    outer loop
      vertex 93.75 12.875 2
      vertex 93.75 -12.875 -2
      vertex 93.75 -12.875 2
    endloop
  endfacet
  facet normal 1 -0 0
    outer loop
      vertex 105.75 -12.875 2
      vertex 105.75 12.875 -2
      vertex 105.75 12.875 2
    endloop
  endfacet
  facet normal 1 0 0
    outer loop
      vertex 105.75 12.875 -2
      vertex 105.75 -12.875 2
      vertex 105.75 -12.875 -2
    endloop
  endfacet
  facet normal -1 0 0
    outer loop
      vertex 104.25 -12.875 -2
      vertex 104.25 12.875 2
      vertex 104.25 12.875 -2
    endloop
  endfacet
  facet normal -1 -0 0
    outer loop
      vertex 104.25 12.875 2
      vertex 104.25 -12.875 -2
      vertex 104.25 -12.875 2
    endloop
  endfacet
  facet normal -1 0 0
    outer loop
      vertex 111.3 -12.875 -2
      vertex 111.3 12.875 2
      vertex 111.3 12.875 -2
    endloop
  endfacet
  facet normal -1 -0 0
    outer loop
      vertex 111.3 12.875 2
      vertex 111.3 -12.875 -2
      vertex 111.3 -12.875 2
    endloop
  endfacet
  facet normal 1 -0 0
    outer loop
      vertex -111.3 -12.875 2
      vertex -111.3 12.875 -2
      vertex -111.3 12.875 2
    endloop
  endfacet
  facet normal 1 0 0
    outer loop
      vertex -111.3 12.875 -2
      vertex -111.3 -12.875 2
      vertex -111.3 -12.875 -2
    endloop
  endfacet
  facet normal 0 -1 0
    outer loop
      vertex -111.3 12.875 -2
      vertex -105.75 12.875 2
      vertex -111.3 12.875 2
    endloop
  endfacet
  facet normal 0 -1 -0
    outer loop
      vertex -105.75 12.875 2
      vertex -111.3 12.875 -2
      vertex -105.75 12.875 -2
    endloop
  endfacet
  facet normal 0 -1 0
    outer loop
      vertex -104.25 12.875 -2
      vertex -95.25 12.875 2
      vertex -104.25 12.875 2
    endloop
  endfacet
  facet normal 0 -1 -0
    outer loop
      vertex -95.25 12.875 2
      vertex -104.25 12.875 -2
      vertex -95.25 12.875 -2
    endloop
  endfacet
  facet normal 0 -1 0
    outer loop
      vertex -93.75 12.875 -2
      vertex -84.75 12.875 2
      vertex -93.75 12.875 2
    endloop
  endfacet
  facet normal 0 -1 -0
    outer loop
      vertex -84.75 12.875 2
      vertex -93.75 12.875 -2
      vertex -84.75 12.875 -2
    endloop
  endfacet
  facet normal 0 -1 0
    outer loop
      vertex -83.25 12.875 -2
      vertex -74.25 12.875 2
      vertex -83.25 12.875 2
    endloop
  endfacet
  facet normal 0 -1 -0
    outer loop
      vertex -74.25 12.875 2
      vertex -83.25 12.875 -2
      vertex -74.25 12.875 -2
    endloop
  endfacet
  facet normal 0 -1 0
    outer loop
      vertex -72.75 12.875 -2
      vertex -63.75 12.875 2
      vertex -72.75 12.875 2
    endloop
  endfacet
  facet normal 0 -1 -0
    outer loop
      vertex -63.75 12.875 2
      vertex -72.75 12.875 -2
      vertex -63.75 12.875 -2
    endloop
  endfacet
  facet normal 0 -1 0
    outer loop
      vertex -62.25 12.875 -2
      vertex -53.25 12.875 2
      vertex -62.25 12.875 2
    endloop
  endfacet
  facet normal 0 -1 -0
    outer loop
      vertex -53.25 12.875 2
      vertex -62.25 12.875 -2
      vertex -53.25 12.875 -2
    endloop
  endfacet
  facet normal 0 -1 0
    outer loop
      vertex -51.75 12.875 -2
      vertex -42.75 12.875 2
      vertex -51.75 12.875 2
    endloop
  endfacet
  facet normal 0 -1 -0
    outer loop
      vertex -42.75 12.875 2
      vertex -51.75 12.875 -2
      vertex -42.75 12.875 -2
    endloop
  endfacet
  facet normal 0 -1 0
    outer loop
      vertex -41.25 12.875 -2
      vertex -32.25 12.875 2
      vertex -41.25 12.875 2
    endloop
  endfacet
  facet normal 0 -1 -0
    outer loop
      vertex -32.25 12.875 2
      vertex -41.25 12.875 -2
      vertex -32.25 12.875 -2
    endloop
  endfacet
  facet normal 0 -1 0
    outer loop
      vertex -30.75 12.875 -2
      vertex -21.75 12.875 2
      vertex -30.75 12.875 2
    endloop
  endfacet
  facet normal 0 -1 -0
    outer loop
      vertex -21.75 12.875 2
      vertex -30.75 12.875 -2
      vertex -21.75 12.875 -2
    endloop
  endfacet
  facet normal 0 -1 0
    outer loop
      vertex -20.25 12.875 -2
      vertex -11.25 12.875 2
      vertex -20.25 12.875 2
    endloop
  endfacet
  facet normal 0 -1 -0
    outer loop
      vertex -11.25 12.875 2
      vertex -20.25 12.875 -2
      vertex -11.25 12.875 -2
    endloop
  endfacet
  facet normal 0 -1 0
    outer loop
      vertex -9.75 12.875 -2
      vertex -0.75 12.875 2
      vertex -9.75 12.875 2
    endloop
  endfacet
  facet normal 0 -1 -0
    outer loop
      vertex -0.75 12.875 2
      vertex -9.75 12.875 -2
      vertex -0.75 12.875 -2
    endloop
  endfacet
  facet normal 0 -1 0
    outer loop
      vertex 0.75 12.875 -2
      vertex 9.75 12.875 2
      vertex 0.75 12.875 2
    endloop
  endfacet
  facet normal 0 -1 -0
    outer loop
      vertex 9.75 12.875 2
      vertex 0.75 12.875 -2
      vertex 9.75 12.875 -2
    endloop
  endfacet
  facet normal 0 -1 0
    outer loop
      vertex 11.25 12.875 -2
      vertex 20.25 12.875 2
      vertex 11.25 12.875 2
    endloop
  endfacet
  facet normal 0 -1 -0
    outer loop
      vertex 20.25 12.875 2
      vertex 11.25 12.875 -2
      vertex 20.25 12.875 -2
    endloop
  endfacet
  facet normal 0 -1 0
    outer loop
      vertex 21.75 12.875 -2
      vertex 30.75 12.875 2
      vertex 21.75 12.875 2
    endloop
  endfacet
  facet normal 0 -1 -0
    outer loop
      vertex 30.75 12.875 2
      vertex 21.75 12.875 -2
      vertex 30.75 12.875 -2
    endloop
  endfacet
  facet normal 0 -1 0
    outer loop
      vertex 32.25 12.875 -2
      vertex 41.25 12.875 2
      vertex 32.25 12.875 2
    endloop
  endfacet
  facet normal 0 -1 -0
    outer loop
      vertex 41.25 12.875 2
      vertex 32.25 12.875 -2
      vertex 41.25 12.875 -2
    endloop
  endfacet
  facet normal 0 -1 0
    outer loop
      vertex 42.75 12.875 -2
      vertex 51.75 12.875 2
      vertex 42.75 12.875 2
    endloop
  endfacet
  facet normal 0 -1 -0
    outer loop
      vertex 51.75 12.875 2
      vertex 42.75 12.875 -2
      vertex 51.75 12.875 -2
    endloop
  endfacet
  facet normal 0 -1 0
    outer loop
      vertex 53.25 12.875 -2
      vertex 62.25 12.875 2
      vertex 53.25 12.875 2
    endloop
  endfacet
  facet normal 0 -1 -0
    outer loop
      vertex 62.25 12.875 2
      vertex 53.25 12.875 -2
      vertex 62.25 12.875 -2
    endloop
  endfacet
  facet normal 0 -1 0
    outer loop
      vertex 63.75 12.875 -2
      vertex 72.75 12.875 2
      vertex 63.75 12.875 2
    endloop
  endfacet
  facet normal 0 -1 -0
    outer loop
      vertex 72.75 12.875 2
      vertex 63.75 12.875 -2
      vertex 72.75 12.875 -2
    endloop
  endfacet
  facet normal 0 -1 0
    outer loop
      vertex 74.25 12.875 -2
      vertex 83.25 12.875 2
      vertex 74.25 12.875 2
    endloop
  endfacet
  facet normal 0 -1 -0
    outer loop
      vertex 83.25 12.875 2
      vertex 74.25 12.875 -2
      vertex 83.25 12.875 -2
    endloop
  endfacet
  facet normal 0 -1 0
    outer loop
      vertex 84.75 12.875 -2
      vertex 93.75 12.875 2
      vertex 84.75 12.875 2
    endloop
  endfacet
  facet normal 0 -1 -0
    outer loop
      vertex 93.75 12.875 2
      vertex 84.75 12.875 -2
      vertex 93.75 12.875 -2
    endloop
  endfacet
  facet normal 0 -1 0
    outer loop
      vertex 95.25 12.875 -2
      vertex 104.25 12.875 2
      vertex 95.25 12.875 2
    endloop
  endfacet
  facet normal 0 -1 -0
    outer loop
      vertex 104.25 12.875 2
      vertex 95.25 12.875 -2
      vertex 104.25 12.875 -2
    endloop
  endfacet
  facet normal 0 -1 0
    outer loop
      vertex 105.75 12.875 -2
      vertex 111.3 12.875 2
      vertex 105.75 12.875 2
    endloop
  endfacet
  facet normal 0 -1 -0
    outer loop
      vertex 111.3 12.875 2
      vertex 105.75 12.875 -2
      vertex 111.3 12.875 -2
    endloop
  endfacet
  facet normal 0 1 -0
    outer loop
      vertex -105.75 -12.875 -2
      vertex -111.3 -12.875 2
      vertex -105.75 -12.875 2
    endloop
  endfacet
  facet normal 0 1 0
    outer loop
      vertex -111.3 -12.875 2
      vertex -105.75 -12.875 -2
      vertex -111.3 -12.875 -2
    endloop
  endfacet
  facet normal 0 1 -0
    outer loop
      vertex -95.25 -12.875 -2
      vertex -104.25 -12.875 2
      vertex -95.25 -12.875 2
    endloop
  endfacet
  facet normal 0 1 0
    outer loop
      vertex -104.25 -12.875 2
      vertex -95.25 -12.875 -2
      vertex -104.25 -12.875 -2
    endloop
  endfacet
  facet normal 0 1 -0
    outer loop
      vertex -84.75 -12.875 -2
      vertex -93.75 -12.875 2
      vertex -84.75 -12.875 2
    endloop
  endfacet
  facet normal 0 1 0
    outer loop
      vertex -93.75 -12.875 2
      vertex -84.75 -12.875 -2
      vertex -93.75 -12.875 -2
    endloop
  endfacet
  facet normal 0 1 -0
    outer loop
      vertex -74.25 -12.875 -2
      vertex -83.25 -12.875 2
      vertex -74.25 -12.875 2
    endloop
  endfacet
  facet normal 0 1 0
    outer loop
      vertex -83.25 -12.875 2
      vertex -74.25 -12.875 -2
      vertex -83.25 -12.875 -2
    endloop
  endfacet
  facet normal 0 1 -0
    outer loop
      vertex -63.75 -12.875 -2
      vertex -72.75 -12.875 2
      vertex -63.75 -12.875 2
    endloop
  endfacet
  facet normal 0 1 0
    outer loop
      vertex -72.75 -12.875 2
      vertex -63.75 -12.875 -2
      vertex -72.75 -12.875 -2
    endloop
  endfacet
  facet normal 0 1 -0
    outer loop
      vertex -53.25 -12.875 -2
      vertex -62.25 -12.875 2
      vertex -53.25 -12.875 2
    endloop
  endfacet
  facet normal 0 1 0
    outer loop
      vertex -62.25 -12.875 2
      vertex -53.25 -12.875 -2
      vertex -62.25 -12.875 -2
    endloop
  endfacet
  facet normal 0 1 -0
    outer loop
      vertex -42.75 -12.875 -2
      vertex -51.75 -12.875 2
      vertex -42.75 -12.875 2
    endloop
  endfacet
  facet normal 0 1 0
    outer loop
      vertex -51.75 -12.875 2
      vertex -42.75 -12.875 -2
      vertex -51.75 -12.875 -2
    endloop
  endfacet
  facet normal 0 1 -0
    outer loop
      vertex -32.25 -12.875 -2
      vertex -41.25 -12.875 2
      vertex -32.25 -12.875 2
    endloop
  endfacet
  facet normal 0 1 0
    outer loop
      vertex -41.25 -12.875 2
      vertex -32.25 -12.875 -2
      vertex -41.25 -12.875 -2
    endloop
  endfacet
  facet normal 0 1 -0
    outer loop
      vertex -21.75 -12.875 -2
      vertex -30.75 -12.875 2
      vertex -21.75 -12.875 2
    endloop
  endfacet
  facet normal 0 1 0
    outer loop
      vertex -30.75 -12.875 2
      vertex -21.75 -12.875 -2
      vertex -30.75 -12.875 -2
    endloop
  endfacet
  facet normal 0 1 -0
    outer loop
      vertex -11.25 -12.875 -2
      vertex -20.25 -12.875 2
      vertex -11.25 -12.875 2
    endloop
  endfacet
  facet normal 0 1 0
    outer loop
      vertex -20.25 -12.875 2
      vertex -11.25 -12.875 -2
      vertex -20.25 -12.875 -2
    endloop
  endfacet
  facet normal 0 1 -0
    outer loop
      vertex -0.75 -12.875 -2
      vertex -9.75 -12.875 2
      vertex -0.75 -12.875 2
    endloop
  endfacet
  facet normal 0 1 0
    outer loop
      vertex -9.75 -12.875 2
      vertex -0.75 -12.875 -2
      vertex -9.75 -12.875 -2
    endloop
  endfacet
  facet normal 0 1 -0
    outer loop
      vertex 9.75 -12.875 -2
      vertex 0.75 -12.875 2
      vertex 9.75 -12.875 2
    endloop
  endfacet
  facet normal 0 1 0
    outer loop
      vertex 0.75 -12.875 2
      vertex 9.75 -12.875 -2
      vertex 0.75 -12.875 -2
    endloop
  endfacet
  facet normal 0 1 -0
    outer loop
      vertex 20.25 -12.875 -2
      vertex 11.25 -12.875 2
      vertex 20.25 -12.875 2
    endloop
  endfacet
  facet normal 0 1 0
    outer loop
      vertex 11.25 -12.875 2
      vertex 20.25 -12.875 -2
      vertex 11.25 -12.875 -2
    endloop
  endfacet
  facet normal 0 1 -0
    outer loop
      vertex 30.75 -12.875 -2
      vertex 21.75 -12.875 2
      vertex 30.75 -12.875 2
    endloop
  endfacet
  facet normal 0 1 0
    outer loop
      vertex 21.75 -12.875 2
      vertex 30.75 -12.875 -2
      vertex 21.75 -12.875 -2
    endloop
  endfacet
  facet normal 0 1 -0
    outer loop
      vertex 41.25 -12.875 -2
      vertex 32.25 -12.875 2
      vertex 41.25 -12.875 2
    endloop
  endfacet
  facet normal 0 1 0
    outer loop
      vertex 32.25 -12.875 2
      vertex 41.25 -12.875 -2
      vertex 32.25 -12.875 -2
    endloop
  endfacet
  facet normal 0 1 -0
    outer loop
      vertex 51.75 -12.875 -2
      vertex 42.75 -12.875 2
      vertex 51.75 -12.875 2
    endloop
  endfacet
  facet normal 0 1 0
    outer loop
      vertex 42.75 -12.875 2
      vertex 51.75 -12.875 -2
      vertex 42.75 -12.875 -2
    endloop
  endfacet
  facet normal 0 1 -0
    outer loop
      vertex 62.25 -12.875 -2
      vertex 53.25 -12.875 2
      vertex 62.25 -12.875 2
    endloop
  endfacet
  facet normal 0 1 0
    outer loop
      vertex 53.25 -12.875 2
      vertex 62.25 -12.875 -2
      vertex 53.25 -12.875 -2
    endloop
  endfacet
  facet normal 0 1 -0
    outer loop
      vertex 72.75 -12.875 -2
      vertex 63.75 -12.875 2
      vertex 72.75 -12.875 2
    endloop
  endfacet
  facet normal 0 1 0
    outer loop
      vertex 63.75 -12.875 2
      vertex 72.75 -12.875 -2
      vertex 63.75 -12.875 -2
    endloop
  endfacet
  facet normal 0 1 -0
    outer loop
      vertex 83.25 -12.875 -2
      vertex 74.25 -12.875 2
      vertex 83.25 -12.875 2
    endloop
  endfacet
  facet normal 0 1 0
    outer loop
      vertex 74.25 -12.875 2
      vertex 83.25 -12.875 -2
      vertex 74.25 -12.875 -2
    endloop
  endfacet
  facet normal 0 1 -0
    outer loop
      vertex 93.75 -12.875 -2
      vertex 84.75 -12.875 2
      vertex 93.75 -12.875 2
    endloop
  endfacet
  facet normal 0 1 0
    outer loop
      vertex 84.75 -12.875 2
      vertex 93.75 -12.875 -2
      vertex 84.75 -12.875 -2
    endloop
  endfacet
  facet normal 0 1 -0
    outer loop
      vertex 104.25 -12.875 -2
      vertex 95.25 -12.875 2
      vertex 104.25 -12.875 2
    endloop
  endfacet
  facet normal 0 1 0
    outer loop
      vertex 95.25 -12.875 2
      vertex 104.25 -12.875 -2
      vertex 95.25 -12.875 -2
    endloop
  endfacet
  facet normal 0 1 -0
    outer loop
      vertex 111.3 -12.875 -2
      vertex 105.75 -12.875 2
      vertex 111.3 -12.875 2
    endloop
  endfacet
  facet normal 0 1 0
    outer loop
      vertex 105.75 -12.875 2
      vertex 111.3 -12.875 -2
      vertex 105.75 -12.875 -2
    endloop
  endfacet
endsolid OpenSCAD_Model
