solid OpenSCAD_Model
  facet normal 0.948683 -0 0.316228
    outer loop
      vertex -24.25 -2.75 63.75
      vertex -23 17.25 60
      vertex -24.25 17.25 63.75
    endloop
  endfacet
  facet normal 0.948683 0 0.316228
    outer loop
      vertex -23 17.25 60
      vertex -24.25 -2.75 63.75
      vertex -23 -2.75 60
    endloop
  endfacet
  facet normal -0.948683 0 0.316228
    outer loop
      vertex -25.5 -2.75 60
      vertex -24.25 17.25 63.75
      vertex -25.5 17.25 60
    endloop
  endfacet
  facet normal -0.948683 0 0.316228
    outer loop
      vertex -24.25 17.25 63.75
      vertex -25.5 -2.75 60
      vertex -24.25 -2.75 63.75
    endloop
  endfacet
  facet normal 0 1 0
    outer loop
      vertex -23 17.25 60
      vertex -25.5 17.25 60
      vertex -24.25 17.25 63.75
    endloop
  endfacet
  facet normal 0 1 -0
    outer loop
      vertex -23 17.25 0
      vertex -25.5 17.25 60
      vertex -23 17.25 60
    endloop
  endfacet
  facet normal 0 1 0
    outer loop
      vertex -25.5 17.25 60
      vertex -23 17.25 0
      vertex -25.5 17.25 0
    endloop
  endfacet
  facet normal 0 -1 0
    outer loop
      vertex -25.5 -2.75 60
      vertex -23 -2.75 60
      vertex -24.25 -2.75 63.75
    endloop
  endfacet
  facet normal 0 -1 0
    outer loop
      vertex -25.5 -2.75 0
      vertex -23 -2.75 60
      vertex -25.5 -2.75 60
    endloop
  endfacet
  facet normal 0 -1 -0
    outer loop
      vertex -23 -2.75 60
      vertex -25.5 -2.75 0
      vertex -23 -2.75 0
    endloop
  endfacet
  facet normal 0 0 -1
    outer loop
      vertex -186.75 -1.25 0
      vertex -170.5 1.25 0
      vertex -170.5 -1.25 0
    endloop
  endfacet
  facet normal 0 0 -1
    outer loop
      vertex -186.75 -1.25 0
      vertex -186.75 1.25 0
      vertex -170.5 1.25 0
    endloop
  endfacet
  facet normal 0 -0 -1
    outer loop
      vertex -186.75 1.25 0
      vertex -186.75 -1.25 0
      vertex -190.5 0 0
    endloop
  endfacet
  facet normal 0 0 -1
    outer loop
      vertex -170.5 -1.25 0
      vertex -168 -1.25 0
      vertex -168 -2.75 0
    endloop
  endfacet
  facet normal 0 0 -1
    outer loop
      vertex -168 -1.25 0
      vertex -170.5 -1.25 0
      vertex -168 1.25 0
    endloop
  endfacet
  facet normal 0 0 -1
    outer loop
      vertex -170.5 -1.25 0
      vertex -168 -2.75 0
      vertex -170.5 -2.75 0
    endloop
  endfacet
  facet normal 0 0 -1
    outer loop
      vertex -170.5 1.25 0
      vertex -168 1.25 0
      vertex -170.5 -1.25 0
    endloop
  endfacet
  facet normal 0 0 -1
    outer loop
      vertex -168 1.25 0
      vertex -170.5 1.25 0
      vertex -168 2.75 0
    endloop
  endfacet
  facet normal -0 0 -1
    outer loop
      vertex -168 2.75 0
      vertex -170.5 1.25 0
      vertex -170.5 2.75 0
    endloop
  endfacet
  facet normal 0 0 -1
    outer loop
      vertex -168 -1.25 0
      vertex -167.5 1.25 0
      vertex -167.5 -1.25 0
    endloop
  endfacet
  facet normal -0 0 -1
    outer loop
      vertex -167.5 1.25 0
      vertex -168 -1.25 0
      vertex -168 1.25 0
    endloop
  endfacet
  facet normal 0 0 -1
    outer loop
      vertex -167.5 -1.25 0
      vertex -165 -1.25 0
      vertex -165 -2.75 0
    endloop
  endfacet
  facet normal 0 0 -1
    outer loop
      vertex -165 -1.25 0
      vertex -167.5 -1.25 0
      vertex -165 1.25 0
    endloop
  endfacet
  facet normal 0 0 -1
    outer loop
      vertex -167.5 -1.25 0
      vertex -165 -2.75 0
      vertex -167.5 -2.75 0
    endloop
  endfacet
  facet normal -0 0 -1
    outer loop
      vertex -165 1.25 0
      vertex -167.5 -1.25 0
      vertex -167.5 1.25 0
    endloop
  endfacet
  facet normal 0 0 -1
    outer loop
      vertex -165 1.25 0
      vertex -167.5 1.25 0
      vertex -165 17.25 0
    endloop
  endfacet
  facet normal -0 0 -1
    outer loop
      vertex -165 17.25 0
      vertex -167.5 1.25 0
      vertex -167.5 17.25 0
    endloop
  endfacet
  facet normal 0 0 -1
    outer loop
      vertex -165 -1.25 0
      vertex -25.5 1.25 0
      vertex -25.5 -1.25 0
    endloop
  endfacet
  facet normal -0 0 -1
    outer loop
      vertex -25.5 1.25 0
      vertex -165 -1.25 0
      vertex -165 1.25 0
    endloop
  endfacet
  facet normal 0 0 -1
    outer loop
      vertex -25.5 -1.25 0
      vertex -23 -1.25 0
      vertex -23 -2.75 0
    endloop
  endfacet
  facet normal 0 0 -1
    outer loop
      vertex -23 -1.25 0
      vertex -25.5 -1.25 0
      vertex -23 1.25 0
    endloop
  endfacet
  facet normal 0 0 -1
    outer loop
      vertex -25.5 -1.25 0
      vertex -23 -2.75 0
      vertex -25.5 -2.75 0
    endloop
  endfacet
  facet normal -0 0 -1
    outer loop
      vertex -23 1.25 0
      vertex -25.5 -1.25 0
      vertex -25.5 1.25 0
    endloop
  endfacet
  facet normal 0 0 -1
    outer loop
      vertex -23 1.25 0
      vertex -25.5 1.25 0
      vertex -23 17.25 0
    endloop
  endfacet
  facet normal -0 0 -1
    outer loop
      vertex -23 17.25 0
      vertex -25.5 1.25 0
      vertex -25.5 17.25 0
    endloop
  endfacet
  facet normal 0 0 -1
    outer loop
      vertex -23 -1.25 0
      vertex -22.5 1.25 0
      vertex -22.5 -1.25 0
    endloop
  endfacet
  facet normal -0 0 -1
    outer loop
      vertex -22.5 1.25 0
      vertex -23 -1.25 0
      vertex -23 1.25 0
    endloop
  endfacet
  facet normal 0 0 -1
    outer loop
      vertex -22.5 -1.25 0
      vertex -20 -1.25 0
      vertex -20 -2.75 0
    endloop
  endfacet
  facet normal 0 0 -1
    outer loop
      vertex -20 -1.25 0
      vertex -22.5 -1.25 0
      vertex -20 1.25 0
    endloop
  endfacet
  facet normal 0 0 -1
    outer loop
      vertex -22.5 -1.25 0
      vertex -20 -2.75 0
      vertex -22.5 -2.75 0
    endloop
  endfacet
  facet normal 0 0 -1
    outer loop
      vertex -22.5 1.25 0
      vertex -20 1.25 0
      vertex -22.5 -1.25 0
    endloop
  endfacet
  facet normal 0 0 -1
    outer loop
      vertex -20 1.25 0
      vertex -22.5 1.25 0
      vertex -20 2.75 0
    endloop
  endfacet
  facet normal -0 0 -1
    outer loop
      vertex -20 2.75 0
      vertex -22.5 1.25 0
      vertex -22.5 2.75 0
    endloop
  endfacet
  facet normal 0 0 -1
    outer loop
      vertex -3.75 -1.25 0
      vertex -3.75 1.25 0
      vertex 0 0 0
    endloop
  endfacet
  facet normal 0 0 -1
    outer loop
      vertex -20 -1.25 0
      vertex -3.75 1.25 0
      vertex -3.75 -1.25 0
    endloop
  endfacet
  facet normal -0 0 -1
    outer loop
      vertex -3.75 1.25 0
      vertex -20 -1.25 0
      vertex -20 1.25 0
    endloop
  endfacet
  facet normal 1 0 0
    outer loop
      vertex -23 17.25 60
      vertex -23 1.25 20
      vertex -23 17.25 0
    endloop
  endfacet
  facet normal 1 -0 0
    outer loop
      vertex -23 -2.75 60
      vertex -23 1.25 20
      vertex -23 17.25 60
    endloop
  endfacet
  facet normal 1 0 0
    outer loop
      vertex -23 1.25 20
      vertex -23 -2.75 60
      vertex -23 -1.25 20
    endloop
  endfacet
  facet normal 1 0 0
    outer loop
      vertex -23 -2.75 0
      vertex -23 -1.25 20
      vertex -23 -2.75 60
    endloop
  endfacet
  facet normal 1 0 0
    outer loop
      vertex -23 -1.25 20
      vertex -23 -2.75 0
      vertex -23 -1.25 0
    endloop
  endfacet
  facet normal 1 0 0
    outer loop
      vertex -23 17.25 0
      vertex -23 1.25 20
      vertex -23 1.25 0
    endloop
  endfacet
  facet normal -1 0 0
    outer loop
      vertex -25.5 -1.25 0
      vertex -25.5 -2.75 0
      vertex -25.5 -1.25 20
    endloop
  endfacet
  facet normal -1 0 0
    outer loop
      vertex -25.5 1.25 20
      vertex -25.5 17.25 0
      vertex -25.5 1.25 0
    endloop
  endfacet
  facet normal -1 0 0
    outer loop
      vertex -25.5 17.25 0
      vertex -25.5 1.25 20
      vertex -25.5 17.25 60
    endloop
  endfacet
  facet normal -1 0 0
    outer loop
      vertex -25.5 -2.75 60
      vertex -25.5 1.25 20
      vertex -25.5 -1.25 20
    endloop
  endfacet
  facet normal -1 0 0
    outer loop
      vertex -25.5 1.25 20
      vertex -25.5 -2.75 60
      vertex -25.5 17.25 60
    endloop
  endfacet
  facet normal -1 0 0
    outer loop
      vertex -25.5 -2.75 60
      vertex -25.5 -1.25 20
      vertex -25.5 -2.75 0
    endloop
  endfacet
  facet normal -0.948683 0 0.316228
    outer loop
      vertex -167.5 -2.75 60
      vertex -166.25 17.25 63.75
      vertex -167.5 17.25 60
    endloop
  endfacet
  facet normal -0.948683 0 0.316228
    outer loop
      vertex -166.25 17.25 63.75
      vertex -167.5 -2.75 60
      vertex -166.25 -2.75 63.75
    endloop
  endfacet
  facet normal 0.948683 -0 0.316228
    outer loop
      vertex -166.25 -2.75 63.75
      vertex -165 17.25 60
      vertex -166.25 17.25 63.75
    endloop
  endfacet
  facet normal 0.948683 0 0.316228
    outer loop
      vertex -165 17.25 60
      vertex -166.25 -2.75 63.75
      vertex -165 -2.75 60
    endloop
  endfacet
  facet normal 0 1 0
    outer loop
      vertex -165 17.25 60
      vertex -167.5 17.25 60
      vertex -166.25 17.25 63.75
    endloop
  endfacet
  facet normal 0 1 -0
    outer loop
      vertex -165 17.25 0
      vertex -167.5 17.25 60
      vertex -165 17.25 60
    endloop
  endfacet
  facet normal 0 1 0
    outer loop
      vertex -167.5 17.25 60
      vertex -165 17.25 0
      vertex -167.5 17.25 0
    endloop
  endfacet
  facet normal 0 -1 0
    outer loop
      vertex -167.5 -2.75 60
      vertex -165 -2.75 60
      vertex -166.25 -2.75 63.75
    endloop
  endfacet
  facet normal 0 -1 0
    outer loop
      vertex -167.5 -2.75 0
      vertex -165 -2.75 60
      vertex -167.5 -2.75 60
    endloop
  endfacet
  facet normal 0 -1 -0
    outer loop
      vertex -165 -2.75 60
      vertex -167.5 -2.75 0
      vertex -165 -2.75 0
    endloop
  endfacet
  facet normal -1 0 0
    outer loop
      vertex -167.5 -1.25 0
      vertex -167.5 -2.75 0
      vertex -167.5 -1.25 20
    endloop
  endfacet
  facet normal -1 0 0
    outer loop
      vertex -167.5 1.25 20
      vertex -167.5 17.25 0
      vertex -167.5 1.25 0
    endloop
  endfacet
  facet normal -1 0 0
    outer loop
      vertex -167.5 17.25 0
      vertex -167.5 1.25 20
      vertex -167.5 17.25 60
    endloop
  endfacet
  facet normal -1 0 0
    outer loop
      vertex -167.5 -2.75 60
      vertex -167.5 1.25 20
      vertex -167.5 -1.25 20
    endloop
  endfacet
  facet normal -1 0 0
    outer loop
      vertex -167.5 1.25 20
      vertex -167.5 -2.75 60
      vertex -167.5 17.25 60
    endloop
  endfacet
  facet normal -1 0 0
    outer loop
      vertex -167.5 -2.75 60
      vertex -167.5 -1.25 20
      vertex -167.5 -2.75 0
    endloop
  endfacet
  facet normal 1 0 0
    outer loop
      vertex -165 17.25 60
      vertex -165 1.25 20
      vertex -165 17.25 0
    endloop
  endfacet
  facet normal 1 -0 0
    outer loop
      vertex -165 -2.75 60
      vertex -165 1.25 20
      vertex -165 17.25 60
    endloop
  endfacet
  facet normal 1 0 0
    outer loop
      vertex -165 1.25 20
      vertex -165 -2.75 60
      vertex -165 -1.25 20
    endloop
  endfacet
  facet normal 1 0 0
    outer loop
      vertex -165 -2.75 0
      vertex -165 -1.25 20
      vertex -165 -2.75 60
    endloop
  endfacet
  facet normal 1 0 0
    outer loop
      vertex -165 -1.25 20
      vertex -165 -2.75 0
      vertex -165 -1.25 0
    endloop
  endfacet
  facet normal 1 0 0
    outer loop
      vertex -165 17.25 0
      vertex -165 1.25 20
      vertex -165 1.25 0
    endloop
  endfacet
  facet normal -0.316228 0.948683 0
    outer loop
      vertex -186.75 1.25 0
      vertex -190.5 0 20
      vertex -186.75 1.25 20
    endloop
  endfacet
  facet normal -0.316228 0.948683 0
    outer loop
      vertex -190.5 0 20
      vertex -186.75 1.25 0
      vertex -190.5 0 0
    endloop
  endfacet
  facet normal 0.316228 -0.948683 0
    outer loop
      vertex -3.75 -1.25 0
      vertex 0 0 20
      vertex -3.75 -1.25 20
    endloop
  endfacet
  facet normal 0.316228 -0.948683 0
    outer loop
      vertex 0 0 20
      vertex -3.75 -1.25 0
      vertex 0 0 0
    endloop
  endfacet
  facet normal 0 0 1
    outer loop
      vertex -3.75 1.25 20
      vertex -3.75 -1.25 20
      vertex 0 0 20
    endloop
  endfacet
  facet normal -0 0 1
    outer loop
      vertex -20 1.25 20
      vertex -3.75 -1.25 20
      vertex -3.75 1.25 20
    endloop
  endfacet
  facet normal 0 0 1
    outer loop
      vertex -3.75 -1.25 20
      vertex -20 1.25 20
      vertex -20 -1.25 20
    endloop
  endfacet
  facet normal -0 0 1
    outer loop
      vertex -186.75 1.25 20
      vertex -170.5 -1.25 20
      vertex -170.5 1.25 20
    endloop
  endfacet
  facet normal 0 0 1
    outer loop
      vertex -186.75 1.25 20
      vertex -186.75 -1.25 20
      vertex -170.5 -1.25 20
    endloop
  endfacet
  facet normal 0 -0 1
    outer loop
      vertex -186.75 -1.25 20
      vertex -186.75 1.25 20
      vertex -190.5 0 20
    endloop
  endfacet
  facet normal -0 0 1
    outer loop
      vertex -168 1.25 20
      vertex -167.5 -1.25 20
      vertex -167.5 1.25 20
    endloop
  endfacet
  facet normal 0 0 1
    outer loop
      vertex -167.5 -1.25 20
      vertex -168 1.25 20
      vertex -168 -1.25 20
    endloop
  endfacet
  facet normal -0 0 1
    outer loop
      vertex -23 1.25 20
      vertex -22.5 -1.25 20
      vertex -22.5 1.25 20
    endloop
  endfacet
  facet normal 0 0 1
    outer loop
      vertex -22.5 -1.25 20
      vertex -23 1.25 20
      vertex -23 -1.25 20
    endloop
  endfacet
  facet normal -0 0 1
    outer loop
      vertex -165 1.25 20
      vertex -25.5 -1.25 20
      vertex -25.5 1.25 20
    endloop
  endfacet
  facet normal 0 0 1
    outer loop
      vertex -25.5 -1.25 20
      vertex -165 1.25 20
      vertex -165 -1.25 20
    endloop
  endfacet
  facet normal 0 1 -0
    outer loop
      vertex -3.75 1.25 0
      vertex -20 1.25 20
      vertex -3.75 1.25 20
    endloop
  endfacet
  facet normal 0 1 0
    outer loop
      vertex -20 1.25 20
      vertex -3.75 1.25 0
      vertex -20 1.25 0
    endloop
  endfacet
  facet normal 0 1 -0
    outer loop
      vertex -170.5 1.25 0
      vertex -186.75 1.25 20
      vertex -170.5 1.25 20
    endloop
  endfacet
  facet normal 0 1 0
    outer loop
      vertex -186.75 1.25 20
      vertex -170.5 1.25 0
      vertex -186.75 1.25 0
    endloop
  endfacet
  facet normal 0 1 -0
    outer loop
      vertex -167.5 1.25 0
      vertex -168 1.25 20
      vertex -167.5 1.25 20
    endloop
  endfacet
  facet normal 0 1 0
    outer loop
      vertex -168 1.25 20
      vertex -167.5 1.25 0
      vertex -168 1.25 0
    endloop
  endfacet
  facet normal 0 1 -0
    outer loop
      vertex -22.5 1.25 0
      vertex -23 1.25 20
      vertex -22.5 1.25 20
    endloop
  endfacet
  facet normal 0 1 0
    outer loop
      vertex -23 1.25 20
      vertex -22.5 1.25 0
      vertex -23 1.25 0
    endloop
  endfacet
  facet normal 0 1 -0
    outer loop
      vertex -25.5 1.25 0
      vertex -165 1.25 20
      vertex -25.5 1.25 20
    endloop
  endfacet
  facet normal 0 1 0
    outer loop
      vertex -165 1.25 20
      vertex -25.5 1.25 0
      vertex -165 1.25 0
    endloop
  endfacet
  facet normal -0.316228 -0.948683 0
    outer loop
      vertex -190.5 0 0
      vertex -186.75 -1.25 20
      vertex -190.5 0 20
    endloop
  endfacet
  facet normal -0.316228 -0.948683 -0
    outer loop
      vertex -186.75 -1.25 20
      vertex -190.5 0 0
      vertex -186.75 -1.25 0
    endloop
  endfacet
  facet normal 0 -1 0
    outer loop
      vertex -186.75 -1.25 0
      vertex -170.5 -1.25 20
      vertex -186.75 -1.25 20
    endloop
  endfacet
  facet normal 0 -1 -0
    outer loop
      vertex -170.5 -1.25 20
      vertex -186.75 -1.25 0
      vertex -170.5 -1.25 0
    endloop
  endfacet
  facet normal 0 -1 0
    outer loop
      vertex -20 -1.25 0
      vertex -3.75 -1.25 20
      vertex -20 -1.25 20
    endloop
  endfacet
  facet normal 0 -1 -0
    outer loop
      vertex -3.75 -1.25 20
      vertex -20 -1.25 0
      vertex -3.75 -1.25 0
    endloop
  endfacet
  facet normal 0 -1 0
    outer loop
      vertex -168 -1.25 0
      vertex -167.5 -1.25 20
      vertex -168 -1.25 20
    endloop
  endfacet
  facet normal 0 -1 -0
    outer loop
      vertex -167.5 -1.25 20
      vertex -168 -1.25 0
      vertex -167.5 -1.25 0
    endloop
  endfacet
  facet normal 0 -1 0
    outer loop
      vertex -23 -1.25 0
      vertex -22.5 -1.25 20
      vertex -23 -1.25 20
    endloop
  endfacet
  facet normal 0 -1 -0
    outer loop
      vertex -22.5 -1.25 20
      vertex -23 -1.25 0
      vertex -22.5 -1.25 0
    endloop
  endfacet
  facet normal 0 -1 0
    outer loop
      vertex -165 -1.25 0
      vertex -25.5 -1.25 20
      vertex -165 -1.25 20
    endloop
  endfacet
  facet normal 0 -1 -0
    outer loop
      vertex -25.5 -1.25 20
      vertex -165 -1.25 0
      vertex -25.5 -1.25 0
    endloop
  endfacet
  facet normal 0.316228 0.948683 -0
    outer loop
      vertex 0 0 0
      vertex -3.75 1.25 20
      vertex 0 0 20
    endloop
  endfacet
  facet normal 0.316228 0.948683 0
    outer loop
      vertex -3.75 1.25 20
      vertex 0 0 0
      vertex -3.75 1.25 0
    endloop
  endfacet
  facet normal -0 0 1
    outer loop
      vertex -22.5 2.75 21.5
      vertex -20 -2.75 21.5
      vertex -20 2.75 21.5
    endloop
  endfacet
  facet normal 0 0 1
    outer loop
      vertex -20 -2.75 21.5
      vertex -22.5 2.75 21.5
      vertex -22.5 -2.75 21.5
    endloop
  endfacet
  facet normal -0 0 1
    outer loop
      vertex -170.5 2.75 21.5
      vertex -168 -2.75 21.5
      vertex -168 2.75 21.5
    endloop
  endfacet
  facet normal 0 0 1
    outer loop
      vertex -168 -2.75 21.5
      vertex -170.5 2.75 21.5
      vertex -170.5 -2.75 21.5
    endloop
  endfacet
  facet normal 0 1 -0
    outer loop
      vertex -20 2.75 0
      vertex -22.5 2.75 21.5
      vertex -20 2.75 21.5
    endloop
  endfacet
  facet normal 0 1 0
    outer loop
      vertex -22.5 2.75 21.5
      vertex -20 2.75 0
      vertex -22.5 2.75 0
    endloop
  endfacet
  facet normal -1 0 0
    outer loop
      vertex -22.5 -1.25 0
      vertex -22.5 -2.75 0
      vertex -22.5 -1.25 20
    endloop
  endfacet
  facet normal -1 0 0
    outer loop
      vertex -22.5 1.25 20
      vertex -22.5 2.75 0
      vertex -22.5 1.25 0
    endloop
  endfacet
  facet normal -1 0 0
    outer loop
      vertex -22.5 2.75 0
      vertex -22.5 1.25 20
      vertex -22.5 2.75 21.5
    endloop
  endfacet
  facet normal -1 0 0
    outer loop
      vertex -22.5 -1.25 20
      vertex -22.5 2.75 21.5
      vertex -22.5 1.25 20
    endloop
  endfacet
  facet normal -1 0 0
    outer loop
      vertex -22.5 -1.25 20
      vertex -22.5 -2.75 21.5
      vertex -22.5 2.75 21.5
    endloop
  endfacet
  facet normal -1 0 0
    outer loop
      vertex -22.5 -2.75 21.5
      vertex -22.5 -1.25 20
      vertex -22.5 -2.75 0
    endloop
  endfacet
  facet normal 0 -1 0
    outer loop
      vertex -22.5 -2.75 0
      vertex -20 -2.75 21.5
      vertex -22.5 -2.75 21.5
    endloop
  endfacet
  facet normal 0 -1 -0
    outer loop
      vertex -20 -2.75 21.5
      vertex -22.5 -2.75 0
      vertex -20 -2.75 0
    endloop
  endfacet
  facet normal 1 0 0
    outer loop
      vertex -20 2.75 21.5
      vertex -20 1.25 20
      vertex -20 2.75 0
    endloop
  endfacet
  facet normal 1 0 0
    outer loop
      vertex -20 2.75 21.5
      vertex -20 -1.25 20
      vertex -20 1.25 20
    endloop
  endfacet
  facet normal 1 -0 0
    outer loop
      vertex -20 -2.75 21.5
      vertex -20 -1.25 20
      vertex -20 2.75 21.5
    endloop
  endfacet
  facet normal 1 0 0
    outer loop
      vertex -20 -2.75 0
      vertex -20 -1.25 20
      vertex -20 -2.75 21.5
    endloop
  endfacet
  facet normal 1 0 0
    outer loop
      vertex -20 -1.25 20
      vertex -20 -2.75 0
      vertex -20 -1.25 0
    endloop
  endfacet
  facet normal 1 0 0
    outer loop
      vertex -20 2.75 0
      vertex -20 1.25 20
      vertex -20 1.25 0
    endloop
  endfacet
  facet normal 0 1 -0
    outer loop
      vertex -168 2.75 0
      vertex -170.5 2.75 21.5
      vertex -168 2.75 21.5
    endloop
  endfacet
  facet normal 0 1 0
    outer loop
      vertex -170.5 2.75 21.5
      vertex -168 2.75 0
      vertex -170.5 2.75 0
    endloop
  endfacet
  facet normal -1 0 0
    outer loop
      vertex -170.5 -1.25 0
      vertex -170.5 -2.75 0
      vertex -170.5 -1.25 20
    endloop
  endfacet
  facet normal -1 0 0
    outer loop
      vertex -170.5 1.25 20
      vertex -170.5 2.75 0
      vertex -170.5 1.25 0
    endloop
  endfacet
  facet normal -1 0 0
    outer loop
      vertex -170.5 2.75 0
      vertex -170.5 1.25 20
      vertex -170.5 2.75 21.5
    endloop
  endfacet
  facet normal -1 0 0
    outer loop
      vertex -170.5 -1.25 20
      vertex -170.5 2.75 21.5
      vertex -170.5 1.25 20
    endloop
  endfacet
  facet normal -1 0 0
    outer loop
      vertex -170.5 -1.25 20
      vertex -170.5 -2.75 21.5
      vertex -170.5 2.75 21.5
    endloop
  endfacet
  facet normal -1 0 0
    outer loop
      vertex -170.5 -2.75 21.5
      vertex -170.5 -1.25 20
      vertex -170.5 -2.75 0
    endloop
  endfacet
  facet normal 0 -1 0
    outer loop
      vertex -170.5 -2.75 0
      vertex -168 -2.75 21.5
      vertex -170.5 -2.75 21.5
    endloop
  endfacet
  facet normal 0 -1 -0
    outer loop
      vertex -168 -2.75 21.5
      vertex -170.5 -2.75 0
      vertex -168 -2.75 0
    endloop
  endfacet
  facet normal 1 0 0
    outer loop
      vertex -168 2.75 21.5
      vertex -168 1.25 20
      vertex -168 2.75 0
    endloop
  endfacet
  facet normal 1 0 0
    outer loop
      vertex -168 2.75 21.5
      vertex -168 -1.25 20
      vertex -168 1.25 20
    endloop
  endfacet
  facet normal 1 -0 0
    outer loop
      vertex -168 -2.75 21.5
      vertex -168 -1.25 20
      vertex -168 2.75 21.5
    endloop
  endfacet
  facet normal 1 0 0
    outer loop
      vertex -168 -2.75 0
      vertex -168 -1.25 20
      vertex -168 -2.75 21.5
    endloop
  endfacet
  facet normal 1 0 0
    outer loop
      vertex -168 -1.25 20
      vertex -168 -2.75 0
      vertex -168 -1.25 0
    endloop
  endfacet
  facet normal 1 0 0
    outer loop
      vertex -168 2.75 0
      vertex -168 1.25 20
      vertex -168 1.25 0
    endloop
  endfacet
endsolid OpenSCAD_Model
