solid OpenSCAD_Model
  facet normal 0 -0 -1
    outer loop
      vertex -102.85 0.75 0
      vertex -73.55 0.75 0
      vertex -168 -0.75 0
    endloop
  endfacet
  facet normal -0 0 -1
    outer loop
      vertex -102.85 0.75 0
      vertex -168 -0.75 0
      vertex -104.35 0.75 0
    endloop
  endfacet
  facet normal 0 0 -1
    outer loop
      vertex -104.35 0.75 0
      vertex -104.35 4.75 0
      vertex -102.85 3.25 0
    endloop
  endfacet
  facet normal 0 0 -1
    outer loop
      vertex 0.75 -0.75 0
      vertex -52.05 0.75 0
      vertex 0.75 0.75 0
    endloop
  endfacet
  facet normal 0 0 -1
    outer loop
      vertex -102.85 3.25 0
      vertex -96.5 4.75 0
      vertex -96.5 3.25 0
    endloop
  endfacet
  facet normal 0 0 -1
    outer loop
      vertex -102.85 3.25 0
      vertex -104.35 4.75 0
      vertex -96.5 4.75 0
    endloop
  endfacet
  facet normal 0 0 -1
    outer loop
      vertex -102.85 0.75 0
      vertex -104.35 0.75 0
      vertex -102.85 3.25 0
    endloop
  endfacet
  facet normal -0 0 -1
    outer loop
      vertex -104.35 0.75 0
      vertex -168 -0.75 0
      vertex -146.5 0.75 0
    endloop
  endfacet
  facet normal 0 0 -1
    outer loop
      vertex -166.5 3.25 0
      vertex -168 4.75 0
      vertex -148 3.25 0
    endloop
  endfacet
  facet normal -0 0 -1
    outer loop
      vertex -146.5 0.75 0
      vertex -168 -0.75 0
      vertex -148 0.75 0
    endloop
  endfacet
  facet normal 0 -0 -1
    outer loop
      vertex -73.55 0.75 0
      vertex 0.75 -0.75 0
      vertex -168 -0.75 0
    endloop
  endfacet
  facet normal -0 -0 -1
    outer loop
      vertex -52.05 3.25 0
      vertex -52.05 0.75 0
      vertex -53.55 3.25 0
    endloop
  endfacet
  facet normal -0 -0 -1
    outer loop
      vertex -52.05 0.75 0
      vertex 0.75 -0.75 0
      vertex -53.55 0.75 0
    endloop
  endfacet
  facet normal 0 0 -1
    outer loop
      vertex -52.05 0.75 0
      vertex -53.55 0.75 0
      vertex -53.55 3.25 0
    endloop
  endfacet
  facet normal 0 -0 -1
    outer loop
      vertex -45.7 4.75 0
      vertex -45.7 3.25 0
      vertex -52.05 3.25 0
    endloop
  endfacet
  facet normal 0 0 -1
    outer loop
      vertex -73.55 4.75 0
      vertex -45.7 4.75 0
      vertex -53.55 3.25 0
    endloop
  endfacet
  facet normal -0 -0 -1
    outer loop
      vertex -53.55 0.75 0
      vertex 0.75 -0.75 0
      vertex -72.05 0.75 0
    endloop
  endfacet
  facet normal 0 -0 -1
    outer loop
      vertex -72.05 3.25 0
      vertex -72.05 0.75 0
      vertex -73.55 0.75 0
    endloop
  endfacet
  facet normal -0 -0 -1
    outer loop
      vertex -72.05 0.75 0
      vertex 0.75 -0.75 0
      vertex -73.55 0.75 0
    endloop
  endfacet
  facet normal 0 0 -1
    outer loop
      vertex -73.55 4.75 0
      vertex -72.05 3.25 0
      vertex -73.55 0.75 0
    endloop
  endfacet
  facet normal 0 0 -1
    outer loop
      vertex -52.05 3.25 0
      vertex -53.55 3.25 0
      vertex -45.7 4.75 0
    endloop
  endfacet
  facet normal 0 0 -1
    outer loop
      vertex -53.55 3.25 0
      vertex -72.05 3.25 0
      vertex -73.55 4.75 0
    endloop
  endfacet
  facet normal 0 0 -1
    outer loop
      vertex -146.5 0.75 0
      vertex -148 3.25 0
      vertex -146.5 4.75 0
    endloop
  endfacet
  facet normal -0 0 -1
    outer loop
      vertex -148 0.75 0
      vertex -168 -0.75 0
      vertex -166.5 0.75 0
    endloop
  endfacet
  facet normal -0 0 -1
    outer loop
      vertex -166.5 0.75 0
      vertex -168 -0.75 0
      vertex -168 4.75 0
    endloop
  endfacet
  facet normal -0 -0 -1
    outer loop
      vertex -166.5 3.25 0
      vertex -166.5 0.75 0
      vertex -168 4.75 0
    endloop
  endfacet
  facet normal 0 0 -1
    outer loop
      vertex -148 0.75 0
      vertex -148 3.25 0
      vertex -146.5 0.75 0
    endloop
  endfacet
  facet normal 0 0 -1
    outer loop
      vertex -148 3.25 0
      vertex -168 4.75 0
      vertex -146.5 4.75 0
    endloop
  endfacet
  facet normal 0 0 1
    outer loop
      vertex -168 -0.75 20
      vertex -73.55 0.75 20
      vertex -102.85 0.75 20
    endloop
  endfacet
  facet normal -0 0 1
    outer loop
      vertex -104.35 0.75 20
      vertex -168 -0.75 20
      vertex -102.85 0.75 20
    endloop
  endfacet
  facet normal 0 0 1
    outer loop
      vertex -102.85 3.25 20
      vertex -104.35 4.75 20
      vertex -104.35 0.75 20
    endloop
  endfacet
  facet normal 0 0 1
    outer loop
      vertex 0.75 0.75 20
      vertex -52.05 0.75 20
      vertex 0.75 -0.75 20
    endloop
  endfacet
  facet normal 0 -0 1
    outer loop
      vertex -96.5 3.25 20
      vertex -96.5 4.75 20
      vertex -102.85 3.25 20
    endloop
  endfacet
  facet normal 0 0 1
    outer loop
      vertex -96.5 4.75 20
      vertex -104.35 4.75 20
      vertex -102.85 3.25 20
    endloop
  endfacet
  facet normal 0 0 1
    outer loop
      vertex -102.85 3.25 20
      vertex -104.35 0.75 20
      vertex -102.85 0.75 20
    endloop
  endfacet
  facet normal -0 0 1
    outer loop
      vertex -146.5 0.75 20
      vertex -168 -0.75 20
      vertex -104.35 0.75 20
    endloop
  endfacet
  facet normal 0 0 1
    outer loop
      vertex -148 3.25 20
      vertex -168 4.75 20
      vertex -166.5 3.25 20
    endloop
  endfacet
  facet normal -0 0 1
    outer loop
      vertex -148 0.75 20
      vertex -168 -0.75 20
      vertex -146.5 0.75 20
    endloop
  endfacet
  facet normal 0 0 1
    outer loop
      vertex -168 -0.75 20
      vertex 0.75 -0.75 20
      vertex -73.55 0.75 20
    endloop
  endfacet
  facet normal -0 0 1
    outer loop
      vertex -53.55 3.25 20
      vertex -52.05 0.75 20
      vertex -52.05 3.25 20
    endloop
  endfacet
  facet normal -0 0 1
    outer loop
      vertex -53.55 0.75 20
      vertex 0.75 -0.75 20
      vertex -52.05 0.75 20
    endloop
  endfacet
  facet normal 0 0 1
    outer loop
      vertex -53.55 3.25 20
      vertex -53.55 0.75 20
      vertex -52.05 0.75 20
    endloop
  endfacet
  facet normal 0 0 1
    outer loop
      vertex -52.05 3.25 20
      vertex -45.7 3.25 20
      vertex -45.7 4.75 20
    endloop
  endfacet
  facet normal 0 -0 1
    outer loop
      vertex -53.55 3.25 20
      vertex -45.7 4.75 20
      vertex -73.55 4.75 20
    endloop
  endfacet
  facet normal -0 0 1
    outer loop
      vertex -72.05 0.75 20
      vertex 0.75 -0.75 20
      vertex -53.55 0.75 20
    endloop
  endfacet
  facet normal 0 0 1
    outer loop
      vertex -73.55 0.75 20
      vertex -72.05 0.75 20
      vertex -72.05 3.25 20
    endloop
  endfacet
  facet normal -0 0 1
    outer loop
      vertex -73.55 0.75 20
      vertex 0.75 -0.75 20
      vertex -72.05 0.75 20
    endloop
  endfacet
  facet normal 0 0 1
    outer loop
      vertex -73.55 0.75 20
      vertex -72.05 3.25 20
      vertex -73.55 4.75 20
    endloop
  endfacet
  facet normal 0 0 1
    outer loop
      vertex -45.7 4.75 20
      vertex -53.55 3.25 20
      vertex -52.05 3.25 20
    endloop
  endfacet
  facet normal 0 0 1
    outer loop
      vertex -73.55 4.75 20
      vertex -72.05 3.25 20
      vertex -53.55 3.25 20
    endloop
  endfacet
  facet normal 0 0 1
    outer loop
      vertex -146.5 4.75 20
      vertex -148 3.25 20
      vertex -146.5 0.75 20
    endloop
  endfacet
  facet normal -0 0 1
    outer loop
      vertex -166.5 0.75 20
      vertex -168 -0.75 20
      vertex -148 0.75 20
    endloop
  endfacet
  facet normal 0 0 1
    outer loop
      vertex -168 4.75 20
      vertex -168 -0.75 20
      vertex -166.5 0.75 20
    endloop
  endfacet
  facet normal 0 0 1
    outer loop
      vertex -168 4.75 20
      vertex -166.5 0.75 20
      vertex -166.5 3.25 20
    endloop
  endfacet
  facet normal 0 0 1
    outer loop
      vertex -146.5 0.75 20
      vertex -148 3.25 20
      vertex -148 0.75 20
    endloop
  endfacet
  facet normal 0 0 1
    outer loop
      vertex -146.5 4.75 20
      vertex -168 4.75 20
      vertex -148 3.25 20
    endloop
  endfacet
  facet normal 0 1 0
    outer loop
      vertex -102.85 0.75 0
      vertex -73.55 0.75 20
      vertex -73.55 0.75 0
    endloop
  endfacet
  facet normal 0 1 0
    outer loop
      vertex -102.85 0.75 0
      vertex -102.85 0.75 20
      vertex -73.55 0.75 20
    endloop
  endfacet
  facet normal 1 0 0
    outer loop
      vertex -102.85 3.25 0
      vertex -102.85 0.75 20
      vertex -102.85 0.75 0
    endloop
  endfacet
  facet normal 1 0 -0
    outer loop
      vertex -102.85 3.25 0
      vertex -102.85 3.25 20
      vertex -102.85 0.75 20
    endloop
  endfacet
  facet normal 0 -1 0
    outer loop
      vertex -96.5 3.25 0
      vertex -102.85 3.25 20
      vertex -102.85 3.25 0
    endloop
  endfacet
  facet normal 0 -1 0
    outer loop
      vertex -96.5 3.25 0
      vertex -96.5 3.25 20
      vertex -102.85 3.25 20
    endloop
  endfacet
  facet normal 1 0 0
    outer loop
      vertex -96.5 4.75 0
      vertex -96.5 3.25 20
      vertex -96.5 3.25 0
    endloop
  endfacet
  facet normal 1 0 -0
    outer loop
      vertex -96.5 4.75 0
      vertex -96.5 4.75 20
      vertex -96.5 3.25 20
    endloop
  endfacet
  facet normal 0 1 0
    outer loop
      vertex -104.35 4.75 0
      vertex -96.5 4.75 20
      vertex -96.5 4.75 0
    endloop
  endfacet
  facet normal 0 1 0
    outer loop
      vertex -104.35 4.75 0
      vertex -104.35 4.75 20
      vertex -96.5 4.75 20
    endloop
  endfacet
  facet normal -1 0 0
    outer loop
      vertex -104.35 0.75 0
      vertex -104.35 4.75 20
      vertex -104.35 4.75 0
    endloop
  endfacet
  facet normal -1 0 0
    outer loop
      vertex -104.35 0.75 0
      vertex -104.35 0.75 20
      vertex -104.35 4.75 20
    endloop
  endfacet
  facet normal 0 1 0
    outer loop
      vertex -146.5 0.75 0
      vertex -104.35 0.75 20
      vertex -104.35 0.75 0
    endloop
  endfacet
  facet normal 0 1 0
    outer loop
      vertex -146.5 0.75 0
      vertex -146.5 0.75 20
      vertex -104.35 0.75 20
    endloop
  endfacet
  facet normal 1 0 0
    outer loop
      vertex -146.5 4.75 0
      vertex -146.5 0.75 20
      vertex -146.5 0.75 0
    endloop
  endfacet
  facet normal 1 0 -0
    outer loop
      vertex -146.5 4.75 0
      vertex -146.5 4.75 20
      vertex -146.5 0.75 20
    endloop
  endfacet
  facet normal 0 1 0
    outer loop
      vertex -168 4.75 0
      vertex -146.5 4.75 20
      vertex -146.5 4.75 0
    endloop
  endfacet
  facet normal 0 1 0
    outer loop
      vertex -168 4.75 0
      vertex -168 4.75 20
      vertex -146.5 4.75 20
    endloop
  endfacet
  facet normal -1 0 0
    outer loop
      vertex -168 -0.75 0
      vertex -168 4.75 20
      vertex -168 4.75 0
    endloop
  endfacet
  facet normal -1 0 0
    outer loop
      vertex -168 -0.75 0
      vertex -168 -0.75 20
      vertex -168 4.75 20
    endloop
  endfacet
  facet normal 0 -1 0
    outer loop
      vertex 0.75 -0.75 0
      vertex -168 -0.75 20
      vertex -168 -0.75 0
    endloop
  endfacet
  facet normal 0 -1 0
    outer loop
      vertex 0.75 -0.75 0
      vertex 0.75 -0.75 20
      vertex -168 -0.75 20
    endloop
  endfacet
  facet normal 1 0 0
    outer loop
      vertex 0.75 0.75 0
      vertex 0.75 -0.75 20
      vertex 0.75 -0.75 0
    endloop
  endfacet
  facet normal 1 0 -0
    outer loop
      vertex 0.75 0.75 0
      vertex 0.75 0.75 20
      vertex 0.75 -0.75 20
    endloop
  endfacet
  facet normal 0 1 0
    outer loop
      vertex -52.05 0.75 0
      vertex 0.75 0.75 20
      vertex 0.75 0.75 0
    endloop
  endfacet
  facet normal 0 1 0
    outer loop
      vertex -52.05 0.75 0
      vertex -52.05 0.75 20
      vertex 0.75 0.75 20
    endloop
  endfacet
  facet normal 1 0 0
    outer loop
      vertex -52.05 3.25 0
      vertex -52.05 0.75 20
      vertex -52.05 0.75 0
    endloop
  endfacet
  facet normal 1 0 -0
    outer loop
      vertex -52.05 3.25 0
      vertex -52.05 3.25 20
      vertex -52.05 0.75 20
    endloop
  endfacet
  facet normal 0 -1 0
    outer loop
      vertex -45.7 3.25 0
      vertex -52.05 3.25 20
      vertex -52.05 3.25 0
    endloop
  endfacet
  facet normal 0 -1 0
    outer loop
      vertex -45.7 3.25 0
      vertex -45.7 3.25 20
      vertex -52.05 3.25 20
    endloop
  endfacet
  facet normal 1 0 0
    outer loop
      vertex -45.7 4.75 0
      vertex -45.7 3.25 20
      vertex -45.7 3.25 0
    endloop
  endfacet
  facet normal 1 0 -0
    outer loop
      vertex -45.7 4.75 0
      vertex -45.7 4.75 20
      vertex -45.7 3.25 20
    endloop
  endfacet
  facet normal 0 1 0
    outer loop
      vertex -73.55 4.75 0
      vertex -45.7 4.75 20
      vertex -45.7 4.75 0
    endloop
  endfacet
  facet normal 0 1 0
    outer loop
      vertex -73.55 4.75 0
      vertex -73.55 4.75 20
      vertex -45.7 4.75 20
    endloop
  endfacet
  facet normal -1 0 0
    outer loop
      vertex -73.55 0.75 0
      vertex -73.55 4.75 20
      vertex -73.55 4.75 0
    endloop
  endfacet
  facet normal -1 0 0
    outer loop
      vertex -73.55 0.75 0
      vertex -73.55 0.75 20
      vertex -73.55 4.75 20
    endloop
  endfacet
  facet normal 1 0 -0
    outer loop
      vertex -72.05 3.25 0
      vertex -72.05 3.25 20
      vertex -72.05 0.75 0
    endloop
  endfacet
  facet normal 1 -0 0
    outer loop
      vertex -72.05 0.75 20
      vertex -72.05 0.75 0
      vertex -72.05 3.25 20
    endloop
  endfacet
  facet normal 0 -1 0
    outer loop
      vertex -53.55 3.25 0
      vertex -53.55 3.25 20
      vertex -72.05 3.25 0
    endloop
  endfacet
  facet normal 0 -1 0
    outer loop
      vertex -72.05 3.25 20
      vertex -72.05 3.25 0
      vertex -53.55 3.25 20
    endloop
  endfacet
  facet normal -1 0 0
    outer loop
      vertex -53.55 0.75 0
      vertex -53.55 0.75 20
      vertex -53.55 3.25 0
    endloop
  endfacet
  facet normal -1 -0 -0
    outer loop
      vertex -53.55 3.25 20
      vertex -53.55 3.25 0
      vertex -53.55 0.75 20
    endloop
  endfacet
  facet normal 0 1 0
    outer loop
      vertex -72.05 0.75 0
      vertex -72.05 0.75 20
      vertex -53.55 0.75 0
    endloop
  endfacet
  facet normal 0 1 0
    outer loop
      vertex -53.55 0.75 20
      vertex -53.55 0.75 0
      vertex -72.05 0.75 20
    endloop
  endfacet
  facet normal 1 0 -0
    outer loop
      vertex -166.5 3.25 0
      vertex -166.5 3.25 20
      vertex -166.5 0.75 0
    endloop
  endfacet
  facet normal 1 -0 0
    outer loop
      vertex -166.5 0.75 20
      vertex -166.5 0.75 0
      vertex -166.5 3.25 20
    endloop
  endfacet
  facet normal 0 -1 0
    outer loop
      vertex -148 3.25 0
      vertex -148 3.25 20
      vertex -166.5 3.25 0
    endloop
  endfacet
  facet normal 0 -1 0
    outer loop
      vertex -166.5 3.25 20
      vertex -166.5 3.25 0
      vertex -148 3.25 20
    endloop
  endfacet
  facet normal -1 0 0
    outer loop
      vertex -148 0.75 0
      vertex -148 0.75 20
      vertex -148 3.25 0
    endloop
  endfacet
  facet normal -1 -0 -0
    outer loop
      vertex -148 3.25 20
      vertex -148 3.25 0
      vertex -148 0.75 20
    endloop
  endfacet
  facet normal 0 1 0
    outer loop
      vertex -166.5 0.75 0
      vertex -166.5 0.75 20
      vertex -148 0.75 0
    endloop
  endfacet
  facet normal 0 1 0
    outer loop
      vertex -148 0.75 20
      vertex -148 0.75 0
      vertex -166.5 0.75 20
    endloop
  endfacet
endsolid OpenSCAD_Model
