solid OpenSCAD_Model
  facet normal 1 0 0
    outer loop
      vertex 10 -10 7
      vertex 10 -13.5 7
      vertex 10 -10 3.5
    endloop
  endfacet
  facet normal 1 0 0
    outer loop
      vertex 10 10 3.5
      vertex 10 13.5 7
      vertex 10 10 7
    endloop
  endfacet
  facet normal 1 0 0
    outer loop
      vertex 10 13.5 7
      vertex 10 10 3.5
      vertex 10 13.5 0
    endloop
  endfacet
  facet normal 1 -0 0
    outer loop
      vertex 10 -10 3.5
      vertex 10 13.5 0
      vertex 10 10 3.5
    endloop
  endfacet
  facet normal 1 0 0
    outer loop
      vertex 10 -10 3.5
      vertex 10 -13.5 0
      vertex 10 13.5 0
    endloop
  endfacet
  facet normal 1 0 0
    outer loop
      vertex 10 -13.5 0
      vertex 10 -10 3.5
      vertex 10 -13.5 7
    endloop
  endfacet
  facet normal -0 0 1
    outer loop
      vertex -10 13.5 7
      vertex 10 10 7
      vertex 10 13.5 7
    endloop
  endfacet
  facet normal 0 0 1
    outer loop
      vertex 10 10 7
      vertex -10 13.5 7
      vertex -10 10 7
    endloop
  endfacet
  facet normal -0 0 1
    outer loop
      vertex -10 -10 7
      vertex 10 -13.5 7
      vertex 10 -10 7
    endloop
  endfacet
  facet normal 0 0 1
    outer loop
      vertex 10 -13.5 7
      vertex -10 -10 7
      vertex -10 -13.5 7
    endloop
  endfacet
  facet normal 0 0 -1
    outer loop
      vertex -10 -13.5 0
      vertex 10 13.5 0
      vertex 10 -13.5 0
    endloop
  endfacet
  facet normal -0 0 -1
    outer loop
      vertex 10 13.5 0
      vertex -10 -13.5 0
      vertex -10 13.5 0
    endloop
  endfacet
  facet normal -1 0 0
    outer loop
      vertex -10 13.5 0
      vertex -10 10 3.5
      vertex -10 13.5 7
    endloop
  endfacet
  facet normal -1 0 0
    outer loop
      vertex -10 13.5 0
      vertex -10 -10 3.5
      vertex -10 10 3.5
    endloop
  endfacet
  facet normal -1 0 0
    outer loop
      vertex -10 -13.5 0
      vertex -10 -10 3.5
      vertex -10 13.5 0
    endloop
  endfacet
  facet normal -1 0 0
    outer loop
      vertex -10 -13.5 7
      vertex -10 -10 3.5
      vertex -10 -13.5 0
    endloop
  endfacet
  facet normal -1 0 0
    outer loop
      vertex -10 -10 3.5
      vertex -10 -13.5 7
      vertex -10 -10 7
    endloop
  endfacet
  facet normal -1 -0 0
    outer loop
      vertex -10 13.5 7
      vertex -10 10 3.5
      vertex -10 10 7
    endloop
  endfacet
  facet normal 0 1 -0
    outer loop
      vertex 10 13.5 0
      vertex -10 13.5 7
      vertex 10 13.5 7
    endloop
  endfacet
  facet normal 0 1 0
    outer loop
      vertex -10 13.5 7
      vertex 10 13.5 0
      vertex -10 13.5 0
    endloop
  endfacet
  facet normal 0 -1 0
    outer loop
      vertex -10 -13.5 0
      vertex 10 -13.5 7
      vertex -10 -13.5 7
    endloop
  endfacet
  facet normal 0 -1 -0
    outer loop
      vertex 10 -13.5 7
      vertex -10 -13.5 0
      vertex 10 -13.5 0
    endloop
  endfacet
  facet normal -0 0 1
    outer loop
      vertex -10 10 3.5
      vertex 10 -10 3.5
      vertex 10 10 3.5
    endloop
  endfacet
  facet normal 0 0 1
    outer loop
      vertex 10 -10 3.5
      vertex -10 10 3.5
      vertex -10 -10 3.5
    endloop
  endfacet
  facet normal 0 -1 0
    outer loop
      vertex -10 10 3.5
      vertex 10 10 7
      vertex -10 10 7
    endloop
  endfacet
  facet normal 0 -1 -0
    outer loop
      vertex 10 10 7
      vertex -10 10 3.5
      vertex 10 10 3.5
    endloop
  endfacet
  facet normal 0 1 -0
    outer loop
      vertex 10 -10 3.5
      vertex -10 -10 7
      vertex 10 -10 7
    endloop
  endfacet
  facet normal 0 1 0
    outer loop
      vertex -10 -10 7
      vertex 10 -10 3.5
      vertex -10 -10 3.5
    endloop
  endfacet
endsolid OpenSCAD_Model
