solid OpenSCAD_Model
  facet normal -0.70711 0.707103 0
    outer loop
      vertex -88.1929 0 0
      vertex -88.9 -0.707107 3.5
      vertex -88.1929 0 3.5
    endloop
  endfacet
  facet normal -0.70711 0.707103 0
    outer loop
      vertex -88.9 -0.707107 3.5
      vertex -88.1929 0 0
      vertex -88.9 -0.707107 0
    endloop
  endfacet
  facet normal 0.70711 0.707103 -0
    outer loop
      vertex -88.9 -0.707107 0
      vertex -89.6071 0 3.5
      vertex -88.9 -0.707107 3.5
    endloop
  endfacet
  facet normal 0.70711 0.707103 0
    outer loop
      vertex -89.6071 0 3.5
      vertex -88.9 -0.707107 0
      vertex -89.6071 0 0
    endloop
  endfacet
  facet normal -0.707107 0.707107 0
    outer loop
      vertex -88.1929 -10 0
      vertex -88.9 -10.7071 3.5
      vertex -88.1929 -10 3.5
    endloop
  endfacet
  facet normal -0.707107 0.707107 0
    outer loop
      vertex -88.9 -10.7071 3.5
      vertex -88.1929 -10 0
      vertex -88.9 -10.7071 0
    endloop
  endfacet
  facet normal -0.707112 -0.707102 0
    outer loop
      vertex -88.1929 -10 0
      vertex -88.9 -9.29289 3.5
      vertex -88.9 -9.29289 0
    endloop
  endfacet
  facet normal -0.707112 -0.707102 0
    outer loop
      vertex -88.9 -9.29289 3.5
      vertex -88.1929 -10 0
      vertex -88.1929 -10 3.5
    endloop
  endfacet
  facet normal 0.707112 -0.707102 0
    outer loop
      vertex -89.6071 -10 3.5
      vertex -88.9 -9.29289 0
      vertex -88.9 -9.29289 3.5
    endloop
  endfacet
  facet normal 0.707112 -0.707102 0
    outer loop
      vertex -88.9 -9.29289 0
      vertex -89.6071 -10 3.5
      vertex -89.6071 -10 0
    endloop
  endfacet
  facet normal 0.707107 0.707107 -0
    outer loop
      vertex -88.9 -10.7071 0
      vertex -89.6071 -10 3.5
      vertex -88.9 -10.7071 3.5
    endloop
  endfacet
  facet normal 0.707107 0.707107 0
    outer loop
      vertex -89.6071 -10 3.5
      vertex -88.9 -10.7071 0
      vertex -89.6071 -10 0
    endloop
  endfacet
  facet normal -0.707107 -0.707107 0
    outer loop
      vertex -88.1929 -20 0
      vertex -88.9 -19.2929 3.5
      vertex -88.9 -19.2929 0
    endloop
  endfacet
  facet normal -0.707107 -0.707107 0
    outer loop
      vertex -88.9 -19.2929 3.5
      vertex -88.1929 -20 0
      vertex -88.1929 -20 3.5
    endloop
  endfacet
  facet normal 0.707107 -0.707107 0
    outer loop
      vertex -89.6071 -20 3.5
      vertex -88.9 -19.2929 0
      vertex -88.9 -19.2929 3.5
    endloop
  endfacet
  facet normal 0.707107 -0.707107 0
    outer loop
      vertex -88.9 -19.2929 0
      vertex -89.6071 -20 3.5
      vertex -89.6071 -20 0
    endloop
  endfacet
  facet normal 0 1 0
    outer loop
      vertex -154.3 0 43.5
      vertex -157.8 0 43.5
      vertex -156.05 0 48.75
    endloop
  endfacet
  facet normal 0 1 -0
    outer loop
      vertex -154.3 0 5
      vertex -157.8 0 43.5
      vertex -154.3 0 43.5
    endloop
  endfacet
  facet normal 0 1 0
    outer loop
      vertex -157.8 0 5
      vertex -157.8 0 43.5
      vertex -154.3 0 5
    endloop
  endfacet
  facet normal 0 0 0
    outer loop
      vertex -157.8 0 5
      vertex -157.8 0 3.5
      vertex -157.8 0 43.5
    endloop
  endfacet
  facet normal 0 1 0
    outer loop
      vertex -172.55 0 0
      vertex -172.55 0 3.5
      vertex -157.8 0 3.5
    endloop
  endfacet
  facet normal 0 0 0
    outer loop
      vertex -157.8 0 0
      vertex -157.8 0 3.5
      vertex -157.8 0 5
    endloop
  endfacet
  facet normal 0 1 0
    outer loop
      vertex -172.55 0 0
      vertex -157.8 0 3.5
      vertex -157.8 0 0
    endloop
  endfacet
  facet normal 0 1 0
    outer loop
      vertex -172.55 0 3.5
      vertex -172.55 0 0
      vertex -177.8 0 1.75
    endloop
  endfacet
  facet normal 0 1 0
    outer loop
      vertex -5.25 0 0
      vertex -5.25 0 3.5
      vertex 0 0 1.75
    endloop
  endfacet
  facet normal 0 1 0
    outer loop
      vertex -5.25 0 3.5
      vertex -5.25 0 0
      vertex -20 0 3.5
    endloop
  endfacet
  facet normal 0 1 0
    outer loop
      vertex -20 0 3.5
      vertex -5.25 0 0
      vertex -20 0 0
    endloop
  endfacet
  facet normal 0 1 -0
    outer loop
      vertex -89.6071 0 0
      vertex -146.3 0 3.5
      vertex -89.6071 0 3.5
    endloop
  endfacet
  facet normal 0 1 0
    outer loop
      vertex -154.3 0 0
      vertex -146.3 0 3.5
      vertex -89.6071 0 0
    endloop
  endfacet
  facet normal 0 1 0
    outer loop
      vertex -146.3 0 3.5
      vertex -154.3 0 0
      vertex -149.8 0 3.5
    endloop
  endfacet
  facet normal 0 1 0
    outer loop
      vertex -149.8 0 3.5
      vertex -154.3 0 0
      vertex -154.3 0 3.5
    endloop
  endfacet
  facet normal 0 1 0
    outer loop
      vertex -146.3 0 43.5
      vertex -149.8 0 43.5
      vertex -148.05 0 48.75
    endloop
  endfacet
  facet normal 0 1 -0
    outer loop
      vertex -146.3 0 3.5
      vertex -149.8 0 43.5
      vertex -146.3 0 43.5
    endloop
  endfacet
  facet normal 0 1 0
    outer loop
      vertex -149.8 0 43.5
      vertex -146.3 0 3.5
      vertex -149.8 0 3.5
    endloop
  endfacet
  facet normal 0 1 -0
    outer loop
      vertex -23.5 0 0
      vertex -28 0 3.5
      vertex -23.5 0 3.5
    endloop
  endfacet
  facet normal 0 1 0
    outer loop
      vertex -28 0 3.5
      vertex -23.5 0 0
      vertex -31.5 0 3.5
    endloop
  endfacet
  facet normal 0 1 0
    outer loop
      vertex -88.1929 0 0
      vertex -31.5 0 3.5
      vertex -23.5 0 0
    endloop
  endfacet
  facet normal 0 1 0
    outer loop
      vertex -31.5 0 3.5
      vertex -88.1929 0 0
      vertex -88.1929 0 3.5
    endloop
  endfacet
  facet normal 0 1 0
    outer loop
      vertex -20 0 43.5
      vertex -23.5 0 43.5
      vertex -21.75 0 48.75
    endloop
  endfacet
  facet normal 0 1 -0
    outer loop
      vertex -20 0 5
      vertex -23.5 0 43.5
      vertex -20 0 43.5
    endloop
  endfacet
  facet normal 0 1 0
    outer loop
      vertex -23.5 0 43.5
      vertex -20 0 5
      vertex -23.5 0 5
    endloop
  endfacet
  facet normal 0 1 0
    outer loop
      vertex -28 0 43.5
      vertex -31.5 0 43.5
      vertex -29.75 0 48.75
    endloop
  endfacet
  facet normal 0 1 -0
    outer loop
      vertex -28 0 3.5
      vertex -31.5 0 43.5
      vertex -28 0 43.5
    endloop
  endfacet
  facet normal 0 1 0
    outer loop
      vertex -31.5 0 43.5
      vertex -28 0 3.5
      vertex -31.5 0 3.5
    endloop
  endfacet
  facet normal 0 0 0
    outer loop
      vertex -23.5 0 0
      vertex -23.5 0 3.5
      vertex -23.5 0 43.5
    endloop
  endfacet
  facet normal 0 0 0
    outer loop
      vertex -23.5 0 43.5
      vertex -23.5 0 5
      vertex -23.5 0 0
    endloop
  endfacet
  facet normal 0 -1 0
    outer loop
      vertex -5.25 -20 0
      vertex -5.25 -20 3.5
      vertex -20 -20 3.5
    endloop
  endfacet
  facet normal 0 -1 0
    outer loop
      vertex -5.25 -20 0
      vertex -20 -20 3.5
      vertex -20 -20 0
    endloop
  endfacet
  facet normal 0 -1 0
    outer loop
      vertex -5.25 -20 3.5
      vertex -5.25 -20 0
      vertex 0 -20 1.75
    endloop
  endfacet
  facet normal 0 -1 0
    outer loop
      vertex -172.55 -20 0
      vertex -172.55 -20 3.5
      vertex -177.8 -20 1.75
    endloop
  endfacet
  facet normal 0 -1 0
    outer loop
      vertex -157.8 -20 31.2346
      vertex -157.8 -20 5
      vertex -154.3 -20 31.2346
    endloop
  endfacet
  facet normal 0 0 0
    outer loop
      vertex -157.8 -20 3.5
      vertex -157.8 -20 5
      vertex -157.8 -20 31.2346
    endloop
  endfacet
  facet normal 0 -1 0
    outer loop
      vertex -172.55 -20 3.5
      vertex -172.55 -20 0
      vertex -157.8 -20 3.5
    endloop
  endfacet
  facet normal 0 0 0
    outer loop
      vertex -157.8 -20 3.5
      vertex -157.8 -20 0
      vertex -157.8 -20 5
    endloop
  endfacet
  facet normal 0 -1 0
    outer loop
      vertex -157.8 -20 0
      vertex -157.8 -20 3.5
      vertex -172.55 -20 0
    endloop
  endfacet
  facet normal 0 -1 -0
    outer loop
      vertex -154.3 -20 31.2346
      vertex -157.8 -20 5
      vertex -154.3 -20 5
    endloop
  endfacet
  facet normal 0 -1 0
    outer loop
      vertex -154.3 -20 0
      vertex -149.8 -20 3.5
      vertex -154.3 -20 3.5
    endloop
  endfacet
  facet normal 0 -1 -0
    outer loop
      vertex -149.8 -20 3.5
      vertex -154.3 -20 0
      vertex -146.3 -20 3.5
    endloop
  endfacet
  facet normal 0 -1 0
    outer loop
      vertex -89.6071 -20 0
      vertex -146.3 -20 3.5
      vertex -154.3 -20 0
    endloop
  endfacet
  facet normal 0 -1 0
    outer loop
      vertex -146.3 -20 3.5
      vertex -89.6071 -20 0
      vertex -89.6071 -20 3.5
    endloop
  endfacet
  facet normal 0 -1 0
    outer loop
      vertex -149.8 -20 3.5
      vertex -146.3 -20 31.2346
      vertex -149.8 -20 31.2346
    endloop
  endfacet
  facet normal 0 -1 -0
    outer loop
      vertex -146.3 -20 31.2346
      vertex -149.8 -20 3.5
      vertex -146.3 -20 3.5
    endloop
  endfacet
  facet normal 0 -1 0
    outer loop
      vertex -88.1929 -20 0
      vertex -31.5 -20 3.5
      vertex -88.1929 -20 3.5
    endloop
  endfacet
  facet normal 0 -1 0
    outer loop
      vertex -23.5 -20 0
      vertex -31.5 -20 3.5
      vertex -88.1929 -20 0
    endloop
  endfacet
  facet normal 0 -1 0
    outer loop
      vertex -31.5 -20 3.5
      vertex -23.5 -20 0
      vertex -28 -20 3.5
    endloop
  endfacet
  facet normal 0 -1 0
    outer loop
      vertex -28 -20 3.5
      vertex -23.5 -20 0
      vertex -23.5 -20 3.5
    endloop
  endfacet
  facet normal 0 -1 0
    outer loop
      vertex -31.5 -20 3.5
      vertex -28 -20 31.2346
      vertex -31.5 -20 31.2346
    endloop
  endfacet
  facet normal 0 -1 -0
    outer loop
      vertex -28 -20 31.2346
      vertex -31.5 -20 3.5
      vertex -28 -20 3.5
    endloop
  endfacet
  facet normal 0 -1 0
    outer loop
      vertex -23.5 -20 5
      vertex -20 -20 31.2346
      vertex -23.5 -20 31.2346
    endloop
  endfacet
  facet normal 0 -1 -0
    outer loop
      vertex -20 -20 31.2346
      vertex -23.5 -20 5
      vertex -20 -20 5
    endloop
  endfacet
  facet normal 0 0 0
    outer loop
      vertex -23.5 -20 5
      vertex -23.5 -20 31.2346
      vertex -23.5 -20 3.5
    endloop
  endfacet
  facet normal 0 0 0
    outer loop
      vertex -23.5 -20 5
      vertex -23.5 -20 3.5
      vertex -23.5 -20 0
    endloop
  endfacet
  facet normal 0 -1 0
    outer loop
      vertex -23.5 -20 43.5
      vertex -20 -20 43.5
      vertex -21.75 -20 48.75
    endloop
  endfacet
  facet normal 0 -1 0
    outer loop
      vertex -23.5 -20 42.2654
      vertex -20 -20 43.5
      vertex -23.5 -20 43.5
    endloop
  endfacet
  facet normal 0 -1 -0
    outer loop
      vertex -20 -20 43.5
      vertex -23.5 -20 42.2654
      vertex -20 -20 42.2654
    endloop
  endfacet
  facet normal 0 -1 0
    outer loop
      vertex -31.5 -20 43.5
      vertex -28 -20 43.5
      vertex -29.75 -20 48.75
    endloop
  endfacet
  facet normal 0 -1 0
    outer loop
      vertex -31.5 -20 42.2654
      vertex -28 -20 43.5
      vertex -31.5 -20 43.5
    endloop
  endfacet
  facet normal 0 -1 -0
    outer loop
      vertex -28 -20 43.5
      vertex -31.5 -20 42.2654
      vertex -28 -20 42.2654
    endloop
  endfacet
  facet normal 0 -1 0
    outer loop
      vertex -157.8 -20 43.5
      vertex -154.3 -20 43.5
      vertex -156.05 -20 48.75
    endloop
  endfacet
  facet normal 0 -1 0
    outer loop
      vertex -157.8 -20 42.2654
      vertex -154.3 -20 43.5
      vertex -157.8 -20 43.5
    endloop
  endfacet
  facet normal 0 -1 -0
    outer loop
      vertex -154.3 -20 43.5
      vertex -157.8 -20 42.2654
      vertex -154.3 -20 42.2654
    endloop
  endfacet
  facet normal 0 -1 0
    outer loop
      vertex -149.8 -20 43.5
      vertex -146.3 -20 43.5
      vertex -148.05 -20 48.75
    endloop
  endfacet
  facet normal 0 -1 0
    outer loop
      vertex -149.8 -20 42.2654
      vertex -146.3 -20 43.5
      vertex -149.8 -20 43.5
    endloop
  endfacet
  facet normal 0 -1 -0
    outer loop
      vertex -146.3 -20 43.5
      vertex -149.8 -20 42.2654
      vertex -146.3 -20 42.2654
    endloop
  endfacet
  facet normal -0.948683 0 0.316228
    outer loop
      vertex -23.5 -20 43.5
      vertex -21.75 0 48.75
      vertex -23.5 0 43.5
    endloop
  endfacet
  facet normal -0.948683 0 0.316228
    outer loop
      vertex -21.75 0 48.75
      vertex -23.5 -20 43.5
      vertex -21.75 -20 48.75
    endloop
  endfacet
  facet normal -1 0 0
    outer loop
      vertex -23.5 0 3.5
      vertex -23.5 -7.34279 29.6082
      vertex -23.5 0 43.5
    endloop
  endfacet
  facet normal -1 0 0
    outer loop
      vertex -23.5 0 3.5
      vertex -23.5 -12.8582 24.0928
      vertex -23.5 -7.34279 29.6082
    endloop
  endfacet
  facet normal -1 0 0
    outer loop
      vertex -23.5 -20 3.5
      vertex -23.5 -12.8582 24.0928
      vertex -23.5 0 3.5
    endloop
  endfacet
  facet normal -1 -0 0
    outer loop
      vertex -23.5 -12.8582 24.0928
      vertex -23.5 -20 3.5
      vertex -23.5 -20 31.2346
    endloop
  endfacet
  facet normal -1 0 0
    outer loop
      vertex -23.5 -20 42.2654
      vertex -23.5 0 43.5
      vertex -23.5 -7.34279 29.6082
    endloop
  endfacet
  facet normal -1 -0 0
    outer loop
      vertex -23.5 0 43.5
      vertex -23.5 -20 42.2654
      vertex -23.5 -20 43.5
    endloop
  endfacet
  facet normal -0 0 1
    outer loop
      vertex -20 0 3.5
      vertex -5.25 -20 3.5
      vertex -5.25 0 3.5
    endloop
  endfacet
  facet normal 0 0 1
    outer loop
      vertex -5.25 -20 3.5
      vertex -20 0 3.5
      vertex -20 -20 3.5
    endloop
  endfacet
  facet normal -0 0 1
    outer loop
      vertex -172.55 0 3.5
      vertex -157.8 -20 3.5
      vertex -157.8 0 3.5
    endloop
  endfacet
  facet normal 0 0 1
    outer loop
      vertex -157.8 -20 3.5
      vertex -172.55 0 3.5
      vertex -172.55 -20 3.5
    endloop
  endfacet
  facet normal -0 0 1
    outer loop
      vertex -154.3 0 3.5
      vertex -149.8 -20 3.5
      vertex -149.8 0 3.5
    endloop
  endfacet
  facet normal 0 0 1
    outer loop
      vertex -149.8 -20 3.5
      vertex -154.3 0 3.5
      vertex -154.3 -20 3.5
    endloop
  endfacet
  facet normal -0 0 1
    outer loop
      vertex -28 0 3.5
      vertex -23.5 -20 3.5
      vertex -23.5 0 3.5
    endloop
  endfacet
  facet normal 0 0 1
    outer loop
      vertex -23.5 -20 3.5
      vertex -28 0 3.5
      vertex -28 -20 3.5
    endloop
  endfacet
  facet normal -0 0 1
    outer loop
      vertex -88.9 -0.707107 3.5
      vertex -88.1929 -10 3.5
      vertex -88.1929 0 3.5
    endloop
  endfacet
  facet normal 0 0 1
    outer loop
      vertex -88.9 -0.707107 3.5
      vertex -88.9 -9.29289 3.5
      vertex -88.1929 -10 3.5
    endloop
  endfacet
  facet normal 0 0 1
    outer loop
      vertex -89.6071 0 3.5
      vertex -88.9 -9.29289 3.5
      vertex -88.9 -0.707107 3.5
    endloop
  endfacet
  facet normal 0 0 1
    outer loop
      vertex -89.6071 0 3.5
      vertex -89.6071 -10 3.5
      vertex -88.9 -9.29289 3.5
    endloop
  endfacet
  facet normal -0 0 1
    outer loop
      vertex -146.3 0 3.5
      vertex -89.6071 -10 3.5
      vertex -89.6071 0 3.5
    endloop
  endfacet
  facet normal 0 0 1
    outer loop
      vertex -146.3 -20 3.5
      vertex -89.6071 -10 3.5
      vertex -146.3 0 3.5
    endloop
  endfacet
  facet normal 0 0 1
    outer loop
      vertex -89.6071 -10 3.5
      vertex -146.3 -20 3.5
      vertex -89.6071 -20 3.5
    endloop
  endfacet
  facet normal 0 0 1
    outer loop
      vertex -88.1929 -10 3.5
      vertex -31.5 0 3.5
      vertex -88.1929 0 3.5
    endloop
  endfacet
  facet normal 0 0 1
    outer loop
      vertex -31.5 0 3.5
      vertex -88.1929 -10 3.5
      vertex -31.5 -20 3.5
    endloop
  endfacet
  facet normal 0 0 1
    outer loop
      vertex -88.1929 -10 3.5
      vertex -88.1929 -20 3.5
      vertex -31.5 -20 3.5
    endloop
  endfacet
  facet normal -0 0 1
    outer loop
      vertex -88.9 -10.7071 3.5
      vertex -88.1929 -20 3.5
      vertex -88.1929 -10 3.5
    endloop
  endfacet
  facet normal 0 0 1
    outer loop
      vertex -88.9 -10.7071 3.5
      vertex -88.9 -19.2929 3.5
      vertex -88.1929 -20 3.5
    endloop
  endfacet
  facet normal 0 0 1
    outer loop
      vertex -89.6071 -10 3.5
      vertex -88.9 -19.2929 3.5
      vertex -88.9 -10.7071 3.5
    endloop
  endfacet
  facet normal 0 0 1
    outer loop
      vertex -88.9 -19.2929 3.5
      vertex -89.6071 -10 3.5
      vertex -89.6071 -20 3.5
    endloop
  endfacet
  facet normal 1 0 0
    outer loop
      vertex -20 0 43.5
      vertex -20 -7.34279 29.6082
      vertex -20 0 5
    endloop
  endfacet
  facet normal 1 0 0
    outer loop
      vertex -20 -20 42.2654
      vertex -20 0 43.5
      vertex -20 -20 43.5
    endloop
  endfacet
  facet normal 1 0 0
    outer loop
      vertex -20 0 43.5
      vertex -20 -20 42.2654
      vertex -20 -7.34279 29.6082
    endloop
  endfacet
  facet normal 1 -0 0
    outer loop
      vertex -20 -12.8582 24.0928
      vertex -20 0 5
      vertex -20 -7.34279 29.6082
    endloop
  endfacet
  facet normal 1 0 0
    outer loop
      vertex -20 -20 5
      vertex -20 -12.8582 24.0928
      vertex -20 -20 31.2346
    endloop
  endfacet
  facet normal 1 0 0
    outer loop
      vertex -20 -12.8582 24.0928
      vertex -20 -20 5
      vertex -20 0 5
    endloop
  endfacet
  facet normal 0.948683 -0 0.316228
    outer loop
      vertex -21.75 -20 48.75
      vertex -20 0 43.5
      vertex -21.75 0 48.75
    endloop
  endfacet
  facet normal 0.948683 0 0.316228
    outer loop
      vertex -20 0 43.5
      vertex -21.75 -20 48.75
      vertex -20 -20 43.5
    endloop
  endfacet
  facet normal -0.948683 0 0.316228
    outer loop
      vertex -31.5 -20 43.5
      vertex -29.75 0 48.75
      vertex -31.5 0 43.5
    endloop
  endfacet
  facet normal -0.948683 0 0.316228
    outer loop
      vertex -29.75 0 48.75
      vertex -31.5 -20 43.5
      vertex -29.75 -20 48.75
    endloop
  endfacet
  facet normal -1 0 0
    outer loop
      vertex -31.5 0 3.5
      vertex -31.5 -7.34279 29.6082
      vertex -31.5 0 43.5
    endloop
  endfacet
  facet normal -1 0 0
    outer loop
      vertex -31.5 0 3.5
      vertex -31.5 -12.8582 24.0928
      vertex -31.5 -7.34279 29.6082
    endloop
  endfacet
  facet normal -1 0 0
    outer loop
      vertex -31.5 -20 3.5
      vertex -31.5 -12.8582 24.0928
      vertex -31.5 0 3.5
    endloop
  endfacet
  facet normal -1 -0 0
    outer loop
      vertex -31.5 -12.8582 24.0928
      vertex -31.5 -20 3.5
      vertex -31.5 -20 31.2346
    endloop
  endfacet
  facet normal -1 0 0
    outer loop
      vertex -31.5 -20 42.2654
      vertex -31.5 0 43.5
      vertex -31.5 -7.34279 29.6082
    endloop
  endfacet
  facet normal -1 -0 0
    outer loop
      vertex -31.5 0 43.5
      vertex -31.5 -20 42.2654
      vertex -31.5 -20 43.5
    endloop
  endfacet
  facet normal 1 0 0
    outer loop
      vertex -28 0 43.5
      vertex -28 -7.34279 29.6082
      vertex -28 0 3.5
    endloop
  endfacet
  facet normal 1 0 0
    outer loop
      vertex -28 -20 42.2654
      vertex -28 0 43.5
      vertex -28 -20 43.5
    endloop
  endfacet
  facet normal 1 0 0
    outer loop
      vertex -28 0 43.5
      vertex -28 -20 42.2654
      vertex -28 -7.34279 29.6082
    endloop
  endfacet
  facet normal 1 -0 0
    outer loop
      vertex -28 -12.8582 24.0928
      vertex -28 0 3.5
      vertex -28 -7.34279 29.6082
    endloop
  endfacet
  facet normal 1 0 0
    outer loop
      vertex -28 -20 3.5
      vertex -28 -12.8582 24.0928
      vertex -28 -20 31.2346
    endloop
  endfacet
  facet normal 1 0 0
    outer loop
      vertex -28 -12.8582 24.0928
      vertex -28 -20 3.5
      vertex -28 0 3.5
    endloop
  endfacet
  facet normal 0.948683 -0 0.316228
    outer loop
      vertex -29.75 -20 48.75
      vertex -28 0 43.5
      vertex -29.75 0 48.75
    endloop
  endfacet
  facet normal 0.948683 0 0.316228
    outer loop
      vertex -28 0 43.5
      vertex -29.75 -20 48.75
      vertex -28 -20 43.5
    endloop
  endfacet
  facet normal 0.948683 -0 0.316228
    outer loop
      vertex -156.05 -20 48.75
      vertex -154.3 0 43.5
      vertex -156.05 0 48.75
    endloop
  endfacet
  facet normal 0.948683 0 0.316228
    outer loop
      vertex -154.3 0 43.5
      vertex -156.05 -20 48.75
      vertex -154.3 -20 43.5
    endloop
  endfacet
  facet normal 1 0 0
    outer loop
      vertex -154.3 0 43.5
      vertex -154.3 -7.34279 29.6082
      vertex -154.3 0 5
    endloop
  endfacet
  facet normal 1 0 0
    outer loop
      vertex -154.3 -20 42.2654
      vertex -154.3 0 43.5
      vertex -154.3 -20 43.5
    endloop
  endfacet
  facet normal 1 0 0
    outer loop
      vertex -154.3 0 43.5
      vertex -154.3 -20 42.2654
      vertex -154.3 -7.34279 29.6082
    endloop
  endfacet
  facet normal 1 -0 0
    outer loop
      vertex -154.3 -12.8582 24.0928
      vertex -154.3 0 5
      vertex -154.3 -7.34279 29.6082
    endloop
  endfacet
  facet normal 1 0 0
    outer loop
      vertex -154.3 -20 5
      vertex -154.3 -12.8582 24.0928
      vertex -154.3 -20 31.2346
    endloop
  endfacet
  facet normal 1 0 0
    outer loop
      vertex -154.3 -12.8582 24.0928
      vertex -154.3 -20 5
      vertex -154.3 0 5
    endloop
  endfacet
  facet normal -1 0 0
    outer loop
      vertex -157.8 0 3.5
      vertex -157.8 -7.34279 29.6082
      vertex -157.8 0 43.5
    endloop
  endfacet
  facet normal -1 0 0
    outer loop
      vertex -157.8 0 3.5
      vertex -157.8 -12.8582 24.0928
      vertex -157.8 -7.34279 29.6082
    endloop
  endfacet
  facet normal -1 0 0
    outer loop
      vertex -157.8 -20 3.5
      vertex -157.8 -12.8582 24.0928
      vertex -157.8 0 3.5
    endloop
  endfacet
  facet normal -1 -0 0
    outer loop
      vertex -157.8 -12.8582 24.0928
      vertex -157.8 -20 3.5
      vertex -157.8 -20 31.2346
    endloop
  endfacet
  facet normal -1 0 0
    outer loop
      vertex -157.8 -20 42.2654
      vertex -157.8 0 43.5
      vertex -157.8 -7.34279 29.6082
    endloop
  endfacet
  facet normal -1 -0 0
    outer loop
      vertex -157.8 0 43.5
      vertex -157.8 -20 42.2654
      vertex -157.8 -20 43.5
    endloop
  endfacet
  facet normal -0.948683 0 0.316228
    outer loop
      vertex -157.8 -20 43.5
      vertex -156.05 0 48.75
      vertex -157.8 0 43.5
    endloop
  endfacet
  facet normal -0.948683 0 0.316228
    outer loop
      vertex -156.05 0 48.75
      vertex -157.8 -20 43.5
      vertex -156.05 -20 48.75
    endloop
  endfacet
  facet normal 0.948683 -0 0.316228
    outer loop
      vertex -148.05 -20 48.75
      vertex -146.3 0 43.5
      vertex -148.05 0 48.75
    endloop
  endfacet
  facet normal 0.948683 0 0.316228
    outer loop
      vertex -146.3 0 43.5
      vertex -148.05 -20 48.75
      vertex -146.3 -20 43.5
    endloop
  endfacet
  facet normal 1 0 0
    outer loop
      vertex -146.3 0 43.5
      vertex -146.3 -7.34279 29.6082
      vertex -146.3 0 3.5
    endloop
  endfacet
  facet normal 1 0 0
    outer loop
      vertex -146.3 -20 42.2654
      vertex -146.3 0 43.5
      vertex -146.3 -20 43.5
    endloop
  endfacet
  facet normal 1 0 0
    outer loop
      vertex -146.3 0 43.5
      vertex -146.3 -20 42.2654
      vertex -146.3 -7.34279 29.6082
    endloop
  endfacet
  facet normal 1 -0 0
    outer loop
      vertex -146.3 -12.8582 24.0928
      vertex -146.3 0 3.5
      vertex -146.3 -7.34279 29.6082
    endloop
  endfacet
  facet normal 1 0 0
    outer loop
      vertex -146.3 -20 3.5
      vertex -146.3 -12.8582 24.0928
      vertex -146.3 -20 31.2346
    endloop
  endfacet
  facet normal 1 0 0
    outer loop
      vertex -146.3 -12.8582 24.0928
      vertex -146.3 -20 3.5
      vertex -146.3 0 3.5
    endloop
  endfacet
  facet normal -1 0 0
    outer loop
      vertex -149.8 0 3.5
      vertex -149.8 -7.34279 29.6082
      vertex -149.8 0 43.5
    endloop
  endfacet
  facet normal -1 0 0
    outer loop
      vertex -149.8 0 3.5
      vertex -149.8 -12.8582 24.0928
      vertex -149.8 -7.34279 29.6082
    endloop
  endfacet
  facet normal -1 0 0
    outer loop
      vertex -149.8 -20 3.5
      vertex -149.8 -12.8582 24.0928
      vertex -149.8 0 3.5
    endloop
  endfacet
  facet normal -1 -0 0
    outer loop
      vertex -149.8 -12.8582 24.0928
      vertex -149.8 -20 3.5
      vertex -149.8 -20 31.2346
    endloop
  endfacet
  facet normal -1 0 0
    outer loop
      vertex -149.8 -20 42.2654
      vertex -149.8 0 43.5
      vertex -149.8 -7.34279 29.6082
    endloop
  endfacet
  facet normal -1 -0 0
    outer loop
      vertex -149.8 0 43.5
      vertex -149.8 -20 42.2654
      vertex -149.8 -20 43.5
    endloop
  endfacet
  facet normal -0.948683 0 0.316228
    outer loop
      vertex -149.8 -20 43.5
      vertex -148.05 0 48.75
      vertex -149.8 0 43.5
    endloop
  endfacet
  facet normal -0.948683 0 0.316228
    outer loop
      vertex -148.05 0 48.75
      vertex -149.8 -20 43.5
      vertex -148.05 -20 48.75
    endloop
  endfacet
  facet normal -0.316228 0 0.948683
    outer loop
      vertex -177.8 0 1.75
      vertex -172.55 -20 3.5
      vertex -172.55 0 3.5
    endloop
  endfacet
  facet normal -0.316228 0 0.948683
    outer loop
      vertex -172.55 -20 3.5
      vertex -177.8 0 1.75
      vertex -177.8 -20 1.75
    endloop
  endfacet
  facet normal 0.316228 0 -0.948683
    outer loop
      vertex -5.25 -20 0
      vertex 0 0 1.75
      vertex 0 -20 1.75
    endloop
  endfacet
  facet normal 0.316228 0 -0.948683
    outer loop
      vertex 0 0 1.75
      vertex -5.25 -20 0
      vertex -5.25 0 0
    endloop
  endfacet
  facet normal -0.316228 0 -0.948683
    outer loop
      vertex -177.8 -20 1.75
      vertex -172.55 0 0
      vertex -172.55 -20 0
    endloop
  endfacet
  facet normal -0.316228 0 -0.948683
    outer loop
      vertex -172.55 0 0
      vertex -177.8 -20 1.75
      vertex -177.8 0 1.75
    endloop
  endfacet
  facet normal 0 0 -1
    outer loop
      vertex -172.55 -20 0
      vertex -157.8 0 0
      vertex -157.8 -20 0
    endloop
  endfacet
  facet normal -0 0 -1
    outer loop
      vertex -157.8 0 0
      vertex -172.55 -20 0
      vertex -172.55 0 0
    endloop
  endfacet
  facet normal 0 0 -1
    outer loop
      vertex -157.8 -20 0
      vertex -154.3 -20 0
      vertex -154.3 -21.5 0
    endloop
  endfacet
  facet normal 0 0 -1
    outer loop
      vertex -154.3 -20 0
      vertex -157.8 -20 0
      vertex -154.3 0 0
    endloop
  endfacet
  facet normal 0 0 -1
    outer loop
      vertex -157.8 -20 0
      vertex -154.3 -21.5 0
      vertex -157.8 -21.5 0
    endloop
  endfacet
  facet normal 0 0 -1
    outer loop
      vertex -157.8 0 0
      vertex -154.3 0 0
      vertex -157.8 -20 0
    endloop
  endfacet
  facet normal 0 0 -1
    outer loop
      vertex -154.3 0 0
      vertex -157.8 0 0
      vertex -154.3 1.5 0
    endloop
  endfacet
  facet normal -0 0 -1
    outer loop
      vertex -154.3 1.5 0
      vertex -157.8 0 0
      vertex -157.8 1.5 0
    endloop
  endfacet
  facet normal 0 0 -1
    outer loop
      vertex -88.9 -19.2929 0
      vertex -88.1929 -10 0
      vertex -88.1929 -20 0
    endloop
  endfacet
  facet normal 0 0 -1
    outer loop
      vertex -88.9 -19.2929 0
      vertex -88.9 -10.7071 0
      vertex -88.1929 -10 0
    endloop
  endfacet
  facet normal 0 0 -1
    outer loop
      vertex -89.6071 -20 0
      vertex -88.9 -10.7071 0
      vertex -88.9 -19.2929 0
    endloop
  endfacet
  facet normal 0 0 -1
    outer loop
      vertex -89.6071 -20 0
      vertex -89.6071 -10 0
      vertex -88.9 -10.7071 0
    endloop
  endfacet
  facet normal 0 0 -1
    outer loop
      vertex -154.3 -20 0
      vertex -89.6071 -10 0
      vertex -89.6071 -20 0
    endloop
  endfacet
  facet normal 0 0 -1
    outer loop
      vertex -154.3 0 0
      vertex -89.6071 -10 0
      vertex -154.3 -20 0
    endloop
  endfacet
  facet normal 0 0 -1
    outer loop
      vertex -89.6071 -10 0
      vertex -154.3 0 0
      vertex -89.6071 0 0
    endloop
  endfacet
  facet normal 0 0 -1
    outer loop
      vertex -88.1929 -10 0
      vertex -23.5 -20 0
      vertex -88.1929 -20 0
    endloop
  endfacet
  facet normal 0 0 -1
    outer loop
      vertex -23.5 -20 0
      vertex -88.1929 -10 0
      vertex -23.5 0 0
    endloop
  endfacet
  facet normal 0 0 -1
    outer loop
      vertex -88.1929 -10 0
      vertex -88.1929 0 0
      vertex -23.5 0 0
    endloop
  endfacet
  facet normal 0 0 -1
    outer loop
      vertex -88.9 -9.29289 0
      vertex -88.1929 0 0
      vertex -88.1929 -10 0
    endloop
  endfacet
  facet normal 0 0 -1
    outer loop
      vertex -88.9 -9.29289 0
      vertex -88.9 -0.707107 0
      vertex -88.1929 0 0
    endloop
  endfacet
  facet normal 0 0 -1
    outer loop
      vertex -89.6071 -10 0
      vertex -88.9 -0.707107 0
      vertex -88.9 -9.29289 0
    endloop
  endfacet
  facet normal -0 0 -1
    outer loop
      vertex -88.9 -0.707107 0
      vertex -89.6071 -10 0
      vertex -89.6071 0 0
    endloop
  endfacet
  facet normal 0 0 -1
    outer loop
      vertex -23.5 -20 0
      vertex -20 -20 0
      vertex -20 -21.5 0
    endloop
  endfacet
  facet normal 0 0 -1
    outer loop
      vertex -20 -20 0
      vertex -23.5 -20 0
      vertex -20 0 0
    endloop
  endfacet
  facet normal 0 0 -1
    outer loop
      vertex -23.5 -20 0
      vertex -20 -21.5 0
      vertex -23.5 -21.5 0
    endloop
  endfacet
  facet normal 0 0 -1
    outer loop
      vertex -23.5 0 0
      vertex -20 0 0
      vertex -23.5 -20 0
    endloop
  endfacet
  facet normal 0 0 -1
    outer loop
      vertex -20 0 0
      vertex -23.5 0 0
      vertex -20 1.5 0
    endloop
  endfacet
  facet normal -0 0 -1
    outer loop
      vertex -20 1.5 0
      vertex -23.5 0 0
      vertex -23.5 1.5 0
    endloop
  endfacet
  facet normal 0 0 -1
    outer loop
      vertex -20 -20 0
      vertex -5.25 0 0
      vertex -5.25 -20 0
    endloop
  endfacet
  facet normal -0 0 -1
    outer loop
      vertex -5.25 0 0
      vertex -20 -20 0
      vertex -20 0 0
    endloop
  endfacet
  facet normal 0.316228 0 0.948683
    outer loop
      vertex -5.25 0 3.5
      vertex 0 -20 1.75
      vertex 0 0 1.75
    endloop
  endfacet
  facet normal 0.316228 0 0.948683
    outer loop
      vertex 0 -20 1.75
      vertex -5.25 0 3.5
      vertex -5.25 -20 3.5
    endloop
  endfacet
  facet normal 0 1 -0
    outer loop
      vertex -20 1.5 0
      vertex -23.5 1.5 5
      vertex -20 1.5 5
    endloop
  endfacet
  facet normal 0 1 0
    outer loop
      vertex -23.5 1.5 5
      vertex -20 1.5 0
      vertex -23.5 1.5 0
    endloop
  endfacet
  facet normal 0 1 -0
    outer loop
      vertex -154.3 1.5 0
      vertex -157.8 1.5 5
      vertex -154.3 1.5 5
    endloop
  endfacet
  facet normal 0 1 0
    outer loop
      vertex -157.8 1.5 5
      vertex -154.3 1.5 0
      vertex -157.8 1.5 0
    endloop
  endfacet
  facet normal 0 -1 0
    outer loop
      vertex -23.5 -21.5 0
      vertex -20 -21.5 5
      vertex -23.5 -21.5 5
    endloop
  endfacet
  facet normal 0 -1 -0
    outer loop
      vertex -20 -21.5 5
      vertex -23.5 -21.5 0
      vertex -20 -21.5 0
    endloop
  endfacet
  facet normal 0 -1 0
    outer loop
      vertex -157.8 -21.5 0
      vertex -154.3 -21.5 5
      vertex -157.8 -21.5 5
    endloop
  endfacet
  facet normal 0 -1 -0
    outer loop
      vertex -154.3 -21.5 5
      vertex -157.8 -21.5 0
      vertex -154.3 -21.5 0
    endloop
  endfacet
  facet normal -0 0 1
    outer loop
      vertex -23.5 1.5 5
      vertex -20 0 5
      vertex -20 1.5 5
    endloop
  endfacet
  facet normal 0 0 1
    outer loop
      vertex -20 0 5
      vertex -23.5 1.5 5
      vertex -23.5 0 5
    endloop
  endfacet
  facet normal -0 0 1
    outer loop
      vertex -23.5 -20 5
      vertex -20 -21.5 5
      vertex -20 -20 5
    endloop
  endfacet
  facet normal 0 0 1
    outer loop
      vertex -20 -21.5 5
      vertex -23.5 -20 5
      vertex -23.5 -21.5 5
    endloop
  endfacet
  facet normal 0 0 0
    outer loop
      vertex -20 -20 5
      vertex -20 -21.5 5
      vertex -20 1.5 5
    endloop
  endfacet
  facet normal 0 0 0
    outer loop
      vertex -20 -20 5
      vertex -20 1.5 5
      vertex -20 0 5
    endloop
  endfacet
  facet normal -1 0 0
    outer loop
      vertex -23.5 0 0
      vertex -23.5 1.5 5
      vertex -23.5 1.5 0
    endloop
  endfacet
  facet normal -1 -0 0
    outer loop
      vertex -23.5 1.5 5
      vertex -23.5 0 0
      vertex -23.5 0 5
    endloop
  endfacet
  facet normal -1 0 0
    outer loop
      vertex -23.5 -21.5 0
      vertex -23.5 -20 5
      vertex -23.5 -20 0
    endloop
  endfacet
  facet normal -1 -0 0
    outer loop
      vertex -23.5 -20 5
      vertex -23.5 -21.5 0
      vertex -23.5 -21.5 5
    endloop
  endfacet
  facet normal 1 0 0
    outer loop
      vertex -20 1.5 5
      vertex -20 0 3.5
      vertex -20 1.5 0
    endloop
  endfacet
  facet normal 1 0 0
    outer loop
      vertex -20 1.5 5
      vertex -20 -20 3.5
      vertex -20 0 3.5
    endloop
  endfacet
  facet normal 1 -0 0
    outer loop
      vertex -20 -21.5 5
      vertex -20 -20 3.5
      vertex -20 1.5 5
    endloop
  endfacet
  facet normal 1 0 0
    outer loop
      vertex -20 -21.5 0
      vertex -20 -20 3.5
      vertex -20 -21.5 5
    endloop
  endfacet
  facet normal 1 0 0
    outer loop
      vertex -20 -20 3.5
      vertex -20 -21.5 0
      vertex -20 -20 0
    endloop
  endfacet
  facet normal 1 0 0
    outer loop
      vertex -20 1.5 0
      vertex -20 0 3.5
      vertex -20 0 0
    endloop
  endfacet
  facet normal 0 0 0
    outer loop
      vertex -154.3 1.5 5
      vertex -154.3 0 5
      vertex -154.3 -21.5 5
    endloop
  endfacet
  facet normal -0 0 1
    outer loop
      vertex -157.8 1.5 5
      vertex -154.3 0 5
      vertex -154.3 1.5 5
    endloop
  endfacet
  facet normal 0 0 1
    outer loop
      vertex -154.3 0 5
      vertex -157.8 1.5 5
      vertex -157.8 0 5
    endloop
  endfacet
  facet normal 0 0 0
    outer loop
      vertex -154.3 -20 5
      vertex -154.3 -21.5 5
      vertex -154.3 0 5
    endloop
  endfacet
  facet normal -0 0 1
    outer loop
      vertex -157.8 -20 5
      vertex -154.3 -21.5 5
      vertex -154.3 -20 5
    endloop
  endfacet
  facet normal 0 0 1
    outer loop
      vertex -154.3 -21.5 5
      vertex -157.8 -20 5
      vertex -157.8 -21.5 5
    endloop
  endfacet
  facet normal -1 0 0
    outer loop
      vertex -157.8 0 0
      vertex -157.8 1.5 5
      vertex -157.8 1.5 0
    endloop
  endfacet
  facet normal -1 -0 0
    outer loop
      vertex -157.8 1.5 5
      vertex -157.8 0 0
      vertex -157.8 0 5
    endloop
  endfacet
  facet normal -1 0 0
    outer loop
      vertex -157.8 -21.5 0
      vertex -157.8 -20 5
      vertex -157.8 -20 0
    endloop
  endfacet
  facet normal -1 -0 0
    outer loop
      vertex -157.8 -20 5
      vertex -157.8 -21.5 0
      vertex -157.8 -21.5 5
    endloop
  endfacet
  facet normal 1 0 0
    outer loop
      vertex -154.3 1.5 5
      vertex -154.3 0 3.5
      vertex -154.3 1.5 0
    endloop
  endfacet
  facet normal 1 0 0
    outer loop
      vertex -154.3 1.5 5
      vertex -154.3 -20 3.5
      vertex -154.3 0 3.5
    endloop
  endfacet
  facet normal 1 -0 0
    outer loop
      vertex -154.3 -21.5 5
      vertex -154.3 -20 3.5
      vertex -154.3 1.5 5
    endloop
  endfacet
  facet normal 1 0 0
    outer loop
      vertex -154.3 -21.5 0
      vertex -154.3 -20 3.5
      vertex -154.3 -21.5 5
    endloop
  endfacet
  facet normal 1 0 0
    outer loop
      vertex -154.3 -20 3.5
      vertex -154.3 -21.5 0
      vertex -154.3 -20 0
    endloop
  endfacet
  facet normal 1 0 0
    outer loop
      vertex -154.3 1.5 0
      vertex -154.3 0 3.5
      vertex -154.3 0 0
    endloop
  endfacet
  facet normal 0 -0.707106 0.707107
    outer loop
      vertex -157.8 -7.34279 29.6082
      vertex -154.3 -12.8582 24.0928
      vertex -154.3 -7.34279 29.6082
    endloop
  endfacet
  facet normal 0 -0.707106 0.707107
    outer loop
      vertex -154.3 -12.8582 24.0928
      vertex -157.8 -7.34279 29.6082
      vertex -157.8 -12.8582 24.0928
    endloop
  endfacet
  facet normal 0 -0.707106 0.707107
    outer loop
      vertex -149.8 -7.34279 29.6082
      vertex -146.3 -12.8582 24.0928
      vertex -146.3 -7.34279 29.6082
    endloop
  endfacet
  facet normal 0 -0.707106 0.707107
    outer loop
      vertex -146.3 -12.8582 24.0928
      vertex -149.8 -7.34279 29.6082
      vertex -149.8 -12.8582 24.0928
    endloop
  endfacet
  facet normal 0 -0.707106 0.707107
    outer loop
      vertex -31.5 -7.34279 29.6082
      vertex -28 -12.8582 24.0928
      vertex -28 -7.34279 29.6082
    endloop
  endfacet
  facet normal 0 -0.707106 0.707107
    outer loop
      vertex -28 -12.8582 24.0928
      vertex -31.5 -7.34279 29.6082
      vertex -31.5 -12.8582 24.0928
    endloop
  endfacet
  facet normal 0 -0.707106 0.707107
    outer loop
      vertex -23.5 -7.34279 29.6082
      vertex -20 -12.8582 24.0928
      vertex -20 -7.34279 29.6082
    endloop
  endfacet
  facet normal 0 -0.707106 0.707107
    outer loop
      vertex -20 -12.8582 24.0928
      vertex -23.5 -7.34279 29.6082
      vertex -23.5 -12.8582 24.0928
    endloop
  endfacet
  facet normal 0 -0.707107 -0.707107
    outer loop
      vertex -157.8 -7.34279 29.6082
      vertex -154.3 -20 42.2654
      vertex -157.8 -20 42.2654
    endloop
  endfacet
  facet normal 0 -0.707107 -0.707107
    outer loop
      vertex -154.3 -20 42.2654
      vertex -157.8 -7.34279 29.6082
      vertex -154.3 -7.34279 29.6082
    endloop
  endfacet
  facet normal 0 -0.707107 -0.707107
    outer loop
      vertex -149.8 -7.34279 29.6082
      vertex -146.3 -20 42.2654
      vertex -149.8 -20 42.2654
    endloop
  endfacet
  facet normal 0 -0.707107 -0.707107
    outer loop
      vertex -146.3 -20 42.2654
      vertex -149.8 -7.34279 29.6082
      vertex -146.3 -7.34279 29.6082
    endloop
  endfacet
  facet normal 0 -0.707107 -0.707107
    outer loop
      vertex -31.5 -7.34279 29.6082
      vertex -28 -20 42.2654
      vertex -31.5 -20 42.2654
    endloop
  endfacet
  facet normal 0 -0.707107 -0.707107
    outer loop
      vertex -28 -20 42.2654
      vertex -31.5 -7.34279 29.6082
      vertex -28 -7.34279 29.6082
    endloop
  endfacet
  facet normal 0 -0.707107 -0.707107
    outer loop
      vertex -23.5 -7.34279 29.6082
      vertex -20 -20 42.2654
      vertex -23.5 -20 42.2654
    endloop
  endfacet
  facet normal 0 -0.707107 -0.707107
    outer loop
      vertex -20 -20 42.2654
      vertex -23.5 -7.34279 29.6082
      vertex -20 -7.34279 29.6082
    endloop
  endfacet
  facet normal 0 0.707107 0.707107
    outer loop
      vertex -154.3 -12.8582 24.0928
      vertex -157.8 -20 31.2346
      vertex -154.3 -20 31.2346
    endloop
  endfacet
  facet normal 0 0.707107 0.707107
    outer loop
      vertex -157.8 -20 31.2346
      vertex -154.3 -12.8582 24.0928
      vertex -157.8 -12.8582 24.0928
    endloop
  endfacet
  facet normal 0 0.707107 0.707107
    outer loop
      vertex -146.3 -12.8582 24.0928
      vertex -149.8 -20 31.2346
      vertex -146.3 -20 31.2346
    endloop
  endfacet
  facet normal 0 0.707107 0.707107
    outer loop
      vertex -149.8 -20 31.2346
      vertex -146.3 -12.8582 24.0928
      vertex -149.8 -12.8582 24.0928
    endloop
  endfacet
  facet normal 0 0.707107 0.707107
    outer loop
      vertex -28 -12.8582 24.0928
      vertex -31.5 -20 31.2346
      vertex -28 -20 31.2346
    endloop
  endfacet
  facet normal 0 0.707107 0.707107
    outer loop
      vertex -31.5 -20 31.2346
      vertex -28 -12.8582 24.0928
      vertex -31.5 -12.8582 24.0928
    endloop
  endfacet
  facet normal 0 0.707107 0.707107
    outer loop
      vertex -20 -12.8582 24.0928
      vertex -23.5 -20 31.2346
      vertex -20 -20 31.2346
    endloop
  endfacet
  facet normal 0 0.707107 0.707107
    outer loop
      vertex -23.5 -20 31.2346
      vertex -20 -12.8582 24.0928
      vertex -23.5 -12.8582 24.0928
    endloop
  endfacet
endsolid OpenSCAD_Model
