solid OpenSCAD_Model
  facet normal 1 -0 0
    outer loop
      vertex -20.25 36.02 3
      vertex -20.25 45.895 -2
      vertex -20.25 45.895 3
    endloop
  endfacet
  facet normal 1 0 0
    outer loop
      vertex -20.25 45.895 -2
      vertex -20.25 36.02 3
      vertex -20.25 36.02 -2
    endloop
  endfacet
  facet normal -1 0 0
    outer loop
      vertex -21.75 36.02 -2
      vertex -21.75 45.895 3
      vertex -21.75 45.895 -2
    endloop
  endfacet
  facet normal -1 -0 0
    outer loop
      vertex -21.75 45.895 3
      vertex -21.75 36.02 -2
      vertex -21.75 36.02 3
    endloop
  endfacet
  facet normal 1 -0 0
    outer loop
      vertex -9.75 36.02 3
      vertex -9.75 45.895 -2
      vertex -9.75 45.895 3
    endloop
  endfacet
  facet normal 1 0 0
    outer loop
      vertex -9.75 45.895 -2
      vertex -9.75 36.02 3
      vertex -9.75 36.02 -2
    endloop
  endfacet
  facet normal -1 0 0
    outer loop
      vertex -11.25 36.02 -2
      vertex -11.25 45.895 3
      vertex -11.25 45.895 -2
    endloop
  endfacet
  facet normal -1 -0 0
    outer loop
      vertex -11.25 45.895 3
      vertex -11.25 36.02 -2
      vertex -11.25 36.02 3
    endloop
  endfacet
  facet normal 1 -0 0
    outer loop
      vertex 0.75 36.02 3
      vertex 0.75 45.895 -2
      vertex 0.75 45.895 3
    endloop
  endfacet
  facet normal 1 0 0
    outer loop
      vertex 0.75 45.895 -2
      vertex 0.75 36.02 3
      vertex 0.75 36.02 -2
    endloop
  endfacet
  facet normal -1 0 0
    outer loop
      vertex -0.75 36.02 -2
      vertex -0.75 45.895 3
      vertex -0.75 45.895 -2
    endloop
  endfacet
  facet normal -1 -0 0
    outer loop
      vertex -0.75 45.895 3
      vertex -0.75 36.02 -2
      vertex -0.75 36.02 3
    endloop
  endfacet
  facet normal 1 -0 0
    outer loop
      vertex 11.25 36.02 3
      vertex 11.25 45.895 -2
      vertex 11.25 45.895 3
    endloop
  endfacet
  facet normal 1 0 0
    outer loop
      vertex 11.25 45.895 -2
      vertex 11.25 36.02 3
      vertex 11.25 36.02 -2
    endloop
  endfacet
  facet normal -1 0 0
    outer loop
      vertex 9.75 36.02 -2
      vertex 9.75 45.895 3
      vertex 9.75 45.895 -2
    endloop
  endfacet
  facet normal -1 -0 0
    outer loop
      vertex 9.75 45.895 3
      vertex 9.75 36.02 -2
      vertex 9.75 36.02 3
    endloop
  endfacet
  facet normal 1 -0 0
    outer loop
      vertex 21.75 36.02 3
      vertex 21.75 45.895 -2
      vertex 21.75 45.895 3
    endloop
  endfacet
  facet normal 1 0 0
    outer loop
      vertex 21.75 45.895 -2
      vertex 21.75 36.02 3
      vertex 21.75 36.02 -2
    endloop
  endfacet
  facet normal -1 0 0
    outer loop
      vertex 20.25 36.02 -2
      vertex 20.25 45.895 3
      vertex 20.25 45.895 -2
    endloop
  endfacet
  facet normal -1 -0 0
    outer loop
      vertex 20.25 45.895 3
      vertex 20.25 36.02 -2
      vertex 20.25 36.02 3
    endloop
  endfacet
  facet normal 1 0 0
    outer loop
      vertex 25.4 33.02 0
      vertex 25.4 48.895 3
      vertex 25.4 33.02 3
    endloop
  endfacet
  facet normal 1 0 0
    outer loop
      vertex 25.4 48.895 3
      vertex 25.4 33.02 0
      vertex 25.4 48.895 -2
    endloop
  endfacet
  facet normal 1 0 0
    outer loop
      vertex 25.4 26.67 -2
      vertex 25.4 33.02 0
      vertex 25.4 26.67 0
    endloop
  endfacet
  facet normal 1 0 0
    outer loop
      vertex 25.4 33.02 0
      vertex 25.4 26.67 -2
      vertex 25.4 48.895 -2
    endloop
  endfacet
  facet normal 0 0 -1
    outer loop
      vertex 25.4 26.67 -2
      vertex 22.4 36.02 -2
      vertex 25.4 48.895 -2
    endloop
  endfacet
  facet normal 0 0 -1
    outer loop
      vertex 25.4 26.67 -2
      vertex 21.75 36.02 -2
      vertex 22.4 36.02 -2
    endloop
  endfacet
  facet normal 0 0 -1
    outer loop
      vertex 21.75 36.02 -2
      vertex 20.25 36.02 -2
      vertex 21.75 45.895 -2
    endloop
  endfacet
  facet normal 0 0 -1
    outer loop
      vertex 25.4 26.67 -2
      vertex 20.25 36.02 -2
      vertex 21.75 36.02 -2
    endloop
  endfacet
  facet normal 0 0 -1
    outer loop
      vertex 25.4 26.67 -2
      vertex 11.25 36.02 -2
      vertex 20.25 36.02 -2
    endloop
  endfacet
  facet normal 0 0 -1
    outer loop
      vertex 11.25 36.02 -2
      vertex 9.75 36.02 -2
      vertex 11.25 45.895 -2
    endloop
  endfacet
  facet normal 0 0 -1
    outer loop
      vertex 25.4 26.67 -2
      vertex 9.75 36.02 -2
      vertex 11.25 36.02 -2
    endloop
  endfacet
  facet normal 0 0 -1
    outer loop
      vertex 25.4 26.67 -2
      vertex 0.75 36.02 -2
      vertex 9.75 36.02 -2
    endloop
  endfacet
  facet normal 0 0 -1
    outer loop
      vertex 0.75 36.02 -2
      vertex -0.75 36.02 -2
      vertex 0.75 45.895 -2
    endloop
  endfacet
  facet normal 0 0 -1
    outer loop
      vertex 25.4 26.67 -2
      vertex -0.75 36.02 -2
      vertex 0.75 36.02 -2
    endloop
  endfacet
  facet normal 0 0 -1
    outer loop
      vertex -25.4 26.67 -2
      vertex -0.75 36.02 -2
      vertex 25.4 26.67 -2
    endloop
  endfacet
  facet normal 0 0 -1
    outer loop
      vertex -9.75 36.02 -2
      vertex -11.25 36.02 -2
      vertex -9.75 45.895 -2
    endloop
  endfacet
  facet normal -0 0 -1
    outer loop
      vertex -0.75 36.02 -2
      vertex -25.4 26.67 -2
      vertex -9.75 36.02 -2
    endloop
  endfacet
  facet normal -0 0 -1
    outer loop
      vertex -9.75 36.02 -2
      vertex -25.4 26.67 -2
      vertex -11.25 36.02 -2
    endloop
  endfacet
  facet normal 0 0 -1
    outer loop
      vertex -20.25 36.02 -2
      vertex -21.75 36.02 -2
      vertex -20.25 45.895 -2
    endloop
  endfacet
  facet normal -0 0 -1
    outer loop
      vertex -11.25 36.02 -2
      vertex -25.4 26.67 -2
      vertex -20.25 36.02 -2
    endloop
  endfacet
  facet normal -0 0 -1
    outer loop
      vertex -20.25 36.02 -2
      vertex -25.4 26.67 -2
      vertex -21.75 36.02 -2
    endloop
  endfacet
  facet normal 0 0 -1
    outer loop
      vertex -25.4 48.895 -2
      vertex -22.4 36.02 -2
      vertex -25.4 26.67 -2
    endloop
  endfacet
  facet normal -0 0 -1
    outer loop
      vertex -21.75 36.02 -2
      vertex -25.4 26.67 -2
      vertex -22.4 36.02 -2
    endloop
  endfacet
  facet normal 0 0 -1
    outer loop
      vertex 22.4 45.895 -2
      vertex 25.4 48.895 -2
      vertex 22.4 36.02 -2
    endloop
  endfacet
  facet normal 0 0 -1
    outer loop
      vertex 21.75 45.895 -2
      vertex 25.4 48.895 -2
      vertex 22.4 45.895 -2
    endloop
  endfacet
  facet normal 0 0 -1
    outer loop
      vertex 20.25 45.895 -2
      vertex 21.75 45.895 -2
      vertex 20.25 36.02 -2
    endloop
  endfacet
  facet normal 0 0 -1
    outer loop
      vertex 20.25 45.895 -2
      vertex 25.4 48.895 -2
      vertex 21.75 45.895 -2
    endloop
  endfacet
  facet normal 0 0 -1
    outer loop
      vertex 11.25 45.895 -2
      vertex 25.4 48.895 -2
      vertex 20.25 45.895 -2
    endloop
  endfacet
  facet normal 0 0 -1
    outer loop
      vertex 9.75 45.895 -2
      vertex 11.25 45.895 -2
      vertex 9.75 36.02 -2
    endloop
  endfacet
  facet normal 0 0 -1
    outer loop
      vertex 9.75 45.895 -2
      vertex 25.4 48.895 -2
      vertex 11.25 45.895 -2
    endloop
  endfacet
  facet normal 0 0 -1
    outer loop
      vertex 0.75 45.895 -2
      vertex 25.4 48.895 -2
      vertex 9.75 45.895 -2
    endloop
  endfacet
  facet normal 0 0 -1
    outer loop
      vertex -0.75 45.895 -2
      vertex 0.75 45.895 -2
      vertex -0.75 36.02 -2
    endloop
  endfacet
  facet normal 0 0 -1
    outer loop
      vertex -0.75 45.895 -2
      vertex 25.4 48.895 -2
      vertex 0.75 45.895 -2
    endloop
  endfacet
  facet normal 0 0 -1
    outer loop
      vertex -25.4 48.895 -2
      vertex -0.75 45.895 -2
      vertex -9.75 45.895 -2
    endloop
  endfacet
  facet normal 0 0 -1
    outer loop
      vertex -11.25 45.895 -2
      vertex -9.75 45.895 -2
      vertex -11.25 36.02 -2
    endloop
  endfacet
  facet normal 0 0 -1
    outer loop
      vertex -25.4 48.895 -2
      vertex -9.75 45.895 -2
      vertex -11.25 45.895 -2
    endloop
  endfacet
  facet normal 0 0 -1
    outer loop
      vertex -25.4 48.895 -2
      vertex -11.25 45.895 -2
      vertex -20.25 45.895 -2
    endloop
  endfacet
  facet normal 0 0 -1
    outer loop
      vertex -21.75 45.895 -2
      vertex -20.25 45.895 -2
      vertex -21.75 36.02 -2
    endloop
  endfacet
  facet normal 0 0 -1
    outer loop
      vertex -25.4 48.895 -2
      vertex -20.25 45.895 -2
      vertex -21.75 45.895 -2
    endloop
  endfacet
  facet normal 0 0 -1
    outer loop
      vertex -25.4 48.895 -2
      vertex -21.75 45.895 -2
      vertex -22.4 45.895 -2
    endloop
  endfacet
  facet normal 0 0 -1
    outer loop
      vertex -0.75 45.895 -2
      vertex -25.4 48.895 -2
      vertex 25.4 48.895 -2
    endloop
  endfacet
  facet normal 0 0 -1
    outer loop
      vertex -22.4 36.02 -2
      vertex -25.4 48.895 -2
      vertex -22.4 45.895 -2
    endloop
  endfacet
  facet normal -0 0 1
    outer loop
      vertex -25.4 33.02 0
      vertex 25.4 26.67 0
      vertex 25.4 33.02 0
    endloop
  endfacet
  facet normal 0 0 1
    outer loop
      vertex 25.4 26.67 0
      vertex -25.4 33.02 0
      vertex -25.4 26.67 0
    endloop
  endfacet
  facet normal -1 0 0
    outer loop
      vertex -25.4 48.895 -2
      vertex -25.4 33.02 0
      vertex -25.4 48.895 3
    endloop
  endfacet
  facet normal -1 0 0
    outer loop
      vertex -25.4 26.67 -2
      vertex -25.4 33.02 0
      vertex -25.4 48.895 -2
    endloop
  endfacet
  facet normal -1 -0 0
    outer loop
      vertex -25.4 33.02 0
      vertex -25.4 26.67 -2
      vertex -25.4 26.67 0
    endloop
  endfacet
  facet normal -1 -0 0
    outer loop
      vertex -25.4 48.895 3
      vertex -25.4 33.02 0
      vertex -25.4 33.02 3
    endloop
  endfacet
  facet normal 0 -1 0
    outer loop
      vertex -25.4 26.67 -2
      vertex 25.4 26.67 0
      vertex -25.4 26.67 0
    endloop
  endfacet
  facet normal 0 -1 -0
    outer loop
      vertex 25.4 26.67 0
      vertex -25.4 26.67 -2
      vertex 25.4 26.67 -2
    endloop
  endfacet
  facet normal 0 0 1
    outer loop
      vertex 25.4 48.895 3
      vertex 22.4 45.895 3
      vertex 25.4 33.02 3
    endloop
  endfacet
  facet normal 0 0 1
    outer loop
      vertex 25.4 48.895 3
      vertex 21.75 45.895 3
      vertex 22.4 45.895 3
    endloop
  endfacet
  facet normal 0 0 1
    outer loop
      vertex 21.75 45.895 3
      vertex 20.25 45.895 3
      vertex 21.75 36.02 3
    endloop
  endfacet
  facet normal 0 0 1
    outer loop
      vertex 25.4 48.895 3
      vertex 20.25 45.895 3
      vertex 21.75 45.895 3
    endloop
  endfacet
  facet normal 0 0 1
    outer loop
      vertex 25.4 48.895 3
      vertex 11.25 45.895 3
      vertex 20.25 45.895 3
    endloop
  endfacet
  facet normal 0 0 1
    outer loop
      vertex 11.25 45.895 3
      vertex 9.75 45.895 3
      vertex 11.25 36.02 3
    endloop
  endfacet
  facet normal 0 0 1
    outer loop
      vertex 25.4 48.895 3
      vertex 9.75 45.895 3
      vertex 11.25 45.895 3
    endloop
  endfacet
  facet normal 0 0 1
    outer loop
      vertex 25.4 48.895 3
      vertex 0.75 45.895 3
      vertex 9.75 45.895 3
    endloop
  endfacet
  facet normal 0 0 1
    outer loop
      vertex 0.75 45.895 3
      vertex -0.75 45.895 3
      vertex 0.75 36.02 3
    endloop
  endfacet
  facet normal 0 0 1
    outer loop
      vertex 25.4 48.895 3
      vertex -0.75 45.895 3
      vertex 0.75 45.895 3
    endloop
  endfacet
  facet normal -0 0 1
    outer loop
      vertex -25.4 48.895 3
      vertex -0.75 45.895 3
      vertex 25.4 48.895 3
    endloop
  endfacet
  facet normal 0 0 1
    outer loop
      vertex -9.75 45.895 3
      vertex -11.25 45.895 3
      vertex -9.75 36.02 3
    endloop
  endfacet
  facet normal 0 0 1
    outer loop
      vertex -0.75 45.895 3
      vertex -25.4 48.895 3
      vertex -9.75 45.895 3
    endloop
  endfacet
  facet normal 0 0 1
    outer loop
      vertex -9.75 45.895 3
      vertex -25.4 48.895 3
      vertex -11.25 45.895 3
    endloop
  endfacet
  facet normal 0 0 1
    outer loop
      vertex -20.25 45.895 3
      vertex -21.75 45.895 3
      vertex -20.25 36.02 3
    endloop
  endfacet
  facet normal 0 0 1
    outer loop
      vertex -11.25 45.895 3
      vertex -25.4 48.895 3
      vertex -20.25 45.895 3
    endloop
  endfacet
  facet normal 0 0 1
    outer loop
      vertex -20.25 45.895 3
      vertex -25.4 48.895 3
      vertex -21.75 45.895 3
    endloop
  endfacet
  facet normal 0 0 1
    outer loop
      vertex -22.4 45.895 3
      vertex -25.4 48.895 3
      vertex -22.4 36.02 3
    endloop
  endfacet
  facet normal 0 0 1
    outer loop
      vertex -21.75 45.895 3
      vertex -25.4 48.895 3
      vertex -22.4 45.895 3
    endloop
  endfacet
  facet normal -0 0 1
    outer loop
      vertex 22.4 36.02 3
      vertex 25.4 33.02 3
      vertex 22.4 45.895 3
    endloop
  endfacet
  facet normal -0 0 1
    outer loop
      vertex 21.75 36.02 3
      vertex 25.4 33.02 3
      vertex 22.4 36.02 3
    endloop
  endfacet
  facet normal 0 0 1
    outer loop
      vertex 20.25 36.02 3
      vertex 21.75 36.02 3
      vertex 20.25 45.895 3
    endloop
  endfacet
  facet normal -0 0 1
    outer loop
      vertex 20.25 36.02 3
      vertex 25.4 33.02 3
      vertex 21.75 36.02 3
    endloop
  endfacet
  facet normal -0 0 1
    outer loop
      vertex 11.25 36.02 3
      vertex 25.4 33.02 3
      vertex 20.25 36.02 3
    endloop
  endfacet
  facet normal 0 0 1
    outer loop
      vertex 9.75 36.02 3
      vertex 11.25 36.02 3
      vertex 9.75 45.895 3
    endloop
  endfacet
  facet normal -0 0 1
    outer loop
      vertex 9.75 36.02 3
      vertex 25.4 33.02 3
      vertex 11.25 36.02 3
    endloop
  endfacet
  facet normal -0 0 1
    outer loop
      vertex 0.75 36.02 3
      vertex 25.4 33.02 3
      vertex 9.75 36.02 3
    endloop
  endfacet
  facet normal 0 0 1
    outer loop
      vertex -0.75 36.02 3
      vertex 0.75 36.02 3
      vertex -0.75 45.895 3
    endloop
  endfacet
  facet normal -0 0 1
    outer loop
      vertex -0.75 36.02 3
      vertex 25.4 33.02 3
      vertex 0.75 36.02 3
    endloop
  endfacet
  facet normal 0 0 1
    outer loop
      vertex -25.4 33.02 3
      vertex -0.75 36.02 3
      vertex -9.75 36.02 3
    endloop
  endfacet
  facet normal 0 0 1
    outer loop
      vertex -11.25 36.02 3
      vertex -9.75 36.02 3
      vertex -11.25 45.895 3
    endloop
  endfacet
  facet normal 0 0 1
    outer loop
      vertex -25.4 33.02 3
      vertex -9.75 36.02 3
      vertex -11.25 36.02 3
    endloop
  endfacet
  facet normal 0 0 1
    outer loop
      vertex -25.4 33.02 3
      vertex -11.25 36.02 3
      vertex -20.25 36.02 3
    endloop
  endfacet
  facet normal 0 0 1
    outer loop
      vertex -21.75 36.02 3
      vertex -20.25 36.02 3
      vertex -21.75 45.895 3
    endloop
  endfacet
  facet normal 0 0 1
    outer loop
      vertex -25.4 33.02 3
      vertex -20.25 36.02 3
      vertex -21.75 36.02 3
    endloop
  endfacet
  facet normal 0 0 1
    outer loop
      vertex -25.4 33.02 3
      vertex -21.75 36.02 3
      vertex -22.4 36.02 3
    endloop
  endfacet
  facet normal 0 0 1
    outer loop
      vertex -0.75 36.02 3
      vertex -25.4 33.02 3
      vertex 25.4 33.02 3
    endloop
  endfacet
  facet normal 0 0 1
    outer loop
      vertex -25.4 33.02 3
      vertex -22.4 36.02 3
      vertex -25.4 48.895 3
    endloop
  endfacet
  facet normal 0 -1 0
    outer loop
      vertex -25.4 33.02 0
      vertex 25.4 33.02 3
      vertex -25.4 33.02 3
    endloop
  endfacet
  facet normal 0 -1 -0
    outer loop
      vertex 25.4 33.02 3
      vertex -25.4 33.02 0
      vertex 25.4 33.02 0
    endloop
  endfacet
  facet normal -1 0 0
    outer loop
      vertex 22.4 36.02 -2
      vertex 22.4 45.895 3
      vertex 22.4 45.895 -2
    endloop
  endfacet
  facet normal -1 -0 0
    outer loop
      vertex 22.4 45.895 3
      vertex 22.4 36.02 -2
      vertex 22.4 36.02 3
    endloop
  endfacet
  facet normal 1 -0 0
    outer loop
      vertex -22.4 36.02 3
      vertex -22.4 45.895 -2
      vertex -22.4 45.895 3
    endloop
  endfacet
  facet normal 1 0 0
    outer loop
      vertex -22.4 45.895 -2
      vertex -22.4 36.02 3
      vertex -22.4 36.02 -2
    endloop
  endfacet
  facet normal 0 1 -0
    outer loop
      vertex -21.75 36.02 -2
      vertex -22.4 36.02 3
      vertex -21.75 36.02 3
    endloop
  endfacet
  facet normal 0 1 0
    outer loop
      vertex -22.4 36.02 3
      vertex -21.75 36.02 -2
      vertex -22.4 36.02 -2
    endloop
  endfacet
  facet normal 0 1 -0
    outer loop
      vertex -11.25 36.02 -2
      vertex -20.25 36.02 3
      vertex -11.25 36.02 3
    endloop
  endfacet
  facet normal 0 1 0
    outer loop
      vertex -20.25 36.02 3
      vertex -11.25 36.02 -2
      vertex -20.25 36.02 -2
    endloop
  endfacet
  facet normal 0 1 -0
    outer loop
      vertex -0.75 36.02 -2
      vertex -9.75 36.02 3
      vertex -0.75 36.02 3
    endloop
  endfacet
  facet normal 0 1 0
    outer loop
      vertex -9.75 36.02 3
      vertex -0.75 36.02 -2
      vertex -9.75 36.02 -2
    endloop
  endfacet
  facet normal 0 1 -0
    outer loop
      vertex 9.75 36.02 -2
      vertex 0.75 36.02 3
      vertex 9.75 36.02 3
    endloop
  endfacet
  facet normal 0 1 0
    outer loop
      vertex 0.75 36.02 3
      vertex 9.75 36.02 -2
      vertex 0.75 36.02 -2
    endloop
  endfacet
  facet normal 0 1 -0
    outer loop
      vertex 20.25 36.02 -2
      vertex 11.25 36.02 3
      vertex 20.25 36.02 3
    endloop
  endfacet
  facet normal 0 1 0
    outer loop
      vertex 11.25 36.02 3
      vertex 20.25 36.02 -2
      vertex 11.25 36.02 -2
    endloop
  endfacet
  facet normal 0 1 -0
    outer loop
      vertex 22.4 36.02 -2
      vertex 21.75 36.02 3
      vertex 22.4 36.02 3
    endloop
  endfacet
  facet normal 0 1 0
    outer loop
      vertex 21.75 36.02 3
      vertex 22.4 36.02 -2
      vertex 21.75 36.02 -2
    endloop
  endfacet
  facet normal 0 -1 0
    outer loop
      vertex -22.4 45.895 -2
      vertex -21.75 45.895 3
      vertex -22.4 45.895 3
    endloop
  endfacet
  facet normal 0 -1 -0
    outer loop
      vertex -21.75 45.895 3
      vertex -22.4 45.895 -2
      vertex -21.75 45.895 -2
    endloop
  endfacet
  facet normal 0 -1 0
    outer loop
      vertex -20.25 45.895 -2
      vertex -11.25 45.895 3
      vertex -20.25 45.895 3
    endloop
  endfacet
  facet normal 0 -1 -0
    outer loop
      vertex -11.25 45.895 3
      vertex -20.25 45.895 -2
      vertex -11.25 45.895 -2
    endloop
  endfacet
  facet normal 0 -1 0
    outer loop
      vertex -9.75 45.895 -2
      vertex -0.75 45.895 3
      vertex -9.75 45.895 3
    endloop
  endfacet
  facet normal 0 -1 -0
    outer loop
      vertex -0.75 45.895 3
      vertex -9.75 45.895 -2
      vertex -0.75 45.895 -2
    endloop
  endfacet
  facet normal 0 -1 0
    outer loop
      vertex 0.75 45.895 -2
      vertex 9.75 45.895 3
      vertex 0.75 45.895 3
    endloop
  endfacet
  facet normal 0 -1 -0
    outer loop
      vertex 9.75 45.895 3
      vertex 0.75 45.895 -2
      vertex 9.75 45.895 -2
    endloop
  endfacet
  facet normal 0 -1 0
    outer loop
      vertex 11.25 45.895 -2
      vertex 20.25 45.895 3
      vertex 11.25 45.895 3
    endloop
  endfacet
  facet normal 0 -1 -0
    outer loop
      vertex 20.25 45.895 3
      vertex 11.25 45.895 -2
      vertex 20.25 45.895 -2
    endloop
  endfacet
  facet normal 0 -1 0
    outer loop
      vertex 21.75 45.895 -2
      vertex 22.4 45.895 3
      vertex 21.75 45.895 3
    endloop
  endfacet
  facet normal 0 -1 -0
    outer loop
      vertex 22.4 45.895 3
      vertex 21.75 45.895 -2
      vertex 22.4 45.895 -2
    endloop
  endfacet
  facet normal 0 1 -0
    outer loop
      vertex 25.4 48.895 -2
      vertex -25.4 48.895 3
      vertex 25.4 48.895 3
    endloop
  endfacet
  facet normal 0 1 0
    outer loop
      vertex -25.4 48.895 3
      vertex 25.4 48.895 -2
      vertex -25.4 48.895 -2
    endloop
  endfacet
endsolid OpenSCAD_Model
