solid OpenSCAD_Model
  facet normal 0 0 -1
    outer loop
      vertex -23.7 -3.25 0
      vertex 0.75 -3.25 0
      vertex 0.75 -4.75 0
    endloop
  endfacet
  facet normal 0 0 -1
    outer loop
      vertex -142.35 -0.75 0
      vertex -120.85 0.75 0
      vertex -96 -0.75 0
    endloop
  endfacet
  facet normal 0 0 -1
    outer loop
      vertex -23.7 0.75 0
      vertex -45.2 -0.75 0
      vertex -94.5 -0.75 0
    endloop
  endfacet
  facet normal -0 0 -1
    outer loop
      vertex -45.2 -3.25 0
      vertex -51.55 -4.75 0
      vertex -51.55 -3.25 0
    endloop
  endfacet
  facet normal -0 -0 -1
    outer loop
      vertex -23.7 -3.25 0
      vertex 0.75 -4.75 0
      vertex -25.2 -3.25 0
    endloop
  endfacet
  facet normal 0 0 -1
    outer loop
      vertex -45.2 -0.75 0
      vertex -43.7 -3.25 0
      vertex -45.2 -3.25 0
    endloop
  endfacet
  facet normal 0 0 -1
    outer loop
      vertex 0.75 -4.75 0
      vertex -51.55 -4.75 0
      vertex -25.2 -3.25 0
    endloop
  endfacet
  facet normal 0 0 -1
    outer loop
      vertex -45.2 -0.75 0
      vertex -23.7 0.75 0
      vertex -43.7 -0.75 0
    endloop
  endfacet
  facet normal 0 0 -1
    outer loop
      vertex -94.5 -0.75 0
      vertex -120.85 0.75 0
      vertex -23.7 0.75 0
    endloop
  endfacet
  facet normal 0 0 -1
    outer loop
      vertex -102.35 -4.75 0
      vertex -102.35 -3.25 0
      vertex -96 -3.25 0
    endloop
  endfacet
  facet normal 0 0 -1
    outer loop
      vertex -140.85 3.25 0
      vertex -142.35 4.75 0
      vertex -122.35 3.25 0
    endloop
  endfacet
  facet normal -0 0 -1
    outer loop
      vertex -120.85 0.75 0
      vertex -142.35 -0.75 0
      vertex -122.35 0.75 0
    endloop
  endfacet
  facet normal 0 0 -1
    outer loop
      vertex -96 -3.25 0
      vertex -96 -0.75 0
      vertex -94.5 -0.75 0
    endloop
  endfacet
  facet normal 0 0 -1
    outer loop
      vertex -96 -0.75 0
      vertex -120.85 0.75 0
      vertex -94.5 -0.75 0
    endloop
  endfacet
  facet normal 0 0 -1
    outer loop
      vertex -94.5 -4.75 0
      vertex -96 -3.25 0
      vertex -94.5 -0.75 0
    endloop
  endfacet
  facet normal 0 0 -1
    outer loop
      vertex -94.5 -4.75 0
      vertex -102.35 -4.75 0
      vertex -96 -3.25 0
    endloop
  endfacet
  facet normal 0 0 -1
    outer loop
      vertex -120.85 0.75 0
      vertex -122.35 3.25 0
      vertex -120.85 4.75 0
    endloop
  endfacet
  facet normal -0 0 -1
    outer loop
      vertex -122.35 0.75 0
      vertex -142.35 -0.75 0
      vertex -140.85 0.75 0
    endloop
  endfacet
  facet normal -0 0 -1
    outer loop
      vertex -140.85 0.75 0
      vertex -142.35 -0.75 0
      vertex -142.35 4.75 0
    endloop
  endfacet
  facet normal -0 -0 -1
    outer loop
      vertex -140.85 3.25 0
      vertex -140.85 0.75 0
      vertex -142.35 4.75 0
    endloop
  endfacet
  facet normal 0 0 -1
    outer loop
      vertex -122.35 0.75 0
      vertex -122.35 3.25 0
      vertex -120.85 0.75 0
    endloop
  endfacet
  facet normal 0 0 -1
    outer loop
      vertex -122.35 3.25 0
      vertex -142.35 4.75 0
      vertex -120.85 4.75 0
    endloop
  endfacet
  facet normal 0 0 -1
    outer loop
      vertex -23.7 -3.25 0
      vertex -25.2 -0.75 0
      vertex -23.7 0.75 0
    endloop
  endfacet
  facet normal -0 0 -1
    outer loop
      vertex -25.2 -3.25 0
      vertex -51.55 -4.75 0
      vertex -43.7 -3.25 0
    endloop
  endfacet
  facet normal -0 0 -1
    outer loop
      vertex -43.7 -3.25 0
      vertex -51.55 -4.75 0
      vertex -45.2 -3.25 0
    endloop
  endfacet
  facet normal 0 0 -1
    outer loop
      vertex -45.2 -0.75 0
      vertex -43.7 -0.75 0
      vertex -43.7 -3.25 0
    endloop
  endfacet
  facet normal 0 0 -1
    outer loop
      vertex -25.2 -3.25 0
      vertex -25.2 -0.75 0
      vertex -23.7 -3.25 0
    endloop
  endfacet
  facet normal 0 0 -1
    outer loop
      vertex -25.2 -0.75 0
      vertex -43.7 -0.75 0
      vertex -23.7 0.75 0
    endloop
  endfacet
  facet normal 0 -0 1
    outer loop
      vertex 0.75 -4.75 20
      vertex 0.75 -3.25 20
      vertex -23.7 -3.25 20
    endloop
  endfacet
  facet normal 0 0 1
    outer loop
      vertex -96 -0.75 20
      vertex -120.85 0.75 20
      vertex -142.35 -0.75 20
    endloop
  endfacet
  facet normal 0 0 1
    outer loop
      vertex -94.5 -0.75 20
      vertex -45.2 -0.75 20
      vertex -23.7 0.75 20
    endloop
  endfacet
  facet normal -0 0 1
    outer loop
      vertex -51.55 -3.25 20
      vertex -51.55 -4.75 20
      vertex -45.2 -3.25 20
    endloop
  endfacet
  facet normal -0 0 1
    outer loop
      vertex -25.2 -3.25 20
      vertex 0.75 -4.75 20
      vertex -23.7 -3.25 20
    endloop
  endfacet
  facet normal 0 0 1
    outer loop
      vertex -45.2 -3.25 20
      vertex -43.7 -3.25 20
      vertex -45.2 -0.75 20
    endloop
  endfacet
  facet normal 0 0 1
    outer loop
      vertex -25.2 -3.25 20
      vertex -51.55 -4.75 20
      vertex 0.75 -4.75 20
    endloop
  endfacet
  facet normal 0 -0 1
    outer loop
      vertex -43.7 -0.75 20
      vertex -23.7 0.75 20
      vertex -45.2 -0.75 20
    endloop
  endfacet
  facet normal 0 0 1
    outer loop
      vertex -23.7 0.75 20
      vertex -120.85 0.75 20
      vertex -94.5 -0.75 20
    endloop
  endfacet
  facet normal 0 0 1
    outer loop
      vertex -96 -3.25 20
      vertex -102.35 -3.25 20
      vertex -102.35 -4.75 20
    endloop
  endfacet
  facet normal 0 0 1
    outer loop
      vertex -122.35 3.25 20
      vertex -142.35 4.75 20
      vertex -140.85 3.25 20
    endloop
  endfacet
  facet normal -0 0 1
    outer loop
      vertex -122.35 0.75 20
      vertex -142.35 -0.75 20
      vertex -120.85 0.75 20
    endloop
  endfacet
  facet normal 0 0 1
    outer loop
      vertex -94.5 -0.75 20
      vertex -96 -0.75 20
      vertex -96 -3.25 20
    endloop
  endfacet
  facet normal 0 0 1
    outer loop
      vertex -94.5 -0.75 20
      vertex -120.85 0.75 20
      vertex -96 -0.75 20
    endloop
  endfacet
  facet normal 0 0 1
    outer loop
      vertex -94.5 -0.75 20
      vertex -96 -3.25 20
      vertex -94.5 -4.75 20
    endloop
  endfacet
  facet normal 0 0 1
    outer loop
      vertex -96 -3.25 20
      vertex -102.35 -4.75 20
      vertex -94.5 -4.75 20
    endloop
  endfacet
  facet normal 0 0 1
    outer loop
      vertex -120.85 4.75 20
      vertex -122.35 3.25 20
      vertex -120.85 0.75 20
    endloop
  endfacet
  facet normal -0 0 1
    outer loop
      vertex -140.85 0.75 20
      vertex -142.35 -0.75 20
      vertex -122.35 0.75 20
    endloop
  endfacet
  facet normal 0 0 1
    outer loop
      vertex -142.35 4.75 20
      vertex -142.35 -0.75 20
      vertex -140.85 0.75 20
    endloop
  endfacet
  facet normal 0 0 1
    outer loop
      vertex -142.35 4.75 20
      vertex -140.85 0.75 20
      vertex -140.85 3.25 20
    endloop
  endfacet
  facet normal 0 0 1
    outer loop
      vertex -120.85 0.75 20
      vertex -122.35 3.25 20
      vertex -122.35 0.75 20
    endloop
  endfacet
  facet normal 0 0 1
    outer loop
      vertex -120.85 4.75 20
      vertex -142.35 4.75 20
      vertex -122.35 3.25 20
    endloop
  endfacet
  facet normal 0 0 1
    outer loop
      vertex -23.7 0.75 20
      vertex -25.2 -0.75 20
      vertex -23.7 -3.25 20
    endloop
  endfacet
  facet normal -0 0 1
    outer loop
      vertex -43.7 -3.25 20
      vertex -51.55 -4.75 20
      vertex -25.2 -3.25 20
    endloop
  endfacet
  facet normal -0 0 1
    outer loop
      vertex -45.2 -3.25 20
      vertex -51.55 -4.75 20
      vertex -43.7 -3.25 20
    endloop
  endfacet
  facet normal 0 -0 1
    outer loop
      vertex -43.7 -3.25 20
      vertex -43.7 -0.75 20
      vertex -45.2 -0.75 20
    endloop
  endfacet
  facet normal 0 0 1
    outer loop
      vertex -23.7 -3.25 20
      vertex -25.2 -0.75 20
      vertex -25.2 -3.25 20
    endloop
  endfacet
  facet normal 0 0 1
    outer loop
      vertex -23.7 0.75 20
      vertex -43.7 -0.75 20
      vertex -25.2 -0.75 20
    endloop
  endfacet
  facet normal -1 0 0
    outer loop
      vertex -45.2 -3.25 0
      vertex -45.2 -0.75 20
      vertex -45.2 -0.75 0
    endloop
  endfacet
  facet normal -1 0 0
    outer loop
      vertex -45.2 -3.25 0
      vertex -45.2 -3.25 20
      vertex -45.2 -0.75 20
    endloop
  endfacet
  facet normal 0 1 0
    outer loop
      vertex -51.55 -3.25 0
      vertex -45.2 -3.25 20
      vertex -45.2 -3.25 0
    endloop
  endfacet
  facet normal 0 1 0
    outer loop
      vertex -51.55 -3.25 0
      vertex -51.55 -3.25 20
      vertex -45.2 -3.25 20
    endloop
  endfacet
  facet normal -1 0 0
    outer loop
      vertex -51.55 -4.75 0
      vertex -51.55 -3.25 20
      vertex -51.55 -3.25 0
    endloop
  endfacet
  facet normal -1 0 0
    outer loop
      vertex -51.55 -4.75 0
      vertex -51.55 -4.75 20
      vertex -51.55 -3.25 20
    endloop
  endfacet
  facet normal 0 -1 0
    outer loop
      vertex 0.75 -4.75 0
      vertex -51.55 -4.75 20
      vertex -51.55 -4.75 0
    endloop
  endfacet
  facet normal 0 -1 0
    outer loop
      vertex 0.75 -4.75 0
      vertex 0.75 -4.75 20
      vertex -51.55 -4.75 20
    endloop
  endfacet
  facet normal 1 0 0
    outer loop
      vertex 0.75 -3.25 0
      vertex 0.75 -4.75 20
      vertex 0.75 -4.75 0
    endloop
  endfacet
  facet normal 1 0 -0
    outer loop
      vertex 0.75 -3.25 0
      vertex 0.75 -3.25 20
      vertex 0.75 -4.75 20
    endloop
  endfacet
  facet normal 0 1 0
    outer loop
      vertex -23.7 -3.25 0
      vertex 0.75 -3.25 20
      vertex 0.75 -3.25 0
    endloop
  endfacet
  facet normal 0 1 0
    outer loop
      vertex -23.7 -3.25 0
      vertex -23.7 -3.25 20
      vertex 0.75 -3.25 20
    endloop
  endfacet
  facet normal 1 0 0
    outer loop
      vertex -23.7 0.75 0
      vertex -23.7 -3.25 20
      vertex -23.7 -3.25 0
    endloop
  endfacet
  facet normal 1 0 -0
    outer loop
      vertex -23.7 0.75 0
      vertex -23.7 0.75 20
      vertex -23.7 -3.25 20
    endloop
  endfacet
  facet normal 0 1 0
    outer loop
      vertex -120.85 0.75 0
      vertex -23.7 0.75 20
      vertex -23.7 0.75 0
    endloop
  endfacet
  facet normal 0 1 0
    outer loop
      vertex -120.85 0.75 0
      vertex -120.85 0.75 20
      vertex -23.7 0.75 20
    endloop
  endfacet
  facet normal 1 0 0
    outer loop
      vertex -120.85 4.75 0
      vertex -120.85 0.75 20
      vertex -120.85 0.75 0
    endloop
  endfacet
  facet normal 1 0 -0
    outer loop
      vertex -120.85 4.75 0
      vertex -120.85 4.75 20
      vertex -120.85 0.75 20
    endloop
  endfacet
  facet normal 0 1 0
    outer loop
      vertex -142.35 4.75 0
      vertex -120.85 4.75 20
      vertex -120.85 4.75 0
    endloop
  endfacet
  facet normal 0 1 0
    outer loop
      vertex -142.35 4.75 0
      vertex -142.35 4.75 20
      vertex -120.85 4.75 20
    endloop
  endfacet
  facet normal -1 0 0
    outer loop
      vertex -142.35 -0.75 0
      vertex -142.35 4.75 20
      vertex -142.35 4.75 0
    endloop
  endfacet
  facet normal -1 0 0
    outer loop
      vertex -142.35 -0.75 0
      vertex -142.35 -0.75 20
      vertex -142.35 4.75 20
    endloop
  endfacet
  facet normal 0 -1 0
    outer loop
      vertex -96 -0.75 0
      vertex -142.35 -0.75 20
      vertex -142.35 -0.75 0
    endloop
  endfacet
  facet normal 0 -1 0
    outer loop
      vertex -96 -0.75 0
      vertex -96 -0.75 20
      vertex -142.35 -0.75 20
    endloop
  endfacet
  facet normal -1 0 0
    outer loop
      vertex -96 -3.25 0
      vertex -96 -0.75 20
      vertex -96 -0.75 0
    endloop
  endfacet
  facet normal -1 0 0
    outer loop
      vertex -96 -3.25 0
      vertex -96 -3.25 20
      vertex -96 -0.75 20
    endloop
  endfacet
  facet normal 0 1 0
    outer loop
      vertex -102.35 -3.25 0
      vertex -96 -3.25 20
      vertex -96 -3.25 0
    endloop
  endfacet
  facet normal 0 1 0
    outer loop
      vertex -102.35 -3.25 0
      vertex -102.35 -3.25 20
      vertex -96 -3.25 20
    endloop
  endfacet
  facet normal -1 0 0
    outer loop
      vertex -102.35 -4.75 0
      vertex -102.35 -3.25 20
      vertex -102.35 -3.25 0
    endloop
  endfacet
  facet normal -1 0 0
    outer loop
      vertex -102.35 -4.75 0
      vertex -102.35 -4.75 20
      vertex -102.35 -3.25 20
    endloop
  endfacet
  facet normal 0 -1 0
    outer loop
      vertex -94.5 -4.75 0
      vertex -102.35 -4.75 20
      vertex -102.35 -4.75 0
    endloop
  endfacet
  facet normal 0 -1 0
    outer loop
      vertex -94.5 -4.75 0
      vertex -94.5 -4.75 20
      vertex -102.35 -4.75 20
    endloop
  endfacet
  facet normal 1 0 0
    outer loop
      vertex -94.5 -0.75 0
      vertex -94.5 -4.75 20
      vertex -94.5 -4.75 0
    endloop
  endfacet
  facet normal 1 0 -0
    outer loop
      vertex -94.5 -0.75 0
      vertex -94.5 -0.75 20
      vertex -94.5 -4.75 20
    endloop
  endfacet
  facet normal 0 -1 0
    outer loop
      vertex -45.2 -0.75 0
      vertex -94.5 -0.75 20
      vertex -94.5 -0.75 0
    endloop
  endfacet
  facet normal 0 -1 0
    outer loop
      vertex -45.2 -0.75 0
      vertex -45.2 -0.75 20
      vertex -94.5 -0.75 20
    endloop
  endfacet
  facet normal 1 0 -0
    outer loop
      vertex -140.85 3.25 0
      vertex -140.85 3.25 20
      vertex -140.85 0.75 0
    endloop
  endfacet
  facet normal 1 -0 0
    outer loop
      vertex -140.85 0.75 20
      vertex -140.85 0.75 0
      vertex -140.85 3.25 20
    endloop
  endfacet
  facet normal 0 -1 0
    outer loop
      vertex -122.35 3.25 0
      vertex -122.35 3.25 20
      vertex -140.85 3.25 0
    endloop
  endfacet
  facet normal 0 -1 0
    outer loop
      vertex -140.85 3.25 20
      vertex -140.85 3.25 0
      vertex -122.35 3.25 20
    endloop
  endfacet
  facet normal -1 0 0
    outer loop
      vertex -122.35 0.75 0
      vertex -122.35 0.75 20
      vertex -122.35 3.25 0
    endloop
  endfacet
  facet normal -1 -0 -0
    outer loop
      vertex -122.35 3.25 20
      vertex -122.35 3.25 0
      vertex -122.35 0.75 20
    endloop
  endfacet
  facet normal 0 1 0
    outer loop
      vertex -140.85 0.75 0
      vertex -140.85 0.75 20
      vertex -122.35 0.75 0
    endloop
  endfacet
  facet normal 0 1 0
    outer loop
      vertex -122.35 0.75 20
      vertex -122.35 0.75 0
      vertex -140.85 0.75 20
    endloop
  endfacet
  facet normal 1 0 -0
    outer loop
      vertex -43.7 -0.75 0
      vertex -43.7 -0.75 20
      vertex -43.7 -3.25 0
    endloop
  endfacet
  facet normal 1 -0 0
    outer loop
      vertex -43.7 -3.25 20
      vertex -43.7 -3.25 0
      vertex -43.7 -0.75 20
    endloop
  endfacet
  facet normal 0 -1 0
    outer loop
      vertex -25.2 -0.75 0
      vertex -25.2 -0.75 20
      vertex -43.7 -0.75 0
    endloop
  endfacet
  facet normal 0 -1 0
    outer loop
      vertex -43.7 -0.75 20
      vertex -43.7 -0.75 0
      vertex -25.2 -0.75 20
    endloop
  endfacet
  facet normal -1 0 0
    outer loop
      vertex -25.2 -3.25 0
      vertex -25.2 -3.25 20
      vertex -25.2 -0.75 0
    endloop
  endfacet
  facet normal -1 -0 -0
    outer loop
      vertex -25.2 -0.75 20
      vertex -25.2 -0.75 0
      vertex -25.2 -3.25 20
    endloop
  endfacet
  facet normal 0 1 0
    outer loop
      vertex -43.7 -3.25 0
      vertex -43.7 -3.25 20
      vertex -25.2 -3.25 0
    endloop
  endfacet
  facet normal 0 1 0
    outer loop
      vertex -25.2 -3.25 20
      vertex -25.2 -3.25 0
      vertex -43.7 -3.25 20
    endloop
  endfacet
endsolid OpenSCAD_Model
