solid OpenSCAD_Model
  facet normal 1 -0 0
    outer loop
      vertex -20.25 -12.875 2
      vertex -20.25 12.875 -3
      vertex -20.25 12.875 2
    endloop
  endfacet
  facet normal 1 0 0
    outer loop
      vertex -20.25 12.875 -3
      vertex -20.25 -12.875 2
      vertex -20.25 -12.875 -3
    endloop
  endfacet
  facet normal -1 0 0
    outer loop
      vertex -21.75 -12.875 -3
      vertex -21.75 12.875 2
      vertex -21.75 12.875 -3
    endloop
  endfacet
  facet normal -1 -0 0
    outer loop
      vertex -21.75 12.875 2
      vertex -21.75 -12.875 -3
      vertex -21.75 -12.875 2
    endloop
  endfacet
  facet normal 1 -0 0
    outer loop
      vertex -9.75 -12.875 2
      vertex -9.75 12.875 -3
      vertex -9.75 12.875 2
    endloop
  endfacet
  facet normal 1 0 0
    outer loop
      vertex -9.75 12.875 -3
      vertex -9.75 -12.875 2
      vertex -9.75 -12.875 -3
    endloop
  endfacet
  facet normal -1 0 0
    outer loop
      vertex -11.25 -12.875 -3
      vertex -11.25 12.875 2
      vertex -11.25 12.875 -3
    endloop
  endfacet
  facet normal -1 -0 0
    outer loop
      vertex -11.25 12.875 2
      vertex -11.25 -12.875 -3
      vertex -11.25 -12.875 2
    endloop
  endfacet
  facet normal 1 -0 0
    outer loop
      vertex 0.75 -12.875 2
      vertex 0.75 12.875 -3
      vertex 0.75 12.875 2
    endloop
  endfacet
  facet normal 1 0 0
    outer loop
      vertex 0.75 12.875 -3
      vertex 0.75 -12.875 2
      vertex 0.75 -12.875 -3
    endloop
  endfacet
  facet normal -1 0 0
    outer loop
      vertex -0.75 -12.875 -3
      vertex -0.75 12.875 2
      vertex -0.75 12.875 -3
    endloop
  endfacet
  facet normal -1 -0 0
    outer loop
      vertex -0.75 12.875 2
      vertex -0.75 -12.875 -3
      vertex -0.75 -12.875 2
    endloop
  endfacet
  facet normal 1 -0 0
    outer loop
      vertex 11.25 -12.875 2
      vertex 11.25 12.875 -3
      vertex 11.25 12.875 2
    endloop
  endfacet
  facet normal 1 0 0
    outer loop
      vertex 11.25 12.875 -3
      vertex 11.25 -12.875 2
      vertex 11.25 -12.875 -3
    endloop
  endfacet
  facet normal -1 0 0
    outer loop
      vertex 9.75 -12.875 -3
      vertex 9.75 12.875 2
      vertex 9.75 12.875 -3
    endloop
  endfacet
  facet normal -1 -0 0
    outer loop
      vertex 9.75 12.875 2
      vertex 9.75 -12.875 -3
      vertex 9.75 -12.875 2
    endloop
  endfacet
  facet normal 1 -0 0
    outer loop
      vertex 21.75 -12.875 2
      vertex 21.75 12.875 -3
      vertex 21.75 12.875 2
    endloop
  endfacet
  facet normal 1 0 0
    outer loop
      vertex 21.75 12.875 -3
      vertex 21.75 -12.875 2
      vertex 21.75 -12.875 -3
    endloop
  endfacet
  facet normal -1 0 0
    outer loop
      vertex 20.25 -12.875 -3
      vertex 20.25 12.875 2
      vertex 20.25 12.875 -3
    endloop
  endfacet
  facet normal -1 -0 0
    outer loop
      vertex 20.25 12.875 2
      vertex 20.25 -12.875 -3
      vertex 20.25 -12.875 2
    endloop
  endfacet
  facet normal 1 0 0
    outer loop
      vertex 25.4 22.225 2
      vertex 25.4 15.875 0
      vertex 25.4 22.225 0
    endloop
  endfacet
  facet normal 1 0 0
    outer loop
      vertex 25.4 15.875 0
      vertex 25.4 -15.875 0
      vertex 25.4 15.875 -3
    endloop
  endfacet
  facet normal 1 0 0
    outer loop
      vertex 25.4 22.225 2
      vertex 25.4 -15.875 0
      vertex 25.4 15.875 0
    endloop
  endfacet
  facet normal 1 -0 0
    outer loop
      vertex 25.4 -22.225 2
      vertex 25.4 -15.875 0
      vertex 25.4 22.225 2
    endloop
  endfacet
  facet normal 1 0 0
    outer loop
      vertex 25.4 -15.875 0
      vertex 25.4 -22.225 2
      vertex 25.4 -22.225 0
    endloop
  endfacet
  facet normal 1 0 0
    outer loop
      vertex 25.4 15.875 -3
      vertex 25.4 -15.875 0
      vertex 25.4 -15.875 -3
    endloop
  endfacet
  facet normal 0 0 1
    outer loop
      vertex 25.4 22.225 2
      vertex 22.4 12.875 2
      vertex 25.4 -22.225 2
    endloop
  endfacet
  facet normal 0 0 1
    outer loop
      vertex 25.4 22.225 2
      vertex 21.75 12.875 2
      vertex 22.4 12.875 2
    endloop
  endfacet
  facet normal 0 0 1
    outer loop
      vertex 21.75 12.875 2
      vertex 20.25 12.875 2
      vertex 21.75 -12.875 2
    endloop
  endfacet
  facet normal 0 0 1
    outer loop
      vertex 25.4 22.225 2
      vertex 20.25 12.875 2
      vertex 21.75 12.875 2
    endloop
  endfacet
  facet normal 0 0 1
    outer loop
      vertex 25.4 22.225 2
      vertex 11.25 12.875 2
      vertex 20.25 12.875 2
    endloop
  endfacet
  facet normal 0 0 1
    outer loop
      vertex 11.25 12.875 2
      vertex 9.75 12.875 2
      vertex 11.25 -12.875 2
    endloop
  endfacet
  facet normal 0 0 1
    outer loop
      vertex 25.4 22.225 2
      vertex 9.75 12.875 2
      vertex 11.25 12.875 2
    endloop
  endfacet
  facet normal 0 0 1
    outer loop
      vertex 25.4 22.225 2
      vertex 0.75 12.875 2
      vertex 9.75 12.875 2
    endloop
  endfacet
  facet normal 0 0 1
    outer loop
      vertex 0.75 12.875 2
      vertex -0.75 12.875 2
      vertex 0.75 -12.875 2
    endloop
  endfacet
  facet normal 0 0 1
    outer loop
      vertex 25.4 22.225 2
      vertex -0.75 12.875 2
      vertex 0.75 12.875 2
    endloop
  endfacet
  facet normal -0 0 1
    outer loop
      vertex -25.4 22.225 2
      vertex -0.75 12.875 2
      vertex 25.4 22.225 2
    endloop
  endfacet
  facet normal 0 0 1
    outer loop
      vertex -9.75 12.875 2
      vertex -11.25 12.875 2
      vertex -9.75 -12.875 2
    endloop
  endfacet
  facet normal 0 0 1
    outer loop
      vertex -0.75 12.875 2
      vertex -25.4 22.225 2
      vertex -9.75 12.875 2
    endloop
  endfacet
  facet normal 0 0 1
    outer loop
      vertex -9.75 12.875 2
      vertex -25.4 22.225 2
      vertex -11.25 12.875 2
    endloop
  endfacet
  facet normal 0 0 1
    outer loop
      vertex -20.25 12.875 2
      vertex -21.75 12.875 2
      vertex -20.25 -12.875 2
    endloop
  endfacet
  facet normal 0 0 1
    outer loop
      vertex -11.25 12.875 2
      vertex -25.4 22.225 2
      vertex -20.25 12.875 2
    endloop
  endfacet
  facet normal 0 0 1
    outer loop
      vertex -20.25 12.875 2
      vertex -25.4 22.225 2
      vertex -21.75 12.875 2
    endloop
  endfacet
  facet normal 0 0 1
    outer loop
      vertex -22.4 12.875 2
      vertex -25.4 22.225 2
      vertex -22.4 -12.875 2
    endloop
  endfacet
  facet normal 0 0 1
    outer loop
      vertex -21.75 12.875 2
      vertex -25.4 22.225 2
      vertex -22.4 12.875 2
    endloop
  endfacet
  facet normal -0 0 1
    outer loop
      vertex 22.4 -12.875 2
      vertex 25.4 -22.225 2
      vertex 22.4 12.875 2
    endloop
  endfacet
  facet normal -0 0 1
    outer loop
      vertex 21.75 -12.875 2
      vertex 25.4 -22.225 2
      vertex 22.4 -12.875 2
    endloop
  endfacet
  facet normal 0 0 1
    outer loop
      vertex 20.25 -12.875 2
      vertex 21.75 -12.875 2
      vertex 20.25 12.875 2
    endloop
  endfacet
  facet normal -0 0 1
    outer loop
      vertex 20.25 -12.875 2
      vertex 25.4 -22.225 2
      vertex 21.75 -12.875 2
    endloop
  endfacet
  facet normal -0 0 1
    outer loop
      vertex 11.25 -12.875 2
      vertex 25.4 -22.225 2
      vertex 20.25 -12.875 2
    endloop
  endfacet
  facet normal 0 0 1
    outer loop
      vertex 9.75 -12.875 2
      vertex 11.25 -12.875 2
      vertex 9.75 12.875 2
    endloop
  endfacet
  facet normal -0 0 1
    outer loop
      vertex 9.75 -12.875 2
      vertex 25.4 -22.225 2
      vertex 11.25 -12.875 2
    endloop
  endfacet
  facet normal -0 0 1
    outer loop
      vertex 0.75 -12.875 2
      vertex 25.4 -22.225 2
      vertex 9.75 -12.875 2
    endloop
  endfacet
  facet normal 0 0 1
    outer loop
      vertex -0.75 -12.875 2
      vertex 0.75 -12.875 2
      vertex -0.75 12.875 2
    endloop
  endfacet
  facet normal -0 0 1
    outer loop
      vertex -0.75 -12.875 2
      vertex 25.4 -22.225 2
      vertex 0.75 -12.875 2
    endloop
  endfacet
  facet normal 0 0 1
    outer loop
      vertex -25.4 -22.225 2
      vertex -0.75 -12.875 2
      vertex -9.75 -12.875 2
    endloop
  endfacet
  facet normal 0 0 1
    outer loop
      vertex -11.25 -12.875 2
      vertex -9.75 -12.875 2
      vertex -11.25 12.875 2
    endloop
  endfacet
  facet normal 0 0 1
    outer loop
      vertex -25.4 -22.225 2
      vertex -9.75 -12.875 2
      vertex -11.25 -12.875 2
    endloop
  endfacet
  facet normal 0 0 1
    outer loop
      vertex -25.4 -22.225 2
      vertex -11.25 -12.875 2
      vertex -20.25 -12.875 2
    endloop
  endfacet
  facet normal 0 0 1
    outer loop
      vertex -21.75 -12.875 2
      vertex -20.25 -12.875 2
      vertex -21.75 12.875 2
    endloop
  endfacet
  facet normal 0 0 1
    outer loop
      vertex -25.4 -22.225 2
      vertex -20.25 -12.875 2
      vertex -21.75 -12.875 2
    endloop
  endfacet
  facet normal 0 0 1
    outer loop
      vertex -25.4 -22.225 2
      vertex -21.75 -12.875 2
      vertex -22.4 -12.875 2
    endloop
  endfacet
  facet normal 0 0 1
    outer loop
      vertex -0.75 -12.875 2
      vertex -25.4 -22.225 2
      vertex 25.4 -22.225 2
    endloop
  endfacet
  facet normal 0 0 1
    outer loop
      vertex -25.4 -22.225 2
      vertex -22.4 -12.875 2
      vertex -25.4 22.225 2
    endloop
  endfacet
  facet normal 0 0 -1
    outer loop
      vertex -25.4 15.875 0
      vertex 25.4 22.225 0
      vertex 25.4 15.875 0
    endloop
  endfacet
  facet normal -0 0 -1
    outer loop
      vertex 25.4 22.225 0
      vertex -25.4 15.875 0
      vertex -25.4 22.225 0
    endloop
  endfacet
  facet normal 0 0 -1
    outer loop
      vertex -25.4 -22.225 0
      vertex 25.4 -15.875 0
      vertex 25.4 -22.225 0
    endloop
  endfacet
  facet normal -0 0 -1
    outer loop
      vertex 25.4 -15.875 0
      vertex -25.4 -22.225 0
      vertex -25.4 -15.875 0
    endloop
  endfacet
  facet normal -1 0 0
    outer loop
      vertex -25.4 15.875 -3
      vertex -25.4 -15.875 -3
      vertex -25.4 15.875 0
    endloop
  endfacet
  facet normal -1 0 0
    outer loop
      vertex -25.4 15.875 0
      vertex -25.4 22.225 2
      vertex -25.4 22.225 0
    endloop
  endfacet
  facet normal -1 0 0
    outer loop
      vertex -25.4 -15.875 0
      vertex -25.4 15.875 0
      vertex -25.4 -15.875 -3
    endloop
  endfacet
  facet normal -1 0 0
    outer loop
      vertex -25.4 15.875 0
      vertex -25.4 -15.875 0
      vertex -25.4 22.225 2
    endloop
  endfacet
  facet normal -1 0 0
    outer loop
      vertex -25.4 -22.225 2
      vertex -25.4 -15.875 0
      vertex -25.4 -22.225 0
    endloop
  endfacet
  facet normal -1 0 0
    outer loop
      vertex -25.4 -15.875 0
      vertex -25.4 -22.225 2
      vertex -25.4 22.225 2
    endloop
  endfacet
  facet normal 0 1 -0
    outer loop
      vertex 25.4 22.225 0
      vertex -25.4 22.225 2
      vertex 25.4 22.225 2
    endloop
  endfacet
  facet normal 0 1 0
    outer loop
      vertex -25.4 22.225 2
      vertex 25.4 22.225 0
      vertex -25.4 22.225 0
    endloop
  endfacet
  facet normal 0 -1 0
    outer loop
      vertex -25.4 -22.225 0
      vertex 25.4 -22.225 2
      vertex -25.4 -22.225 2
    endloop
  endfacet
  facet normal 0 -1 -0
    outer loop
      vertex 25.4 -22.225 2
      vertex -25.4 -22.225 0
      vertex 25.4 -22.225 0
    endloop
  endfacet
  facet normal 0 0 -1
    outer loop
      vertex 25.4 -15.875 -3
      vertex 22.4 -12.875 -3
      vertex 25.4 15.875 -3
    endloop
  endfacet
  facet normal 0 0 -1
    outer loop
      vertex 25.4 -15.875 -3
      vertex 21.75 -12.875 -3
      vertex 22.4 -12.875 -3
    endloop
  endfacet
  facet normal 0 0 -1
    outer loop
      vertex 21.75 -12.875 -3
      vertex 20.25 -12.875 -3
      vertex 21.75 12.875 -3
    endloop
  endfacet
  facet normal 0 0 -1
    outer loop
      vertex 25.4 -15.875 -3
      vertex 20.25 -12.875 -3
      vertex 21.75 -12.875 -3
    endloop
  endfacet
  facet normal 0 0 -1
    outer loop
      vertex 25.4 -15.875 -3
      vertex 11.25 -12.875 -3
      vertex 20.25 -12.875 -3
    endloop
  endfacet
  facet normal 0 0 -1
    outer loop
      vertex 11.25 -12.875 -3
      vertex 9.75 -12.875 -3
      vertex 11.25 12.875 -3
    endloop
  endfacet
  facet normal 0 0 -1
    outer loop
      vertex 25.4 -15.875 -3
      vertex 9.75 -12.875 -3
      vertex 11.25 -12.875 -3
    endloop
  endfacet
  facet normal 0 0 -1
    outer loop
      vertex 25.4 -15.875 -3
      vertex 0.75 -12.875 -3
      vertex 9.75 -12.875 -3
    endloop
  endfacet
  facet normal 0 0 -1
    outer loop
      vertex 0.75 -12.875 -3
      vertex -0.75 -12.875 -3
      vertex 0.75 12.875 -3
    endloop
  endfacet
  facet normal 0 0 -1
    outer loop
      vertex 25.4 -15.875 -3
      vertex -0.75 -12.875 -3
      vertex 0.75 -12.875 -3
    endloop
  endfacet
  facet normal 0 0 -1
    outer loop
      vertex -25.4 -15.875 -3
      vertex -0.75 -12.875 -3
      vertex 25.4 -15.875 -3
    endloop
  endfacet
  facet normal 0 0 -1
    outer loop
      vertex -9.75 -12.875 -3
      vertex -11.25 -12.875 -3
      vertex -9.75 12.875 -3
    endloop
  endfacet
  facet normal -0 0 -1
    outer loop
      vertex -0.75 -12.875 -3
      vertex -25.4 -15.875 -3
      vertex -9.75 -12.875 -3
    endloop
  endfacet
  facet normal -0 0 -1
    outer loop
      vertex -9.75 -12.875 -3
      vertex -25.4 -15.875 -3
      vertex -11.25 -12.875 -3
    endloop
  endfacet
  facet normal 0 0 -1
    outer loop
      vertex -20.25 -12.875 -3
      vertex -21.75 -12.875 -3
      vertex -20.25 12.875 -3
    endloop
  endfacet
  facet normal -0 0 -1
    outer loop
      vertex -11.25 -12.875 -3
      vertex -25.4 -15.875 -3
      vertex -20.25 -12.875 -3
    endloop
  endfacet
  facet normal -0 0 -1
    outer loop
      vertex -20.25 -12.875 -3
      vertex -25.4 -15.875 -3
      vertex -21.75 -12.875 -3
    endloop
  endfacet
  facet normal -0 0 -1
    outer loop
      vertex -22.4 -12.875 -3
      vertex -25.4 -15.875 -3
      vertex -22.4 12.875 -3
    endloop
  endfacet
  facet normal -0 0 -1
    outer loop
      vertex -21.75 -12.875 -3
      vertex -25.4 -15.875 -3
      vertex -22.4 -12.875 -3
    endloop
  endfacet
  facet normal 0 0 -1
    outer loop
      vertex 22.4 12.875 -3
      vertex 25.4 15.875 -3
      vertex 22.4 -12.875 -3
    endloop
  endfacet
  facet normal 0 0 -1
    outer loop
      vertex 21.75 12.875 -3
      vertex 25.4 15.875 -3
      vertex 22.4 12.875 -3
    endloop
  endfacet
  facet normal 0 0 -1
    outer loop
      vertex 20.25 12.875 -3
      vertex 21.75 12.875 -3
      vertex 20.25 -12.875 -3
    endloop
  endfacet
  facet normal 0 0 -1
    outer loop
      vertex 20.25 12.875 -3
      vertex 25.4 15.875 -3
      vertex 21.75 12.875 -3
    endloop
  endfacet
  facet normal 0 0 -1
    outer loop
      vertex 11.25 12.875 -3
      vertex 25.4 15.875 -3
      vertex 20.25 12.875 -3
    endloop
  endfacet
  facet normal 0 0 -1
    outer loop
      vertex 9.75 12.875 -3
      vertex 11.25 12.875 -3
      vertex 9.75 -12.875 -3
    endloop
  endfacet
  facet normal 0 0 -1
    outer loop
      vertex 9.75 12.875 -3
      vertex 25.4 15.875 -3
      vertex 11.25 12.875 -3
    endloop
  endfacet
  facet normal 0 0 -1
    outer loop
      vertex 0.75 12.875 -3
      vertex 25.4 15.875 -3
      vertex 9.75 12.875 -3
    endloop
  endfacet
  facet normal 0 0 -1
    outer loop
      vertex -0.75 12.875 -3
      vertex 0.75 12.875 -3
      vertex -0.75 -12.875 -3
    endloop
  endfacet
  facet normal 0 0 -1
    outer loop
      vertex -0.75 12.875 -3
      vertex 25.4 15.875 -3
      vertex 0.75 12.875 -3
    endloop
  endfacet
  facet normal 0 0 -1
    outer loop
      vertex -25.4 15.875 -3
      vertex -0.75 12.875 -3
      vertex -9.75 12.875 -3
    endloop
  endfacet
  facet normal 0 0 -1
    outer loop
      vertex -11.25 12.875 -3
      vertex -9.75 12.875 -3
      vertex -11.25 -12.875 -3
    endloop
  endfacet
  facet normal 0 0 -1
    outer loop
      vertex -25.4 15.875 -3
      vertex -9.75 12.875 -3
      vertex -11.25 12.875 -3
    endloop
  endfacet
  facet normal 0 0 -1
    outer loop
      vertex -25.4 15.875 -3
      vertex -11.25 12.875 -3
      vertex -20.25 12.875 -3
    endloop
  endfacet
  facet normal 0 0 -1
    outer loop
      vertex -21.75 12.875 -3
      vertex -20.25 12.875 -3
      vertex -21.75 -12.875 -3
    endloop
  endfacet
  facet normal 0 0 -1
    outer loop
      vertex -25.4 15.875 -3
      vertex -20.25 12.875 -3
      vertex -21.75 12.875 -3
    endloop
  endfacet
  facet normal 0 0 -1
    outer loop
      vertex -25.4 15.875 -3
      vertex -21.75 12.875 -3
      vertex -22.4 12.875 -3
    endloop
  endfacet
  facet normal 0 0 -1
    outer loop
      vertex -0.75 12.875 -3
      vertex -25.4 15.875 -3
      vertex 25.4 15.875 -3
    endloop
  endfacet
  facet normal 0 0 -1
    outer loop
      vertex -25.4 15.875 -3
      vertex -22.4 12.875 -3
      vertex -25.4 -15.875 -3
    endloop
  endfacet
  facet normal 0 1 -0
    outer loop
      vertex 25.4 15.875 -3
      vertex -25.4 15.875 0
      vertex 25.4 15.875 0
    endloop
  endfacet
  facet normal 0 1 0
    outer loop
      vertex -25.4 15.875 0
      vertex 25.4 15.875 -3
      vertex -25.4 15.875 -3
    endloop
  endfacet
  facet normal 0 -1 0
    outer loop
      vertex -25.4 -15.875 -3
      vertex 25.4 -15.875 0
      vertex -25.4 -15.875 0
    endloop
  endfacet
  facet normal 0 -1 -0
    outer loop
      vertex 25.4 -15.875 0
      vertex -25.4 -15.875 -3
      vertex 25.4 -15.875 -3
    endloop
  endfacet
  facet normal -1 0 0
    outer loop
      vertex 22.4 -12.875 -3
      vertex 22.4 12.875 2
      vertex 22.4 12.875 -3
    endloop
  endfacet
  facet normal -1 -0 0
    outer loop
      vertex 22.4 12.875 2
      vertex 22.4 -12.875 -3
      vertex 22.4 -12.875 2
    endloop
  endfacet
  facet normal 1 -0 0
    outer loop
      vertex -22.4 -12.875 2
      vertex -22.4 12.875 -3
      vertex -22.4 12.875 2
    endloop
  endfacet
  facet normal 1 0 0
    outer loop
      vertex -22.4 12.875 -3
      vertex -22.4 -12.875 2
      vertex -22.4 -12.875 -3
    endloop
  endfacet
  facet normal 0 -1 0
    outer loop
      vertex -22.4 12.875 -3
      vertex -21.75 12.875 2
      vertex -22.4 12.875 2
    endloop
  endfacet
  facet normal 0 -1 -0
    outer loop
      vertex -21.75 12.875 2
      vertex -22.4 12.875 -3
      vertex -21.75 12.875 -3
    endloop
  endfacet
  facet normal 0 -1 0
    outer loop
      vertex -20.25 12.875 -3
      vertex -11.25 12.875 2
      vertex -20.25 12.875 2
    endloop
  endfacet
  facet normal 0 -1 -0
    outer loop
      vertex -11.25 12.875 2
      vertex -20.25 12.875 -3
      vertex -11.25 12.875 -3
    endloop
  endfacet
  facet normal 0 -1 0
    outer loop
      vertex -9.75 12.875 -3
      vertex -0.75 12.875 2
      vertex -9.75 12.875 2
    endloop
  endfacet
  facet normal 0 -1 -0
    outer loop
      vertex -0.75 12.875 2
      vertex -9.75 12.875 -3
      vertex -0.75 12.875 -3
    endloop
  endfacet
  facet normal 0 -1 0
    outer loop
      vertex 0.75 12.875 -3
      vertex 9.75 12.875 2
      vertex 0.75 12.875 2
    endloop
  endfacet
  facet normal 0 -1 -0
    outer loop
      vertex 9.75 12.875 2
      vertex 0.75 12.875 -3
      vertex 9.75 12.875 -3
    endloop
  endfacet
  facet normal 0 -1 0
    outer loop
      vertex 11.25 12.875 -3
      vertex 20.25 12.875 2
      vertex 11.25 12.875 2
    endloop
  endfacet
  facet normal 0 -1 -0
    outer loop
      vertex 20.25 12.875 2
      vertex 11.25 12.875 -3
      vertex 20.25 12.875 -3
    endloop
  endfacet
  facet normal 0 -1 0
    outer loop
      vertex 21.75 12.875 -3
      vertex 22.4 12.875 2
      vertex 21.75 12.875 2
    endloop
  endfacet
  facet normal 0 -1 -0
    outer loop
      vertex 22.4 12.875 2
      vertex 21.75 12.875 -3
      vertex 22.4 12.875 -3
    endloop
  endfacet
  facet normal 0 1 -0
    outer loop
      vertex -21.75 -12.875 -3
      vertex -22.4 -12.875 2
      vertex -21.75 -12.875 2
    endloop
  endfacet
  facet normal 0 1 0
    outer loop
      vertex -22.4 -12.875 2
      vertex -21.75 -12.875 -3
      vertex -22.4 -12.875 -3
    endloop
  endfacet
  facet normal 0 1 -0
    outer loop
      vertex -11.25 -12.875 -3
      vertex -20.25 -12.875 2
      vertex -11.25 -12.875 2
    endloop
  endfacet
  facet normal 0 1 0
    outer loop
      vertex -20.25 -12.875 2
      vertex -11.25 -12.875 -3
      vertex -20.25 -12.875 -3
    endloop
  endfacet
  facet normal 0 1 -0
    outer loop
      vertex -0.75 -12.875 -3
      vertex -9.75 -12.875 2
      vertex -0.75 -12.875 2
    endloop
  endfacet
  facet normal 0 1 0
    outer loop
      vertex -9.75 -12.875 2
      vertex -0.75 -12.875 -3
      vertex -9.75 -12.875 -3
    endloop
  endfacet
  facet normal 0 1 -0
    outer loop
      vertex 9.75 -12.875 -3
      vertex 0.75 -12.875 2
      vertex 9.75 -12.875 2
    endloop
  endfacet
  facet normal 0 1 0
    outer loop
      vertex 0.75 -12.875 2
      vertex 9.75 -12.875 -3
      vertex 0.75 -12.875 -3
    endloop
  endfacet
  facet normal 0 1 -0
    outer loop
      vertex 20.25 -12.875 -3
      vertex 11.25 -12.875 2
      vertex 20.25 -12.875 2
    endloop
  endfacet
  facet normal 0 1 0
    outer loop
      vertex 11.25 -12.875 2
      vertex 20.25 -12.875 -3
      vertex 11.25 -12.875 -3
    endloop
  endfacet
  facet normal 0 1 -0
    outer loop
      vertex 22.4 -12.875 -3
      vertex 21.75 -12.875 2
      vertex 22.4 -12.875 2
    endloop
  endfacet
  facet normal 0 1 0
    outer loop
      vertex 21.75 -12.875 2
      vertex 22.4 -12.875 -3
      vertex 21.75 -12.875 -3
    endloop
  endfacet
endsolid OpenSCAD_Model
