solid OpenSCAD_Model
  facet normal 0 0 -1
    outer loop
      vertex -159.85 -1.75 0
      vertex -145.1 1.75 0
      vertex -145.1 -1.75 0
    endloop
  endfacet
  facet normal 0 0 -1
    outer loop
      vertex -159.85 -1.75 0
      vertex -159.85 1.75 0
      vertex -145.1 1.75 0
    endloop
  endfacet
  facet normal 0 -0 -1
    outer loop
      vertex -159.85 1.75 0
      vertex -159.85 -1.75 0
      vertex -165.1 0 0
    endloop
  endfacet
  facet normal 0 0 -1
    outer loop
      vertex -145.1 -1.75 0
      vertex -141.6 -1.75 0
      vertex -141.6 -3.25 0
    endloop
  endfacet
  facet normal 0 0 -1
    outer loop
      vertex -141.6 -1.75 0
      vertex -145.1 -1.75 0
      vertex -141.6 1.75 0
    endloop
  endfacet
  facet normal 0 0 -1
    outer loop
      vertex -145.1 41.75 0
      vertex -141.6 41.75 0
      vertex -141.6 3.25 0
    endloop
  endfacet
  facet normal 0 0 -1
    outer loop
      vertex -141.6 1.75 0
      vertex -145.1 1.75 0
      vertex -141.6 3.25 0
    endloop
  endfacet
  facet normal 0 0 -1
    outer loop
      vertex -145.1 -1.75 0
      vertex -141.6 -3.25 0
      vertex -145.1 -3.25 0
    endloop
  endfacet
  facet normal -0 0 -1
    outer loop
      vertex -141.6 1.75 0
      vertex -145.1 -1.75 0
      vertex -145.1 1.75 0
    endloop
  endfacet
  facet normal -0 0 -1
    outer loop
      vertex -141.6 3.25 0
      vertex -145.1 1.75 0
      vertex -145.1 41.75 0
    endloop
  endfacet
  facet normal 0 0 -1
    outer loop
      vertex -141.6 41.75 0
      vertex -145.1 41.75 0
      vertex -143.35 47 0
    endloop
  endfacet
  facet normal 0 0 -1
    outer loop
      vertex -23.5 -1.75 0
      vertex -28 1.75 0
      vertex -23.5 1.75 0
    endloop
  endfacet
  facet normal 0 0 -1
    outer loop
      vertex -31.5 41.75 0
      vertex -28 41.75 0
      vertex -28 1.75 0
    endloop
  endfacet
  facet normal 0 0 -1
    outer loop
      vertex -31.5 41.75 0
      vertex -28 1.75 0
      vertex -31.5 1.75 0
    endloop
  endfacet
  facet normal 0 0 -1
    outer loop
      vertex -23.5 -1.75 0
      vertex -31.5 1.75 0
      vertex -28 1.75 0
    endloop
  endfacet
  facet normal 0 0 -1
    outer loop
      vertex -23.5 -1.75 0
      vertex -133.6 1.75 0
      vertex -31.5 1.75 0
    endloop
  endfacet
  facet normal 0 0 -1
    outer loop
      vertex -137.1 41.75 0
      vertex -133.6 41.75 0
      vertex -133.6 1.75 0
    endloop
  endfacet
  facet normal 0 0 -1
    outer loop
      vertex -137.1 41.75 0
      vertex -133.6 1.75 0
      vertex -137.1 1.75 0
    endloop
  endfacet
  facet normal 0 0 -1
    outer loop
      vertex -141.6 -1.75 0
      vertex -133.6 1.75 0
      vertex -23.5 -1.75 0
    endloop
  endfacet
  facet normal -0 0 -1
    outer loop
      vertex -133.6 1.75 0
      vertex -141.6 -1.75 0
      vertex -137.1 1.75 0
    endloop
  endfacet
  facet normal -0 0 -1
    outer loop
      vertex -137.1 1.75 0
      vertex -141.6 -1.75 0
      vertex -141.6 1.75 0
    endloop
  endfacet
  facet normal 0 0 -1
    outer loop
      vertex -23.5 -1.75 0
      vertex -20 -1.75 0
      vertex -20 -3.25 0
    endloop
  endfacet
  facet normal 0 0 -1
    outer loop
      vertex -20 -1.75 0
      vertex -23.5 -1.75 0
      vertex -20 1.75 0
    endloop
  endfacet
  facet normal 0 0 -1
    outer loop
      vertex -20 1.75 0
      vertex -23.5 1.75 0
      vertex -20 3.25 0
    endloop
  endfacet
  facet normal 0 0 -1
    outer loop
      vertex -23.5 41.75 0
      vertex -20 3.25 0
      vertex -23.5 1.75 0
    endloop
  endfacet
  facet normal 0 0 -1
    outer loop
      vertex -23.5 -1.75 0
      vertex -20 -3.25 0
      vertex -23.5 -3.25 0
    endloop
  endfacet
  facet normal -0 0 -1
    outer loop
      vertex -20 1.75 0
      vertex -23.5 -1.75 0
      vertex -23.5 1.75 0
    endloop
  endfacet
  facet normal 0 0 -1
    outer loop
      vertex -20 3.25 0
      vertex -23.5 41.75 0
      vertex -20 41.75 0
    endloop
  endfacet
  facet normal 0 0 -1
    outer loop
      vertex -20 41.75 0
      vertex -23.5 41.75 0
      vertex -21.75 47 0
    endloop
  endfacet
  facet normal 0 0 -1
    outer loop
      vertex -5.25 -1.75 0
      vertex -5.25 1.75 0
      vertex 0 0 0
    endloop
  endfacet
  facet normal 0 0 -1
    outer loop
      vertex -20 -1.75 0
      vertex -5.25 1.75 0
      vertex -5.25 -1.75 0
    endloop
  endfacet
  facet normal -0 0 -1
    outer loop
      vertex -5.25 1.75 0
      vertex -20 -1.75 0
      vertex -20 1.75 0
    endloop
  endfacet
  facet normal 0 0 -1
    outer loop
      vertex -28 41.75 0
      vertex -31.5 41.75 0
      vertex -29.75 47 0
    endloop
  endfacet
  facet normal 0 0 -1
    outer loop
      vertex -133.6 41.75 0
      vertex -137.1 41.75 0
      vertex -135.35 47 0
    endloop
  endfacet
  facet normal 0 0 1
    outer loop
      vertex -5.25 1.75 20
      vertex -5.25 -1.75 20
      vertex 0 0 20
    endloop
  endfacet
  facet normal -0 0 1
    outer loop
      vertex -20 1.75 20
      vertex -5.25 -1.75 20
      vertex -5.25 1.75 20
    endloop
  endfacet
  facet normal 0 0 1
    outer loop
      vertex -5.25 -1.75 20
      vertex -20 1.75 20
      vertex -20 -1.75 20
    endloop
  endfacet
  facet normal 0 0 1
    outer loop
      vertex -141.6 30.4967 20
      vertex -145.1 3.25 20
      vertex -141.6 3.25 20
    endloop
  endfacet
  facet normal -0 0 1
    outer loop
      vertex -145.1 30.4967 20
      vertex -145.1 3.25 20
      vertex -141.6 30.4967 20
    endloop
  endfacet
  facet normal 0 0 0
    outer loop
      vertex -145.1 1.75 20
      vertex -145.1 3.25 20
      vertex -145.1 30.4967 20
    endloop
  endfacet
  facet normal 0 0 0
    outer loop
      vertex -145.1 3.25 20
      vertex -145.1 1.75 20
      vertex -145.1 -1.75 20
    endloop
  endfacet
  facet normal -0 0 1
    outer loop
      vertex -159.85 1.75 20
      vertex -145.1 -1.75 20
      vertex -145.1 1.75 20
    endloop
  endfacet
  facet normal 0 0 1
    outer loop
      vertex -159.85 1.75 20
      vertex -159.85 -1.75 20
      vertex -145.1 -1.75 20
    endloop
  endfacet
  facet normal 0 -0 1
    outer loop
      vertex -159.85 -1.75 20
      vertex -159.85 1.75 20
      vertex -165.1 0 20
    endloop
  endfacet
  facet normal 0 0 1
    outer loop
      vertex -133.6 30.4967 20
      vertex -137.1 30.4967 20
      vertex -133.6 1.75 20
    endloop
  endfacet
  facet normal 0 0 1
    outer loop
      vertex -28 30.4967 20
      vertex -31.5 30.4967 20
      vertex -28 1.75 20
    endloop
  endfacet
  facet normal -0 0 1
    outer loop
      vertex -23.5 30.4967 20
      vertex -20 3.25 20
      vertex -20 30.4967 20
    endloop
  endfacet
  facet normal 0 0 1
    outer loop
      vertex -20 3.25 20
      vertex -23.5 30.4967 20
      vertex -23.5 3.25 20
    endloop
  endfacet
  facet normal -0 0 1
    outer loop
      vertex -28 1.75 20
      vertex -23.5 -1.75 20
      vertex -23.5 1.75 20
    endloop
  endfacet
  facet normal 0 0 1
    outer loop
      vertex -31.5 1.75 20
      vertex -28 1.75 20
      vertex -31.5 30.4967 20
    endloop
  endfacet
  facet normal -0 0 1
    outer loop
      vertex -31.5 1.75 20
      vertex -23.5 -1.75 20
      vertex -28 1.75 20
    endloop
  endfacet
  facet normal -0 0 1
    outer loop
      vertex -133.6 1.75 20
      vertex -23.5 -1.75 20
      vertex -31.5 1.75 20
    endloop
  endfacet
  facet normal 0 0 1
    outer loop
      vertex -137.1 1.75 20
      vertex -133.6 1.75 20
      vertex -137.1 30.4967 20
    endloop
  endfacet
  facet normal 0 0 1
    outer loop
      vertex -141.6 -1.75 20
      vertex -133.6 1.75 20
      vertex -137.1 1.75 20
    endloop
  endfacet
  facet normal 0 0 1
    outer loop
      vertex -141.6 -1.75 20
      vertex -137.1 1.75 20
      vertex -141.6 1.75 20
    endloop
  endfacet
  facet normal 0 0 1
    outer loop
      vertex -133.6 1.75 20
      vertex -141.6 -1.75 20
      vertex -23.5 -1.75 20
    endloop
  endfacet
  facet normal 0 0 0
    outer loop
      vertex -23.5 3.25 20
      vertex -23.5 30.4967 20
      vertex -23.5 1.75 20
    endloop
  endfacet
  facet normal 0 0 0
    outer loop
      vertex -23.5 -1.75 20
      vertex -23.5 3.25 20
      vertex -23.5 1.75 20
    endloop
  endfacet
  facet normal 0 0 1
    outer loop
      vertex -23.5 41.75 20
      vertex -20 41.75 20
      vertex -21.75 47 20
    endloop
  endfacet
  facet normal 0 0 1
    outer loop
      vertex -20 41.75 20
      vertex -23.5 41.75 20
      vertex -20 39.5033 20
    endloop
  endfacet
  facet normal 0 0 1
    outer loop
      vertex -20 39.5033 20
      vertex -23.5 41.75 20
      vertex -23.5 39.5033 20
    endloop
  endfacet
  facet normal 0 0 1
    outer loop
      vertex -31.5 41.75 20
      vertex -28 41.75 20
      vertex -29.75 47 20
    endloop
  endfacet
  facet normal 0 0 1
    outer loop
      vertex -28 41.75 20
      vertex -31.5 41.75 20
      vertex -28 39.5033 20
    endloop
  endfacet
  facet normal 0 0 1
    outer loop
      vertex -28 39.5033 20
      vertex -31.5 41.75 20
      vertex -31.5 39.5033 20
    endloop
  endfacet
  facet normal 0 0 1
    outer loop
      vertex -145.1 41.75 20
      vertex -141.6 41.75 20
      vertex -143.35 47 20
    endloop
  endfacet
  facet normal 0 0 1
    outer loop
      vertex -141.6 41.75 20
      vertex -145.1 41.75 20
      vertex -141.6 39.5033 20
    endloop
  endfacet
  facet normal 0 0 1
    outer loop
      vertex -141.6 39.5033 20
      vertex -145.1 41.75 20
      vertex -145.1 39.5033 20
    endloop
  endfacet
  facet normal 0 0 1
    outer loop
      vertex -137.1 41.75 20
      vertex -133.6 41.75 20
      vertex -135.35 47 20
    endloop
  endfacet
  facet normal 0 0 1
    outer loop
      vertex -133.6 41.75 20
      vertex -137.1 41.75 20
      vertex -133.6 39.5033 20
    endloop
  endfacet
  facet normal 0 0 1
    outer loop
      vertex -133.6 39.5033 20
      vertex -137.1 41.75 20
      vertex -137.1 39.5033 20
    endloop
  endfacet
  facet normal -0.948683 0.316228 0
    outer loop
      vertex -23.5 41.75 0
      vertex -21.75 47 20
      vertex -21.75 47 0
    endloop
  endfacet
  facet normal -0.948683 0.316228 0
    outer loop
      vertex -21.75 47 20
      vertex -23.5 41.75 0
      vertex -23.5 41.75 20
    endloop
  endfacet
  facet normal -1 0 0
    outer loop
      vertex -23.5 32.3775 7.65769
      vertex -23.5 41.75 20
      vertex -23.5 41.75 0
    endloop
  endfacet
  facet normal -1 -0 0
    outer loop
      vertex -23.5 41.75 20
      vertex -23.5 32.3775 7.65769
      vertex -23.5 39.5033 20
    endloop
  endfacet
  facet normal -1 0 0
    outer loop
      vertex -23.5 1.75 0
      vertex -23.5 32.3775 7.65769
      vertex -23.5 41.75 0
    endloop
  endfacet
  facet normal -1 -0 0
    outer loop
      vertex -23.5 32.3775 7.65769
      vertex -23.5 1.75 0
      vertex -23.5 25.6225 11.5577
    endloop
  endfacet
  facet normal -1 0 0
    outer loop
      vertex -23.5 1.75 20
      vertex -23.5 25.6225 11.5577
      vertex -23.5 1.75 0
    endloop
  endfacet
  facet normal -1 0 0
    outer loop
      vertex -23.5 25.6225 11.5577
      vertex -23.5 1.75 20
      vertex -23.5 30.4967 20
    endloop
  endfacet
  facet normal 0 1 -0
    outer loop
      vertex -5.25 1.75 0
      vertex -20 1.75 20
      vertex -5.25 1.75 20
    endloop
  endfacet
  facet normal 0 1 0
    outer loop
      vertex -20 1.75 20
      vertex -5.25 1.75 0
      vertex -20 1.75 0
    endloop
  endfacet
  facet normal 0 1 -0
    outer loop
      vertex -145.1 1.75 0
      vertex -159.85 1.75 20
      vertex -145.1 1.75 20
    endloop
  endfacet
  facet normal 0 1 0
    outer loop
      vertex -159.85 1.75 20
      vertex -145.1 1.75 0
      vertex -159.85 1.75 0
    endloop
  endfacet
  facet normal 0 1 -0
    outer loop
      vertex -137.1 1.75 0
      vertex -141.6 1.75 20
      vertex -137.1 1.75 20
    endloop
  endfacet
  facet normal 0 1 0
    outer loop
      vertex -141.6 1.75 20
      vertex -137.1 1.75 0
      vertex -141.6 1.75 0
    endloop
  endfacet
  facet normal 0 1 -0
    outer loop
      vertex -23.5 1.75 0
      vertex -28 1.75 20
      vertex -23.5 1.75 20
    endloop
  endfacet
  facet normal 0 1 0
    outer loop
      vertex -28 1.75 20
      vertex -23.5 1.75 0
      vertex -28 1.75 0
    endloop
  endfacet
  facet normal 0 1 -0
    outer loop
      vertex -31.5 1.75 0
      vertex -133.6 1.75 20
      vertex -31.5 1.75 20
    endloop
  endfacet
  facet normal 0 1 0
    outer loop
      vertex -133.6 1.75 20
      vertex -31.5 1.75 0
      vertex -133.6 1.75 0
    endloop
  endfacet
  facet normal 1 0 0
    outer loop
      vertex -20 30.4967 20
      vertex -20 3.25 20
      vertex -20 25.6225 11.5577
    endloop
  endfacet
  facet normal 1 0 0
    outer loop
      vertex -20 32.3775 7.65769
      vertex -20 41.75 20
      vertex -20 39.5033 20
    endloop
  endfacet
  facet normal 1 0 0
    outer loop
      vertex -20 41.75 20
      vertex -20 32.3775 7.65769
      vertex -20 41.75 0
    endloop
  endfacet
  facet normal 1 0 0
    outer loop
      vertex -20 3.25 0
      vertex -20 32.3775 7.65769
      vertex -20 25.6225 11.5577
    endloop
  endfacet
  facet normal 1 0 0
    outer loop
      vertex -20 3.25 0
      vertex -20 25.6225 11.5577
      vertex -20 3.25 20
    endloop
  endfacet
  facet normal 1 0 0
    outer loop
      vertex -20 32.3775 7.65769
      vertex -20 3.25 0
      vertex -20 41.75 0
    endloop
  endfacet
  facet normal 0.948683 0.316228 0
    outer loop
      vertex -20 41.75 20
      vertex -21.75 47 0
      vertex -21.75 47 20
    endloop
  endfacet
  facet normal 0.948683 0.316228 0
    outer loop
      vertex -21.75 47 0
      vertex -20 41.75 20
      vertex -20 41.75 0
    endloop
  endfacet
  facet normal -0.948683 0.316228 0
    outer loop
      vertex -31.5 41.75 0
      vertex -29.75 47 20
      vertex -29.75 47 0
    endloop
  endfacet
  facet normal -0.948683 0.316228 0
    outer loop
      vertex -29.75 47 20
      vertex -31.5 41.75 0
      vertex -31.5 41.75 20
    endloop
  endfacet
  facet normal -1 0 0
    outer loop
      vertex -31.5 32.3775 7.65769
      vertex -31.5 41.75 20
      vertex -31.5 41.75 0
    endloop
  endfacet
  facet normal -1 -0 0
    outer loop
      vertex -31.5 41.75 20
      vertex -31.5 32.3775 7.65769
      vertex -31.5 39.5033 20
    endloop
  endfacet
  facet normal -1 0 0
    outer loop
      vertex -31.5 1.75 0
      vertex -31.5 32.3775 7.65769
      vertex -31.5 41.75 0
    endloop
  endfacet
  facet normal -1 -0 0
    outer loop
      vertex -31.5 32.3775 7.65769
      vertex -31.5 1.75 0
      vertex -31.5 25.6225 11.5577
    endloop
  endfacet
  facet normal -1 0 0
    outer loop
      vertex -31.5 1.75 20
      vertex -31.5 25.6225 11.5577
      vertex -31.5 1.75 0
    endloop
  endfacet
  facet normal -1 0 0
    outer loop
      vertex -31.5 25.6225 11.5577
      vertex -31.5 1.75 20
      vertex -31.5 30.4967 20
    endloop
  endfacet
  facet normal 1 0 0
    outer loop
      vertex -28 30.4967 20
      vertex -28 1.75 20
      vertex -28 25.6225 11.5577
    endloop
  endfacet
  facet normal 1 0 0
    outer loop
      vertex -28 32.3775 7.65769
      vertex -28 41.75 20
      vertex -28 39.5033 20
    endloop
  endfacet
  facet normal 1 0 0
    outer loop
      vertex -28 41.75 20
      vertex -28 32.3775 7.65769
      vertex -28 41.75 0
    endloop
  endfacet
  facet normal 1 0 0
    outer loop
      vertex -28 1.75 0
      vertex -28 32.3775 7.65769
      vertex -28 25.6225 11.5577
    endloop
  endfacet
  facet normal 1 0 0
    outer loop
      vertex -28 1.75 0
      vertex -28 25.6225 11.5577
      vertex -28 1.75 20
    endloop
  endfacet
  facet normal 1 0 0
    outer loop
      vertex -28 32.3775 7.65769
      vertex -28 1.75 0
      vertex -28 41.75 0
    endloop
  endfacet
  facet normal 0.948683 0.316228 0
    outer loop
      vertex -28 41.75 20
      vertex -29.75 47 0
      vertex -29.75 47 20
    endloop
  endfacet
  facet normal 0.948683 0.316228 0
    outer loop
      vertex -29.75 47 0
      vertex -28 41.75 20
      vertex -28 41.75 0
    endloop
  endfacet
  facet normal 0.948683 0.316228 0
    outer loop
      vertex -141.6 41.75 20
      vertex -143.35 47 0
      vertex -143.35 47 20
    endloop
  endfacet
  facet normal 0.948683 0.316228 0
    outer loop
      vertex -143.35 47 0
      vertex -141.6 41.75 20
      vertex -141.6 41.75 0
    endloop
  endfacet
  facet normal 1 0 0
    outer loop
      vertex -141.6 30.4967 20
      vertex -141.6 3.25 20
      vertex -141.6 25.6225 11.5577
    endloop
  endfacet
  facet normal 1 0 0
    outer loop
      vertex -141.6 32.3775 7.65769
      vertex -141.6 41.75 20
      vertex -141.6 39.5033 20
    endloop
  endfacet
  facet normal 1 0 0
    outer loop
      vertex -141.6 41.75 20
      vertex -141.6 32.3775 7.65769
      vertex -141.6 41.75 0
    endloop
  endfacet
  facet normal 1 0 0
    outer loop
      vertex -141.6 3.25 0
      vertex -141.6 32.3775 7.65769
      vertex -141.6 25.6225 11.5577
    endloop
  endfacet
  facet normal 1 0 0
    outer loop
      vertex -141.6 3.25 0
      vertex -141.6 25.6225 11.5577
      vertex -141.6 3.25 20
    endloop
  endfacet
  facet normal 1 0 0
    outer loop
      vertex -141.6 32.3775 7.65769
      vertex -141.6 3.25 0
      vertex -141.6 41.75 0
    endloop
  endfacet
  facet normal -1 0 0
    outer loop
      vertex -145.1 32.3775 7.65769
      vertex -145.1 41.75 20
      vertex -145.1 41.75 0
    endloop
  endfacet
  facet normal -1 -0 0
    outer loop
      vertex -145.1 41.75 20
      vertex -145.1 32.3775 7.65769
      vertex -145.1 39.5033 20
    endloop
  endfacet
  facet normal -1 0 0
    outer loop
      vertex -145.1 1.75 0
      vertex -145.1 32.3775 7.65769
      vertex -145.1 41.75 0
    endloop
  endfacet
  facet normal -1 -0 0
    outer loop
      vertex -145.1 32.3775 7.65769
      vertex -145.1 1.75 0
      vertex -145.1 25.6225 11.5577
    endloop
  endfacet
  facet normal -1 0 0
    outer loop
      vertex -145.1 1.75 20
      vertex -145.1 25.6225 11.5577
      vertex -145.1 1.75 0
    endloop
  endfacet
  facet normal -1 0 0
    outer loop
      vertex -145.1 25.6225 11.5577
      vertex -145.1 1.75 20
      vertex -145.1 30.4967 20
    endloop
  endfacet
  facet normal -0.948683 0.316228 0
    outer loop
      vertex -145.1 41.75 0
      vertex -143.35 47 20
      vertex -143.35 47 0
    endloop
  endfacet
  facet normal -0.948683 0.316228 0
    outer loop
      vertex -143.35 47 20
      vertex -145.1 41.75 0
      vertex -145.1 41.75 20
    endloop
  endfacet
  facet normal 0.948683 0.316228 0
    outer loop
      vertex -133.6 41.75 20
      vertex -135.35 47 0
      vertex -135.35 47 20
    endloop
  endfacet
  facet normal 0.948683 0.316228 0
    outer loop
      vertex -135.35 47 0
      vertex -133.6 41.75 20
      vertex -133.6 41.75 0
    endloop
  endfacet
  facet normal 1 0 0
    outer loop
      vertex -133.6 30.4967 20
      vertex -133.6 1.75 20
      vertex -133.6 25.6225 11.5577
    endloop
  endfacet
  facet normal 1 0 0
    outer loop
      vertex -133.6 32.3775 7.65769
      vertex -133.6 41.75 20
      vertex -133.6 39.5033 20
    endloop
  endfacet
  facet normal 1 0 0
    outer loop
      vertex -133.6 41.75 20
      vertex -133.6 32.3775 7.65769
      vertex -133.6 41.75 0
    endloop
  endfacet
  facet normal 1 0 0
    outer loop
      vertex -133.6 1.75 0
      vertex -133.6 32.3775 7.65769
      vertex -133.6 25.6225 11.5577
    endloop
  endfacet
  facet normal 1 0 0
    outer loop
      vertex -133.6 1.75 0
      vertex -133.6 25.6225 11.5577
      vertex -133.6 1.75 20
    endloop
  endfacet
  facet normal 1 0 0
    outer loop
      vertex -133.6 32.3775 7.65769
      vertex -133.6 1.75 0
      vertex -133.6 41.75 0
    endloop
  endfacet
  facet normal -1 0 0
    outer loop
      vertex -137.1 32.3775 7.65769
      vertex -137.1 41.75 20
      vertex -137.1 41.75 0
    endloop
  endfacet
  facet normal -1 -0 0
    outer loop
      vertex -137.1 41.75 20
      vertex -137.1 32.3775 7.65769
      vertex -137.1 39.5033 20
    endloop
  endfacet
  facet normal -1 0 0
    outer loop
      vertex -137.1 1.75 0
      vertex -137.1 32.3775 7.65769
      vertex -137.1 41.75 0
    endloop
  endfacet
  facet normal -1 -0 0
    outer loop
      vertex -137.1 32.3775 7.65769
      vertex -137.1 1.75 0
      vertex -137.1 25.6225 11.5577
    endloop
  endfacet
  facet normal -1 0 0
    outer loop
      vertex -137.1 1.75 20
      vertex -137.1 25.6225 11.5577
      vertex -137.1 1.75 0
    endloop
  endfacet
  facet normal -1 0 0
    outer loop
      vertex -137.1 25.6225 11.5577
      vertex -137.1 1.75 20
      vertex -137.1 30.4967 20
    endloop
  endfacet
  facet normal -0.948683 0.316228 0
    outer loop
      vertex -137.1 41.75 0
      vertex -135.35 47 20
      vertex -135.35 47 0
    endloop
  endfacet
  facet normal -0.948683 0.316228 0
    outer loop
      vertex -135.35 47 20
      vertex -137.1 41.75 0
      vertex -137.1 41.75 20
    endloop
  endfacet
  facet normal -0.316228 0.948683 0
    outer loop
      vertex -159.85 1.75 0
      vertex -165.1 0 20
      vertex -159.85 1.75 20
    endloop
  endfacet
  facet normal -0.316228 0.948683 0
    outer loop
      vertex -165.1 0 20
      vertex -159.85 1.75 0
      vertex -165.1 0 0
    endloop
  endfacet
  facet normal 0.316228 -0.948683 0
    outer loop
      vertex -5.25 -1.75 0
      vertex 0 0 20
      vertex -5.25 -1.75 20
    endloop
  endfacet
  facet normal 0.316228 -0.948683 0
    outer loop
      vertex 0 0 20
      vertex -5.25 -1.75 0
      vertex 0 0 0
    endloop
  endfacet
  facet normal -0.316228 -0.948683 0
    outer loop
      vertex -165.1 0 0
      vertex -159.85 -1.75 20
      vertex -165.1 0 20
    endloop
  endfacet
  facet normal -0.316228 -0.948683 -0
    outer loop
      vertex -159.85 -1.75 20
      vertex -165.1 0 0
      vertex -159.85 -1.75 0
    endloop
  endfacet
  facet normal 0 -1 0
    outer loop
      vertex -159.85 -1.75 0
      vertex -145.1 -1.75 20
      vertex -159.85 -1.75 20
    endloop
  endfacet
  facet normal 0 -1 -0
    outer loop
      vertex -145.1 -1.75 20
      vertex -159.85 -1.75 0
      vertex -145.1 -1.75 0
    endloop
  endfacet
  facet normal 0 -1 0
    outer loop
      vertex -20 -1.75 0
      vertex -5.25 -1.75 20
      vertex -20 -1.75 20
    endloop
  endfacet
  facet normal 0 -1 -0
    outer loop
      vertex -5.25 -1.75 20
      vertex -20 -1.75 0
      vertex -5.25 -1.75 0
    endloop
  endfacet
  facet normal 0 -1 0
    outer loop
      vertex -141.6 -1.75 0
      vertex -23.5 -1.75 20
      vertex -141.6 -1.75 20
    endloop
  endfacet
  facet normal 0 -1 -0
    outer loop
      vertex -23.5 -1.75 20
      vertex -141.6 -1.75 0
      vertex -23.5 -1.75 0
    endloop
  endfacet
  facet normal 0.316228 0.948683 -0
    outer loop
      vertex 0 0 0
      vertex -5.25 1.75 20
      vertex 0 0 20
    endloop
  endfacet
  facet normal 0.316228 0.948683 0
    outer loop
      vertex -5.25 1.75 20
      vertex 0 0 0
      vertex -5.25 1.75 0
    endloop
  endfacet
  facet normal -0 0 1
    outer loop
      vertex -23.5 3.25 21.5
      vertex -20 -3.25 21.5
      vertex -20 3.25 21.5
    endloop
  endfacet
  facet normal 0 0 1
    outer loop
      vertex -20 -3.25 21.5
      vertex -23.5 3.25 21.5
      vertex -23.5 -3.25 21.5
    endloop
  endfacet
  facet normal -0 0 1
    outer loop
      vertex -145.1 3.25 21.5
      vertex -141.6 -3.25 21.5
      vertex -141.6 3.25 21.5
    endloop
  endfacet
  facet normal 0 0 1
    outer loop
      vertex -141.6 -3.25 21.5
      vertex -145.1 3.25 21.5
      vertex -145.1 -3.25 21.5
    endloop
  endfacet
  facet normal 0 1 -0
    outer loop
      vertex -20 3.25 20
      vertex -23.5 3.25 21.5
      vertex -20 3.25 21.5
    endloop
  endfacet
  facet normal 0 1 0
    outer loop
      vertex -23.5 3.25 21.5
      vertex -20 3.25 20
      vertex -23.5 3.25 20
    endloop
  endfacet
  facet normal 0 0 0
    outer loop
      vertex -20 3.25 21.5
      vertex -20 3.25 0
      vertex -20 3.25 20
    endloop
  endfacet
  facet normal -1 0 0
    outer loop
      vertex -23.5 -1.75 0
      vertex -23.5 -3.25 0
      vertex -23.5 -1.75 20
    endloop
  endfacet
  facet normal -1 0 0
    outer loop
      vertex -23.5 -1.75 20
      vertex -23.5 3.25 21.5
      vertex -23.5 3.25 20
    endloop
  endfacet
  facet normal -1 0 0
    outer loop
      vertex -23.5 -1.75 20
      vertex -23.5 -3.25 21.5
      vertex -23.5 3.25 21.5
    endloop
  endfacet
  facet normal -1 0 0
    outer loop
      vertex -23.5 -3.25 21.5
      vertex -23.5 -1.75 20
      vertex -23.5 -3.25 0
    endloop
  endfacet
  facet normal 0 -1 0
    outer loop
      vertex -23.5 -3.25 0
      vertex -20 -3.25 21.5
      vertex -23.5 -3.25 21.5
    endloop
  endfacet
  facet normal 0 -1 -0
    outer loop
      vertex -20 -3.25 21.5
      vertex -23.5 -3.25 0
      vertex -20 -3.25 0
    endloop
  endfacet
  facet normal 1 0 0
    outer loop
      vertex -20 3.25 21.5
      vertex -20 1.75 20
      vertex -20 3.25 0
    endloop
  endfacet
  facet normal 1 0 0
    outer loop
      vertex -20 3.25 21.5
      vertex -20 -1.75 20
      vertex -20 1.75 20
    endloop
  endfacet
  facet normal 1 -0 0
    outer loop
      vertex -20 -3.25 21.5
      vertex -20 -1.75 20
      vertex -20 3.25 21.5
    endloop
  endfacet
  facet normal 1 0 0
    outer loop
      vertex -20 -3.25 0
      vertex -20 -1.75 20
      vertex -20 -3.25 21.5
    endloop
  endfacet
  facet normal 1 0 0
    outer loop
      vertex -20 -1.75 20
      vertex -20 -3.25 0
      vertex -20 -1.75 0
    endloop
  endfacet
  facet normal 1 0 0
    outer loop
      vertex -20 3.25 0
      vertex -20 1.75 20
      vertex -20 1.75 0
    endloop
  endfacet
  facet normal 0 1 0
    outer loop
      vertex -141.6 3.25 21.5
      vertex -141.6 3.25 20
      vertex -145.1 3.25 21.5
    endloop
  endfacet
  facet normal 0 0 0
    outer loop
      vertex -141.6 3.25 0
      vertex -141.6 3.25 20
      vertex -141.6 3.25 21.5
    endloop
  endfacet
  facet normal 0 1 0
    outer loop
      vertex -145.1 3.25 21.5
      vertex -141.6 3.25 20
      vertex -145.1 3.25 20
    endloop
  endfacet
  facet normal -1 0 0
    outer loop
      vertex -145.1 -1.75 0
      vertex -145.1 -3.25 0
      vertex -145.1 -1.75 20
    endloop
  endfacet
  facet normal -1 0 0
    outer loop
      vertex -145.1 -1.75 20
      vertex -145.1 3.25 21.5
      vertex -145.1 3.25 20
    endloop
  endfacet
  facet normal -1 0 0
    outer loop
      vertex -145.1 -1.75 20
      vertex -145.1 -3.25 21.5
      vertex -145.1 3.25 21.5
    endloop
  endfacet
  facet normal -1 0 0
    outer loop
      vertex -145.1 -3.25 21.5
      vertex -145.1 -1.75 20
      vertex -145.1 -3.25 0
    endloop
  endfacet
  facet normal 0 -1 0
    outer loop
      vertex -145.1 -3.25 0
      vertex -141.6 -3.25 21.5
      vertex -145.1 -3.25 21.5
    endloop
  endfacet
  facet normal 0 -1 -0
    outer loop
      vertex -141.6 -3.25 21.5
      vertex -145.1 -3.25 0
      vertex -141.6 -3.25 0
    endloop
  endfacet
  facet normal 1 0 0
    outer loop
      vertex -141.6 3.25 21.5
      vertex -141.6 1.75 20
      vertex -141.6 3.25 0
    endloop
  endfacet
  facet normal 1 0 0
    outer loop
      vertex -141.6 3.25 21.5
      vertex -141.6 -1.75 20
      vertex -141.6 1.75 20
    endloop
  endfacet
  facet normal 1 -0 0
    outer loop
      vertex -141.6 -3.25 21.5
      vertex -141.6 -1.75 20
      vertex -141.6 3.25 21.5
    endloop
  endfacet
  facet normal 1 0 0
    outer loop
      vertex -141.6 -3.25 0
      vertex -141.6 -1.75 20
      vertex -141.6 -3.25 21.5
    endloop
  endfacet
  facet normal 1 0 0
    outer loop
      vertex -141.6 -1.75 20
      vertex -141.6 -3.25 0
      vertex -141.6 -1.75 0
    endloop
  endfacet
  facet normal 1 0 0
    outer loop
      vertex -141.6 3.25 0
      vertex -141.6 1.75 20
      vertex -141.6 1.75 0
    endloop
  endfacet
  facet normal -0 0.500001 0.866025
    outer loop
      vertex -145.1 32.3775 7.65769
      vertex -141.6 25.6225 11.5577
      vertex -141.6 32.3775 7.65769
    endloop
  endfacet
  facet normal 0 0.500001 0.866025
    outer loop
      vertex -141.6 25.6225 11.5577
      vertex -145.1 32.3775 7.65769
      vertex -145.1 25.6225 11.5577
    endloop
  endfacet
  facet normal -0 0.500001 0.866025
    outer loop
      vertex -137.1 32.3775 7.65769
      vertex -133.6 25.6225 11.5577
      vertex -133.6 32.3775 7.65769
    endloop
  endfacet
  facet normal 0 0.500001 0.866025
    outer loop
      vertex -133.6 25.6225 11.5577
      vertex -137.1 32.3775 7.65769
      vertex -137.1 25.6225 11.5577
    endloop
  endfacet
  facet normal -0 0.500001 0.866025
    outer loop
      vertex -31.5 32.3775 7.65769
      vertex -28 25.6225 11.5577
      vertex -28 32.3775 7.65769
    endloop
  endfacet
  facet normal 0 0.500001 0.866025
    outer loop
      vertex -28 25.6225 11.5577
      vertex -31.5 32.3775 7.65769
      vertex -31.5 25.6225 11.5577
    endloop
  endfacet
  facet normal -0 0.500001 0.866025
    outer loop
      vertex -23.5 32.3775 7.65769
      vertex -20 25.6225 11.5577
      vertex -20 32.3775 7.65769
    endloop
  endfacet
  facet normal 0 0.500001 0.866025
    outer loop
      vertex -20 25.6225 11.5577
      vertex -23.5 32.3775 7.65769
      vertex -23.5 25.6225 11.5577
    endloop
  endfacet
  facet normal 0 -0.866026 0.499998
    outer loop
      vertex -145.1 32.3775 7.65769
      vertex -141.6 39.5033 20
      vertex -145.1 39.5033 20
    endloop
  endfacet
  facet normal 0 -0.866026 0.499998
    outer loop
      vertex -141.6 39.5033 20
      vertex -145.1 32.3775 7.65769
      vertex -141.6 32.3775 7.65769
    endloop
  endfacet
  facet normal 0 -0.866026 0.499998
    outer loop
      vertex -137.1 32.3775 7.65769
      vertex -133.6 39.5033 20
      vertex -137.1 39.5033 20
    endloop
  endfacet
  facet normal 0 -0.866026 0.499998
    outer loop
      vertex -133.6 39.5033 20
      vertex -137.1 32.3775 7.65769
      vertex -133.6 32.3775 7.65769
    endloop
  endfacet
  facet normal 0 -0.866026 0.499998
    outer loop
      vertex -31.5 32.3775 7.65769
      vertex -28 39.5033 20
      vertex -31.5 39.5033 20
    endloop
  endfacet
  facet normal 0 -0.866026 0.499998
    outer loop
      vertex -28 39.5033 20
      vertex -31.5 32.3775 7.65769
      vertex -28 32.3775 7.65769
    endloop
  endfacet
  facet normal 0 -0.866026 0.499998
    outer loop
      vertex -23.5 32.3775 7.65769
      vertex -20 39.5033 20
      vertex -23.5 39.5033 20
    endloop
  endfacet
  facet normal 0 -0.866026 0.499998
    outer loop
      vertex -20 39.5033 20
      vertex -23.5 32.3775 7.65769
      vertex -20 32.3775 7.65769
    endloop
  endfacet
  facet normal 0 0.866024 -0.500003
    outer loop
      vertex -141.6 25.6225 11.5577
      vertex -145.1 30.4967 20
      vertex -141.6 30.4967 20
    endloop
  endfacet
  facet normal 0 0.866024 -0.500003
    outer loop
      vertex -145.1 30.4967 20
      vertex -141.6 25.6225 11.5577
      vertex -145.1 25.6225 11.5577
    endloop
  endfacet
  facet normal 0 0.866024 -0.500003
    outer loop
      vertex -133.6 25.6225 11.5577
      vertex -137.1 30.4967 20
      vertex -133.6 30.4967 20
    endloop
  endfacet
  facet normal 0 0.866024 -0.500003
    outer loop
      vertex -137.1 30.4967 20
      vertex -133.6 25.6225 11.5577
      vertex -137.1 25.6225 11.5577
    endloop
  endfacet
  facet normal 0 0.866024 -0.500003
    outer loop
      vertex -28 25.6225 11.5577
      vertex -31.5 30.4967 20
      vertex -28 30.4967 20
    endloop
  endfacet
  facet normal 0 0.866024 -0.500003
    outer loop
      vertex -31.5 30.4967 20
      vertex -28 25.6225 11.5577
      vertex -31.5 25.6225 11.5577
    endloop
  endfacet
  facet normal 0 0.866024 -0.500003
    outer loop
      vertex -20 25.6225 11.5577
      vertex -23.5 30.4967 20
      vertex -20 30.4967 20
    endloop
  endfacet
  facet normal 0 0.866024 -0.500003
    outer loop
      vertex -23.5 30.4967 20
      vertex -20 25.6225 11.5577
      vertex -23.5 25.6225 11.5577
    endloop
  endfacet
endsolid OpenSCAD_Model
