solid OpenSCAD_Model
  facet normal 0 0.707107 0.707107
    outer loop
      vertex 3.22182 -0.707107 0
      vertex 9.03099 -10 9.29289
      vertex 20.1585 -10 9.29289
    endloop
  endfacet
  facet normal 0 0.707107 0.707107
    outer loop
      vertex 9.03099 -10 9.29289
      vertex 3.22182 -0.707107 0
      vertex 1.44338 -0.707107 0
    endloop
  endfacet
  facet normal -0 -0.707107 -0.707107
    outer loop
      vertex 3.22182 0 0.707107
      vertex 9.03099 -9.29289 10
      vertex 1.44338 0 0.707107
    endloop
  endfacet
  facet normal 0 -0.707107 -0.707107
    outer loop
      vertex 9.03099 -9.29289 10
      vertex 3.22182 0 0.707107
      vertex 20.1585 -9.29289 10
    endloop
  endfacet
  facet normal -0.613047 -0.558647 0.558647
    outer loop
      vertex 3.22182 -0.707107 0
      vertex 3.22182 0 0.707107
      vertex 2.57746 0 0
    endloop
  endfacet
  facet normal -0.613044 -0.558649 0.558649
    outer loop
      vertex 3.22182 -0.707107 0
      vertex 20.1585 -9.29289 10
      vertex 3.22182 0 0.707107
    endloop
  endfacet
  facet normal -0.613044 -0.558649 0.558649
    outer loop
      vertex 20.1585 -10 9.29289
      vertex 20.1585 -9.29289 10
      vertex 3.22182 -0.707107 0
    endloop
  endfacet
  facet normal -0.613085 -0.558627 0.558627
    outer loop
      vertex 20.1585 -9.29289 10
      vertex 20.1585 -10 9.29289
      vertex 20.8028 -10 10
    endloop
  endfacet
  facet normal 0.866022 0.353558 -0.353558
    outer loop
      vertex 1.44338 0 0.707107
      vertex 1.44338 -0.707107 0
      vertex 1.1547 0 0
    endloop
  endfacet
  facet normal 0.866026 0.353553 -0.353553
    outer loop
      vertex 9.03099 -9.29289 10
      vertex 1.44338 -0.707107 0
      vertex 1.44338 0 0.707107
    endloop
  endfacet
  facet normal 0.866023 0.353557 -0.353557
    outer loop
      vertex 9.03099 -10 9.29289
      vertex 9.03099 -9.29289 10
      vertex 9.31967 -10 10
    endloop
  endfacet
  facet normal 0.866026 0.353553 -0.353553
    outer loop
      vertex 9.03099 -9.29289 10
      vertex 9.03099 -10 9.29289
      vertex 1.44338 -0.707107 0
    endloop
  endfacet
  facet normal 1 -0 0
    outer loop
      vertex 37.5 -10 10
      vertex 37.5 0 0
      vertex 37.5 0 10
    endloop
  endfacet
  facet normal 1 0 0
    outer loop
      vertex 37.5 0 0
      vertex 37.5 -10 10
      vertex 37.5 -10 0
    endloop
  endfacet
  facet normal -0 0 1
    outer loop
      vertex -12.5 0 10
      vertex -0.5 -10 10
      vertex -0.5 0 10
    endloop
  endfacet
  facet normal 0 0 1
    outer loop
      vertex -0.5 -10 10
      vertex -12.5 0 10
      vertex -12.5 -10 10
    endloop
  endfacet
  facet normal 0 0 1
    outer loop
      vertex 37.5 0 10
      vertex 20.8028 -10 10
      vertex 37.5 -10 10
    endloop
  endfacet
  facet normal 0 0 1
    outer loop
      vertex 37.5 0 10
      vertex 20.1585 -9.29289 10
      vertex 20.8028 -10 10
    endloop
  endfacet
  facet normal -0 0 1
    outer loop
      vertex 0.5 0 10
      vertex 20.1585 -9.29289 10
      vertex 37.5 0 10
    endloop
  endfacet
  facet normal 0 0 1
    outer loop
      vertex 20.1585 -9.29289 10
      vertex 0.5 0 10
      vertex 9.03099 -9.29289 10
    endloop
  endfacet
  facet normal 0 0 1
    outer loop
      vertex 0.5 -10 10
      vertex 9.03099 -9.29289 10
      vertex 0.5 0 10
    endloop
  endfacet
  facet normal 0 0 1
    outer loop
      vertex 9.03099 -9.29289 10
      vertex 0.5 -10 10
      vertex 9.31967 -10 10
    endloop
  endfacet
  facet normal 0 0 -1
    outer loop
      vertex -12.5 -10 0
      vertex -0.5 -9.5 0
      vertex -0.5 -10 0
    endloop
  endfacet
  facet normal -0 0 -1
    outer loop
      vertex -0.5 -9.5 0
      vertex -12.5 -10 0
      vertex -0.5 -0.5 0
    endloop
  endfacet
  facet normal 0 0 -1
    outer loop
      vertex -12.5 0 0
      vertex -0.5 -0.5 0
      vertex -12.5 -10 0
    endloop
  endfacet
  facet normal 0 0 -1
    outer loop
      vertex -0.5 -0.5 0
      vertex -12.5 0 0
      vertex -0.5 0 0
    endloop
  endfacet
  facet normal 0 0 -1
    outer loop
      vertex -0.5 -9.5 0
      vertex 0.5 -0.5 0
      vertex 0.5 -9.5 0
    endloop
  endfacet
  facet normal -0 0 -1
    outer loop
      vertex 0.5 -0.5 0
      vertex -0.5 -9.5 0
      vertex -0.5 -0.5 0
    endloop
  endfacet
  facet normal 0 0 -1
    outer loop
      vertex 37.5 -10 0
      vertex 3.22182 -0.707107 0
      vertex 37.5 0 0
    endloop
  endfacet
  facet normal 0 0 -1
    outer loop
      vertex 0.5 -10 0
      vertex 3.22182 -0.707107 0
      vertex 37.5 -10 0
    endloop
  endfacet
  facet normal 0 0 -1
    outer loop
      vertex 3.22182 -0.707107 0
      vertex 0.5 -10 0
      vertex 0.5 -9.5 0
    endloop
  endfacet
  facet normal -0 0 -1
    outer loop
      vertex 3.22182 -0.707107 0
      vertex 0.5 -9.5 0
      vertex 1.44338 -0.707107 0
    endloop
  endfacet
  facet normal 0 0 -1
    outer loop
      vertex 0.5 -0.5 0
      vertex 1.44338 -0.707107 0
      vertex 0.5 -9.5 0
    endloop
  endfacet
  facet normal 0 0 -1
    outer loop
      vertex 1.44338 -0.707107 0
      vertex 0.5 -0.5 0
      vertex 1.1547 0 0
    endloop
  endfacet
  facet normal -0 0 -1
    outer loop
      vertex 1.1547 0 0
      vertex 0.5 -0.5 0
      vertex 0.5 0 0
    endloop
  endfacet
  facet normal -0 0 -1
    outer loop
      vertex 37.5 0 0
      vertex 3.22182 -0.707107 0
      vertex 2.57746 0 0
    endloop
  endfacet
  facet normal -1 0 0
    outer loop
      vertex -12.5 -10 0
      vertex -12.5 0 10
      vertex -12.5 0 0
    endloop
  endfacet
  facet normal -1 -0 0
    outer loop
      vertex -12.5 0 10
      vertex -12.5 -10 0
      vertex -12.5 -10 10
    endloop
  endfacet
  facet normal 0 1 -0
    outer loop
      vertex -0.5 0 0
      vertex -12.5 0 10
      vertex -0.5 0 10
    endloop
  endfacet
  facet normal 0 1 0
    outer loop
      vertex -12.5 0 10
      vertex -0.5 0 0
      vertex -12.5 0 0
    endloop
  endfacet
  facet normal 0 1 0
    outer loop
      vertex 37.5 0 10
      vertex 3.22182 0 0.707107
      vertex 0.5 0 10
    endloop
  endfacet
  facet normal 0 1 -0
    outer loop
      vertex 37.5 0 0
      vertex 3.22182 0 0.707107
      vertex 37.5 0 10
    endloop
  endfacet
  facet normal 0 1 0
    outer loop
      vertex 3.22182 0 0.707107
      vertex 37.5 0 0
      vertex 2.57746 0 0
    endloop
  endfacet
  facet normal 0 1 -0
    outer loop
      vertex 1.44338 0 0.707107
      vertex 0.5 0 10
      vertex 3.22182 0 0.707107
    endloop
  endfacet
  facet normal 0 1 0
    outer loop
      vertex 0.5 0 0
      vertex 1.44338 0 0.707107
      vertex 1.1547 0 0
    endloop
  endfacet
  facet normal 0 1 0
    outer loop
      vertex 1.44338 0 0.707107
      vertex 0.5 0 0
      vertex 0.5 0 10
    endloop
  endfacet
  facet normal 0 -1 0
    outer loop
      vertex -12.5 -10 0
      vertex -0.5 -10 10
      vertex -12.5 -10 10
    endloop
  endfacet
  facet normal 0 -1 -0
    outer loop
      vertex -0.5 -10 10
      vertex -12.5 -10 0
      vertex -0.5 -10 0
    endloop
  endfacet
  facet normal 0 -1 0
    outer loop
      vertex 0.5 -10 10
      vertex 9.03099 -10 9.29289
      vertex 9.31967 -10 10
    endloop
  endfacet
  facet normal 0 -1 -0
    outer loop
      vertex 9.03099 -10 9.29289
      vertex 0.5 -10 0
      vertex 20.1585 -10 9.29289
    endloop
  endfacet
  facet normal 0 -1 0
    outer loop
      vertex 0.5 -10 0
      vertex 9.03099 -10 9.29289
      vertex 0.5 -10 10
    endloop
  endfacet
  facet normal 0 -1 0
    outer loop
      vertex 37.5 -10 0
      vertex 20.8028 -10 10
      vertex 20.1585 -10 9.29289
    endloop
  endfacet
  facet normal 0 -1 0
    outer loop
      vertex 37.5 -10 0
      vertex 20.1585 -10 9.29289
      vertex 0.5 -10 0
    endloop
  endfacet
  facet normal 0 -1 0
    outer loop
      vertex 20.8028 -10 10
      vertex 37.5 -10 0
      vertex 37.5 -10 10
    endloop
  endfacet
  facet normal -1 0 0
    outer loop
      vertex 0.5 -9.5 0
      vertex 0.5 -10 0
      vertex 0.5 -9.5 9.5
    endloop
  endfacet
  facet normal -1 0 0
    outer loop
      vertex 0.5 -0.5 9.5
      vertex 0.5 0 0
      vertex 0.5 -0.5 0
    endloop
  endfacet
  facet normal -1 0 0
    outer loop
      vertex 0.5 0 0
      vertex 0.5 -0.5 9.5
      vertex 0.5 0 10
    endloop
  endfacet
  facet normal -1 0 0
    outer loop
      vertex 0.5 -9.5 9.5
      vertex 0.5 0 10
      vertex 0.5 -0.5 9.5
    endloop
  endfacet
  facet normal -1 0 0
    outer loop
      vertex 0.5 -9.5 9.5
      vertex 0.5 -10 10
      vertex 0.5 0 10
    endloop
  endfacet
  facet normal -1 0 0
    outer loop
      vertex 0.5 -10 10
      vertex 0.5 -9.5 9.5
      vertex 0.5 -10 0
    endloop
  endfacet
  facet normal 1 0 0
    outer loop
      vertex -0.5 0 10
      vertex -0.5 -0.5 9.5
      vertex -0.5 0 0
    endloop
  endfacet
  facet normal 1 0 0
    outer loop
      vertex -0.5 0 10
      vertex -0.5 -9.5 9.5
      vertex -0.5 -0.5 9.5
    endloop
  endfacet
  facet normal 1 -0 0
    outer loop
      vertex -0.5 -10 10
      vertex -0.5 -9.5 9.5
      vertex -0.5 0 10
    endloop
  endfacet
  facet normal 1 0 0
    outer loop
      vertex -0.5 -10 0
      vertex -0.5 -9.5 9.5
      vertex -0.5 -10 10
    endloop
  endfacet
  facet normal 1 0 0
    outer loop
      vertex -0.5 -9.5 9.5
      vertex -0.5 -10 0
      vertex -0.5 -9.5 0
    endloop
  endfacet
  facet normal 1 0 0
    outer loop
      vertex -0.5 0 0
      vertex -0.5 -0.5 9.5
      vertex -0.5 -0.5 0
    endloop
  endfacet
  facet normal 0 1 -0
    outer loop
      vertex 0.5 -0.5 0
      vertex -0.5 -0.5 9.5
      vertex 0.5 -0.5 9.5
    endloop
  endfacet
  facet normal 0 1 0
    outer loop
      vertex -0.5 -0.5 9.5
      vertex 0.5 -0.5 0
      vertex -0.5 -0.5 0
    endloop
  endfacet
  facet normal -0 0 1
    outer loop
      vertex -0.5 -0.5 9.5
      vertex 0.5 -9.5 9.5
      vertex 0.5 -0.5 9.5
    endloop
  endfacet
  facet normal 0 0 1
    outer loop
      vertex 0.5 -9.5 9.5
      vertex -0.5 -0.5 9.5
      vertex -0.5 -9.5 9.5
    endloop
  endfacet
  facet normal 0 -1 0
    outer loop
      vertex -0.5 -9.5 0
      vertex 0.5 -9.5 9.5
      vertex -0.5 -9.5 9.5
    endloop
  endfacet
  facet normal 0 -1 -0
    outer loop
      vertex 0.5 -9.5 9.5
      vertex -0.5 -9.5 0
      vertex 0.5 -9.5 0
    endloop
  endfacet
endsolid OpenSCAD_Model
